<svg width="32" height="32" viewBox="0 0 32 32" fill="none" xmlns="http://www.w3.org/2000/svg">
<path d="M2 7C2.26522 7 2.51957 6.89464 2.70711 6.70711C2.89464 6.51957 3 6.26522 3 6V3H6C6.26522 3 6.51957 2.89464 6.70711 2.70711C6.89464 2.51957 7 2.26522 7 2C7 1.73478 6.89464 1.48043 6.70711 1.29289C6.51957 1.10536 6.26522 1 6 1H2C1.73478 1 1.48043 1.10536 1.29289 1.29289C1.10536 1.48043 1 1.73478 1 2V6C1 6.26522 1.10536 6.51957 1.29289 6.70711C1.48043 6.89464 1.73478 7 2 7Z" fill="black"/>
<path d="M26 3H29V6C29 6.26522 29.1054 6.51957 29.2929 6.70711C29.4804 6.89464 29.7348 7 30 7C30.2652 7 30.5196 6.89464 30.7071 6.70711C30.8946 6.51957 31 6.26522 31 6V2C31 1.73478 30.8946 1.48043 30.7071 1.29289C30.5196 1.10536 30.2652 1 30 1H26C25.7348 1 25.4804 1.10536 25.2929 1.29289C25.1054 1.48043 25 1.73478 25 2C25 2.26522 25.1054 2.51957 25.2929 2.70711C25.4804 2.89464 25.7348 3 26 3Z" fill="black"/>
<path d="M6 29H3V26C3 25.7348 2.89464 25.4804 2.70711 25.2929C2.51957 25.1054 2.26522 25 2 25C1.73478 25 1.48043 25.1054 1.29289 25.2929C1.10536 25.4804 1 25.7348 1 26V30C1 30.2652 1.10536 30.5196 1.29289 30.7071C1.48043 30.8946 1.73478 31 2 31H6C6.26522 31 6.51957 30.8946 6.70711 30.7071C6.89464 30.5196 7 30.2652 7 30C7 29.7348 6.89464 29.4804 6.70711 29.2929C6.51957 29.1054 6.26522 29 6 29Z" fill="black"/>
<path d="M30 25C29.7348 25 29.4804 25.1054 29.2929 25.2929C29.1054 25.4804 29 25.7348 29 26V29H26C25.7348 29 25.4804 29.1054 25.2929 29.2929C25.1054 29.4804 25 29.7348 25 30C25 30.2652 25.1054 30.5196 25.2929 30.7071C25.4804 30.8946 25.7348 31 26 31H30C30.2652 31 30.5196 30.8946 30.7071 30.7071C30.8946 30.5196 31 30.2652 31 30V26C31 25.7348 30.8946 25.4804 30.7071 25.2929C30.5196 25.1054 30.2652 25 30 25Z" fill="black"/>
<path d="M30.8901 16.46C30.9638 16.3178 31.0022 16.1601 31.0022 16C31.0022 15.8399 30.9638 15.6822 30.8901 15.54C29.5222 12.7369 27.4095 10.3641 24.7832 8.6815C22.157 6.99886 19.1184 6.07117 16.0001 6C12.8819 6.07117 9.8433 6.99886 7.21703 8.6815C4.59076 10.3641 2.47804 12.7369 1.11013 15.54C1.03648 15.6822 0.998047 15.8399 0.998047 16C0.998047 16.1601 1.03648 16.3178 1.11013 16.46C2.47804 19.2631 4.59076 21.6359 7.21703 23.3185C9.8433 25.0011 12.8819 25.9288 16.0001 26C19.1184 25.9288 22.157 25.0011 24.7832 23.3185C27.4095 21.6359 29.5222 19.2631 30.8901 16.46ZM16.0001 24C13.3381 23.9336 10.7423 23.1569 8.48127 21.7503C6.22025 20.3438 4.37624 18.3585 3.14013 16C4.37624 13.6415 6.22025 11.6562 8.48127 10.2497C10.7423 8.84311 13.3381 8.06643 16.0001 8C18.6621 8.06643 21.258 8.84311 23.519 10.2497C25.78 11.6562 27.624 13.6415 28.8601 16C27.624 18.3585 25.78 20.3438 23.519 21.7503C21.258 23.1569 18.6621 23.9336 16.0001 24Z" fill="black"/>
<path d="M16 10C14.8133 10 13.6533 10.3519 12.6666 11.0112C11.6799 11.6705 10.9109 12.6075 10.4567 13.7039C10.0026 14.8003 9.88378 16.0067 10.1153 17.1705C10.3468 18.3344 10.9182 19.4035 11.7574 20.2426C12.5965 21.0818 13.6656 21.6532 14.8295 21.8847C15.9933 22.1162 17.1997 21.9974 18.2961 21.5433C19.3925 21.0892 20.3295 20.3201 20.9888 19.3334C21.6481 18.3467 22 17.1867 22 16C22 14.4087 21.3679 12.8826 20.2426 11.7574C19.1174 10.6321 17.5913 10 16 10ZM16 20C15.2089 20 14.4355 19.7654 13.7777 19.3259C13.1199 18.8864 12.6072 18.2616 12.3045 17.5307C12.0017 16.7998 11.9225 15.9956 12.0769 15.2196C12.2312 14.4437 12.6122 13.731 13.1716 13.1716C13.731 12.6122 14.4437 12.2312 15.2196 12.0769C15.9956 11.9225 16.7998 12.0017 17.5307 12.3045C18.2616 12.6072 18.8864 13.1199 19.3259 13.7777C19.7654 14.4355 20 15.2089 20 16C20 17.0609 19.5786 18.0783 18.8284 18.8284C18.0783 19.5786 17.0609 20 16 20Z" fill="black"/>
</svg>
