<svg width="32" height="32" viewBox="0 0 32 32" fill="none" xmlns="http://www.w3.org/2000/svg">
<g clip-path="url(#clip0_819_274)">
<path d="M16.0535 11.1641C16.4939 11.1641 16.8506 10.8071 16.8506 10.3669C16.8506 9.92676 16.4939 9.56982 16.0535 9.56982C12.5317 9.56982 9.67676 12.4248 9.67676 15.9468C9.67676 19.4685 12.5317 22.3235 16.0535 22.3235C19.5754 22.3235 22.4304 19.4685 22.4304 15.9468C22.4304 15.5063 22.0735 15.1497 21.6333 15.1497C21.1931 15.1497 20.8362 15.5063 20.8362 15.9468C20.8362 18.5881 18.6951 20.7295 16.0535 20.7295C13.4121 20.7295 11.2707 18.5881 11.2707 15.9468C11.2707 13.3052 13.4121 11.1641 16.0535 11.1641Z" fill="black"/>
<path d="M31.2624 11.2122C31.124 10.7939 30.6728 10.5671 30.2543 10.7056C29.8457 10.8408 29.6181 11.2759 29.7399 11.6887C32.1237 19.2798 27.9025 27.3659 20.3115 29.7497C12.7207 32.1335 4.63451 27.9123 2.25072 20.3213C-0.133309 12.7302 4.08812 4.64405 11.6789 2.26026C14.489 1.37794 17.5017 1.37794 20.3115 2.26026C20.7334 2.38746 21.1784 2.14869 21.3056 1.72682C21.4309 1.31129 21.2011 0.872082 20.7883 0.737805C12.3594 -1.90672 3.38231 2.78248 0.737784 11.2117C-1.90674 19.6406 2.7827 28.6176 11.2116 31.2622C19.6408 33.9067 28.6176 29.2175 31.2622 20.7883C32.2402 17.6711 32.2402 14.3293 31.2624 11.2122Z" fill="black"/>
<path d="M17.571 5.69482C17.5752 5.24097 17.2265 4.86157 16.7739 4.82764C16.5359 4.80737 16.2976 4.78711 16.0532 4.78711C9.88989 4.78711 4.89355 9.78344 4.89355 15.9468C4.89355 22.1098 9.88989 27.1062 16.0532 27.1062C22.2163 27.1062 27.2126 22.1098 27.2126 15.9468C27.2126 15.6584 27.195 15.3703 27.1596 15.0842C27.0959 14.6467 26.6897 14.3437 26.2522 14.4075C25.8147 14.4709 25.5117 14.8774 25.5752 15.3149C25.5776 15.3315 25.5805 15.3479 25.584 15.3645C25.6013 15.5576 25.6184 15.749 25.6184 15.9463C25.6186 21.2292 21.3362 25.5117 16.0535 25.5122C10.7705 25.5124 6.48803 21.2297 6.48779 15.947C6.48755 10.6643 10.7698 6.38159 16.0527 6.38135H16.053C16.2507 6.38135 16.4424 6.39844 16.635 6.41553L16.7844 6.42798C17.2009 6.4458 17.553 6.12256 17.5705 5.70605C17.5708 5.70215 17.5708 5.69849 17.571 5.69482Z" fill="black"/>
<path d="M20.8356 7.17846V10.0369L15.4894 15.383C15.1728 15.6889 15.164 16.1936 15.4699 16.5102C15.7758 16.8269 16.2805 16.8357 16.5971 16.5298C16.6037 16.5234 16.6103 16.5168 16.6166 16.5102L21.9628 11.164H24.8212C25.0326 11.164 25.2353 11.0801 25.3849 10.9304L30.1674 6.1477C30.4787 5.83642 30.4787 5.33178 30.1674 5.0205C30.018 4.87109 29.8153 4.78711 29.6039 4.78711H27.2126V2.39575C27.2126 1.95557 26.8556 1.59863 26.4152 1.59888C26.204 1.59888 26.0014 1.68286 25.852 1.83228L21.0693 6.61498C20.9196 6.7644 20.8356 6.96703 20.8356 7.17846ZM22.4299 7.50854L25.6183 4.32006V5.58422C25.6183 6.02441 25.9753 6.38134 26.4155 6.38134H27.6796L24.4911 9.56981H22.4299V7.50854Z" fill="black"/>
</g>
<defs>
<clipPath id="clip0_819_274">
<rect width="32" height="32" fill="white"/>
</clipPath>
</defs>
</svg>
