<svg width="44" height="44" viewBox="0 0 44 44" fill="none" xmlns="http://www.w3.org/2000/svg">
<g clip-path="url(#clip0_858_96)">
<path d="M21.174 33.542C19.7575 33.4422 18.3901 33.0883 17.1096 32.4899C16.8781 32.3819 16.613 32.3694 16.3719 32.4571C16.1318 32.5449 15.936 32.7242 15.8275 32.9561L14.6174 35.551C12.0157 34.1306 9.86922 31.9841 8.44931 29.3825L11.0437 28.1728C11.2756 28.0648 11.4555 27.8691 11.5427 27.6285C11.63 27.3879 11.618 27.1222 11.51 26.8908C10.9121 25.6102 10.5577 24.2429 10.4579 22.8254C10.3866 21.822 9.54329 21.0356 8.53803 21.0356H1.75042C1.21813 21.0356 0.786133 21.4676 0.786133 21.9999C0.786133 33.6977 10.3027 43.2142 22.0004 43.2142C22.5327 43.2142 22.9647 42.7822 22.9647 42.2499V35.4623C22.9647 34.4571 22.1783 33.6138 21.174 33.542ZM21.0361 41.2615C11.1672 40.7736 3.22674 32.8327 2.73881 22.9637L8.53465 22.9618C8.62819 24.292 8.9141 25.5847 9.38612 26.818L6.73288 28.0552C6.50097 28.1632 6.32113 28.3589 6.23387 28.5995C6.1466 28.8401 6.15817 29.1053 6.26617 29.3372C7.99031 33.0275 10.9728 36.01 14.6632 37.7342C14.8941 37.8422 15.1593 37.8542 15.4008 37.7665C15.6414 37.6787 15.8372 37.4994 15.9452 37.2675L17.1824 34.6142C18.4157 35.0863 19.7078 35.3712 21.0361 35.4618V41.2615ZM20.0718 20.0714V19.1071C20.0718 18.5753 19.6394 18.1428 19.1076 18.1428H16.2147C15.6824 18.1428 15.2504 17.7108 15.2504 17.1785C15.2504 16.6462 15.6824 16.2142 16.2147 16.2142H19.1076C20.703 16.2142 22.0004 17.5117 22.0004 19.1071V20.0714C22.0004 21.6668 20.703 22.9642 19.1076 22.9642H18.1433C17.6115 22.9642 17.179 23.3967 17.179 23.9285V25.8571H21.0361C21.5684 25.8571 22.0004 26.2891 22.0004 26.8214C22.0004 27.3536 21.5684 27.7856 21.0361 27.7856H16.2147C15.6824 27.7856 15.2504 27.3536 15.2504 26.8214V23.9285C15.2504 22.3331 16.5479 21.0356 18.1433 21.0356H19.1076C19.6394 21.0356 20.0718 20.6032 20.0718 20.0714ZM28.7504 22.9642H24.8933C24.361 22.9642 23.929 22.5322 23.929 21.9999V17.1785C23.929 16.6462 24.361 16.2142 24.8933 16.2142C25.4256 16.2142 25.8576 16.6462 25.8576 17.1785V21.0356H28.7504V17.1785C28.7504 16.6462 29.1824 16.2142 29.7147 16.2142C30.247 16.2142 30.679 16.6462 30.679 17.1785V26.8214C30.679 27.3536 30.247 27.7856 29.7147 27.7856C29.1824 27.7856 28.7504 27.3536 28.7504 26.8214V22.9642ZM43.2147 21.9999C43.2147 31.5936 36.7492 40.0224 27.492 42.4968C27.4086 42.519 27.3247 42.5296 27.2423 42.5296C26.8161 42.5296 26.4265 42.2446 26.3108 41.8141C26.1734 41.2996 26.479 40.7712 26.9935 40.6333C30.0228 39.8238 32.7209 38.3099 34.9368 36.3003L32.9103 34.2738C32.5338 33.8973 32.5338 33.2869 32.9103 32.9103C33.2869 32.5338 33.8973 32.5338 34.2738 32.9103L36.3017 34.9382C39.2206 31.7055 41.033 27.5036 41.2596 22.9647H38.3933C37.861 22.9647 37.429 22.5327 37.429 22.0004C37.429 21.4681 37.861 21.0361 38.3933 21.0361H41.2615C41.0345 16.4442 39.1932 12.2698 36.295 9.06934L34.2734 11.091C34.0849 11.2795 33.8385 11.3735 33.5916 11.3735C33.3448 11.3735 33.0984 11.2795 32.9099 11.091C32.5333 10.7144 32.5333 10.104 32.9099 9.72747L34.9315 7.70584C31.731 4.8072 27.5566 2.96589 22.9647 2.73881V5.60707C22.9647 6.13936 22.5327 6.57136 22.0004 6.57136C21.4681 6.57136 21.0361 6.13936 21.0361 5.60707V2.74073C16.4977 2.96734 12.2954 4.77972 9.0626 7.69861L11.0905 9.7265C11.467 10.1031 11.467 10.7134 11.0905 11.09C10.902 11.2785 10.6556 11.3725 10.4087 11.3725C10.1619 11.3725 9.91551 11.2785 9.72699 11.09L7.70054 9.06356C5.69097 11.2795 4.17704 13.9771 3.36753 17.0064C3.22963 17.5208 2.70072 17.8265 2.18676 17.6891C1.67231 17.5517 1.36663 17.0233 1.50404 16.5083C3.97792 7.25118 12.4067 0.785645 22.0004 0.785645C33.6982 0.785645 43.2147 10.3022 43.2147 21.9999Z" fill="#290F1C"/>
</g>
<defs>
<clipPath id="clip0_858_96">
<rect width="44" height="44" fill="white"/>
</clipPath>
</defs>
</svg>
