<svg width="44" height="44" viewBox="0 0 44 44" fill="none" xmlns="http://www.w3.org/2000/svg">
<g clip-path="url(#clip0_858_22)">
<path d="M31.6227 4.74832C29.0471 2.19083 25.6371 0.786133 22.0098 0.786133C21.9769 0.786133 21.9434 0.786216 21.9106 0.786464C18.3693 0.811408 15.0163 2.19887 12.4693 4.69329C9.92176 7.18821 8.46568 10.5116 8.36947 14.0509C8.26912 17.7393 9.62012 21.2326 12.1736 23.8875C14.1844 25.9781 15.2918 28.7587 15.2918 31.7174V37.409C15.2918 38.5783 16.1037 39.5611 17.193 39.8247V40.5836C17.193 42.0343 18.3733 43.2146 19.8241 43.2146H24.1747C25.6255 43.2146 26.8058 42.0343 26.8058 40.5836V39.829C27.9047 39.5722 28.7259 38.585 28.7259 37.409V31.7176C28.7259 28.7976 29.8637 25.9848 31.9298 23.7974C34.331 21.2553 35.6535 17.9288 35.6535 14.4307C35.6535 10.7679 34.222 7.32925 31.6227 4.74832ZM25.1485 40.5836C25.1485 41.1205 24.7117 41.5573 24.1748 41.5573H19.8242C19.2873 41.5573 18.8505 41.1205 18.8505 40.5836V39.8948H25.1485V40.5836ZM27.0686 37.409C27.0686 37.8657 26.697 38.2374 26.2402 38.2374H25.9772H18.0218H17.7777C17.3208 38.2374 16.9492 37.8657 16.9492 37.409V32.6958H27.0686V37.409ZM20.7072 31.0385V20.5567H23.2888V31.0384H20.7072V31.0385ZM30.7251 22.6593C28.5273 24.9863 27.2498 27.9392 27.0865 31.0384H24.9462V20.5567H25.691C27.0156 20.5567 28.0933 19.4791 28.0933 18.1544V18.026C28.0933 16.7013 27.0156 15.6237 25.691 15.6237C24.3665 15.6237 23.2888 16.7013 23.2888 18.026V18.8993H20.7072V18.026C20.7072 16.7013 19.6295 15.6237 18.305 15.6237H18.1417C16.8172 15.6237 15.7395 16.7013 15.7395 18.026V18.1544C15.7395 19.479 16.8172 20.5567 18.1417 20.5567H19.0498V31.0384H16.9322C16.774 27.904 15.5226 24.9784 13.3682 22.7385C11.1249 20.4063 9.938 17.3369 10.0263 14.096C10.1998 7.716 15.5363 2.48883 21.9223 2.44375C25.1453 2.42112 28.1717 3.65719 30.455 5.92438C32.7386 8.19183 33.9962 11.2128 33.9962 14.4307C33.9962 17.5039 32.8344 20.4262 30.7251 22.6593ZM24.9462 18.8993V18.026C24.9462 17.6152 25.2803 17.2811 25.691 17.2811C26.1018 17.2811 26.4359 17.6153 26.4359 18.026V18.1544C26.4359 18.5652 26.1018 18.8993 25.691 18.8993H24.9462ZM19.0497 18.026V18.8993H18.1416C17.7309 18.8993 17.3968 18.5652 17.3968 18.1544V18.026C17.3968 17.6152 17.7309 17.2811 18.1416 17.2811H18.3049C18.7156 17.2811 19.0497 17.6154 19.0497 18.026Z" fill="black"/>
<path d="M39.2721 4.9136C38.9484 4.59 38.4239 4.59 38.1001 4.9136L36.5562 6.45752C36.2326 6.78112 36.2326 7.30584 36.5562 7.62953C36.718 7.79137 36.9301 7.87225 37.1422 7.87225C37.3544 7.87225 37.5663 7.79137 37.7282 7.62953L39.2721 6.08561C39.5957 5.762 39.5957 5.23728 39.2721 4.9136Z" fill="black"/>
<path d="M39.272 22.7758L37.7282 21.2318C37.4046 20.9082 36.88 20.9082 36.5562 21.2318C36.2326 21.5554 36.2326 22.0802 36.5562 22.4038L38.1001 23.9477C38.2619 24.1095 38.474 24.1904 38.6861 24.1904C38.8981 24.1904 39.1102 24.1094 39.272 23.9477C39.5956 23.6241 39.5956 23.0994 39.272 22.7758Z" fill="black"/>
<path d="M42.3852 13.6019H40.2017C39.7441 13.6019 39.373 13.9729 39.373 14.4306C39.373 14.8883 39.7441 15.2593 40.2017 15.2593H42.3852C42.8428 15.2593 43.2139 14.8883 43.2139 14.4306C43.2139 13.9729 42.8428 13.6019 42.3852 13.6019Z" fill="black"/>
<path d="M7.4439 6.45764L5.90006 4.91372C5.57638 4.59012 5.05182 4.59012 4.72805 4.91372C4.40445 5.23732 4.40445 5.76204 4.72805 6.08573L6.27197 7.62965C6.43381 7.79149 6.64587 7.87237 6.85793 7.87237C7.06999 7.87237 7.28205 7.79149 7.4439 7.62965C7.7675 7.30596 7.7675 6.78132 7.4439 6.45764Z" fill="black"/>
<path d="M7.4439 21.2318C7.1203 20.9081 6.59566 20.9081 6.27197 21.2318L4.72805 22.7758C4.40445 23.0994 4.40445 23.6241 4.72805 23.9477C4.88989 24.1095 5.10195 24.1904 5.31401 24.1904C5.52607 24.1904 5.73813 24.1095 5.89998 23.9477L7.4439 22.4038C7.7675 22.0801 7.7675 21.5555 7.4439 21.2318Z" fill="black"/>
<path d="M3.79831 13.6019H1.61482C1.15722 13.6019 0.786133 13.9729 0.786133 14.4306C0.786133 14.8883 1.15722 15.2593 1.61482 15.2593H3.79831C4.25591 15.2593 4.627 14.8883 4.627 14.4306C4.627 13.9729 4.25591 13.6019 3.79831 13.6019Z" fill="black"/>
</g>
<defs>
<clipPath id="clip0_858_22">
<rect width="44" height="44" fill="white"/>
</clipPath>
</defs>
</svg>
