<svg width="37" height="37" viewBox="0 0 37 37" fill="none" xmlns="http://www.w3.org/2000/svg">
<g clip-path="url(#clip0_868_238)">
<path d="M3.40986 32.8276C3.69761 33.1419 4.14392 33.2564 4.54754 33.1194L9.14634 31.5579L11.0689 36.0177C11.2381 36.4101 11.6237 36.6649 12.051 36.6667H12.0554C12.481 36.6667 12.8666 36.4154 13.0384 36.0258L16.6221 27.8967C17.1833 27.9656 17.7545 28.0018 18.334 28.0018C18.9135 28.0018 19.4846 27.9657 20.0458 27.8967L23.6296 36.0258C23.8013 36.4154 24.187 36.6667 24.6126 36.6667H24.617C25.0443 36.6649 25.4299 36.4101 25.5991 36.0177L27.5217 31.5579L32.1205 33.1194C32.5238 33.2564 32.9705 33.142 33.2582 32.8276C33.546 32.5132 33.6208 32.0585 33.4487 31.6685L29.4149 22.5252C31.2226 20.171 32.2991 17.2274 32.2991 14.0366C32.2991 6.2968 26.0344 0 18.334 0C10.6337 0 4.36901 6.2968 4.36901 14.0366C4.36901 17.2274 5.44546 20.1711 7.25318 22.5252L3.21936 31.6685C3.04734 32.0585 3.12204 32.5132 3.40986 32.8276ZM30.4962 30.2989L27.2733 29.2045C26.7429 29.0244 26.1632 29.2822 25.9414 29.7965L24.6015 32.9045L22.2 27.4569C24.3298 26.8424 26.2515 25.7333 27.8333 24.263L30.4962 30.2989ZM6.51747 14.0366C6.51747 7.48146 11.8184 2.14847 18.334 2.14847C24.8497 2.14847 30.1506 7.48146 30.1506 14.0366C30.1506 20.5523 24.8497 25.8532 18.334 25.8532C11.8184 25.8532 6.51747 20.5523 6.51747 14.0366ZM8.83474 24.263C10.4166 25.7333 12.3383 26.8425 14.4681 27.4569L12.0665 32.9044L10.7267 29.7964C10.5049 29.282 9.92516 29.0244 9.39484 29.2045L6.17193 30.2988L8.83474 24.263Z" fill="black"/>
<path d="M14.114 15.4071L13.4858 19.069C13.4167 19.472 13.5824 19.8793 13.9132 20.1197C14.2434 20.3596 14.682 20.392 15.0445 20.2015L18.3331 18.4725L21.6217 20.2015C21.9837 20.3918 22.4224 20.36 22.753 20.1197C23.0838 19.8793 23.2495 19.4721 23.1804 19.069L22.5524 15.4071L25.2129 12.8137C25.5057 12.5283 25.6111 12.1014 25.4847 11.7125C25.3583 11.3237 25.0222 11.0402 24.6175 10.9814L20.9407 10.4472L19.2964 7.11545C19.1155 6.74878 18.742 6.5166 18.3331 6.5166C17.9243 6.5166 17.5508 6.74871 17.3698 7.11545L15.7255 10.4472L12.0487 10.9814C11.6441 11.0402 11.3079 11.3237 11.1815 11.7125C11.0551 12.1014 11.1606 12.5283 11.4533 12.8138L14.114 15.4071ZM16.5934 12.492C16.9433 12.4411 17.2457 12.2214 17.4022 11.9043L18.3331 10.018L19.2641 11.9043C19.4205 12.2214 19.7231 12.4411 20.0729 12.492L22.1545 12.7945L20.6483 14.2628C20.3951 14.5095 20.2796 14.8651 20.3394 15.2136L20.6949 17.2869L18.833 16.308C18.5201 16.1435 18.1462 16.1435 17.8333 16.308L15.9713 17.2869L16.3269 15.2136C16.3866 14.8651 16.2711 14.5095 16.018 14.2628L14.5116 12.7945L16.5934 12.492Z" fill="black"/>
</g>
<defs>
<clipPath id="clip0_868_238">
<rect width="36.6667" height="36.6667" fill="white"/>
</clipPath>
</defs>
</svg>
