<svg width="33" height="33" viewBox="0 0 33 33" fill="none" xmlns="http://www.w3.org/2000/svg">
<path d="M16.1026 0C16.0832 0.000255922 16.0639 0.000977236 16.0445 0.00221372C16.0315 0.00221372 16.0186 0.00218774 16.0099 0.00221372C16.0056 0.00218917 16.0012 0.00218917 15.9968 0.00221372C7.17345 0.0290641 0 7.20986 0 16.0394C0 24.8652 7.16751 32.0528 15.9857 32.0855C16.0022 32.0859 16.0186 32.0859 16.035 32.0855H16.048C24.8939 32.0855 32.0853 24.8853 32.0853 16.0394C32.0853 7.21882 24.9351 0.0433468 16.1241 0.00221372C16.1183 0.0014234 16.1083 0.000702302 16.1026 0ZM13.7572 2.48413C13.2422 3.30092 12.6357 4.3226 12.0272 5.48296C10.637 8.13423 9.20993 11.5032 8.93657 14.898H2.33915C2.85485 8.5903 7.60908 3.50817 13.7572 2.48413ZM18.3472 2.48634C24.4865 3.51638 29.2284 8.59562 29.7429 14.898H23.17C22.8967 11.5032 21.4698 8.13423 20.0795 5.48296C19.4715 4.32351 18.8635 3.30282 18.3472 2.48634ZM16.0533 3.15551C16.598 3.98544 17.3218 5.16044 18.0496 6.54823C19.3324 8.99467 20.5846 12.0785 20.8672 14.898H11.2395C11.5219 12.0785 12.7742 8.99467 14.0571 6.54823C14.7851 5.1598 15.5105 3.9855 16.0533 3.15551ZM2.33915 17.1897H8.93895C9.21438 20.582 10.6385 23.9542 12.0272 26.6026C12.6357 27.7629 13.2422 28.7868 13.7572 29.6036C7.6125 28.5789 2.85931 23.4932 2.33915 17.1897ZM11.2418 17.1897H20.8649C20.5799 20.0078 19.3307 23.0941 18.0496 25.5373C17.3218 26.9251 16.598 28.1023 16.0533 28.9322C15.5105 28.1023 14.7851 26.9257 14.0571 25.5373C12.776 23.0941 11.5265 20.0078 11.2418 17.1897ZM23.1678 17.1897H29.7407C29.2217 23.4878 24.483 28.5706 18.3472 29.6014C18.8635 28.7849 19.4715 27.762 20.0795 26.6026C21.4682 23.9542 22.8922 20.582 23.1678 17.1897Z" fill="black"/>
</svg>
