<svg width="33" height="33" viewBox="0 0 33 33" fill="none" xmlns="http://www.w3.org/2000/svg">
<g clip-path="url(#clip0_868_225)">
<path d="M16.4989 6.73438C19.6604 6.73438 22.2234 9.37267 22.2234 12.6272C22.2234 15.8818 19.6604 18.5201 16.4989 18.5201C13.3374 18.5201 10.7744 15.8817 10.7744 12.6272C10.7744 9.37273 13.3374 6.73438 16.4989 6.73438ZM16.4989 9.09152C14.6547 9.09152 13.1316 10.6595 13.1316 12.6272C13.1316 14.595 14.6547 16.1629 16.4989 16.1629C18.3431 16.1629 19.8662 14.595 19.8662 12.6272C19.8662 10.6595 18.3431 9.09152 16.4989 9.09152Z" fill="black"/>
<path d="M16.5 0C25.6127 0 33 7.38728 33 16.5C33 22.639 29.6474 27.9949 24.6732 30.8368C22.347 32.1764 19.6574 32.9582 16.7881 32.9984L16.5001 33C7.38728 33 0 25.6127 0 16.5C0 7.38728 7.38728 0 16.5 0ZM14.9584 22.5612C11.9418 22.5612 9.2626 24.4741 8.27761 27.3148L8.12531 27.8078C10.464 29.5809 13.3449 30.6006 16.3621 30.6416L16.7338 30.641C19.2237 30.6006 21.5572 29.9168 23.5751 28.7486L24.8759 27.8863L24.7302 27.4393C23.7945 24.5714 21.1451 22.6177 18.1385 22.5624L14.9584 22.5612ZM16.5 2.35714C8.68911 2.35714 2.35714 8.68911 2.35714 16.5C2.35714 20.2434 3.81152 23.6472 6.18612 26.177C7.59694 22.5912 11.0672 20.2041 14.9585 20.2041H18.0077C21.9082 20.2041 25.3855 22.6024 26.7902 26.2022C29.1788 23.6699 30.6429 20.2559 30.6429 16.5C30.6429 8.68911 24.3109 2.35714 16.5 2.35714Z" fill="black"/>
</g>
<defs>
<clipPath id="clip0_868_225">
<rect width="33" height="33" fill="white"/>
</clipPath>
</defs>
</svg>
