<svg width="44" height="44" viewBox="0 0 44 44" fill="none" xmlns="http://www.w3.org/2000/svg">
<g clip-path="url(#clip0_86_50)">
<path d="M18.0845 43.2142H1.708C1.19886 43.2142 0.785645 42.8019 0.785645 42.2919C0.785645 41.7818 1.19886 41.3695 1.708 41.3695H18.0845C18.5937 41.3695 19.0069 41.7818 19.0069 42.2919C19.0069 42.8019 18.5937 43.2142 18.0845 43.2142Z" fill="#3B82F6"/>
<path d="M42.292 43.2142H25.9155C25.4055 43.2142 24.9932 42.8019 24.9932 42.2919C24.9932 41.7818 25.4055 41.3695 25.9155 41.3695H42.292C42.8021 41.3695 43.2144 41.7818 43.2144 42.2919C43.2144 42.8019 42.8021 43.2142 42.292 43.2142Z" fill="#3B82F6"/>
<path d="M34.1031 36.8002C31.2161 36.8002 28.7783 34.3605 28.7783 31.4744C28.7783 28.5884 31.217 26.1497 34.1031 26.1497C36.9892 26.1497 39.4288 28.5884 39.4288 31.4744C39.4288 34.3605 36.9901 36.8002 34.1031 36.8002ZM34.1031 27.9935C32.216 27.9935 30.623 29.5873 30.623 31.4735C30.623 33.3597 32.2169 34.9545 34.1031 34.9545C35.9893 34.9545 37.5841 33.3597 37.5841 31.4735C37.5841 29.5873 35.9903 27.9935 34.1031 27.9935Z" fill="#3B82F6"/>
<path d="M25.9155 42.09C25.4055 42.09 24.9932 41.6768 24.9932 41.1676C24.9941 37.4643 28.6466 35.1345 32.04 34.5368C32.5418 34.4436 33.0205 34.783 33.1081 35.2848C33.1976 35.7866 32.8618 36.2653 32.3601 36.3529C29.7009 36.8224 26.8388 38.5287 26.8379 41.1685C26.8379 41.6777 26.4247 42.09 25.9155 42.09Z" fill="#3B82F6"/>
<path d="M42.2917 42.09C41.7826 42.09 41.3694 41.6777 41.3694 41.1677C41.3684 38.5288 38.5064 36.8215 35.8472 36.352C35.3454 36.2635 35.0106 35.7857 35.0992 35.2839C35.1868 34.7822 35.6646 34.4437 36.1673 34.5359C39.5606 35.1336 43.2132 37.4644 43.2141 41.1668C43.2141 41.6768 42.8018 42.09 42.2917 42.09Z" fill="#3B82F6"/>
<path d="M1.70801 42.09C1.70801 42.09 1.70708 42.09 1.70616 42.09C1.1961 42.0891 0.784724 41.675 0.785646 41.1658C0.793947 37.4579 4.44465 35.1299 7.8334 34.5359C8.33885 34.4492 8.81387 34.784 8.90149 35.2858C8.99004 35.7875 8.6543 36.2662 8.15254 36.3539C5.49706 36.8196 2.63682 38.5251 2.63037 41.1704C2.62944 41.6786 2.21623 42.09 1.70801 42.09Z" fill="#3B82F6"/>
<path d="M9.89602 36.8002C7.00903 36.8002 4.57031 34.3605 4.57031 31.4744C4.57031 28.5884 7.00903 26.1497 9.89602 26.1497C12.783 26.1497 15.2217 28.5884 15.2217 31.4744C15.2217 34.3605 12.783 36.8002 9.89602 36.8002ZM9.89602 27.9935C8.00887 27.9935 6.41503 29.5873 6.41503 31.4735C6.41503 33.3597 8.00887 34.9545 9.89602 34.9545C11.7832 34.9545 13.377 33.3597 13.377 31.4735C13.377 29.5873 11.7832 27.9935 9.89602 27.9935Z" fill="#3B82F6"/>
<path d="M42.292 43.2143C41.7819 43.2143 41.3696 42.802 41.3696 42.292V41.1676C41.3696 40.6575 41.7819 40.2452 42.292 40.2452C42.8021 40.2452 43.2143 40.6575 43.2143 41.1676V42.292C43.2143 42.802 42.8021 43.2143 42.292 43.2143Z" fill="#3B82F6"/>
<path d="M25.9155 43.2143C25.4055 43.2143 24.9932 42.802 24.9932 42.292V41.1676C24.9932 40.6575 25.4055 40.2452 25.9155 40.2452C26.4256 40.2452 26.8379 40.6575 26.8379 41.1676V42.292C26.8379 42.802 26.4256 43.2143 25.9155 43.2143Z" fill="#3B82F6"/>
<path d="M18.0841 42.0898C17.5759 42.0898 17.1627 41.6785 17.1618 41.1693C17.1562 38.5249 14.2951 36.8186 11.6396 36.3528C11.1378 36.2642 10.8021 35.7864 10.8906 35.2847C10.9783 34.7829 11.4514 34.449 11.9587 34.5348C15.3475 35.1297 18.9982 37.4578 19.0065 41.1647C19.0074 41.6739 18.596 42.088 18.086 42.0889C18.085 42.0898 18.0841 42.0898 18.0841 42.0898Z" fill="#3B82F6"/>
<path d="M18.0845 43.2143C17.5753 43.2143 17.1621 42.802 17.1621 42.292V41.1676C17.1621 40.6575 17.5753 40.2452 18.0845 40.2452C18.5936 40.2452 19.0068 40.6575 19.0068 41.1676V42.292C19.0068 42.802 18.5936 43.2143 18.0845 43.2143Z" fill="#3B82F6"/>
<path d="M1.708 43.2143C1.19886 43.2143 0.785645 42.802 0.785645 42.292V41.1676C0.785645 40.6575 1.19886 40.2452 1.708 40.2452C2.21715 40.2452 2.63036 40.6575 2.63036 41.1676V42.292C2.63036 42.802 2.21715 43.2143 1.708 43.2143Z" fill="#3B82F6"/>
<path d="M30.1885 17.8513H13.812C13.3029 17.8513 12.8896 17.439 12.8896 16.929C12.8896 16.4189 13.3029 16.0066 13.812 16.0066H30.1885C30.6986 16.0066 31.1109 16.4189 31.1109 16.929C31.1109 17.439 30.6986 17.8513 30.1885 17.8513Z" fill="#3B82F6"/>
<path d="M21.9995 11.4371C19.1125 11.4371 16.6738 8.99742 16.6738 6.11135C16.6738 3.22529 19.1125 0.785645 21.9995 0.785645C24.8865 0.785645 27.3243 3.22436 27.3243 6.11043C27.3243 8.99649 24.8865 11.4371 21.9995 11.4371ZM21.9995 2.63036C20.1124 2.63036 18.5185 4.2242 18.5185 6.11043C18.5185 7.99666 20.1124 9.59142 21.9995 9.59142C23.8867 9.59142 25.4796 7.99666 25.4796 6.11043C25.4796 4.2242 23.8867 2.63036 21.9995 2.63036Z" fill="#3B82F6"/>
<path d="M13.812 16.7269C13.812 16.7269 13.8111 16.7269 13.8102 16.7269C13.3001 16.726 12.8887 16.3118 12.8896 15.8027C12.898 12.0948 16.5487 9.76674 19.9374 9.17274C20.4429 9.08789 20.917 9.42086 21.0055 9.92262C21.094 10.4244 20.7583 10.9031 20.2565 10.9907C17.6011 11.4565 14.7408 13.162 14.7344 15.8073C14.7334 16.3155 14.3202 16.7269 13.812 16.7269Z" fill="#3B82F6"/>
<path d="M30.1888 16.7269C29.6824 16.7269 29.2701 16.3183 29.2664 15.811C29.248 13.1611 26.3914 11.4538 23.7442 10.9899C23.2425 10.9013 22.9067 10.4235 22.9944 9.92176C23.0829 9.42 23.5598 9.0861 24.0625 9.17188C27.4392 9.76496 31.0853 12.0902 31.1111 15.7981C31.1148 16.3082 30.7053 16.7232 30.1952 16.7269C30.1934 16.7269 30.1906 16.7269 30.1888 16.7269Z" fill="#3B82F6"/>
<path d="M30.189 17.8512C29.6789 17.8512 29.2666 17.4389 29.2666 16.9288V15.8044C29.2666 15.2944 29.6789 14.8821 30.189 14.8821C30.699 14.8821 31.1113 15.2944 31.1113 15.8044V16.9288C31.1113 17.4389 30.699 17.8512 30.189 17.8512Z" fill="#3B82F6"/>
<path d="M13.812 17.8512C13.3029 17.8512 12.8896 17.4389 12.8896 16.9288V15.8044C12.8896 15.2944 13.3029 14.8821 13.812 14.8821C14.3212 14.8821 14.7344 15.2944 14.7344 15.8044V16.9288C14.7344 17.4389 14.3212 17.8512 13.812 17.8512Z" fill="#3B82F6"/>
<path d="M15.0724 26.1756C14.8639 26.1756 14.6555 26.1055 14.483 25.9625C14.0919 25.636 14.0384 25.0558 14.364 24.6638L18.2213 20.0289C18.5478 19.6369 19.1289 19.5853 19.52 19.91C19.9111 20.2365 19.9646 20.8166 19.639 21.2086L15.7817 25.8435C15.6 26.0621 15.3371 26.1756 15.0724 26.1756Z" fill="#3B82F6"/>
<path d="M26.0115 32.3959H17.9897C17.4806 32.3959 17.0674 31.9836 17.0674 31.4735C17.0674 30.9634 17.4806 30.5511 17.9897 30.5511H26.0115C26.5216 30.5511 26.9339 30.9634 26.9339 31.4735C26.9339 31.9836 26.5207 32.3959 26.0115 32.3959Z" fill="#3B82F6"/>
<path d="M28.9292 26.1756C28.6645 26.1756 28.4017 26.0621 28.219 25.8435L24.3608 21.2087C24.0343 20.8167 24.0878 20.2356 24.4798 19.91C24.8718 19.5835 25.4556 19.6388 25.7785 20.029L29.6367 24.6638C29.9632 25.0559 29.9097 25.6369 29.5177 25.9625C29.3462 26.1055 29.1359 26.1756 28.9292 26.1756Z" fill="#3B82F6"/>
</g>
<defs>
<clipPath id="clip0_86_50">
<rect width="44" height="44" fill="white"/>
</clipPath>
</defs>
</svg>
