<svg width="44" height="44" viewBox="0 0 44 44" fill="none" xmlns="http://www.w3.org/2000/svg">
<g clip-path="url(#clip0_74_6)">
<path d="M31.6232 4.74832C29.0476 2.19083 25.6376 0.786133 22.0103 0.786133C21.9774 0.786133 21.9439 0.786216 21.9111 0.786464C18.3698 0.811408 15.0168 2.19887 12.4698 4.69329C9.92225 7.18821 8.46617 10.5116 8.36996 14.0509C8.26961 17.7393 9.62061 21.2326 12.1741 23.8875C14.1849 25.9781 15.2923 28.7587 15.2923 31.7174V37.409C15.2923 38.5783 16.1041 39.5611 17.1935 39.8247V40.5836C17.1935 42.0343 18.3738 43.2146 19.8246 43.2146H24.1752C25.626 43.2146 26.8063 42.0343 26.8063 40.5836V39.829C27.9052 39.5722 28.7264 38.585 28.7264 37.409V31.7176C28.7264 28.7976 29.8642 25.9848 31.9303 23.7974C34.3315 21.2553 35.6539 17.9288 35.6539 14.4307C35.6539 10.7679 34.2225 7.32925 31.6232 4.74832ZM25.149 40.5836C25.149 41.1205 24.7122 41.5573 24.1753 41.5573H19.8247C19.2878 41.5573 18.851 41.1205 18.851 40.5836V39.8948H25.149V40.5836ZM27.0691 37.409C27.0691 37.8657 26.6975 38.2374 26.2407 38.2374H25.9777H18.0223H17.7782C17.3213 38.2374 16.9497 37.8657 16.9497 37.409V32.6958H27.0691V37.409ZM20.7076 31.0385V20.5567H23.2893V31.0384H20.7076V31.0385ZM30.7256 22.6593C28.5278 24.9863 27.2503 27.9392 27.087 31.0384H24.9467V20.5567H25.6915C27.0161 20.5567 28.0938 19.4791 28.0938 18.1544V18.026C28.0938 16.7013 27.0161 15.6237 25.6915 15.6237C24.3669 15.6237 23.2893 16.7013 23.2893 18.026V18.8993H20.7076V18.026C20.7076 16.7013 19.63 15.6237 18.3055 15.6237H18.1422C16.8176 15.6237 15.74 16.7013 15.74 18.026V18.1544C15.74 19.479 16.8176 20.5567 18.1422 20.5567H19.0503V31.0384H16.9327C16.7745 27.904 15.5231 24.9784 13.3687 22.7385C11.1254 20.4063 9.93849 17.3369 10.0267 14.096C10.2003 7.716 15.5367 2.48883 21.9227 2.44375C25.1458 2.42112 28.1722 3.65719 30.4555 5.92438C32.7391 8.19183 33.9967 11.2128 33.9967 14.4307C33.9967 17.5039 32.8349 20.4262 30.7256 22.6593ZM24.9467 18.8993V18.026C24.9467 17.6152 25.2808 17.2811 25.6915 17.2811C26.1023 17.2811 26.4364 17.6153 26.4364 18.026V18.1544C26.4364 18.5652 26.1023 18.8993 25.6915 18.8993H24.9467ZM19.0502 18.026V18.8993H18.1421C17.7314 18.8993 17.3973 18.5652 17.3973 18.1544V18.026C17.3973 17.6152 17.7314 17.2811 18.1421 17.2811H18.3054C18.7161 17.2811 19.0502 17.6154 19.0502 18.026Z" fill="#3B82F6"/>
<path d="M39.2726 4.9136C38.9489 4.59 38.4244 4.59 38.1006 4.9136L36.5567 6.45752C36.2331 6.78112 36.2331 7.30584 36.5567 7.62953C36.7185 7.79137 36.9306 7.87225 37.1427 7.87225C37.3549 7.87225 37.5668 7.79137 37.7287 7.62953L39.2726 6.08561C39.5962 5.762 39.5962 5.23728 39.2726 4.9136Z" fill="#3B82F6"/>
<path d="M39.2725 22.7758L37.7287 21.2318C37.4051 20.9082 36.8805 20.9082 36.5567 21.2318C36.2331 21.5554 36.2331 22.0802 36.5567 22.4038L38.1006 23.9477C38.2624 24.1095 38.4745 24.1904 38.6865 24.1904C38.8986 24.1904 39.1107 24.1094 39.2725 23.9477C39.5961 23.6241 39.5961 23.0994 39.2725 22.7758Z" fill="#3B82F6"/>
<path d="M42.3852 13.6019H40.2017C39.7441 13.6019 39.373 13.9729 39.373 14.4306C39.373 14.8883 39.7441 15.2593 40.2017 15.2593H42.3852C42.8428 15.2593 43.2139 14.8883 43.2139 14.4306C43.2139 13.9729 42.8428 13.6019 42.3852 13.6019Z" fill="#3B82F6"/>
<path d="M7.44341 6.45764L5.89957 4.91372C5.57589 4.59012 5.05133 4.59012 4.72756 4.91372C4.40396 5.23732 4.40396 5.76204 4.72756 6.08573L6.27148 7.62965C6.43333 7.79149 6.64539 7.87237 6.85745 7.87237C7.06951 7.87237 7.28157 7.79149 7.44341 7.62965C7.76701 7.30596 7.76701 6.78132 7.44341 6.45764Z" fill="#3B82F6"/>
<path d="M7.44341 21.2318C7.11981 20.9081 6.59517 20.9081 6.27148 21.2318L4.72756 22.7758C4.40396 23.0994 4.40396 23.6241 4.72756 23.9477C4.88941 24.1095 5.10147 24.1904 5.31353 24.1904C5.52559 24.1904 5.73765 24.1095 5.89949 23.9477L7.44341 22.4038C7.76701 22.0801 7.76701 21.5555 7.44341 21.2318Z" fill="#3B82F6"/>
<path d="M3.79831 13.6019H1.61482C1.15722 13.6019 0.786133 13.9729 0.786133 14.4306C0.786133 14.8883 1.15722 15.2593 1.61482 15.2593H3.79831C4.25591 15.2593 4.627 14.8883 4.627 14.4306C4.627 13.9729 4.25591 13.6019 3.79831 13.6019Z" fill="#3B82F6"/>
</g>
<defs>
<clipPath id="clip0_74_6">
<rect width="44" height="44" fill="white"/>
</clipPath>
</defs>
</svg>
