<svg width="31" height="28" viewBox="0 0 31 28" fill="none" xmlns="http://www.w3.org/2000/svg">
<path d="M26.125 5.5H23.375V4.125C23.375 1.85034 21.5247 0 19.25 0H11C8.72534 0 6.875 1.85034 6.875 4.125V5.5H4.125C1.85034 5.5 0 7.35034 0 9.625V23.375C0 25.6497 1.85034 27.5 4.125 27.5H26.125C28.3997 27.5 30.25 25.6497 30.25 23.375V9.625C30.25 7.35034 28.3997 5.5 26.125 5.5ZM9.625 4.125C9.625 3.367 10.242 2.75 11 2.75H19.25C20.008 2.75 20.625 3.367 20.625 4.125V5.5H9.625V4.125ZM27.5 23.375C27.5 24.133 26.883 24.75 26.125 24.75H4.125C3.367 24.75 2.75 24.133 2.75 23.375V14.4064L14.6141 19.152C14.7786 19.2171 14.9518 19.25 15.125 19.25C15.2982 19.25 15.4714 19.2171 15.6359 19.152L27.5 14.4064V23.375ZM27.5 11.4437L15.125 16.3939L2.75 11.4437V9.625C2.75 8.867 3.367 8.25 4.125 8.25H26.125C26.883 8.25 27.5 8.867 27.5 9.625V11.4437Z" fill="black"/>
</svg>
