<svg width="44" height="44" viewBox="0 0 44 44" fill="none" xmlns="http://www.w3.org/2000/svg">
<g clip-path="url(#clip0_858_92)">
<path d="M43.2147 34.5004C43.2151 35.0334 43.1346 35.5633 42.976 36.0721L40.9483 42.5919C40.8924 42.7723 40.7802 42.93 40.6281 43.042C40.4761 43.154 40.2921 43.2143 40.1033 43.2142C40.0146 43.2141 39.9265 43.201 39.8416 43.1753C39.7308 43.1408 39.6278 43.0849 39.5386 43.0106C39.4493 42.9363 39.3756 42.8452 39.3216 42.7424C39.2676 42.6397 39.2343 42.5273 39.2238 42.4117C39.2132 42.296 39.2255 42.1795 39.26 42.0686L41.2877 35.547C41.436 35.0712 41.4814 34.5694 41.4211 34.0747C41.3608 33.58 41.196 33.1038 40.9378 32.6776C40.6796 32.2514 40.3337 31.8849 39.9232 31.6024C39.5126 31.3199 39.0468 31.1279 38.5564 31.039L31.4443 29.7484C31.2405 29.7116 31.0561 29.6043 30.9233 29.4453C30.7905 29.2863 30.7177 29.0858 30.7177 28.8786V18.5685C30.7044 18.1814 30.5413 17.8147 30.2628 17.5456C29.9842 17.2765 29.6121 17.1261 29.2248 17.1261C28.8375 17.1261 28.4653 17.2765 28.1868 17.5456C27.9083 17.8147 27.7451 18.1814 27.7318 18.5685V36.7986C27.7318 36.9733 27.68 37.1441 27.583 37.2894C27.4859 37.4346 27.3481 37.5479 27.1867 37.6149C27.0254 37.6818 26.8478 37.6995 26.6764 37.6656C26.505 37.6317 26.3476 37.5478 26.2238 37.4245L22.9286 34.1274C22.781 33.9712 22.6036 33.8462 22.4069 33.7597C22.2102 33.6733 21.9981 33.6272 21.7832 33.6241C21.5684 33.6211 21.3551 33.6611 21.156 33.7419C20.9569 33.8228 20.776 33.9427 20.6241 34.0946C20.4721 34.2466 20.3522 34.4274 20.2714 34.6265C20.1906 34.8257 20.1505 35.0389 20.1536 35.2538C20.1566 35.4687 20.2027 35.6807 20.2892 35.8774C20.3756 36.0742 20.5007 36.2515 20.6569 36.3991L25.9604 41.7027C26.1264 41.8684 26.2197 42.0933 26.2199 42.3279C26.2201 42.5624 26.1271 42.7875 25.9613 42.9534C25.7956 43.1194 25.5707 43.2127 25.3361 43.2129C25.1016 43.2131 24.8765 43.1201 24.7106 42.9543L19.407 37.6508C19.0936 37.3373 18.845 36.9653 18.6753 36.5558C18.5057 36.1463 18.4184 35.7074 18.4184 35.2641C18.4184 34.8209 18.5057 34.382 18.6753 33.9725C18.845 33.563 19.0936 33.191 19.407 32.8775C19.7204 32.5641 20.0925 32.3155 20.502 32.1459C20.9115 31.9763 21.3504 31.889 21.7936 31.889C22.2368 31.889 22.6757 31.9763 23.0852 32.1459C23.4947 32.3155 23.8668 32.5641 24.1802 32.8775L25.9657 34.6631V18.5756C25.9856 17.7239 26.3378 16.9138 26.9472 16.3185C27.5565 15.7231 28.3746 15.3898 29.2265 15.3898C30.0784 15.3898 30.8965 15.7231 31.5059 16.3185C32.1153 16.9138 32.4675 17.7239 32.4874 18.5756V28.1485L38.8746 29.3065C40.0914 29.5278 41.192 30.1687 41.985 31.1177C42.778 32.0667 43.2132 33.2637 43.2147 34.5004ZM16.3592 32.6071C16.184 32.6066 16.0161 32.5368 15.8922 32.4129C15.7683 32.289 15.6985 32.1211 15.698 31.9459V29.4709C15.7046 28.9695 15.5568 28.4782 15.2747 28.0636C14.9926 27.649 14.5899 27.3312 14.1211 27.1532C13.8241 27.0454 13.5342 26.9234 13.2478 26.789C12.7955 26.5845 12.2913 26.5241 11.8036 26.6162C11.3159 26.7082 10.8683 26.9482 10.5217 27.3035L8.75388 29.0713C8.62936 29.193 8.46216 29.2612 8.28805 29.2612C8.11394 29.2612 7.94674 29.193 7.82222 29.0713L6.08972 27.3406C6.02835 27.2794 5.97967 27.2066 5.94645 27.1265C5.91324 27.0464 5.89614 26.9606 5.89614 26.8739C5.89614 26.7872 5.91324 26.7014 5.94645 26.6213C5.97967 26.5412 6.02835 26.4684 6.08972 26.4072L7.85757 24.6393C8.21311 24.2922 8.45346 23.8442 8.5461 23.3561C8.63874 22.8679 8.57921 22.363 8.37556 21.9098C8.24027 21.6261 8.11931 21.3358 8.01315 21.04C7.83463 20.5712 7.51643 20.1685 7.1016 19.8865C6.68676 19.6045 6.19531 19.4566 5.69372 19.463H3.21872C3.13166 19.4633 3.04541 19.4464 2.96489 19.4133C2.88436 19.3802 2.81115 19.3315 2.74943 19.2701C2.6877 19.2087 2.63868 19.1358 2.60515 19.0554C2.57161 18.9751 2.55424 18.8889 2.55401 18.8019V16.3587C2.55447 16.1835 2.62428 16.0156 2.74818 15.8917C2.87207 15.7678 3.03997 15.698 3.21518 15.6975H5.69018C6.19158 15.7041 6.68287 15.5563 7.09746 15.2742C7.51204 14.9921 7.82986 14.5894 8.00784 14.1206C8.11568 13.8236 8.23766 13.5337 8.37202 13.2473C8.57608 12.7949 8.63616 12.2908 8.54414 11.8032C8.45212 11.3156 8.21244 10.8681 7.85757 10.5212L6.08972 8.75337C6.02835 8.69212 5.97967 8.61938 5.94645 8.53929C5.91324 8.45921 5.89614 8.37336 5.89614 8.28666C5.89614 8.19996 5.91324 8.11411 5.94645 8.03403C5.97967 7.95394 6.02835 7.88119 6.08972 7.81994L7.82045 6.08921C7.88158 6.02764 7.95429 5.97877 8.03439 5.94542C8.11449 5.91207 8.2004 5.8949 8.28716 5.8949C8.37393 5.8949 8.45984 5.91207 8.53994 5.94542C8.62004 5.97877 8.69275 6.02764 8.75388 6.08921L10.5217 7.85707C10.8689 8.21253 11.317 8.4527 11.8052 8.54503C12.2935 8.63737 12.7983 8.57741 13.2513 8.37328C13.5342 8.24069 13.8241 8.11871 14.1211 8.01971C14.5899 7.84119 14.9925 7.523 15.2746 7.10816C15.5566 6.69333 15.7044 6.20187 15.698 5.70028V3.22529C15.6969 3.13763 15.7131 3.05062 15.7458 2.96928C15.7784 2.88794 15.8269 2.81389 15.8884 2.75142C15.9499 2.68894 16.0232 2.63928 16.104 2.60531C16.1848 2.57134 16.2715 2.55373 16.3592 2.5535H18.8024C18.9776 2.55397 19.1455 2.62378 19.2694 2.74767C19.3933 2.87156 19.4631 3.03947 19.4636 3.21468V5.68968C19.457 6.19108 19.6048 6.68237 19.8869 7.09695C20.169 7.51153 20.5717 7.82935 21.0405 8.00734C21.3375 8.11518 21.6274 8.23716 21.9138 8.37152C22.3661 8.57583 22.8702 8.63605 23.3579 8.54402C23.8456 8.45199 24.2931 8.21216 24.6398 7.85707L26.4077 6.08921C26.4688 6.02764 26.5415 5.97877 26.6216 5.94542C26.7017 5.91207 26.7876 5.8949 26.8744 5.8949C26.9612 5.8949 27.0471 5.91207 27.1272 5.94542C27.2073 5.97877 27.28 6.02764 27.3411 6.08921L29.0719 7.81994C29.1332 7.88119 29.1819 7.95394 29.2151 8.03403C29.2483 8.11411 29.2654 8.19996 29.2654 8.28666C29.2654 8.37336 29.2483 8.45921 29.2151 8.53929C29.1819 8.61938 29.1332 8.69212 29.0719 8.75337L27.304 10.5212C26.9485 10.8677 26.7082 11.315 26.6155 11.8026C26.5229 12.2903 26.5824 12.7946 26.786 13.2473C26.8281 13.3628 26.8939 13.4682 26.9791 13.5569C27.0643 13.6456 27.167 13.7155 27.2808 13.7622C27.3945 13.8089 27.5168 13.8313 27.6397 13.8281C27.7626 13.8249 27.8835 13.796 27.9946 13.7434C28.1058 13.6908 28.2047 13.6156 28.2851 13.5226C28.3655 13.4296 28.4257 13.3208 28.4617 13.2032C28.4977 13.0857 28.5087 12.9619 28.4942 12.8398C28.4796 12.7177 28.4397 12.6 28.3771 12.4942C28.3308 12.3698 28.3229 12.2344 28.3544 12.1055C28.3859 11.9766 28.4554 11.8601 28.5539 11.7711L30.3217 10.0032C30.7759 9.54704 31.0309 8.92951 31.0309 8.28577C31.0309 7.64204 30.7759 7.02451 30.3217 6.5683L28.5928 4.83934C28.1305 4.39685 27.5152 4.14986 26.8753 4.14986C26.2354 4.14986 25.6201 4.39685 25.1578 4.83934L23.39 6.60719C23.3017 6.70555 23.1858 6.77502 23.0575 6.80656C22.9291 6.83809 22.7943 6.83022 22.6704 6.78398C22.3346 6.62487 21.9934 6.48345 21.6416 6.35439C21.5151 6.29953 21.4083 6.20767 21.3351 6.09092C21.2619 5.97416 21.2257 5.83798 21.2314 5.70028V3.22529C21.2326 2.90547 21.1706 2.58858 21.0491 2.29275C20.9276 1.99693 20.7489 1.72799 20.5232 1.50136C20.2976 1.27472 20.0294 1.09484 19.7341 0.972029C19.4388 0.849213 19.1222 0.785875 18.8024 0.785645L16.3592 0.785645C15.7151 0.786113 15.0976 1.04218 14.6421 1.49761C14.1867 1.95304 13.9306 2.5706 13.9302 3.21468V5.68968C13.9357 5.82757 13.8995 5.96393 13.8264 6.08095C13.7532 6.19796 13.6464 6.29018 13.52 6.34555C13.1664 6.47284 12.827 6.61427 12.4947 6.77337C12.3703 6.8199 12.2349 6.82793 12.1059 6.7964C11.9769 6.76486 11.8605 6.69524 11.7716 6.59659L10.0038 4.82873C9.54146 4.38624 8.92621 4.13926 8.28628 4.13926C7.64635 4.13926 7.03111 4.38624 6.56881 4.82873L4.83984 6.5577C4.38568 7.0139 4.1307 7.63143 4.1307 8.27517C4.1307 8.9189 4.38568 9.53643 4.83984 9.99264L6.6077 11.7605C6.70585 11.8489 6.77518 11.9648 6.8067 12.0931C6.83822 12.2214 6.83048 12.3562 6.78449 12.48C6.62538 12.8159 6.48395 13.1571 6.3549 13.5089C6.30003 13.6353 6.20818 13.7422 6.09142 13.8154C5.97467 13.8886 5.83848 13.9247 5.70079 13.919H3.22579C2.90509 13.9179 2.58732 13.9802 2.2908 14.1024C1.99428 14.2246 1.72487 14.4042 1.4981 14.631C1.27132 14.8578 1.09167 15.1272 0.969476 15.4237C0.847286 15.7202 0.784981 16.038 0.786149 16.3587V18.8019C0.786617 19.4459 1.04268 20.0635 1.49811 20.5189C1.95354 20.9744 2.57111 21.2304 3.21518 21.2309H5.69018C5.82808 21.2254 5.96444 21.2615 6.08145 21.3347C6.19846 21.4079 6.29068 21.5146 6.34606 21.641C6.47334 21.9946 6.61477 22.334 6.77388 22.6664C6.82016 22.7908 6.82806 22.9262 6.79654 23.0551C6.76502 23.184 6.69554 23.3005 6.59709 23.3895L4.82924 25.1573C4.37507 25.6135 4.12009 26.231 4.12009 26.8748C4.12009 27.5185 4.37507 28.136 4.82924 28.5923L6.5582 30.3195C7.0205 30.7619 7.63574 31.0089 8.27567 31.0089C8.91561 31.0089 9.53085 30.7619 9.99315 30.3195L11.761 28.5516C11.8493 28.4532 11.9651 28.3838 12.0935 28.3522C12.2218 28.3207 12.3567 28.3286 12.4805 28.3748C12.8164 28.5339 13.1576 28.6753 13.5094 28.8044C13.6358 28.8593 13.7427 28.9511 13.8159 29.0679C13.8891 29.1846 13.9252 29.3208 13.9196 29.4585V31.9335C13.9182 32.2544 13.9803 32.5723 14.1024 32.869C14.2245 33.1658 14.4041 33.4354 14.6309 33.6623C14.8577 33.8893 15.1272 34.0691 15.4238 34.1914C15.7204 34.3137 16.0383 34.3761 16.3592 34.3749C16.5936 34.3749 16.8185 34.2818 16.9842 34.116C17.15 33.9502 17.2431 33.7254 17.2431 33.491C17.2431 33.2566 17.15 33.0317 16.9842 32.866C16.8185 32.7002 16.5936 32.6071 16.3592 32.6071ZM17.5808 22.6151C16.585 22.6151 15.6115 22.3198 14.7836 21.7666C13.9556 21.2134 13.3103 20.427 12.9292 19.507C12.5481 18.587 12.4484 17.5747 12.6427 16.598C12.8369 15.6214 13.3165 14.7242 14.0206 14.0201C14.7247 13.316 15.6219 12.8364 16.5985 12.6422C17.5752 12.4479 18.5875 12.5476 19.5075 12.9287C20.4275 13.3098 21.2139 13.9551 21.7671 14.7831C22.3204 15.611 22.6156 16.5845 22.6156 17.5803C22.6138 18.915 22.0827 20.1946 21.1389 21.1384C20.1951 22.0822 18.9155 22.6133 17.5808 22.6151ZM20.8478 17.5803C20.8478 16.9341 20.6562 16.3025 20.2972 15.7652C19.9382 15.228 19.428 14.8092 18.831 14.562C18.234 14.3147 17.5772 14.25 16.9434 14.3761C16.3097 14.5021 15.7276 14.8133 15.2707 15.2702C14.8138 15.7271 14.5026 16.3092 14.3766 16.9429C14.2505 17.5767 14.3152 18.2335 14.5625 18.8305C14.8097 19.4275 15.2285 19.9377 15.7657 20.2967C16.303 20.6557 16.9346 20.8473 17.5808 20.8473C18.447 20.8463 19.2774 20.5018 19.8899 19.8894C20.5023 19.2769 20.8468 18.4465 20.8478 17.5803Z" fill="#290F1C"/>
</g>
<defs>
<clipPath id="clip0_858_92">
<rect width="44" height="44" fill="white"/>
</clipPath>
</defs>
</svg>
