<svg width="35" height="51" viewBox="0 0 35 51" fill="none" xmlns="http://www.w3.org/2000/svg">
<path d="M16.7705 50.2915H22.2017C22.7601 50.2915 23.2138 49.8389 23.2138 49.2806V42.5692C23.2138 42.0107 22.7601 41.5581 22.2017 41.5581H12.2602C11.7017 41.5581 11.248 42.0107 11.248 42.5692V44.6493V49.2119C11.248 49.8099 11.7313 50.2942 12.33 50.2942H17.2323" stroke="white" stroke-width="1.245" stroke-miterlimit="10"/>
<path d="M33.973 17.0091C33.973 7.82578 26.2867 0.407656 16.893 0.627314C7.80522 0.839033 0.500115 8.30478 0.623613 17.2394C0.698783 22.6197 3.41304 27.3728 7.55017 30.3076C9.91808 31.9857 11.3678 34.6426 11.3678 37.5114V40.7668C11.3678 41.2033 11.7276 41.5579 12.1732 41.5579H22.4234C22.8664 41.5579 23.2289 41.2033 23.2289 40.7668V37.6016C23.2289 34.7008 24.6706 31.9962 27.0626 30.2971C31.2508 27.3172 33.973 22.4768 33.973 17.0091Z" stroke="white" stroke-width="1.245" stroke-miterlimit="10"/>
<path d="M19.1789 41.5554C19.1601 40.1447 19.2165 38.7288 19.3051 37.3209C19.4876 34.4124 19.8313 31.4906 20.5427 28.651C20.9401 27.0631 21.434 25.4805 22.2207 24.0223C22.6556 23.2125 23.1147 22.3603 23.7912 21.7013C24.4221 21.0873 25.2732 20.7168 26.1376 21.1429C27.276 21.7066 26.7793 23.1675 25.8907 23.6809C25.1846 24.0885 24.2933 24.1943 23.4798 24.2075C21.877 24.2313 20.2877 23.6968 18.854 23.0272C18.1748 22.7096 17.4956 22.3365 16.9345 21.8548C16.3277 21.3335 15.8203 20.5421 15.9009 19.7455C15.9975 18.7822 17.109 18.0836 18.0459 18.6102C18.9292 19.1051 18.8379 20.0949 18.4406 20.8624C18.25 21.2302 17.9895 21.5769 17.6674 21.8548C17.1063 22.3365 16.427 22.7123 15.7478 23.0272C14.3142 23.6968 12.7248 24.234 11.1221 24.2075C10.3086 24.1943 9.41727 24.0885 8.71119 23.6809C7.82257 23.1675 7.3232 21.7066 8.4642 21.1429C9.326 20.7168 10.177 21.0847 10.8107 21.7013C11.4872 22.3603 11.9463 23.2151 12.3812 24.0223C13.1678 25.4831 13.6591 27.0631 14.0591 28.651C14.7706 31.4906 15.1142 34.4124 15.2968 37.3209C15.3854 38.7288 15.4418 40.1447 15.423 41.5554" stroke="white" stroke-width="1.245" stroke-miterlimit="10"/>
</svg>
