<svg width="48" height="46" viewBox="0 0 48 46" fill="none" xmlns="http://www.w3.org/2000/svg">
<path d="M41.2029 35.7164H37.7686V19.1147H41.0424L41.2092 35.8048" stroke="white" stroke-width="1.28912" stroke-miterlimit="10"/>
<path d="M41.1469 35.7243C44.357 34.3636 46.6666 31.2198 46.6666 27.4769C46.6666 23.6725 44.3365 20.4184 41.041 19.0972" stroke="white" stroke-width="1.28912" stroke-miterlimit="10"/>
<path d="M6.23145 35.8411L6.23456 37.6919" stroke="white" stroke-width="1.28912" stroke-miterlimit="10"/>
<path d="M6.20215 19.1147L6.23186 35.8411" stroke="white" stroke-width="1.28912" stroke-miterlimit="10"/>
<path d="M41.0419 19.1146L41.0263 17.5885C41.0263 8.22963 33.2297 0.644531 23.6124 0.644531C13.9951 0.644531 6.19998 8.23121 6.19998 17.5885L6.2031 19.113H9.54543L9.52984 35.7244L6.08006 35.7779C2.8857 34.4109 0.644531 31.2089 0.644531 27.477C0.644531 23.6978 2.94334 20.4626 6.20154 19.1256" stroke="white" stroke-width="1.28912" stroke-miterlimit="10"/>
<path d="M18.7688 43.1972H6.23438V35.6453" stroke="white" stroke-width="1.28912" stroke-miterlimit="10"/>
<path d="M19.9354 44.4745H23.2777C23.963 44.4745 24.5237 43.9069 24.5237 43.2132V43.1817C24.5237 42.488 23.963 41.9204 23.2777 41.9204H19.9354C19.2501 41.9204 18.6895 42.488 18.6895 43.1817V43.2132C18.6895 43.9069 19.2501 44.4745 19.9354 44.4745Z" stroke="white" stroke-width="1.28912" stroke-miterlimit="10"/>
<path d="M31.5167 29.4494C32.6161 29.4494 33.5073 28.5472 33.5073 27.4344C33.5073 26.3216 32.6161 25.4194 31.5167 25.4194C30.4176 25.4194 29.5264 26.3216 29.5264 27.4344C29.5264 28.5472 30.4176 29.4494 31.5167 29.4494Z" stroke="white" stroke-width="1.28912" stroke-miterlimit="10"/>
<path d="M23.6526 29.4494C24.7517 29.4494 25.6429 28.5472 25.6429 27.4344C25.6429 26.3216 24.7517 25.4194 23.6526 25.4194C22.5532 25.4194 21.6621 26.3216 21.6621 27.4344C21.6621 28.5472 22.5532 29.4494 23.6526 29.4494Z" stroke="white" stroke-width="1.28912" stroke-miterlimit="10"/>
<path d="M15.7863 29.4494C16.8856 29.4494 17.7768 28.5472 17.7768 27.4344C17.7768 26.3216 16.8856 25.4194 15.7863 25.4194C14.6871 25.4194 13.7959 26.3216 13.7959 27.4344C13.7959 28.5472 14.6871 29.4494 15.7863 29.4494Z" stroke="white" stroke-width="1.28912" stroke-miterlimit="10"/>
</svg>
