<svg width="179" height="46" viewBox="0 0 179 46" fill="none" xmlns="http://www.w3.org/2000/svg">
<path d="M102.913 16.4688C104.307 16.4688 105.623 16.6948 106.86 17.1465C108.107 17.5883 109.207 18.2754 110.159 19.208C111.121 20.1408 111.878 21.3291 112.428 22.7725C112.978 24.2061 113.253 25.9149 113.253 27.8984V29.5332H97.4961C97.5118 30.7924 97.75 31.8772 98.2148 32.7881C98.696 33.7209 99.3684 34.4377 100.232 34.9385C101.097 35.4294 102.108 35.6748 103.267 35.6748C104.042 35.6748 104.745 35.5676 105.373 35.3516C106.001 35.1257 106.546 34.7963 107.008 34.3643C107.469 33.9322 107.818 33.397 108.054 32.7588L113.031 33.3184C112.717 34.6341 112.118 35.7837 111.234 36.7656C110.361 37.7374 109.241 38.4932 107.877 39.0332C106.512 39.5634 104.95 39.8291 103.192 39.8291C100.925 39.829 98.9658 39.3575 97.3164 38.415C95.6766 37.4626 94.414 36.1169 93.5303 34.3789C92.6467 32.6312 92.2051 30.5742 92.2051 28.208C92.2051 25.8808 92.6465 23.8377 93.5303 22.0801C94.4238 20.3127 95.671 18.938 97.2715 17.9561C98.872 16.9643 100.753 16.4688 102.913 16.4688ZM145.772 16.4688C147.982 16.4688 149.897 16.9547 151.517 17.9268C153.137 18.8989 154.389 20.2639 155.272 22.0215C156.166 23.779 156.612 25.8263 156.612 28.1631C156.612 30.5001 156.166 32.5432 155.272 34.291C154.389 36.0386 153.137 37.3981 151.517 38.3701C149.897 39.3422 147.982 39.829 145.772 39.8291C143.563 39.8291 141.648 39.3422 140.027 38.3701C138.407 37.3981 137.15 36.0386 136.257 34.291C135.373 32.5432 134.932 30.5001 134.932 28.1631C134.932 25.8263 135.373 23.779 136.257 22.0215C137.15 20.2639 138.407 18.8989 140.027 17.9268C141.648 16.9547 143.563 16.4688 145.772 16.4688ZM66.5283 9.22168C68.708 9.22172 70.5195 9.56562 71.9629 10.2529C73.416 10.9304 74.501 11.858 75.2178 13.0361C75.9444 14.2144 76.3076 15.5504 76.3076 17.043C76.3076 18.2702 76.0718 19.3205 75.6006 20.1943C75.1293 21.0583 74.4964 21.7607 73.7012 22.3008C72.9058 22.8408 72.017 23.2292 71.0352 23.4648V23.7588C72.1054 23.8177 73.1314 24.1472 74.1133 24.7461C75.105 25.3352 75.9155 26.1699 76.5439 27.25C77.1723 28.3301 77.4863 29.6363 77.4863 31.168C77.4863 32.729 77.1084 34.133 76.3525 35.3799C75.5965 36.6171 74.4566 37.5947 72.9346 38.3115C71.4127 39.0282 69.4977 39.3867 67.1904 39.3867H54.9805V9.22168H66.5283ZM124.033 33.5684H124.269L129.482 16.7627H135.153L127.097 39.3867H121.205L113.148 16.7627H118.834L124.033 33.5684ZM171.076 16.4688C172.637 16.4688 173.998 16.803 175.156 17.4707C176.324 18.1384 177.228 19.1056 177.866 20.3721C178.514 21.6387 178.833 23.1758 178.823 24.9824V39.3867H173.491V25.8066C173.491 24.2946 173.099 23.1111 172.313 22.2568C171.538 21.4027 170.462 20.9757 169.088 20.9756C168.155 20.9756 167.325 21.1824 166.599 21.5947C165.882 21.9973 165.317 22.5809 164.904 23.3467C164.502 24.1126 164.301 25.0409 164.301 26.1309V39.3867H158.969V16.7637H164.065V20.6074H164.33C164.851 19.3408 165.68 18.3341 166.819 17.5879C167.968 16.8417 169.387 16.4688 171.076 16.4688ZM90.8213 16.4385C91.1159 16.4385 91.4453 16.453 91.8086 16.4824C92.1817 16.5021 92.4909 16.5369 92.7363 16.5859V21.4902C92.5105 21.4117 92.1519 21.3431 91.6611 21.2842C91.18 21.2155 90.7134 21.1816 90.2617 21.1816C89.2899 21.1817 88.4162 21.3924 87.6406 21.8145C86.8747 22.2269 86.271 22.8016 85.8291 23.5381C85.3872 24.2745 85.166 25.1237 85.166 26.0859V39.3857H79.834V16.7627H85.0039V20.5332H85.2393C85.6517 19.2273 86.3588 18.2207 87.3604 17.5137C88.3716 16.7969 89.5253 16.4386 90.8213 16.4385ZM145.802 20.6963C144.575 20.6963 143.553 21.0297 142.738 21.6973C141.933 22.3649 141.329 23.2636 140.927 24.3926C140.534 25.5119 140.337 26.764 140.337 28.1484C140.337 29.5231 140.534 30.7703 140.927 31.8896C141.329 33.009 141.933 33.9026 142.738 34.5703C143.553 35.2282 144.574 35.5576 145.802 35.5576C147 35.5576 148.002 35.2282 148.807 34.5703C149.612 33.9026 150.211 33.0089 150.604 31.8896C151.006 30.7703 151.207 29.523 151.207 28.1484C151.207 26.764 151.006 25.5119 150.604 24.3926C150.211 23.2635 149.612 22.3649 148.807 21.6973C148.002 21.0296 147 20.6963 145.802 20.6963ZM60.4453 34.8203H66.3213C68.3045 34.8203 69.7335 34.4424 70.6074 33.6865C71.4912 32.9206 71.9336 31.9382 71.9336 30.7402C71.9335 29.8468 71.7123 29.0419 71.2705 28.3252C70.8287 27.5986 70.2006 27.0286 69.3857 26.6162C68.5707 26.194 67.598 25.9834 66.4688 25.9834H60.4453V34.8203ZM102.986 20.6221C101.897 20.6221 100.939 20.8878 100.114 21.418C99.2896 21.9384 98.646 22.6253 98.1846 23.4795C97.7816 24.2329 97.5561 25.0531 97.5049 25.9395H108.142C108.132 24.9183 107.911 24.0102 107.479 23.2148C107.046 22.4097 106.443 21.776 105.667 21.3145C104.901 20.8531 104.007 20.6221 102.986 20.6221ZM60.4453 22.0508H65.8506C66.7931 22.0508 67.6424 21.8788 68.3984 21.5352C69.1544 21.1817 69.7486 20.686 70.1807 20.0479C70.6225 19.3999 70.8437 18.6336 70.8438 17.75C70.8438 16.5817 70.431 15.6193 69.6064 14.8633C68.7914 14.1072 67.5781 13.7285 65.9678 13.7285H60.4453V22.0508Z" fill="black"/>
<g clip-path="url(#clip0_946_1256)">
<path d="M22.8951 28.3758L18.9128 28.3364L15.0488 28.297L16.8231 24.709L24.2751 24.7747H24.6431H24.6825C24.6957 24.7747 24.7088 24.7747 24.722 24.7747C24.7483 24.7747 24.7745 24.7747 24.8008 24.7747H24.8403C24.8534 24.7747 24.8534 24.7747 24.8665 24.7747C24.8797 24.7747 24.8928 24.7747 24.906 24.7747C24.9323 24.7747 24.9585 24.7747 24.9717 24.7878C24.998 24.7878 25.0243 24.801 25.0505 24.801C25.09 24.801 25.1163 24.8141 25.1425 24.8141C25.1557 24.8141 25.182 24.8273 25.1951 24.8273C25.2214 24.8273 25.2477 24.8404 25.2608 24.8404C25.2871 24.8404 25.3003 24.8536 25.3265 24.8536H25.3397H25.3528C25.366 24.8536 25.366 24.8536 25.366 24.8667C25.4054 24.8798 25.4317 24.893 25.458 24.9061C25.4711 24.9061 25.4843 24.9193 25.4974 24.9193C25.4974 24.9193 25.5105 24.9193 25.5105 24.9324C25.5237 24.9324 25.55 24.9456 25.5631 24.9456C25.5763 24.9456 25.5894 24.9587 25.6025 24.9587C25.6025 24.9587 25.6025 24.9587 25.6157 24.9587C25.6288 24.9587 25.6288 24.9587 25.6288 24.9718C25.6551 24.985 25.6683 24.9981 25.6945 25.0113C25.7077 25.0244 25.7077 25.0244 25.7208 25.0244C25.7208 25.0244 25.734 25.0244 25.734 25.0376C25.7471 25.0376 25.7471 25.0507 25.7603 25.0507C25.7734 25.0638 25.7865 25.077 25.7997 25.0901C25.8128 25.1033 25.826 25.1033 25.8391 25.1164C25.8523 25.1164 25.8523 25.1296 25.8523 25.1296C25.8654 25.1296 25.8654 25.1296 25.8654 25.1427C25.8785 25.1558 25.8785 25.1558 25.8785 25.169C25.8917 25.169 25.8917 25.1821 25.9048 25.1953C25.918 25.1953 25.918 25.2084 25.918 25.2084C25.918 25.2084 25.9311 25.2084 25.9311 25.2216L25.9443 25.2347L25.9574 25.2478C25.9705 25.261 25.9837 25.2741 25.9968 25.3004C26.01 25.3136 26.01 25.3136 26.01 25.3267C26.0231 25.3398 26.0363 25.3661 26.0494 25.3924C26.0625 25.4187 26.0757 25.445 26.0888 25.4581C26.1545 25.5896 26.1808 25.7473 26.1808 25.905C26.1808 26.1284 26.1151 26.365 25.9968 26.6278C25.9574 26.7198 25.9048 26.8118 25.8391 26.9038C25.8391 26.917 25.826 26.9301 25.8128 26.9433C25.7471 27.0353 25.6814 27.1273 25.6025 27.2193C25.5631 27.2587 25.5237 27.3113 25.4843 27.3507C25.274 27.561 25.0374 27.7581 24.7614 27.9158C24.4854 28.0736 24.1831 28.1918 23.8677 28.2707C23.5917 28.3364 23.25 28.3758 22.8951 28.3758Z" fill="#FF7722"/>
<path d="M30.4396 14.943C30.479 14.9824 30.5053 15.0218 30.5185 15.0612L30.5316 15.0744C30.5842 15.1795 30.6236 15.2978 30.6236 15.4292C30.6368 15.6264 30.5842 15.8367 30.479 16.0732C30.4396 16.1521 30.4002 16.231 30.3345 16.3098C30.3345 16.323 30.3213 16.323 30.3213 16.3361C30.2293 16.4807 30.111 16.6252 29.9928 16.7435C29.7956 16.9538 29.559 17.1247 29.3093 17.2692C29.0596 17.4138 28.7968 17.5321 28.5339 17.6109C28.271 17.6898 27.995 17.7292 27.7453 17.7292L23.6448 17.7161H20.2539L21.831 14.5092L29.3093 14.4961H29.3356C29.3882 14.4961 29.4408 14.4961 29.4933 14.5092C29.5065 14.5092 29.5328 14.5092 29.5459 14.5092C29.559 14.5092 29.5722 14.5092 29.5853 14.5092C29.6248 14.5224 29.6773 14.5224 29.7168 14.5355C29.7299 14.5355 29.7299 14.5355 29.7299 14.5355C29.7825 14.5487 29.8482 14.5618 29.9008 14.575H29.9139C29.9402 14.5881 29.9665 14.5881 29.9796 14.6012C30.0059 14.6144 30.019 14.6144 30.0453 14.6275C30.0585 14.6275 30.0716 14.6407 30.0848 14.6407C30.111 14.6538 30.1505 14.667 30.1768 14.6932H30.1899C30.203 14.6932 30.2162 14.7064 30.2293 14.7064C30.2688 14.7327 30.3213 14.7721 30.3476 14.7984C30.3608 14.8641 30.4002 14.9035 30.4396 14.943Z" fill="#FF7722"/>
<circle cx="23" cy="23" r="22.5" fill="white"/>
<path d="M46 23C46 23.2366 46 23.4731 45.9869 23.6966C45.908 26.3777 45.3691 28.9406 44.4491 31.3194C44.2783 31.7531 44.0943 32.1869 43.8971 32.6074C43.7526 32.936 43.5817 33.2646 43.424 33.5931C43.2794 33.8823 43.1217 34.1583 42.964 34.4343C42.8326 34.6709 42.688 34.9074 42.5434 35.1309C42.5434 35.144 42.5303 35.144 42.5303 35.144C42.5171 35.1571 42.5171 35.1703 42.504 35.1834C42.4909 35.2097 42.4777 35.2229 42.4646 35.2491C42.4251 35.3149 42.3726 35.3806 42.3331 35.4463C42.2674 35.5383 42.2149 35.6434 42.136 35.7354C42.1097 35.788 42.0834 35.8274 42.044 35.8669C42.044 35.88 42.0309 35.88 42.0309 35.8931C41.9783 35.972 41.9257 36.0509 41.86 36.1297C41.768 36.2743 41.6629 36.4189 41.5709 36.5503C41.5577 36.5634 41.5577 36.5634 41.5577 36.5634C41.5446 36.5766 41.5446 36.5766 41.5314 36.5897C41.5183 36.6291 41.492 36.6554 41.4657 36.6817C41.4394 36.7211 41.4131 36.7606 41.3737 36.8C41.1897 37.0497 41.0057 37.2994 40.7954 37.536C40.7954 37.5491 40.7823 37.5491 40.7823 37.5491C40.6509 37.7069 40.5326 37.8514 40.4011 38.0091C40.112 38.3509 39.7966 38.6794 39.4811 39.008C39.2971 39.192 39.1131 39.3891 38.916 39.5731L38.9029 39.5863C38.7451 39.7309 38.5874 39.8886 38.4297 40.0331C38.364 40.0857 38.3114 40.1383 38.2457 40.1909C38.088 40.3354 37.9303 40.4669 37.7726 40.5983C37.7463 40.6246 37.72 40.6377 37.6937 40.664C37.4966 40.8349 37.2994 40.9926 37.0891 41.1503C36.9709 41.2423 36.8657 41.3211 36.7474 41.4131C36.6686 41.4657 36.5897 41.5314 36.5109 41.584C36.2217 41.7943 35.9326 42.0046 35.6303 42.1886C35.5646 42.2411 35.4857 42.2806 35.4069 42.3331C35.2229 42.4514 35.0389 42.5697 34.8549 42.6749C34.8417 42.6749 34.8286 42.688 34.8154 42.688C34.7234 42.7406 34.6446 42.7931 34.5526 42.8457C34.5263 42.8589 34.4869 42.8851 34.4606 42.8983C34.1714 43.0691 33.8691 43.24 33.5669 43.3846C33.2777 43.5423 32.9754 43.6869 32.6731 43.8314C32.3577 43.976 32.0423 44.1206 31.7269 44.252C31.372 44.3966 31.0171 44.528 30.6623 44.6594C30.2417 44.8171 29.8211 44.9486 29.3874 45.0669C29.164 45.1326 28.9537 45.1983 28.7303 45.2509C28.428 45.3297 28.1257 45.3954 27.8103 45.4611C27.0086 45.6451 26.1806 45.7634 25.3394 45.8554C24.5509 45.9343 23.7491 45.9737 22.9474 45.9737C14.7594 45.9737 7.58343 41.7023 3.50914 35.2623L19.2937 35.5514L22.0669 35.604C22.2246 35.604 22.3691 35.604 22.5269 35.604C22.6714 35.604 22.8291 35.604 22.9737 35.5909C23.0131 35.5909 23.0657 35.5909 23.1183 35.5777C23.2234 35.5777 23.3286 35.5646 23.4206 35.5646C23.5651 35.5514 23.7097 35.5383 23.8674 35.5251C23.9857 35.512 24.104 35.4989 24.2223 35.4857C24.2486 35.4857 24.2617 35.4857 24.288 35.4726C24.38 35.4594 24.4851 35.4463 24.5771 35.4331C24.6034 35.4331 24.6297 35.42 24.656 35.42C24.8269 35.3937 24.9846 35.3674 25.1423 35.3411C25.1817 35.328 25.2343 35.328 25.2737 35.3149C25.3657 35.3017 25.4709 35.2754 25.5629 35.2623C25.6023 35.2491 25.6286 35.2491 25.6549 35.236C25.7206 35.2229 25.7863 35.2097 25.852 35.1966C25.9046 35.1834 25.9571 35.1703 26.0097 35.1571C26.0623 35.144 26.1149 35.1309 26.1674 35.1177C26.3383 35.0783 26.5091 35.0257 26.6669 34.9863C26.8377 34.9337 27.0217 34.8811 27.1926 34.8286C27.232 34.8154 27.2583 34.8154 27.2846 34.8023C27.324 34.7891 27.3503 34.776 27.3897 34.7629C27.4029 34.7629 27.4291 34.7497 27.4423 34.7497C27.5211 34.7234 27.6 34.6971 27.692 34.6577C27.7709 34.6314 27.8497 34.6051 27.9286 34.5657C28.0074 34.5394 28.0863 34.5 28.1651 34.4737C28.244 34.4474 28.3229 34.408 28.4017 34.3817C28.4806 34.3423 28.5594 34.316 28.6383 34.2766C28.7171 34.2371 28.796 34.2109 28.8749 34.1714C28.9537 34.132 29.0326 34.1057 29.1114 34.0663C29.1903 34.0269 29.2691 33.9874 29.348 33.948C29.3874 33.9349 29.4137 33.9086 29.44 33.8954C29.4926 33.8691 29.5451 33.8429 29.5846 33.8166C29.624 33.7903 29.6634 33.7771 29.7029 33.7509C29.716 33.7509 29.7291 33.7377 29.7291 33.7377C29.7423 33.7377 29.7423 33.7246 29.7554 33.7246C29.7817 33.7114 29.7949 33.6983 29.8211 33.6851C29.9 33.6457 29.9789 33.5931 30.0709 33.5537C30.084 33.5537 30.084 33.5406 30.0971 33.5406C30.1103 33.5274 30.1103 33.5274 30.1234 33.5274C30.1497 33.5143 30.176 33.488 30.2154 33.4749C30.2943 33.4223 30.3863 33.3829 30.4651 33.3303C30.4914 33.3171 30.5177 33.304 30.5309 33.2909C30.5571 33.2777 30.5703 33.2646 30.5966 33.2514C30.6886 33.1857 30.7937 33.1331 30.8857 33.0674C30.9514 33.028 31.0171 32.9754 31.096 32.936C31.1223 32.9229 31.1486 32.8966 31.1749 32.8834C31.2669 32.8177 31.3589 32.752 31.4509 32.6863C31.5954 32.5811 31.74 32.476 31.8714 32.3709C31.9503 32.3051 32.0423 32.2394 32.1211 32.1737C32.2131 32.108 32.292 32.0291 32.3709 31.9634C32.384 31.9503 32.4103 31.9371 32.4234 31.924C32.4891 31.8714 32.5417 31.8189 32.6074 31.7531C32.6469 31.7137 32.6863 31.6874 32.7257 31.648C32.752 31.6217 32.7783 31.5954 32.8046 31.5691C32.8703 31.5034 32.936 31.4509 32.9886 31.3851C33.0674 31.3063 33.1463 31.2406 33.2251 31.1486C33.2777 31.096 33.3303 31.0434 33.3829 30.9909C33.5406 30.8331 33.6851 30.6623 33.8297 30.4914C33.9086 30.3994 34.0006 30.2943 34.0794 30.1891C34.1583 30.0971 34.2371 29.992 34.3029 29.9L34.316 29.8869C34.3291 29.8737 34.3423 29.8474 34.3554 29.8343C34.3686 29.8211 34.3686 29.8211 34.3817 29.808C34.4343 29.7423 34.4869 29.6634 34.5263 29.5977C34.6051 29.4926 34.6709 29.3874 34.7366 29.2823C34.7629 29.2429 34.7891 29.2034 34.8023 29.164C34.8417 29.0983 34.8943 29.0326 34.9206 28.9669C35.0126 28.8091 35.1046 28.6514 35.1966 28.4937C35.236 28.428 35.2754 28.3491 35.3149 28.2834C35.3806 28.1651 35.4331 28.0337 35.4989 27.9154C35.5383 27.8234 35.5909 27.7314 35.6171 27.6394C35.6434 27.5737 35.6829 27.4949 35.7091 27.4291C35.7354 27.3766 35.7486 27.324 35.7749 27.2714C35.8011 27.2057 35.8143 27.1531 35.8406 27.1006C35.8537 27.0611 35.8669 27.0349 35.8669 27.0086C35.88 26.9954 35.88 26.9823 35.88 26.9691C35.8931 26.9297 35.9063 26.9034 35.9194 26.864C35.9194 26.8509 35.9326 26.8509 35.9326 26.8377C35.9326 26.8377 35.9326 26.8377 35.9326 26.8246C35.9457 26.7851 35.9589 26.7326 35.972 26.6931C35.972 26.68 35.9851 26.6669 35.9851 26.6537C35.9851 26.6406 35.9983 26.6406 35.9983 26.6274C35.9983 26.6274 35.9983 26.6274 35.9983 26.6143V26.6011C35.9983 26.6011 35.9983 26.6011 35.9983 26.588C36.0114 26.5486 36.0246 26.496 36.0377 26.4434C36.0509 26.4171 36.0509 26.3909 36.064 26.3646C36.064 26.3514 36.064 26.3514 36.064 26.3383C36.0771 26.2726 36.0903 26.2069 36.1034 26.1411C36.1166 26.0754 36.1297 26.0229 36.1429 25.9571C36.1429 25.944 36.1429 25.9309 36.156 25.9177C36.156 25.9046 36.156 25.9046 36.156 25.8914C36.156 25.8783 36.1691 25.852 36.1691 25.8389C36.1823 25.7994 36.1823 25.76 36.1823 25.7206C36.1823 25.7074 36.1954 25.6811 36.1954 25.668C36.1954 25.6417 36.2086 25.6154 36.2086 25.5891C36.2086 25.576 36.2086 25.5497 36.2217 25.5366C36.2217 25.5234 36.2217 25.4971 36.2217 25.484C36.2217 25.4709 36.2217 25.4446 36.2217 25.4314C36.2217 25.4183 36.2217 25.392 36.2217 25.3789C36.2217 25.3657 36.2217 25.3526 36.2217 25.3394C36.2217 25.3263 36.2217 25.3131 36.2217 25.3C36.2217 25.2737 36.2217 25.2474 36.2217 25.2211C36.2217 25.1949 36.2217 25.1686 36.2217 25.1423C36.2217 25.1291 36.2217 25.1029 36.2217 25.0766V25.0503C36.2217 25.0371 36.2217 25.0109 36.2217 24.9977V24.9583C36.2217 24.8926 36.2217 24.84 36.2217 24.7874C36.2217 24.7349 36.2217 24.6823 36.2086 24.6166C36.2086 24.5903 36.2086 24.5509 36.1954 24.5246C36.1954 24.5114 36.1954 24.4851 36.1954 24.4589V24.4457C36.1954 24.4326 36.1954 24.4326 36.1954 24.4194V24.4063C36.1954 24.3669 36.1823 24.3274 36.1823 24.288C36.1823 24.2486 36.1691 24.2091 36.1691 24.1697C36.1691 24.1566 36.1691 24.1434 36.156 24.1303C36.156 24.1171 36.1429 24.0909 36.1429 24.0646C36.1429 24.0251 36.1297 23.9989 36.1297 23.9726C36.1166 23.9331 36.1166 23.9069 36.1034 23.8806C36.0903 23.8149 36.064 23.736 36.0509 23.6703C36.0509 23.6703 36.0509 23.6703 36.0509 23.6571C36.0377 23.6177 36.0377 23.5914 36.0246 23.5651C36.0246 23.5389 36.0114 23.5257 35.9983 23.4994C35.9983 23.4731 35.9851 23.46 35.972 23.4337C35.972 23.4206 35.9589 23.3943 35.9589 23.3811C35.9457 23.3549 35.9457 23.3417 35.9326 23.3154C35.9194 23.2629 35.8931 23.2234 35.8669 23.1709C35.8669 23.1577 35.8669 23.1577 35.8537 23.1577C35.8406 23.1314 35.8274 23.1051 35.8143 23.0657C35.8011 23.0394 35.788 23.0131 35.7749 22.9869C35.7617 22.9737 35.7617 22.9474 35.7486 22.9343C35.6434 22.724 35.512 22.54 35.3674 22.3691C35.144 22.0931 34.8811 21.8566 34.5789 21.6594C34.3686 21.5149 34.1583 21.3966 33.9217 21.2914L33.8823 21.2651C33.5669 21.1206 33.2251 21.0154 32.8571 20.9497C32.844 20.9497 32.8309 20.9497 32.8177 20.9366C32.8046 20.9366 32.7914 20.9366 32.7783 20.9234C32.6731 20.9103 32.5811 20.884 32.476 20.8709C32.5549 20.8577 32.6469 20.8446 32.7257 20.8314C32.7389 20.8314 32.7389 20.8314 32.752 20.8183C32.7651 20.8183 32.7651 20.8183 32.7783 20.8183C32.8703 20.8051 32.9754 20.7789 33.0674 20.7526C33.0806 20.7526 33.1069 20.7394 33.12 20.7394C33.1857 20.7263 33.2514 20.7131 33.3303 20.6869C33.396 20.6737 33.4617 20.6474 33.5274 20.6343C33.5406 20.6343 33.5406 20.6343 33.5537 20.6211C33.5669 20.6211 33.58 20.608 33.5931 20.608C33.7114 20.5686 33.8297 20.5423 33.948 20.5029C34.0006 20.4897 34.04 20.4634 34.0926 20.4503C34.1583 20.4371 34.224 20.4109 34.2766 20.3846C34.3423 20.3714 34.3949 20.3451 34.4606 20.3189C34.5789 20.2794 34.684 20.24 34.8023 20.2006C34.868 20.1743 34.9469 20.1349 35.0257 20.1086C35.0389 20.1086 35.0389 20.0954 35.052 20.0954C35.1046 20.0691 35.1571 20.056 35.2097 20.0297C35.3411 19.9771 35.4594 19.9114 35.5909 19.8589C35.6566 19.8326 35.7091 19.7931 35.7749 19.7669C35.9851 19.6617 36.2086 19.5434 36.4189 19.4251C36.4714 19.3989 36.524 19.3594 36.5766 19.3331C36.6554 19.2937 36.7343 19.2411 36.8131 19.1886C36.9314 19.1097 37.0629 19.0309 37.1811 18.952C37.2074 18.9257 37.2469 18.9126 37.2731 18.8863C37.352 18.8337 37.4309 18.7811 37.5097 18.7286C37.8777 18.4657 38.2326 18.1766 38.5611 17.8743C38.5743 17.8611 38.5743 17.8611 38.5874 17.848C38.7451 17.7034 38.9029 17.5457 39.0606 17.388C39.1526 17.296 39.2314 17.204 39.3103 17.1251C39.376 17.0594 39.4286 16.9937 39.4811 16.928C39.4943 16.9149 39.5206 16.8886 39.5337 16.8754L39.5469 16.8623C39.8491 16.5074 40.1383 16.1263 40.4011 15.732C40.5194 15.5611 40.6246 15.3903 40.7166 15.2194C40.7429 15.1669 40.7823 15.1143 40.8086 15.0617C40.848 14.9829 40.9006 14.904 40.94 14.812C40.9531 14.7726 40.9794 14.7463 40.9926 14.7069C41.0057 14.6806 41.0189 14.6411 41.0451 14.6149C41.0451 14.6017 41.0583 14.6017 41.0583 14.5886C41.0714 14.5754 41.0714 14.5491 41.0846 14.5229C41.0846 14.5097 41.0977 14.5097 41.0977 14.4966C41.1371 14.3914 41.1897 14.2994 41.2291 14.1943C41.2423 14.1549 41.2554 14.1286 41.2686 14.0891C41.2817 14.0497 41.2949 14.0234 41.308 13.984C41.3211 13.9577 41.3211 13.9314 41.3343 13.9051C41.3606 13.8263 41.3869 13.7474 41.4131 13.6686C41.4131 13.6554 41.4263 13.6554 41.4263 13.6423C41.4394 13.616 41.4394 13.6029 41.4394 13.5766C41.4526 13.5109 41.4789 13.4451 41.492 13.3794C41.5051 13.3137 41.5314 13.2611 41.5314 13.1954C41.5446 13.1691 41.5446 13.1297 41.5577 13.1034C41.5577 13.0903 41.5709 13.064 41.5709 13.0509C41.584 12.9983 41.584 12.9589 41.5971 12.9063C41.6103 12.8669 41.6103 12.8274 41.6103 12.788C41.6103 12.7749 41.6234 12.7486 41.6234 12.7354C41.6234 12.7223 41.6366 12.696 41.6366 12.6829C41.6497 12.6434 41.6497 12.5909 41.6497 12.5514C41.6497 12.512 41.6629 12.4594 41.6629 12.42C41.6629 12.3937 41.6629 12.3806 41.6629 12.3543C41.676 12.2491 41.676 12.1571 41.676 12.052C41.676 12.0389 41.676 12.0389 41.676 12.0257C41.676 11.8286 41.6629 11.6314 41.6366 11.4211C41.6366 11.4211 41.6366 11.4211 41.6366 11.408C41.6234 11.3291 41.6103 11.2371 41.5971 11.1583C41.5971 11.1451 41.5971 11.1451 41.5971 11.132C41.584 11.0531 41.5577 10.9743 41.5314 10.8954C41.5183 10.8297 41.492 10.7771 41.4789 10.7114C41.4657 10.672 41.4526 10.6326 41.4394 10.5931C41.4394 10.58 41.4263 10.5537 41.4263 10.5406C41.4263 10.5274 41.4131 10.5274 41.4131 10.5143C41.4 10.488 41.4 10.4749 41.3737 10.4486C41.3737 10.4354 41.3606 10.4223 41.3606 10.4091C41.3606 10.396 41.3606 10.396 41.3474 10.3829C41.3343 10.3697 41.3474 10.3697 41.3343 10.3697C41.3343 10.3566 41.3211 10.3434 41.3211 10.3303C41.3211 10.3171 41.308 10.2909 41.2949 10.2777C41.2817 10.2646 41.2817 10.2383 41.2686 10.2251C41.1897 10.0674 41.0977 9.90971 40.9926 9.752C40.5194 9.08171 39.7966 8.51657 38.7714 8.12229C37.7463 7.728 36.432 7.50457 34.7629 7.51771L15.6006 7.66229L2.65486 33.7377C0.959429 30.5309 0 26.8771 0 23C0 10.304 10.304 0 23 0C33.948 0 43.1217 7.66229 45.4349 17.9137C45.4349 17.9269 45.448 17.94 45.448 17.9531C45.4743 18.0583 45.5006 18.1766 45.5137 18.2817C45.5531 18.492 45.5926 18.6891 45.632 18.8994C45.6846 19.1754 45.724 19.4646 45.7634 19.7406C45.816 20.0823 45.8554 20.4371 45.8817 20.792C45.9211 21.2126 45.9474 21.6331 45.9606 22.0537C45.9869 22.3691 46 22.6846 46 23Z" fill="#FF7722"/>
<path d="M21.8179 14.5225L23.6316 17.7293H20.2539L21.8179 14.5225Z" fill="#FF7722"/>
<path d="M26.1285 25.4442C26.1942 25.5756 26.2205 25.7333 26.2205 25.891C26.2205 26.1145 26.1547 26.351 26.0365 26.6139C25.997 26.7059 25.9445 26.7979 25.8787 26.8899C25.8787 26.903 25.8656 26.9162 25.8525 26.9293C25.7867 27.0213 25.721 27.1133 25.6422 27.2053L24.249 24.7607H24.617H24.6565C24.6696 24.7607 24.6827 24.7607 24.6959 24.7607C24.7222 24.7607 24.7485 24.7607 24.7747 24.7607H24.8142C24.8273 24.7607 24.8273 24.7607 24.8405 24.7607C24.8536 24.7607 24.8667 24.7607 24.8799 24.7607C24.9062 24.7607 24.9325 24.7607 24.9456 24.7739C24.9719 24.7739 24.9982 24.787 25.0245 24.787C25.0639 24.787 25.0902 24.8002 25.1165 24.8002C25.1296 24.8002 25.1559 24.8133 25.169 24.8133C25.1953 24.8133 25.2216 24.8265 25.2347 24.8265C25.261 24.8265 25.2742 24.8396 25.3005 24.8396H25.3136H25.3267C25.3399 24.8396 25.3399 24.8396 25.3399 24.8527C25.3793 24.8659 25.4056 24.879 25.4319 24.8922C25.445 24.8922 25.4582 24.9053 25.4713 24.9053C25.4713 24.9053 25.4845 24.9053 25.4845 24.9185C25.4976 24.9185 25.5239 24.9316 25.537 24.9316C25.5502 24.9316 25.5633 24.9447 25.5765 24.9447C25.5765 24.9447 25.5765 24.9447 25.5896 24.9447C25.6027 24.9447 25.6027 24.9447 25.6027 24.9579C25.629 24.971 25.6422 24.9842 25.6685 24.9973C25.6816 25.0105 25.6816 25.0105 25.6947 25.0105C25.6947 25.0105 25.7079 25.0105 25.7079 25.0236C25.721 25.0236 25.721 25.0367 25.7342 25.0367C25.7473 25.0499 25.7605 25.063 25.7736 25.0762C25.7867 25.0893 25.7999 25.0893 25.813 25.1025C25.8262 25.1025 25.8262 25.1156 25.8262 25.1156C25.8393 25.1156 25.8393 25.1156 25.8393 25.1287C25.8525 25.1419 25.8525 25.1419 25.8525 25.155C25.8656 25.155 25.8656 25.1682 25.8787 25.1813C25.8919 25.1813 25.8919 25.1945 25.8919 25.1945C25.8919 25.1945 25.905 25.1945 25.905 25.2076L25.9182 25.2207L25.9313 25.2339C25.9445 25.247 25.9576 25.2602 25.9707 25.2865C25.9839 25.2996 25.9839 25.2996 25.9839 25.3127C25.997 25.3259 26.0102 25.3522 26.0233 25.3785C26.1022 25.4047 26.1153 25.431 26.1285 25.4442Z" fill="#FF7722"/>
<path d="M36.9058 41.1634L36.7875 41.4262C36.7087 41.4788 36.6298 41.5445 36.551 41.5971C36.2618 41.8074 35.9727 42.0177 35.6704 42.2017C35.6047 42.2542 35.5258 42.2937 35.447 42.3462C35.263 42.4645 35.079 42.5828 34.895 42.688C34.8818 42.688 34.8687 42.7011 34.8555 42.7011C34.7635 42.7537 34.6847 42.8062 34.5927 42.8588L29.5195 33.9611C29.5721 33.9348 29.6247 33.9085 29.6641 33.8822C29.7035 33.8559 29.743 33.8428 29.7824 33.8165C29.7955 33.8165 29.8087 33.8034 29.8087 33.8034C29.8218 33.8034 29.8218 33.7902 29.835 33.7902C29.8612 33.7771 29.8744 33.7639 29.9007 33.7508C29.9795 33.7114 30.0584 33.6588 30.1504 33.6194C30.1635 33.6194 30.1635 33.6062 30.1767 33.6062C30.1898 33.5931 30.1898 33.5931 30.203 33.5931C30.2292 33.58 30.2555 33.5537 30.295 33.5405C30.3738 33.488 30.4658 33.4485 30.5447 33.396C30.571 33.3828 30.5972 33.3697 30.6104 33.3565C30.6367 33.3434 30.6498 33.3302 30.6761 33.3171C30.7681 33.2514 30.8732 33.1988 30.9652 33.1331C31.031 33.0937 31.0967 33.0411 31.1755 33.0017C31.2018 32.9885 31.2281 32.9622 31.2544 32.9491C31.3464 32.8834 31.4384 32.8177 31.5304 32.752C31.675 32.6468 31.8195 32.5417 31.951 32.4365L36.9058 41.1634Z" fill="#FF7722"/>
<path d="M29.2947 14.5098L30.3198 16.3498C30.2278 16.4943 30.1095 16.6389 29.9913 16.7572C29.7941 16.9675 29.5575 17.1383 29.3078 17.2829C29.0581 17.4275 28.7953 17.5458 28.5324 17.6246C28.2695 17.7035 27.9935 17.7429 27.7438 17.7429L23.6433 17.7298L21.8164 14.5229L29.2947 14.5098Z" fill="#FF7722"/>
<path d="M32.8824 21.029C32.7772 21.0158 32.6852 20.9895 32.5801 20.9764C32.6589 20.9633 32.7509 20.9501 32.8298 20.937C32.8429 20.937 32.8429 20.937 32.8561 20.9238L32.9218 21.029C32.9087 21.029 32.8824 21.029 32.8824 21.029Z" fill="#FF7722"/>
<path d="M41.5571 36.59C41.544 36.6032 41.544 36.6032 41.5308 36.6163C41.5177 36.6557 41.4914 36.682 41.4651 36.7083C41.4388 36.7477 41.4125 36.7872 41.3731 36.8266C41.1891 37.0763 41.0051 37.326 40.7948 37.5626C40.7948 37.5757 40.7817 37.5757 40.7817 37.5757C40.6502 37.7334 40.532 37.878 40.4005 38.0357C40.1114 38.3774 39.796 38.706 39.4805 39.0346C39.2965 39.2186 39.1125 39.4157 38.9154 39.5997L38.9022 39.6129C38.7445 39.7574 38.5868 39.9152 38.4291 40.0597C38.3634 40.1123 38.3108 40.1649 38.2451 40.2174C38.0874 40.362 37.9297 40.4934 37.772 40.6249C37.7457 40.6512 37.7194 40.6643 37.6931 40.6906C37.496 40.8614 37.2988 41.0192 37.0885 41.1769H36.8782L31.9365 32.4369C32.0154 32.3712 32.1074 32.3054 32.1862 32.2397C32.2782 32.174 32.3571 32.0952 32.436 32.0294C32.4491 32.0163 32.4754 32.0032 32.4885 31.99C32.5542 31.9374 32.6068 31.8849 32.6725 31.8192C32.712 31.7797 32.7514 31.7534 32.7908 31.714C32.8171 31.6877 32.8434 31.6614 32.8697 31.6352C32.9354 31.5694 33.0011 31.5169 33.0537 31.4512C33.1325 31.3723 33.2114 31.3066 33.2902 31.2146C33.3428 31.162 33.3954 31.1094 33.448 31.0569C33.6057 30.8992 33.7502 30.7283 33.8948 30.5574C33.9737 30.4654 34.0657 30.3603 34.1445 30.2552C34.2234 30.1632 34.3022 30.058 34.368 29.966L34.3811 29.9529C34.3942 29.9397 34.4074 29.9134 34.4205 29.9003C34.4337 29.8872 34.4337 29.8872 34.4468 29.874C34.4994 29.8083 34.552 29.7294 34.5914 29.6637C34.6702 29.5586 34.736 29.4534 34.8017 29.3483C34.828 29.3089 34.8542 29.2694 34.8674 29.23C34.9068 29.1643 34.9594 29.0986 34.9857 29.0329C35.0777 28.8752 35.1697 28.7174 35.2617 28.5597C35.3011 28.494 35.3405 28.4152 35.38 28.3494C35.4457 28.2312 35.4982 28.0997 35.564 27.9814C35.6034 27.8894 35.656 27.7974 35.6822 27.7054C35.7085 27.6397 35.748 27.5609 35.7742 27.4952C35.8005 27.4426 35.8137 27.39 35.84 27.3374C35.8662 27.2717 35.8794 27.2192 35.9057 27.1666C35.9188 27.1272 35.932 27.1009 35.932 27.0746C35.9451 27.0614 35.9451 27.0483 35.9451 27.0352C35.9582 26.9957 35.9714 26.9694 35.9845 26.93C35.9845 26.9169 35.9977 26.9169 35.9977 26.9037C35.9977 26.9037 35.9977 26.9037 35.9977 26.8906C36.0108 26.8512 36.024 26.7986 36.0371 26.7592C36.0371 26.746 36.0502 26.7329 36.0502 26.7197L41.5571 36.59Z" fill="#FF7722"/>
<path d="M30.531 15.0744C30.5835 15.1795 30.623 15.2978 30.623 15.4292C30.6361 15.6264 30.5835 15.8367 30.4784 16.0732C30.439 16.1521 30.3995 16.231 30.3338 16.3098L29.335 14.4961C29.3875 14.4961 29.4401 14.4961 29.4927 14.5092C29.5058 14.5092 29.5321 14.5092 29.5452 14.5092C29.5584 14.5092 29.5715 14.5092 29.5847 14.5092C29.6241 14.5224 29.6767 14.5224 29.7161 14.5355C29.7292 14.5355 29.7292 14.5355 29.7292 14.5355C29.7818 14.5487 29.8475 14.5618 29.9001 14.575H29.9132C29.9395 14.5881 29.9658 14.5881 29.979 14.6012C30.0052 14.6144 30.0184 14.6144 30.0447 14.6275C30.0578 14.6275 30.071 14.6407 30.0841 14.6407C30.1104 14.6538 30.1498 14.667 30.1761 14.6932H30.1892C30.2024 14.6932 30.2155 14.7064 30.2287 14.7064C30.2681 14.7327 30.3207 14.7721 30.347 14.7984C30.3864 14.8378 30.4127 14.8641 30.4521 14.9035C30.4915 14.943 30.5178 14.9824 30.531 15.0218C30.5178 15.0612 30.531 15.0744 30.531 15.0744Z" fill="#FF7722"/>
<path d="M33.6592 20.7393L34.0141 21.3833L33.9746 21.357C33.6592 21.2124 33.3175 21.1073 32.9495 21.0415L32.8838 20.9233C32.9758 20.9101 33.0809 20.8838 33.1729 20.8575C33.1861 20.8575 33.2124 20.8444 33.2255 20.8444C33.2912 20.8313 33.3569 20.8181 33.4358 20.7918C33.5015 20.7787 33.5672 20.7524 33.6329 20.7393C33.6461 20.7393 33.6461 20.7393 33.6592 20.7393Z" fill="#FF7722"/>
<path d="M42.0445 35.8925C42.0445 35.9057 42.0313 35.9057 42.0313 35.9188C41.9787 35.9977 41.9262 36.0765 41.8605 36.1554C41.7685 36.3 41.6633 36.4445 41.5713 36.576L36.0645 26.6663V26.6531C36.0645 26.6531 36.0645 26.6531 36.0645 26.64C36.0776 26.6005 36.0907 26.548 36.1039 26.4954C36.117 26.4691 36.117 26.4428 36.1302 26.4165C36.1302 26.4034 36.1302 26.4034 36.1302 26.3903C36.1433 26.3245 36.1565 26.2588 36.1696 26.1931C36.1827 26.1274 36.1959 26.0748 36.209 26.0091C36.209 25.996 36.209 25.9828 36.2222 25.9697C36.2222 25.9565 36.2222 25.9565 36.2222 25.9434C36.2222 25.9303 36.2353 25.904 36.2353 25.8908C36.2485 25.8514 36.2485 25.812 36.2485 25.7725C36.2485 25.7594 36.2616 25.7331 36.2616 25.72C36.2616 25.6937 36.2747 25.6674 36.2747 25.6411C36.2747 25.628 36.2747 25.6017 36.2879 25.5885C36.2879 25.5754 36.2879 25.5491 36.2879 25.536C36.2879 25.5228 36.2879 25.4965 36.2879 25.4834L42.0445 35.8925Z" fill="#FF7722"/>
<path d="M29.3217 14.5088L30.3205 16.3225C30.3205 16.3356 30.3074 16.3356 30.3074 16.3488L29.2822 14.5088H29.3217Z" fill="#FF7722"/>
<path d="M32.8832 20.9229L32.9489 21.0411C32.9358 21.0411 32.9226 21.0411 32.9095 21.028L32.8438 20.9229C32.8569 20.9229 32.87 20.9229 32.8832 20.9229Z" fill="#FF7722"/>
<path d="M41.5713 36.5762C41.5582 36.5893 41.5582 36.5893 41.5582 36.5893L36.0645 26.6927C36.0645 26.6796 36.0776 26.6796 36.0776 26.6665C36.0776 26.6665 36.0776 26.6665 36.0776 26.6533L41.5713 36.5762Z" fill="#FF7722"/>
<path d="M16.8236 24.709L18.9265 28.3364L15.0625 28.2838L16.8236 24.709Z" fill="#FF7722"/>
<path d="M28.7842 45.2771C28.4819 45.356 28.1797 45.4217 27.8642 45.4874C27.0625 45.6714 26.2345 45.7897 25.3934 45.8817L19.3477 35.5908L22.1208 35.6434C22.2785 35.6434 22.4231 35.6434 22.5808 35.6434C22.7254 35.6434 22.8831 35.6434 23.0277 35.6303C23.0671 35.6303 23.1197 35.6303 23.1722 35.6171L28.7842 45.2771Z" fill="#FF7722"/>
<path d="M25.8646 26.9301C25.7988 27.0221 25.7331 27.1141 25.6543 27.2061C25.6148 27.2456 25.5754 27.2981 25.536 27.3376C25.3257 27.5478 25.0891 27.745 24.8131 27.9027C24.5371 28.0604 24.2348 28.1787 23.9194 28.2576C23.604 28.3364 23.2491 28.3758 22.9074 28.3758L18.9251 28.3364L16.8223 24.709L24.2743 24.7747H24.6423L25.8646 26.9301Z" fill="#FF7722"/>
<path d="M34.8671 42.715C34.7751 42.7676 34.6962 42.8202 34.6042 42.8727C34.5779 42.8859 34.5385 42.9122 34.5122 42.9253C34.2231 43.0962 33.9208 43.267 33.6185 43.4116C33.3294 43.5693 33.0271 43.7139 32.7248 43.8584C32.4094 44.003 32.0939 44.1476 31.7785 44.279C31.4236 44.4236 31.0688 44.555 30.7139 44.6864C30.2934 44.8442 29.8728 44.9756 29.4391 45.0939C29.2156 45.1596 29.0054 45.2253 28.7819 45.2779L23.1699 35.6179C23.2751 35.6179 23.3802 35.6047 23.4722 35.6047C23.6168 35.5916 23.7614 35.5784 23.9191 35.5653C24.0374 35.5522 24.1556 35.539 24.2739 35.5259C24.3002 35.5259 24.3133 35.5259 24.3396 35.5127C24.4316 35.4996 24.5368 35.4864 24.6288 35.4733C24.6551 35.4733 24.6814 35.4602 24.7076 35.4602C24.8785 35.4339 25.0362 35.4076 25.1939 35.3813C25.2333 35.3682 25.2859 35.3682 25.3253 35.355C25.4173 35.3419 25.5225 35.3156 25.6145 35.3024C25.6539 35.2893 25.6802 35.2893 25.7065 35.2762C25.7722 35.263 25.8379 35.2499 25.9036 35.2367C25.9562 35.2236 26.0088 35.2104 26.0614 35.1973C26.1139 35.1842 26.1665 35.171 26.2191 35.1579C26.3899 35.1184 26.5608 35.0659 26.7185 35.0264C26.8894 34.9739 27.0734 34.9213 27.2442 34.8687C27.2836 34.8556 27.3099 34.8424 27.3362 34.8424C27.3756 34.8293 27.4019 34.8162 27.4414 34.803C27.4545 34.803 27.4808 34.7899 27.4939 34.7899C27.5728 34.7636 27.6516 34.7373 27.7436 34.6979C27.8225 34.6716 27.9013 34.6453 27.9802 34.6059C28.0591 34.5796 28.1379 34.5402 28.2168 34.5139C28.2956 34.4876 28.3745 34.4482 28.4534 34.4219C28.5322 34.3824 28.6111 34.3562 28.6899 34.3167C28.7688 34.2773 28.8476 34.251 28.9265 34.2116C29.0054 34.1722 29.0842 34.1459 29.1631 34.1064C29.2419 34.067 29.3208 34.0276 29.3996 33.9882C29.4391 33.975 29.4653 33.9487 29.4916 33.9356C29.5442 33.9093 29.5968 33.883 29.6362 33.8567C29.6756 33.8304 29.7151 33.8173 29.7545 33.791L34.8671 42.715Z" fill="#FF7722"/>
<path d="M26.2335 25.9043C26.2335 26.1277 26.1678 26.3643 26.0495 26.6271C26.01 26.7191 25.9575 26.8111 25.8918 26.9031L24.6826 24.7871C24.6958 24.7871 24.7089 24.7871 24.722 24.7871C24.7483 24.7871 24.7746 24.7871 24.8009 24.7871H24.8403C24.8535 24.7871 24.8535 24.7871 24.8666 24.7871C24.8798 24.7871 24.8929 24.7871 24.906 24.7871C24.9323 24.7871 24.9586 24.7871 24.9718 24.8003C24.998 24.8003 25.0243 24.8134 25.0506 24.8134C25.09 24.8134 25.1163 24.8265 25.1426 24.8265C25.1558 24.8265 25.182 24.8397 25.1952 24.8397C25.2215 24.8397 25.2478 24.8528 25.2609 24.8528C25.2872 24.8528 25.3003 24.866 25.3266 24.866H25.3398H25.3529C25.366 24.866 25.366 24.866 25.366 24.8791C25.4055 24.8923 25.4318 24.9054 25.458 24.9185C25.4712 24.9185 25.4843 24.9317 25.4975 24.9317C25.4975 24.9317 25.5106 24.9317 25.5106 24.9448C25.5238 24.9448 25.55 24.958 25.5632 24.958C25.5763 24.958 25.5895 24.9711 25.6026 24.9711C25.6026 24.9711 25.6026 24.9711 25.6158 24.9711C25.6289 24.9711 25.6289 24.9711 25.6289 24.9843C25.6552 24.9974 25.6683 25.0105 25.6946 25.0237C25.7078 25.0368 25.7078 25.0368 25.7209 25.0368C25.7209 25.0368 25.734 25.0368 25.734 25.05C25.7472 25.05 25.7472 25.0631 25.7603 25.0631C25.7735 25.0763 25.7866 25.0894 25.7998 25.1025C25.8129 25.1157 25.826 25.1157 25.8392 25.1288C25.8523 25.1288 25.8523 25.142 25.8523 25.142C25.8655 25.142 25.8655 25.142 25.8655 25.1551C25.8786 25.1683 25.8786 25.1683 25.8786 25.1814C25.8918 25.1814 25.8918 25.1945 25.9049 25.2077C25.918 25.2077 25.918 25.2208 25.918 25.2208C25.918 25.2208 25.9312 25.2208 25.9312 25.234L25.9443 25.2471L25.9575 25.2603C25.9706 25.2734 25.9838 25.2865 25.9969 25.3128C26.0232 25.3391 26.0363 25.3654 26.0495 25.3917C26.0626 25.418 26.0758 25.4443 26.0889 25.4574C26.2072 25.5888 26.2335 25.7334 26.2335 25.9043Z" fill="#FF7722"/>
<path d="M35.6694 42.2016C35.6037 42.2542 35.5248 42.2936 35.446 42.3462C35.262 42.4644 35.078 42.5827 34.894 42.6879L29.834 33.8033C29.8471 33.8033 29.8471 33.7902 29.8603 33.7902C29.8866 33.777 29.8997 33.7639 29.926 33.7507C30.0048 33.7113 30.0837 33.6587 30.1757 33.6193C30.1888 33.6193 30.1888 33.6062 30.202 33.6062C30.2151 33.593 30.2151 33.593 30.2283 33.593C30.2546 33.5799 30.2808 33.5536 30.3203 33.5404C30.3991 33.4879 30.4911 33.4484 30.57 33.3959C30.5963 33.3827 30.6226 33.3696 30.6357 33.3564L35.6694 42.2016Z" fill="#FF7722"/>
<path d="M25.8916 26.8904C25.8916 26.9036 25.8785 26.9167 25.8653 26.9298L24.6299 24.7744H24.6693L25.8916 26.8904Z" fill="#FF7722"/>
<path d="M34.8944 42.6883C34.8812 42.6883 34.8681 42.7014 34.8549 42.7014L29.7949 33.8169C29.8081 33.8169 29.8212 33.8037 29.8212 33.8037L34.8944 42.6883Z" fill="#FF7722"/>
<path d="M41.3867 10.3564L41.413 10.409C41.3999 10.3959 41.3999 10.3959 41.3999 10.3827C41.3999 10.3696 41.3999 10.3564 41.3867 10.3564Z" fill="white"/>
<path d="M45.4348 17.9527L41.4525 10.4876C41.4525 10.4744 41.4525 10.4744 41.4394 10.4744C41.4394 10.4613 41.4394 10.4613 41.4262 10.4613C41.4262 10.4482 41.4131 10.435 41.4131 10.4219L45.4217 17.9264C45.4348 17.9264 45.4348 17.9396 45.4348 17.9527Z" fill="white"/>
<path d="M45.5133 18.2683L41.6493 11.0529C41.6493 11.0266 41.6361 11.0135 41.6361 10.9872C41.623 10.9215 41.5967 10.8689 41.5836 10.8032C41.5704 10.7638 41.5573 10.7243 41.5442 10.6849C41.5442 10.6718 41.531 10.6455 41.531 10.6323C41.531 10.6192 41.5179 10.6192 41.5179 10.606C41.5047 10.5798 41.5047 10.5666 41.4784 10.5403C41.4784 10.5272 41.4653 10.514 41.4653 10.5009C41.4653 10.4878 41.4653 10.4878 41.4521 10.4746L45.4344 17.9398C45.4607 18.058 45.487 18.1632 45.5133 18.2683Z" fill="#FF7722"/>
<path d="M41.7682 11.6578C41.7682 11.6053 41.7551 11.5527 41.7551 11.5133C41.7551 11.5133 41.7551 11.5133 41.7551 11.5001C41.7551 11.4738 41.7419 11.4475 41.7419 11.4213C41.7419 11.395 41.7288 11.3818 41.7288 11.3555C41.7157 11.3161 41.7157 11.2898 41.7025 11.2635C41.7025 11.2504 41.7025 11.2504 41.7025 11.2373C41.7025 11.2241 41.7025 11.2241 41.7025 11.211C41.6894 11.1584 41.6762 11.119 41.6631 11.0664L45.5271 18.2818C45.5665 18.4921 45.6059 18.6893 45.6454 18.8995L41.7682 11.6578Z" fill="#FF7722"/>
<path d="M41.7812 12.0126V11.9732C41.7812 11.9206 41.7812 11.868 41.768 11.8155C41.768 11.7629 41.7549 11.7103 41.7549 11.6709L45.632 18.8995C45.6846 19.1755 45.724 19.4646 45.7635 19.7406L41.7812 12.3018V12.2229C41.7812 12.1966 41.7812 12.1572 41.7812 12.1309C41.7812 12.1178 41.7812 12.1178 41.7812 12.1046C41.7812 12.0783 41.7812 12.052 41.7812 12.0126Z" fill="#FF7722"/>
<path d="M45.8943 20.7784L41.7148 12.9715C41.728 12.9321 41.728 12.8927 41.728 12.8532C41.728 12.8401 41.7411 12.8138 41.7411 12.7875C41.7411 12.7744 41.7411 12.7612 41.7411 12.7481C41.7543 12.7087 41.7543 12.6561 41.7543 12.6167C41.7543 12.5772 41.7674 12.5247 41.7674 12.4852C41.7674 12.4589 41.7674 12.4458 41.7674 12.4195C41.7674 12.3801 41.7806 12.3538 41.7806 12.3275C41.7806 12.3144 41.7806 12.3012 41.7806 12.2881L45.7628 19.7269C45.8154 20.0818 45.8548 20.4235 45.8943 20.7784Z" fill="#FF7722"/>
<path d="M45.974 22.0403L41.5186 13.7472C41.5186 13.734 41.5317 13.734 41.5317 13.7209C41.5448 13.6946 41.5448 13.6815 41.5448 13.6552C41.558 13.6158 41.558 13.5895 41.5711 13.5632C41.5843 13.5369 41.5843 13.4975 41.5974 13.4712C41.6106 13.4055 41.6368 13.3529 41.6368 13.2872C41.65 13.2609 41.65 13.2215 41.6631 13.1952C41.6631 13.182 41.6763 13.1558 41.6763 13.1426C41.6894 13.09 41.6894 13.0506 41.7026 12.998L45.882 20.8049C45.9346 21.1992 45.9608 21.6198 45.974 22.0403Z" fill="#FF7722"/>
<path d="M45.9996 22.9996C45.9996 23.2362 45.9996 23.4728 45.9864 23.6962L41.1367 14.6934C41.1367 14.6802 41.1499 14.6802 41.1499 14.6671C41.163 14.6539 41.163 14.6276 41.1761 14.6014C41.1761 14.5882 41.1893 14.5882 41.1893 14.5751C41.2287 14.5094 41.255 14.4436 41.2813 14.3648C41.2944 14.3385 41.2944 14.3122 41.3076 14.2991C41.3076 14.2859 41.3207 14.2859 41.3207 14.2728C41.3339 14.2334 41.347 14.2071 41.3601 14.1676C41.3733 14.1282 41.3864 14.1019 41.3996 14.0625C41.4127 14.0362 41.4127 14.0099 41.4259 13.9836C41.4521 13.9048 41.4784 13.8259 41.5047 13.7471L45.9601 22.0402C45.9864 22.3688 45.9996 22.6842 45.9996 22.9996Z" fill="#FF7722"/>
<path d="M45.9858 23.71C45.907 26.3911 45.3681 28.954 44.4481 31.3328L37.627 18.8471C37.995 18.5843 38.3498 18.2951 38.6784 17.9928C38.6915 17.9797 38.6915 17.9797 38.7047 17.9665C38.8624 17.822 39.0201 17.6643 39.1778 17.5065C39.2698 17.4145 39.3487 17.3225 39.4275 17.2437C39.4932 17.178 39.5458 17.1123 39.5984 17.0465C39.6115 17.0334 39.6378 17.0071 39.651 16.994L39.6641 16.9808C39.9664 16.626 40.2555 16.2448 40.5184 15.8505C40.6367 15.6797 40.7418 15.5088 40.8338 15.338C40.8601 15.2854 40.8995 15.2328 40.9258 15.1803C40.9652 15.1014 41.0178 15.0225 41.0572 14.9305C41.0704 14.8911 41.0967 14.8648 41.1098 14.8254C41.123 14.7991 41.1361 14.7597 41.1624 14.7334L45.9858 23.71Z" fill="#FF7722"/>
<path d="M44.4491 31.3193C44.2782 31.753 44.0942 32.1867 43.8971 32.6073L36.6816 19.4513C36.7605 19.4118 36.8394 19.3593 36.9182 19.3067C37.0365 19.2278 37.1679 19.149 37.2862 19.0701C37.3125 19.0438 37.3519 19.0307 37.3782 19.0044C37.4571 18.9518 37.5359 18.8993 37.6148 18.8467L44.4491 31.3193Z" fill="#FF7722"/>
<path d="M43.897 32.6072C43.7525 32.9357 43.5816 33.2643 43.4239 33.5929L35.8799 19.8849C36.0902 19.7797 36.3136 19.6615 36.5239 19.5432C36.5765 19.5169 36.629 19.4775 36.6816 19.4512L43.897 32.6072Z" fill="#FF7722"/>
<path d="M43.424 33.5933C43.2794 33.8824 43.1217 34.1584 42.964 34.4344L35.1309 20.2402C35.144 20.2402 35.144 20.227 35.1571 20.227C35.2097 20.2007 35.2623 20.1876 35.3149 20.1613C35.4463 20.1087 35.5646 20.043 35.696 19.9904C35.7617 19.9642 35.8143 19.9247 35.88 19.8984L43.424 33.5933Z" fill="#FF7722"/>
<path d="M42.9641 34.4341C42.8327 34.6706 42.6881 34.9072 42.5436 35.1306C42.5436 35.1438 42.5304 35.1438 42.5304 35.1438C42.5173 35.1569 42.5173 35.1701 42.5041 35.1832L36.1036 23.6175L36.0904 23.6044C36.0904 23.5781 36.0773 23.5649 36.0641 23.5386C36.0641 23.5255 36.051 23.4992 36.051 23.4861C36.0378 23.4598 36.0378 23.4466 36.0247 23.4204C36.0116 23.3678 35.9853 23.3284 35.959 23.2758C35.959 23.2626 35.959 23.2626 35.9458 23.2626C35.9327 23.2364 35.9196 23.2101 35.9064 23.1706C35.8933 23.1444 35.8801 23.1181 35.867 23.0918C35.8538 23.0786 35.8538 23.0524 35.8407 23.0392C35.7356 22.8289 35.6041 22.6449 35.4595 22.4741L34.3818 20.5289C34.4476 20.5158 34.5001 20.4895 34.5658 20.4632C34.6841 20.4238 34.7893 20.3844 34.9076 20.3449C34.9733 20.3186 35.0521 20.2792 35.131 20.2529L42.9641 34.4341Z" fill="#FF7722"/>
<path d="M34.382 20.5156L35.4597 22.4608C35.2362 22.1848 34.9734 21.9482 34.6711 21.7511C34.4608 21.6065 34.2505 21.4882 34.014 21.3831L33.9745 21.3568L33.6328 20.7391C33.646 20.7391 33.646 20.7391 33.6591 20.7259C33.6722 20.7259 33.6854 20.7128 33.6985 20.7128C33.8168 20.6733 33.9351 20.6471 34.0534 20.6076C34.106 20.5945 34.1454 20.5682 34.198 20.5551C34.2637 20.5551 34.3294 20.5419 34.382 20.5156Z" fill="#FF7722"/>
<path d="M42.5035 35.1963C42.4903 35.2226 42.4772 35.2358 42.464 35.262C42.4246 35.3278 42.372 35.3935 42.3326 35.4592C42.2669 35.5512 42.2143 35.6563 42.1355 35.7483C42.1092 35.8009 42.0829 35.8403 42.0435 35.8798C42.0435 35.8929 42.0303 35.8929 42.0303 35.906L36.2869 25.5363C36.2869 25.5232 36.2869 25.4969 36.2869 25.4838C36.2869 25.4706 36.2869 25.4443 36.2869 25.4312C36.2869 25.418 36.2869 25.4049 36.2869 25.3918C36.2869 25.3786 36.2869 25.3655 36.2869 25.3523C36.2869 25.326 36.2869 25.2998 36.2869 25.2735C36.2869 25.2472 36.2869 25.2209 36.2869 25.1946C36.2869 25.1815 36.2869 25.1552 36.2869 25.1289V25.1026C36.2869 25.0895 36.2869 25.0632 36.2869 25.05V25.0106C36.2869 24.9449 36.2869 24.8923 36.2869 24.8398C36.2869 24.7872 36.2869 24.7346 36.2738 24.6689C36.2738 24.6426 36.2738 24.6032 36.2606 24.5769C36.2606 24.5638 36.2606 24.5375 36.2606 24.5112V24.498C36.2606 24.4849 36.2606 24.4849 36.2606 24.4718V24.4586C36.2606 24.4192 36.2475 24.3798 36.2475 24.3403C36.2475 24.3009 36.2343 24.2615 36.2343 24.222C36.2343 24.2089 36.2343 24.1958 36.2212 24.1826C36.2212 24.1695 36.208 24.1432 36.208 24.1169C36.208 24.0775 36.1949 24.0512 36.1949 24.0249C36.1818 23.9855 36.1818 23.9592 36.1686 23.9329C36.1555 23.8672 36.1292 23.7883 36.116 23.7226C36.116 23.7226 36.116 23.7226 36.116 23.7095C36.1029 23.67 36.1029 23.6438 36.0898 23.6175C36.0898 23.5912 36.0766 23.578 36.0635 23.5518L36.0766 23.5649L42.5035 35.1963Z" fill="#FF7722"/>
<path d="M33.6332 20.7529L33.9749 21.3706C33.6595 21.2261 33.3178 21.1209 32.9498 21.0552C32.9366 21.0552 32.9235 21.0552 32.9104 21.0421C32.8972 21.0421 32.8841 21.0421 32.8709 21.0289L32.8184 20.9369C32.8315 20.9369 32.8315 20.9369 32.8446 20.9238C32.8578 20.9238 32.8578 20.9238 32.8709 20.9238C32.9629 20.9106 33.0681 20.8844 33.1601 20.8581C33.1732 20.8581 33.1995 20.8449 33.2126 20.8449C33.2784 20.8318 33.3441 20.8186 33.4229 20.7924C33.5018 20.7792 33.5675 20.7661 33.6332 20.7529Z" fill="#FF7722"/>
<path d="M42.0308 35.9194C41.9782 35.9983 41.9256 36.0772 41.8599 36.156C41.7679 36.3006 41.6628 36.4452 41.5708 36.5766C41.5576 36.5897 41.5576 36.5897 41.5576 36.5897C41.5445 36.6029 41.5445 36.6029 41.5314 36.616L36.0508 26.7326C36.0508 26.7194 36.0639 26.7063 36.0639 26.6932C36.0639 26.68 36.0771 26.68 36.0771 26.6669C36.0771 26.6669 36.0771 26.6669 36.0771 26.6537V26.6406C36.0771 26.6406 36.0771 26.6406 36.0771 26.6274C36.0902 26.588 36.1034 26.5354 36.1165 26.4829C36.1296 26.4566 36.1296 26.4303 36.1428 26.404C36.1428 26.3909 36.1428 26.3909 36.1428 26.3777C36.1559 26.312 36.1691 26.2463 36.1822 26.1806C36.1954 26.1149 36.2085 26.0623 36.2216 25.9966C36.2216 25.9834 36.2216 25.9703 36.2348 25.9572C36.2348 25.944 36.2348 25.944 36.2348 25.9309C36.2348 25.9177 36.2479 25.8914 36.2479 25.8783C36.2611 25.8389 36.2611 25.7994 36.2611 25.76C36.2611 25.7469 36.2742 25.7206 36.2742 25.7074C36.2742 25.6812 36.2874 25.6549 36.2874 25.6286C36.2874 25.6154 36.2874 25.5892 36.3005 25.576C36.3005 25.5629 36.3005 25.5366 36.3005 25.5234L42.0308 35.9194Z" fill="#FF7722"/>
<path d="M32.8181 20.9365L32.8706 21.0285C32.7655 21.0154 32.6735 20.9891 32.5684 20.976C32.6604 20.9628 32.7392 20.9497 32.8181 20.9365Z" fill="#FF7722"/>
<path d="M41.531 36.6159C41.5179 36.6553 41.4916 36.6816 41.4653 36.7079C41.439 36.7473 41.4127 36.7867 41.3733 36.8261L35.9453 27.0479C35.9585 27.0347 35.9585 27.0216 35.9585 27.0084C35.9716 26.969 35.9847 26.9427 35.9979 26.9033C35.9979 26.8901 36.011 26.8901 36.011 26.877C36.011 26.877 36.011 26.877 36.011 26.8639C36.0242 26.8244 36.0373 26.7719 36.0505 26.7324L41.531 36.6159Z" fill="#FF7722"/>
<path d="M27.8627 45.4879C27.061 45.6719 26.233 45.7902 25.3918 45.8822C24.6032 45.9611 23.8015 46.0005 22.9998 46.0005C14.8118 46.0005 7.63581 41.7291 3.56152 35.2891L19.3461 35.5782L22.1192 35.6308L27.8627 45.4879Z" fill="#FF7722"/>
<path d="M37.6157 18.8338C37.5368 18.8863 37.458 18.9389 37.3791 18.9915C37.3397 19.0178 37.3134 19.0441 37.2871 19.0572C37.3791 18.9915 37.4842 18.9258 37.5762 18.8601C37.5894 18.8469 37.6025 18.8469 37.6157 18.8338Z" fill="white"/>
<path d="M35.9463 27.0482C35.9594 27.0351 35.9594 27.0219 35.9594 27.0088C35.9594 27.0219 35.9463 27.0351 35.9463 27.0482Z" fill="white"/>
<path d="M26.7461 35.0522C26.8644 35.0128 26.9958 34.9865 27.1141 34.9471C27.1667 34.934 27.2192 34.9077 27.2718 34.8945C27.101 34.9471 26.9301 34.9997 26.7461 35.0522Z" fill="white"/>
<path d="M26.2461 35.1827C26.2724 35.1696 26.2987 35.1696 26.325 35.1696C26.3775 35.1565 26.4432 35.1433 26.4958 35.1302C26.5747 35.1039 26.6667 35.0907 26.7455 35.0645C26.5878 35.0907 26.417 35.1433 26.2461 35.1827Z" fill="white"/>
<path d="M35.9463 27.0482C35.9594 27.0351 35.9594 27.0219 35.9594 27.0088C35.9594 27.0219 35.9463 27.0351 35.9463 27.0482Z" fill="white"/>
<path d="M26.7461 35.0522C26.8644 35.0128 26.9958 34.9865 27.1141 34.9471C27.1667 34.934 27.2192 34.9077 27.2718 34.8945C27.101 34.9471 26.9301 34.9997 26.7461 35.0522Z" fill="white"/>
<path d="M26.2461 35.1827C26.2724 35.1696 26.2987 35.1696 26.325 35.1696C26.3775 35.1565 26.4432 35.1433 26.4958 35.1302C26.5747 35.1039 26.6667 35.0907 26.7455 35.0645C26.5878 35.0907 26.417 35.1433 26.2461 35.1827Z" fill="white"/>
<path d="M25.5897 24.9448C25.5765 24.9316 25.5503 24.9316 25.5371 24.9316C25.5634 24.9448 25.6028 24.9579 25.6291 24.9711C25.616 24.9579 25.6028 24.9579 25.5897 24.9448Z" fill="white"/>
<path d="M25.9043 25.1416C25.9043 25.1416 25.9174 25.1547 25.9174 25.1679C25.9174 25.1547 25.9043 25.1547 25.9043 25.1416Z" fill="white"/>
<path d="M35.9463 27.0482C35.9594 27.0351 35.9594 27.0219 35.9594 27.0088C35.9594 27.0219 35.9463 27.0351 35.9463 27.0482Z" fill="white"/>
<path d="M35.9989 23.3284C35.9858 23.3021 35.9858 23.289 35.9727 23.2627C35.9989 23.3153 36.0121 23.3547 36.0384 23.4073C36.0252 23.381 36.0121 23.3547 35.9989 23.3284Z" fill="white"/>
<path d="M36.1957 23.92C36.1825 23.8674 36.1694 23.8148 36.1562 23.7754C36.1694 23.8411 36.1957 23.92 36.2088 23.9857C36.1957 23.9594 36.1957 23.9462 36.1957 23.92Z" fill="white"/>
<path d="M36.2871 24.498V24.5112C36.2871 24.5243 36.2871 24.5243 36.2871 24.5375V24.5243C36.3003 24.5243 36.2871 24.5112 36.2871 24.498Z" fill="white"/>
<path d="M29.7959 33.8295C29.809 33.8295 29.809 33.8164 29.8222 33.8164C29.8222 33.8164 29.809 33.8164 29.7959 33.8295Z" fill="white"/>
<path d="M26.7461 35.0522C26.8644 35.0128 26.9958 34.9865 27.1141 34.9471C27.1667 34.934 27.2192 34.9077 27.2718 34.8945C27.101 34.9471 26.9301 34.9997 26.7461 35.0522Z" fill="white"/>
<path d="M26.2461 35.1827C26.2724 35.1696 26.2987 35.1696 26.325 35.1696C26.3775 35.1565 26.4432 35.1433 26.4958 35.1302C26.5747 35.1039 26.6667 35.0907 26.7455 35.0645C26.5878 35.0907 26.417 35.1433 26.2461 35.1827Z" fill="white"/>
<path d="M36.6821 19.4512C36.6296 19.4906 36.577 19.5169 36.5244 19.5432C36.577 19.5169 36.6296 19.4775 36.6821 19.4512C36.761 19.4118 36.8398 19.3592 36.9187 19.3066C36.8398 19.3592 36.761 19.3986 36.6821 19.4512Z" fill="white"/>
<path d="M41.3872 10.3564C41.3872 10.3432 41.374 10.3432 41.374 10.3301C41.3872 10.3432 41.3872 10.3564 41.4003 10.3826C41.4003 10.3695 41.4003 10.3564 41.3872 10.3564Z" fill="white"/>
<path d="M41.4399 10.4487L41.4268 10.4355C41.4399 10.4487 41.4399 10.4618 41.4399 10.475C41.4399 10.4618 41.4399 10.4487 41.4399 10.4487Z" fill="white"/>
<path d="M41.7422 12.8143C41.7422 12.8011 41.7422 12.8011 41.7422 12.8143C41.7422 12.788 41.7553 12.7749 41.7553 12.7617C41.7422 12.7749 41.7422 12.788 41.7422 12.8143Z" fill="white"/>
<path d="M26.7461 35.0522C26.8644 35.0128 26.9958 34.9865 27.1141 34.9471C27.1667 34.934 27.2192 34.9077 27.2718 34.8945C27.101 34.9471 26.9301 34.9997 26.7461 35.0522Z" fill="white"/>
<path d="M26.2461 35.1827C26.2724 35.1696 26.2987 35.1696 26.325 35.1696C26.3775 35.1565 26.4432 35.1433 26.4958 35.1302C26.5747 35.1039 26.6667 35.0907 26.7455 35.0645C26.5878 35.0907 26.417 35.1433 26.2461 35.1827Z" fill="white"/>
<path d="M35.9463 27.0482C35.9594 27.0351 35.9594 27.0219 35.9594 27.0088C35.9594 27.0219 35.9463 27.0351 35.9463 27.0482Z" fill="white"/>
<path d="M26.7461 35.0522C26.8644 35.0128 26.9958 34.9865 27.1141 34.9471C27.1667 34.934 27.2192 34.9077 27.2718 34.8945C27.101 34.9471 26.9301 34.9997 26.7461 35.0522Z" fill="white"/>
<path d="M26.2461 35.1827C26.2724 35.1696 26.2987 35.1696 26.325 35.1696C26.3775 35.1565 26.4432 35.1433 26.4958 35.1302C26.5747 35.1039 26.6667 35.0907 26.7455 35.0645C26.5878 35.0907 26.417 35.1433 26.2461 35.1827Z" fill="white"/>
<path d="M35.9463 27.0482C35.9594 27.0351 35.9594 27.0219 35.9594 27.0088C35.9594 27.0219 35.9463 27.0351 35.9463 27.0482Z" fill="white"/>
<path d="M26.7461 35.0522C26.8644 35.0128 26.9958 34.9865 27.1141 34.9471C27.1667 34.934 27.2192 34.9077 27.2718 34.8945C27.101 34.9471 26.9301 34.9997 26.7461 35.0522Z" fill="white"/>
<path d="M26.2461 35.1827C26.2724 35.1696 26.2987 35.1696 26.325 35.1696C26.3775 35.1565 26.4432 35.1433 26.4958 35.1302C26.5747 35.1039 26.6667 35.0907 26.7455 35.0645C26.5878 35.0907 26.417 35.1433 26.2461 35.1827Z" fill="white"/>
<path d="M35.9463 27.0482C35.9594 27.0351 35.9594 27.0219 35.9594 27.0088C35.9594 27.0219 35.9463 27.0351 35.9463 27.0482Z" fill="white"/>
<path d="M42.5427 35.144C42.5427 35.1571 42.5296 35.1571 42.5296 35.1571L35.9976 23.3417C35.9844 23.3154 35.9844 23.3023 35.9713 23.276C35.9713 23.2629 35.9713 23.2629 35.9581 23.2629C35.945 23.2366 35.9318 23.2103 35.9187 23.1709C35.9056 23.1446 35.8924 23.1183 35.8793 23.092C35.8661 23.0789 35.8661 23.0526 35.853 23.0394C35.853 23.0263 35.8398 23.0131 35.8398 23L42.5427 35.144Z" fill="#FF7722"/>
<path d="M42.5296 35.1572C42.5165 35.1704 42.5165 35.1835 42.5033 35.1967C42.4902 35.2229 42.477 35.2361 42.4639 35.2624L36.1947 23.9201C36.1816 23.8675 36.1685 23.8149 36.1553 23.7755C36.1553 23.7755 36.1553 23.7755 36.1553 23.7624C36.1422 23.7229 36.1422 23.6967 36.129 23.6704C36.129 23.6572 36.1159 23.6441 36.1159 23.6309C36.1027 23.6047 36.0896 23.5652 36.0765 23.5389C36.0765 23.5258 36.0633 23.4995 36.0633 23.4864C36.0502 23.4601 36.0502 23.4469 36.037 23.4207C36.0239 23.3944 36.0239 23.3681 36.0107 23.3418L42.5296 35.1572Z" fill="#FF7722"/>
<path d="M42.4645 35.2622C42.425 35.3279 42.3725 35.3936 42.333 35.4593L36.3005 24.5376V24.5245C36.3005 24.5245 36.3005 24.5245 36.3005 24.5114V24.4982C36.3005 24.4588 36.2873 24.4194 36.2873 24.3799C36.2873 24.3405 36.2742 24.3011 36.2742 24.2616C36.2742 24.2485 36.2742 24.2354 36.261 24.2222C36.261 24.2091 36.2479 24.1828 36.2479 24.1565C36.2479 24.1171 36.2347 24.0908 36.2347 24.0645C36.2216 24.0251 36.2216 23.9988 36.2085 23.9725C36.2085 23.9593 36.1953 23.9331 36.1953 23.9199L42.4645 35.2622Z" fill="#FF7722"/>
<path d="M42.3328 35.4593C42.2671 35.5513 42.2145 35.6564 42.1357 35.7484L36.3134 25.221C36.3134 25.2078 36.3134 25.1816 36.3134 25.1553V25.129C36.3134 25.1158 36.3134 25.0896 36.3134 25.0764V25.037C36.3134 24.9713 36.3134 24.9187 36.3134 24.8661C36.3134 24.8136 36.3134 24.761 36.3003 24.6953C36.3003 24.669 36.3003 24.6296 36.2871 24.6033C36.2871 24.5901 36.2871 24.5638 36.2871 24.5376V24.5244L42.3328 35.4593Z" fill="#FF7722"/>
<path d="M42.135 35.749C42.1087 35.8016 42.0824 35.841 42.043 35.8805C42.043 35.8936 42.0298 35.8936 42.0298 35.9067C41.9773 35.9856 41.9247 36.0645 41.859 36.1433L36.2207 25.9707C36.2207 25.9576 36.2207 25.9576 36.2207 25.9445C36.2207 25.9313 36.2338 25.905 36.2338 25.8919C36.247 25.8525 36.247 25.813 36.247 25.7736C36.247 25.7605 36.2601 25.7342 36.2601 25.721C36.2601 25.6947 36.2733 25.6685 36.2733 25.6422C36.2733 25.629 36.2733 25.6027 36.2864 25.5896C36.2864 25.5765 36.2864 25.5502 36.2864 25.537C36.2864 25.5239 36.2864 25.5239 36.2864 25.5239V25.4845C36.2864 25.4713 36.2864 25.445 36.2864 25.4319C36.2864 25.4187 36.2864 25.4056 36.2864 25.3925C36.2864 25.3793 36.2864 25.3662 36.2864 25.353C36.2864 25.3267 36.2864 25.3005 36.2864 25.2742C36.2864 25.2479 36.2864 25.2216 36.2864 25.1953L42.135 35.749Z" fill="#FF7722"/>
<path d="M41.8598 36.1559C41.7678 36.3005 41.6626 36.445 41.5706 36.5765C41.5575 36.5896 41.5575 36.5896 41.5575 36.5896C41.5443 36.6027 41.5443 36.6027 41.5312 36.6159C41.518 36.6553 41.4918 36.6816 41.4655 36.7079L35.998 26.877C35.998 26.877 35.998 26.877 35.998 26.8639C36.0112 26.8245 36.0243 26.7719 36.0375 26.7325C36.0375 26.7193 36.0506 26.7062 36.0506 26.693C36.0506 26.6799 36.0638 26.6799 36.0638 26.6667C36.0638 26.6667 36.0638 26.6667 36.0638 26.6536V26.6405C36.0638 26.6405 36.0638 26.6405 36.0638 26.6273C36.0769 26.5879 36.09 26.5353 36.1032 26.4827C36.1163 26.4565 36.1163 26.4302 36.1295 26.4039C36.1295 26.3907 36.1295 26.3907 36.1295 26.3776C36.1426 26.3119 36.1558 26.2462 36.1689 26.1805C36.182 26.1147 36.1952 26.0622 36.2083 25.9965C36.2083 25.9833 36.2083 25.9702 36.2215 25.957L41.8598 36.1559Z" fill="#FF7722"/>
<path d="M41.4645 36.7079C41.4382 36.7473 41.4119 36.7868 41.3725 36.8262C41.1885 37.0759 41.0045 37.3256 40.7942 37.5622L35.5107 28.0862C35.5107 28.073 35.5239 28.073 35.5239 28.0599C35.5239 28.0467 35.537 28.0336 35.537 28.0336C35.537 28.0205 35.5502 28.0073 35.5502 28.0073C35.5502 27.9942 35.5633 27.981 35.5633 27.981C35.6027 27.889 35.6553 27.797 35.6816 27.705C35.7079 27.6393 35.7473 27.5605 35.7736 27.4947C35.7867 27.4816 35.7867 27.4553 35.7999 27.429C35.813 27.4027 35.8262 27.3633 35.8393 27.337C35.8656 27.2713 35.8787 27.2187 35.905 27.1662C35.9182 27.1267 35.9313 27.1005 35.9313 27.0742C35.9313 27.061 35.9445 27.0479 35.9445 27.0347C35.9576 26.9953 35.9707 26.969 35.9839 26.9296C35.9839 26.9165 35.997 26.9165 35.997 26.9033L41.4645 36.7079Z" fill="#FF7722"/>
<path d="M40.8081 37.5625C40.8081 37.5756 40.7949 37.5756 40.7949 37.5756C40.6635 37.7333 40.5452 37.8779 40.4138 38.0356C40.1246 38.3773 39.8092 38.7059 39.4938 39.0345C39.3098 39.2185 39.1258 39.4156 38.9286 39.5996L38.9155 39.6128C38.7578 39.7573 38.6001 39.915 38.4424 40.0596C38.3766 40.1122 38.3241 40.1648 38.2584 40.2173C38.1006 40.3619 37.9429 40.4933 37.7852 40.6248C37.7589 40.651 37.7326 40.6642 37.7064 40.6905C37.5092 40.8613 37.3121 41.019 37.1018 41.1768C36.9835 41.2688 36.8784 41.3476 36.7601 41.4396C36.6812 41.4922 36.6024 41.5579 36.5235 41.6105L31.5029 32.7522C31.6475 32.647 31.7921 32.5419 31.9235 32.4368C32.0024 32.371 32.0944 32.3053 32.1732 32.2396C32.2652 32.1739 32.3441 32.095 32.4229 32.0293C32.4361 32.0162 32.4624 32.003 32.4755 31.9899C32.5412 31.9373 32.5938 31.8848 32.6595 31.819C32.6989 31.7796 32.7384 31.7533 32.7778 31.7139C32.8041 31.6876 32.8304 31.6613 32.8566 31.635C32.9224 31.5693 32.9881 31.5168 33.0406 31.451C33.1195 31.3722 33.1984 31.3065 33.2772 31.2145C33.3298 31.1619 33.3824 31.1093 33.4349 31.0568C33.5926 30.899 33.7372 30.7282 33.8818 30.5573C33.9606 30.4653 34.0526 30.3602 34.1315 30.255C34.2104 30.163 34.2892 30.0579 34.3549 29.9659L34.3681 29.9528C34.3812 29.9396 34.3944 29.9133 34.4075 29.9002C34.4206 29.887 34.4206 29.887 34.4338 29.8739C34.4864 29.8082 34.5389 29.7293 34.5784 29.6636C34.6572 29.5585 34.7229 29.4533 34.7886 29.3482C34.8149 29.3088 34.8412 29.2693 34.8544 29.2299C34.8938 29.1642 34.9464 29.0985 34.9726 29.0328C35.0646 28.875 35.1566 28.7173 35.2486 28.5596C35.2881 28.4939 35.3275 28.415 35.3669 28.3493C35.4064 28.2705 35.4589 28.1785 35.4984 28.0996L40.8081 37.5625Z" fill="#FF7722"/>
<path d="M36.5503 41.5971C36.2611 41.8074 35.972 42.0177 35.6697 42.2017C35.604 42.2542 35.5251 42.2937 35.4463 42.3462L30.3994 33.488C30.452 33.4617 30.5046 33.4222 30.544 33.396C30.5703 33.3828 30.5966 33.3697 30.6097 33.3565C30.636 33.3434 30.6491 33.3302 30.6754 33.3171C30.7674 33.2514 30.8726 33.1988 30.9646 33.1331C31.0303 33.0937 31.096 33.0411 31.1748 33.0017C31.2011 32.9885 31.2274 32.9622 31.2537 32.9491C31.3457 32.8834 31.4377 32.8177 31.5297 32.752L36.5503 41.5971Z" fill="#FF7722"/>
<path d="M35.4457 42.3466C35.2617 42.4649 35.0777 42.5831 34.8937 42.6883C34.8805 42.6883 34.8674 42.7014 34.8542 42.7014C34.7622 42.754 34.6834 42.8066 34.5914 42.8591C34.5651 42.8723 34.5257 42.8986 34.4994 42.9117L29.4131 34.014C29.4525 34.0009 29.4788 33.9746 29.5051 33.9614C29.5577 33.9351 29.6102 33.9089 29.6497 33.8826C29.6891 33.8563 29.7285 33.8431 29.7679 33.8169C29.7811 33.8169 29.7942 33.8037 29.7942 33.8037C29.8074 33.8037 29.8074 33.7906 29.8205 33.7906C29.8468 33.7774 29.8599 33.7643 29.8862 33.7511C29.9651 33.7117 30.0439 33.6591 30.1359 33.6197C30.1491 33.6197 30.1491 33.6066 30.1622 33.6066C30.1754 33.5934 30.1754 33.5934 30.1885 33.5934C30.2148 33.5803 30.2411 33.554 30.2805 33.5409C30.3068 33.5277 30.3462 33.5014 30.3725 33.4883L35.4457 42.3466Z" fill="#FF7722"/>
<path d="M34.5116 42.9245C34.2225 43.0954 33.9202 43.2662 33.6179 43.4108L28.4922 34.4474C28.571 34.408 28.6499 34.3817 28.7288 34.3422C28.8076 34.3028 28.8865 34.2765 28.9653 34.2371C29.0442 34.1977 29.123 34.1714 29.2019 34.132C29.2808 34.0925 29.3596 34.0531 29.4385 34.0137L34.5116 42.9245Z" fill="#FF7722"/>
<path d="M33.6193 43.4107C33.3302 43.5684 33.0279 43.713 32.7256 43.8576L27.5342 34.8153C27.613 34.789 27.6919 34.7627 27.7839 34.7233C27.8628 34.697 27.9416 34.6707 28.0205 34.6313C28.0993 34.605 28.1782 34.5655 28.257 34.5393C28.3359 34.513 28.4148 34.4736 28.4936 34.4473L33.6193 43.4107Z" fill="#FF7722"/>
<path d="M32.7117 43.8577C32.3963 44.0023 32.0808 44.1469 31.7654 44.2783L26.4951 35.1309L26.758 35.0651C26.85 35.0389 26.9288 35.0126 27.0208 34.9863C27.0471 34.9731 27.0865 34.9731 27.1128 34.96C27.1654 34.9469 27.218 34.9206 27.2705 34.9074C27.31 34.8943 27.3363 34.8811 27.3757 34.868C27.4151 34.8549 27.4414 34.8417 27.4808 34.8286C27.494 34.8286 27.5203 34.8154 27.5334 34.8154L32.7117 43.8577Z" fill="#FF7722"/>
<path d="M31.7789 44.2651C31.424 44.4097 31.0692 44.5411 30.7143 44.6726L25.3389 35.3806C25.4309 35.3674 25.536 35.3411 25.628 35.328C25.6674 35.3149 25.6937 35.3149 25.72 35.3017C25.7857 35.2886 25.8514 35.2754 25.9172 35.2623C25.9697 35.2491 26.0223 35.236 26.0749 35.2229C26.1143 35.2097 26.1669 35.2097 26.2063 35.1966C26.2457 35.1834 26.2852 35.1834 26.3246 35.1703C26.3772 35.1571 26.4429 35.144 26.4954 35.1309L31.7789 44.2651Z" fill="#FF7722"/>
<path d="M30.7148 44.6728C30.2942 44.8305 29.8736 44.9619 29.4399 45.0802L23.9199 35.5648C24.0382 35.5516 24.1565 35.5385 24.2748 35.5253C24.3011 35.5253 24.3142 35.5254 24.3405 35.5122C24.4325 35.4991 24.5376 35.4859 24.6296 35.4728C24.6559 35.4728 24.6822 35.4596 24.7085 35.4596C24.8005 35.4465 24.8925 35.4333 24.9845 35.4202C25.0502 35.4071 25.1291 35.3939 25.1948 35.3808C25.2342 35.3676 25.2868 35.3676 25.3262 35.3545L30.7148 44.6728Z" fill="#FF7722"/>
<path d="M29.4397 45.0803C29.2163 45.146 29.006 45.2118 28.7826 45.2643C28.4803 45.3432 28.178 45.4089 27.8626 45.4746L22.1191 35.6306C22.2769 35.6306 22.4214 35.6306 22.5791 35.6306C22.7237 35.6306 22.8814 35.6306 23.026 35.6175C23.0654 35.6175 23.118 35.6175 23.1706 35.6043C23.2757 35.6043 23.3809 35.5912 23.4729 35.5912C23.6174 35.578 23.762 35.5649 23.9197 35.5518L29.4397 45.0803Z" fill="#FF7722"/>
</g>
<defs>
<clipPath id="clip0_946_1256">
<rect width="46" height="46" fill="white"/>
</clipPath>
</defs>
</svg>
