<svg width="179" height="46" viewBox="0 0 179 46" fill="none" xmlns="http://www.w3.org/2000/svg">
<path d="M102.912 16.4685C104.306 16.4685 105.622 16.6937 106.859 17.1453C108.106 17.5872 109.207 18.275 110.159 19.2078C111.121 20.1406 111.878 21.3289 112.428 22.7723C112.977 24.2057 113.252 25.9141 113.252 27.8973V29.533H97.4951C97.5109 30.792 97.749 31.8771 98.2139 32.7879C98.695 33.7206 99.3675 34.4375 100.231 34.9383C101.095 35.4292 102.107 35.6746 103.266 35.6746C104.041 35.6746 104.744 35.5664 105.372 35.3504C106 35.1246 106.545 34.7959 107.007 34.3641C107.468 33.9321 107.817 33.3967 108.053 32.7586L113.031 33.3182C112.717 34.6338 112.118 35.7826 111.234 36.7644C110.36 37.7366 109.241 38.4929 107.876 39.033C106.511 39.5632 104.95 39.8279 103.192 39.8279C100.924 39.8279 98.9651 39.3565 97.3154 38.4139C95.6758 37.4615 94.414 36.1165 93.5303 34.3787C92.6465 32.6309 92.2051 30.5733 92.2051 28.2068C92.2051 25.8798 92.6466 23.8375 93.5303 22.0799C94.4238 20.3124 95.6709 18.9378 97.2715 17.9559C98.8719 16.9642 100.752 16.4686 102.912 16.4685ZM145.772 16.4685C147.982 16.4685 149.896 16.9545 151.517 17.9266C153.137 18.8987 154.389 20.2636 155.272 22.0213C156.166 23.7789 156.613 25.826 156.613 28.1629C156.613 30.4998 156.166 32.542 155.272 34.2898C154.389 36.0377 153.137 37.3978 151.517 38.3699C149.896 39.342 147.982 39.8279 145.772 39.8279C143.563 39.8279 141.648 39.342 140.028 38.3699C138.408 37.3978 137.151 36.0377 136.258 34.2898C135.374 32.5421 134.933 30.4998 134.933 28.1629C134.933 25.826 135.374 23.7789 136.258 22.0213C137.151 20.2637 138.408 18.8987 140.028 17.9266C141.648 16.9545 143.563 16.4686 145.772 16.4685ZM66.5283 9.22148C68.708 9.22152 70.5195 9.56542 71.9629 10.2527C73.416 10.9302 74.501 11.8578 75.2178 13.0359C75.9444 14.2142 76.3076 15.5502 76.3076 17.0428C76.3076 18.27 76.0718 19.3203 75.6006 20.1941C75.1293 21.0581 74.4964 21.7605 73.7012 22.3006C72.9058 22.8406 72.017 23.229 71.0352 23.4646V23.7586C72.1054 23.8175 73.1314 24.147 74.1133 24.7459C75.105 25.335 75.9155 26.1697 76.5439 27.2498C77.1723 28.3299 77.4863 29.6361 77.4863 31.1678C77.4863 32.7288 77.1084 34.1328 76.3525 35.3797C75.5965 36.6169 74.4566 37.5945 72.9346 38.3113C71.4127 39.028 69.4977 39.3865 67.1904 39.3865H54.9805V9.22148H66.5283ZM90.8223 16.4383C91.1167 16.4383 91.4455 16.4538 91.8086 16.4832C92.1817 16.5028 92.4918 16.5366 92.7373 16.5857V21.491C92.5115 21.4125 92.1529 21.3429 91.6621 21.284C91.181 21.2153 90.7143 21.1814 90.2627 21.1814C89.2906 21.1814 88.4163 21.392 87.6406 21.8143C86.8747 22.2267 86.271 22.8015 85.8291 23.5379C85.3873 24.2742 85.1661 25.1236 85.166 26.0857V39.3865H79.835V16.7625H85.0039V20.533H85.2402C85.6527 19.2272 86.3598 18.2204 87.3613 17.5135C88.3726 16.7969 89.5263 16.4383 90.8223 16.4383ZM124.033 33.5682H124.27L129.483 16.7625H135.154L127.098 39.3865H121.206L113.149 16.7625H118.834L124.033 33.5682ZM171.075 16.4685C172.636 16.4685 173.997 16.8018 175.155 17.4695C176.324 18.1372 177.227 19.1044 177.865 20.3709C178.513 21.6375 178.833 23.1746 178.823 24.9812V39.3865H173.491V25.8064C173.491 24.2943 173.098 23.1109 172.312 22.2566C171.537 21.4024 170.462 20.9754 169.087 20.9754C168.154 20.9754 167.324 21.1812 166.598 21.5935C165.881 21.9961 165.317 22.5807 164.904 23.3465C164.502 24.1124 164.3 25.0407 164.3 26.1307V39.3865H158.969V16.7625H164.064V20.6072H164.329C164.849 19.3407 165.68 18.3339 166.818 17.5877C167.967 16.8415 169.386 16.4686 171.075 16.4685ZM145.802 20.6951C144.574 20.6952 143.553 21.0294 142.738 21.6971C141.933 22.3648 141.329 23.2633 140.927 24.3924C140.534 25.5117 140.338 26.7638 140.338 28.1482C140.338 29.5229 140.534 30.7701 140.927 31.8894C141.329 33.0088 141.933 33.9024 142.738 34.5701C143.553 35.2279 144.574 35.5564 145.802 35.5564C147 35.5564 148.001 35.2279 148.807 34.5701C149.612 33.9025 150.211 33.0087 150.604 31.8894C151.006 30.7701 151.208 29.5229 151.208 28.1482C151.208 26.7638 151.006 25.5117 150.604 24.3924C150.211 23.2632 149.612 22.3648 148.807 21.6971C148.001 21.0294 147 20.6951 145.802 20.6951ZM60.4453 34.8201H66.3213C68.3045 34.8201 69.7335 34.4422 70.6074 33.6863C71.4912 32.9204 71.9336 31.938 71.9336 30.74C71.9335 29.8466 71.7123 29.0417 71.2705 28.325C70.8287 27.5984 70.2006 27.0284 69.3857 26.616C68.5707 26.1938 67.598 25.9832 66.4688 25.9832H60.4453V34.8201ZM102.986 20.6219C101.897 20.6219 100.939 20.8867 100.114 21.4168C99.2894 21.9372 98.6461 22.625 98.1846 23.4793C97.7817 24.2326 97.5552 25.0522 97.5039 25.9383H108.142C108.132 24.9173 107.91 24.0089 107.479 23.2137C107.047 22.4087 106.443 21.7757 105.667 21.3143C104.901 20.8528 104.007 20.6219 102.986 20.6219ZM60.4453 22.0506H65.8506C66.7931 22.0506 67.6424 21.8786 68.3984 21.535C69.1544 21.1815 69.7486 20.6858 70.1807 20.0477C70.6225 19.3997 70.8437 18.6334 70.8438 17.7498C70.8438 16.5815 70.431 15.6191 69.6064 14.8631C68.7914 14.107 67.5781 13.7283 65.9678 13.7283H60.4453V22.0506Z" fill="#1F2937"/>
<g clip-path="url(#clip0_459_933)">
<path d="M22.8951 28.3755L18.9128 28.336L15.0488 28.2966L16.8231 24.7086L24.2751 24.7743H24.6431H24.6825C24.6957 24.7743 24.7088 24.7743 24.722 24.7743C24.7483 24.7743 24.7745 24.7743 24.8008 24.7743H24.8403C24.8534 24.7743 24.8534 24.7743 24.8665 24.7743C24.8797 24.7743 24.8928 24.7743 24.906 24.7743C24.9323 24.7743 24.9585 24.7743 24.9717 24.7875C24.998 24.7875 25.0243 24.8006 25.0505 24.8006C25.09 24.8006 25.1163 24.8137 25.1425 24.8137C25.1557 24.8137 25.182 24.8269 25.1951 24.8269C25.2214 24.8269 25.2477 24.84 25.2608 24.84C25.2871 24.84 25.3003 24.8532 25.3265 24.8532H25.3397H25.3528C25.366 24.8532 25.366 24.8532 25.366 24.8663C25.4054 24.8795 25.4317 24.8926 25.458 24.9057C25.4711 24.9057 25.4843 24.9189 25.4974 24.9189C25.4974 24.9189 25.5105 24.9189 25.5105 24.932C25.5237 24.932 25.55 24.9452 25.5631 24.9452C25.5763 24.9452 25.5894 24.9583 25.6025 24.9583C25.6025 24.9583 25.6025 24.9583 25.6157 24.9583C25.6288 24.9583 25.6288 24.9583 25.6288 24.9715C25.6551 24.9846 25.6683 24.9977 25.6945 25.0109C25.7077 25.024 25.7077 25.024 25.7208 25.024C25.7208 25.024 25.734 25.024 25.734 25.0372C25.7471 25.0372 25.7471 25.0503 25.7603 25.0503C25.7734 25.0635 25.7865 25.0766 25.7997 25.0897C25.8128 25.1029 25.826 25.1029 25.8391 25.116C25.8523 25.116 25.8523 25.1292 25.8523 25.1292C25.8654 25.1292 25.8654 25.1292 25.8654 25.1423C25.8785 25.1555 25.8785 25.1555 25.8785 25.1686C25.8917 25.1686 25.8917 25.1817 25.9048 25.1949C25.918 25.1949 25.918 25.208 25.918 25.208C25.918 25.208 25.9311 25.208 25.9311 25.2212L25.9443 25.2343L25.9574 25.2475C25.9705 25.2606 25.9837 25.2737 25.9968 25.3C26.01 25.3132 26.01 25.3132 26.01 25.3263C26.0231 25.3395 26.0363 25.3657 26.0494 25.392C26.0625 25.4183 26.0757 25.4446 26.0888 25.4577C26.1545 25.5892 26.1808 25.7469 26.1808 25.9046C26.1808 26.128 26.1151 26.3646 25.9968 26.6275C25.9574 26.7195 25.9048 26.8115 25.8391 26.9035C25.8391 26.9166 25.826 26.9297 25.8128 26.9429C25.7471 27.0349 25.6814 27.1269 25.6025 27.2189C25.5631 27.2583 25.5237 27.3109 25.4843 27.3503C25.274 27.5606 25.0374 27.7577 24.7614 27.9155C24.4854 28.0732 24.1831 28.1915 23.8677 28.2703C23.5917 28.336 23.25 28.3755 22.8951 28.3755Z" fill="#05A4BF"/>
<path d="M30.4396 14.9434C30.479 14.9829 30.5053 15.0223 30.5185 15.0617L30.5316 15.0749C30.5842 15.18 30.6236 15.2983 30.6236 15.4297C30.6368 15.6269 30.5842 15.8371 30.479 16.0737C30.4396 16.1526 30.4002 16.2314 30.3345 16.3103C30.3345 16.3234 30.3213 16.3234 30.3213 16.3366C30.2293 16.4811 30.111 16.6257 29.9928 16.744C29.7956 16.9543 29.559 17.1251 29.3093 17.2697C29.0596 17.4143 28.7968 17.5326 28.5339 17.6114C28.271 17.6903 27.995 17.7297 27.7453 17.7297L23.6448 17.7166H20.2539L21.831 14.5097L29.3093 14.4966H29.3356C29.3882 14.4966 29.4408 14.4966 29.4933 14.5097C29.5065 14.5097 29.5328 14.5097 29.5459 14.5097C29.559 14.5097 29.5722 14.5097 29.5853 14.5097C29.6248 14.5229 29.6773 14.5229 29.7168 14.536C29.7299 14.536 29.7299 14.536 29.7299 14.536C29.7825 14.5491 29.8482 14.5623 29.9008 14.5754H29.9139C29.9402 14.5886 29.9665 14.5886 29.9796 14.6017C30.0059 14.6149 30.019 14.6149 30.0453 14.628C30.0585 14.628 30.0716 14.6411 30.0848 14.6411C30.111 14.6543 30.1505 14.6674 30.1768 14.6937H30.1899C30.203 14.6937 30.2162 14.7069 30.2293 14.7069C30.2688 14.7331 30.3213 14.7726 30.3476 14.7989C30.3608 14.8646 30.4002 14.904 30.4396 14.9434Z" fill="#05A4BF"/>
<circle cx="23" cy="23" r="22.5" fill="white"/>
<path d="M46 23C46 23.2366 46 23.4731 45.9869 23.6966C45.908 26.3777 45.3691 28.9406 44.4491 31.3194C44.2783 31.7531 44.0943 32.1869 43.8971 32.6074C43.7526 32.936 43.5817 33.2646 43.424 33.5931C43.2794 33.8823 43.1217 34.1583 42.964 34.4343C42.8326 34.6709 42.688 34.9074 42.5434 35.1309C42.5434 35.144 42.5303 35.144 42.5303 35.144C42.5171 35.1571 42.5171 35.1703 42.504 35.1834C42.4909 35.2097 42.4777 35.2229 42.4646 35.2491C42.4251 35.3149 42.3726 35.3806 42.3331 35.4463C42.2674 35.5383 42.2149 35.6434 42.136 35.7354C42.1097 35.788 42.0834 35.8274 42.044 35.8669C42.044 35.88 42.0309 35.88 42.0309 35.8931C41.9783 35.972 41.9257 36.0509 41.86 36.1297C41.768 36.2743 41.6629 36.4189 41.5709 36.5503C41.5577 36.5634 41.5577 36.5634 41.5577 36.5634C41.5446 36.5766 41.5446 36.5766 41.5314 36.5897C41.5183 36.6291 41.492 36.6554 41.4657 36.6817C41.4394 36.7211 41.4131 36.7606 41.3737 36.8C41.1897 37.0497 41.0057 37.2994 40.7954 37.536C40.7954 37.5491 40.7823 37.5491 40.7823 37.5491C40.6509 37.7069 40.5326 37.8514 40.4011 38.0091C40.112 38.3509 39.7966 38.6794 39.4811 39.008C39.2971 39.192 39.1131 39.3891 38.916 39.5731L38.9029 39.5863C38.7451 39.7309 38.5874 39.8886 38.4297 40.0331C38.364 40.0857 38.3114 40.1383 38.2457 40.1909C38.088 40.3354 37.9303 40.4669 37.7726 40.5983C37.7463 40.6246 37.72 40.6377 37.6937 40.664C37.4966 40.8349 37.2994 40.9926 37.0891 41.1503C36.9709 41.2423 36.8657 41.3211 36.7474 41.4131C36.6686 41.4657 36.5897 41.5314 36.5109 41.584C36.2217 41.7943 35.9326 42.0046 35.6303 42.1886C35.5646 42.2411 35.4857 42.2806 35.4069 42.3331C35.2229 42.4514 35.0389 42.5697 34.8549 42.6749C34.8417 42.6749 34.8286 42.688 34.8154 42.688C34.7234 42.7406 34.6446 42.7931 34.5526 42.8457C34.5263 42.8589 34.4869 42.8851 34.4606 42.8983C34.1714 43.0691 33.8691 43.24 33.5669 43.3846C33.2777 43.5423 32.9754 43.6869 32.6731 43.8314C32.3577 43.976 32.0423 44.1206 31.7269 44.252C31.372 44.3966 31.0171 44.528 30.6623 44.6594C30.2417 44.8171 29.8211 44.9486 29.3874 45.0669C29.164 45.1326 28.9537 45.1983 28.7303 45.2509C28.428 45.3297 28.1257 45.3954 27.8103 45.4611C27.0086 45.6451 26.1806 45.7634 25.3394 45.8554C24.5509 45.9343 23.7491 45.9737 22.9474 45.9737C14.7594 45.9737 7.58343 41.7023 3.50914 35.2623L19.2937 35.5514L22.0669 35.604C22.2246 35.604 22.3691 35.604 22.5269 35.604C22.6714 35.604 22.8291 35.604 22.9737 35.5909C23.0131 35.5909 23.0657 35.5909 23.1183 35.5777C23.2234 35.5777 23.3286 35.5646 23.4206 35.5646C23.5651 35.5514 23.7097 35.5383 23.8674 35.5251C23.9857 35.512 24.104 35.4989 24.2223 35.4857C24.2486 35.4857 24.2617 35.4857 24.288 35.4726C24.38 35.4594 24.4851 35.4463 24.5771 35.4331C24.6034 35.4331 24.6297 35.42 24.656 35.42C24.8269 35.3937 24.9846 35.3674 25.1423 35.3411C25.1817 35.328 25.2343 35.328 25.2737 35.3149C25.3657 35.3017 25.4709 35.2754 25.5629 35.2623C25.6023 35.2491 25.6286 35.2491 25.6549 35.236C25.7206 35.2229 25.7863 35.2097 25.852 35.1966C25.9046 35.1834 25.9571 35.1703 26.0097 35.1571C26.0623 35.144 26.1149 35.1309 26.1674 35.1177C26.3383 35.0783 26.5091 35.0257 26.6669 34.9863C26.8377 34.9337 27.0217 34.8811 27.1926 34.8286C27.232 34.8154 27.2583 34.8154 27.2846 34.8023C27.324 34.7891 27.3503 34.776 27.3897 34.7629C27.4029 34.7629 27.4291 34.7497 27.4423 34.7497C27.5211 34.7234 27.6 34.6971 27.692 34.6577C27.7709 34.6314 27.8497 34.6051 27.9286 34.5657C28.0074 34.5394 28.0863 34.5 28.1651 34.4737C28.244 34.4474 28.3229 34.408 28.4017 34.3817C28.4806 34.3423 28.5594 34.316 28.6383 34.2766C28.7171 34.2371 28.796 34.2109 28.8749 34.1714C28.9537 34.132 29.0326 34.1057 29.1114 34.0663C29.1903 34.0269 29.2691 33.9874 29.348 33.948C29.3874 33.9349 29.4137 33.9086 29.44 33.8954C29.4926 33.8691 29.5451 33.8429 29.5846 33.8166C29.624 33.7903 29.6634 33.7771 29.7029 33.7509C29.716 33.7509 29.7291 33.7377 29.7291 33.7377C29.7423 33.7377 29.7423 33.7246 29.7554 33.7246C29.7817 33.7114 29.7949 33.6983 29.8211 33.6851C29.9 33.6457 29.9789 33.5931 30.0709 33.5537C30.084 33.5537 30.084 33.5406 30.0971 33.5406C30.1103 33.5274 30.1103 33.5274 30.1234 33.5274C30.1497 33.5143 30.176 33.488 30.2154 33.4749C30.2943 33.4223 30.3863 33.3829 30.4651 33.3303C30.4914 33.3171 30.5177 33.304 30.5309 33.2909C30.5571 33.2777 30.5703 33.2646 30.5966 33.2514C30.6886 33.1857 30.7937 33.1331 30.8857 33.0674C30.9514 33.028 31.0171 32.9754 31.096 32.936C31.1223 32.9229 31.1486 32.8966 31.1749 32.8834C31.2669 32.8177 31.3589 32.752 31.4509 32.6863C31.5954 32.5811 31.74 32.476 31.8714 32.3709C31.9503 32.3051 32.0423 32.2394 32.1211 32.1737C32.2131 32.108 32.292 32.0291 32.3709 31.9634C32.384 31.9503 32.4103 31.9371 32.4234 31.924C32.4891 31.8714 32.5417 31.8189 32.6074 31.7531C32.6469 31.7137 32.6863 31.6874 32.7257 31.648C32.752 31.6217 32.7783 31.5954 32.8046 31.5691C32.8703 31.5034 32.936 31.4509 32.9886 31.3851C33.0674 31.3063 33.1463 31.2406 33.2251 31.1486C33.2777 31.096 33.3303 31.0434 33.3829 30.9909C33.5406 30.8331 33.6851 30.6623 33.8297 30.4914C33.9086 30.3994 34.0006 30.2943 34.0794 30.1891C34.1583 30.0971 34.2371 29.992 34.3029 29.9L34.316 29.8869C34.3291 29.8737 34.3423 29.8474 34.3554 29.8343C34.3686 29.8211 34.3686 29.8211 34.3817 29.808C34.4343 29.7423 34.4869 29.6634 34.5263 29.5977C34.6051 29.4926 34.6709 29.3874 34.7366 29.2823C34.7629 29.2429 34.7891 29.2034 34.8023 29.164C34.8417 29.0983 34.8943 29.0326 34.9206 28.9669C35.0126 28.8091 35.1046 28.6514 35.1966 28.4937C35.236 28.428 35.2754 28.3491 35.3149 28.2834C35.3806 28.1651 35.4331 28.0337 35.4989 27.9154C35.5383 27.8234 35.5909 27.7314 35.6171 27.6394C35.6434 27.5737 35.6829 27.4949 35.7091 27.4291C35.7354 27.3766 35.7486 27.324 35.7749 27.2714C35.8011 27.2057 35.8143 27.1531 35.8406 27.1006C35.8537 27.0611 35.8669 27.0349 35.8669 27.0086C35.88 26.9954 35.88 26.9823 35.88 26.9691C35.8931 26.9297 35.9063 26.9034 35.9194 26.864C35.9194 26.8509 35.9326 26.8509 35.9326 26.8377C35.9326 26.8377 35.9326 26.8377 35.9326 26.8246C35.9457 26.7851 35.9589 26.7326 35.972 26.6931C35.972 26.68 35.9851 26.6669 35.9851 26.6537C35.9851 26.6406 35.9983 26.6406 35.9983 26.6274C35.9983 26.6274 35.9983 26.6274 35.9983 26.6143V26.6011C35.9983 26.6011 35.9983 26.6011 35.9983 26.588C36.0114 26.5486 36.0246 26.496 36.0377 26.4434C36.0509 26.4171 36.0509 26.3909 36.064 26.3646C36.064 26.3514 36.064 26.3514 36.064 26.3383C36.0771 26.2726 36.0903 26.2069 36.1034 26.1411C36.1166 26.0754 36.1297 26.0229 36.1429 25.9571C36.1429 25.944 36.1429 25.9309 36.156 25.9177C36.156 25.9046 36.156 25.9046 36.156 25.8914C36.156 25.8783 36.1691 25.852 36.1691 25.8389C36.1823 25.7994 36.1823 25.76 36.1823 25.7206C36.1823 25.7074 36.1954 25.6811 36.1954 25.668C36.1954 25.6417 36.2086 25.6154 36.2086 25.5891C36.2086 25.576 36.2086 25.5497 36.2217 25.5366C36.2217 25.5234 36.2217 25.4971 36.2217 25.484C36.2217 25.4709 36.2217 25.4446 36.2217 25.4314C36.2217 25.4183 36.2217 25.392 36.2217 25.3789C36.2217 25.3657 36.2217 25.3526 36.2217 25.3394C36.2217 25.3263 36.2217 25.3131 36.2217 25.3C36.2217 25.2737 36.2217 25.2474 36.2217 25.2211C36.2217 25.1949 36.2217 25.1686 36.2217 25.1423C36.2217 25.1291 36.2217 25.1029 36.2217 25.0766V25.0503C36.2217 25.0371 36.2217 25.0109 36.2217 24.9977V24.9583C36.2217 24.8926 36.2217 24.84 36.2217 24.7874C36.2217 24.7349 36.2217 24.6823 36.2086 24.6166C36.2086 24.5903 36.2086 24.5509 36.1954 24.5246C36.1954 24.5114 36.1954 24.4851 36.1954 24.4589V24.4457C36.1954 24.4326 36.1954 24.4326 36.1954 24.4194V24.4063C36.1954 24.3669 36.1823 24.3274 36.1823 24.288C36.1823 24.2486 36.1691 24.2091 36.1691 24.1697C36.1691 24.1566 36.1691 24.1434 36.156 24.1303C36.156 24.1171 36.1429 24.0909 36.1429 24.0646C36.1429 24.0251 36.1297 23.9989 36.1297 23.9726C36.1166 23.9331 36.1166 23.9069 36.1034 23.8806C36.0903 23.8149 36.064 23.736 36.0509 23.6703C36.0509 23.6703 36.0509 23.6703 36.0509 23.6571C36.0377 23.6177 36.0377 23.5914 36.0246 23.5651C36.0246 23.5389 36.0114 23.5257 35.9983 23.4994C35.9983 23.4731 35.9851 23.46 35.972 23.4337C35.972 23.4206 35.9589 23.3943 35.9589 23.3811C35.9457 23.3549 35.9457 23.3417 35.9326 23.3154C35.9194 23.2629 35.8931 23.2234 35.8669 23.1709C35.8669 23.1577 35.8669 23.1577 35.8537 23.1577C35.8406 23.1314 35.8274 23.1051 35.8143 23.0657C35.8011 23.0394 35.788 23.0131 35.7749 22.9869C35.7617 22.9737 35.7617 22.9474 35.7486 22.9343C35.6434 22.724 35.512 22.54 35.3674 22.3691C35.144 22.0931 34.8811 21.8566 34.5789 21.6594C34.3686 21.5149 34.1583 21.3966 33.9217 21.2914L33.8823 21.2651C33.5669 21.1206 33.2251 21.0154 32.8571 20.9497C32.844 20.9497 32.8309 20.9497 32.8177 20.9366C32.8046 20.9366 32.7914 20.9366 32.7783 20.9234C32.6731 20.9103 32.5811 20.884 32.476 20.8709C32.5549 20.8577 32.6469 20.8446 32.7257 20.8314C32.7389 20.8314 32.7389 20.8314 32.752 20.8183C32.7651 20.8183 32.7651 20.8183 32.7783 20.8183C32.8703 20.8051 32.9754 20.7789 33.0674 20.7526C33.0806 20.7526 33.1069 20.7394 33.12 20.7394C33.1857 20.7263 33.2514 20.7131 33.3303 20.6869C33.396 20.6737 33.4617 20.6474 33.5274 20.6343C33.5406 20.6343 33.5406 20.6343 33.5537 20.6211C33.5669 20.6211 33.58 20.608 33.5931 20.608C33.7114 20.5686 33.8297 20.5423 33.948 20.5029C34.0006 20.4897 34.04 20.4634 34.0926 20.4503C34.1583 20.4371 34.224 20.4109 34.2766 20.3846C34.3423 20.3714 34.3949 20.3451 34.4606 20.3189C34.5789 20.2794 34.684 20.24 34.8023 20.2006C34.868 20.1743 34.9469 20.1349 35.0257 20.1086C35.0389 20.1086 35.0389 20.0954 35.052 20.0954C35.1046 20.0691 35.1571 20.056 35.2097 20.0297C35.3411 19.9771 35.4594 19.9114 35.5909 19.8589C35.6566 19.8326 35.7091 19.7931 35.7749 19.7669C35.9851 19.6617 36.2086 19.5434 36.4189 19.4251C36.4714 19.3989 36.524 19.3594 36.5766 19.3331C36.6554 19.2937 36.7343 19.2411 36.8131 19.1886C36.9314 19.1097 37.0629 19.0309 37.1811 18.952C37.2074 18.9257 37.2469 18.9126 37.2731 18.8863C37.352 18.8337 37.4309 18.7811 37.5097 18.7286C37.8777 18.4657 38.2326 18.1766 38.5611 17.8743C38.5743 17.8611 38.5743 17.8611 38.5874 17.848C38.7451 17.7034 38.9029 17.5457 39.0606 17.388C39.1526 17.296 39.2314 17.204 39.3103 17.1251C39.376 17.0594 39.4286 16.9937 39.4811 16.928C39.4943 16.9149 39.5206 16.8886 39.5337 16.8754L39.5469 16.8623C39.8491 16.5074 40.1383 16.1263 40.4011 15.732C40.5194 15.5611 40.6246 15.3903 40.7166 15.2194C40.7429 15.1669 40.7823 15.1143 40.8086 15.0617C40.848 14.9829 40.9006 14.904 40.94 14.812C40.9531 14.7726 40.9794 14.7463 40.9926 14.7069C41.0057 14.6806 41.0189 14.6411 41.0451 14.6149C41.0451 14.6017 41.0583 14.6017 41.0583 14.5886C41.0714 14.5754 41.0714 14.5491 41.0846 14.5229C41.0846 14.5097 41.0977 14.5097 41.0977 14.4966C41.1371 14.3914 41.1897 14.2994 41.2291 14.1943C41.2423 14.1549 41.2554 14.1286 41.2686 14.0891C41.2817 14.0497 41.2949 14.0234 41.308 13.984C41.3211 13.9577 41.3211 13.9314 41.3343 13.9051C41.3606 13.8263 41.3869 13.7474 41.4131 13.6686C41.4131 13.6554 41.4263 13.6554 41.4263 13.6423C41.4394 13.616 41.4394 13.6029 41.4394 13.5766C41.4526 13.5109 41.4789 13.4451 41.492 13.3794C41.5051 13.3137 41.5314 13.2611 41.5314 13.1954C41.5446 13.1691 41.5446 13.1297 41.5577 13.1034C41.5577 13.0903 41.5709 13.064 41.5709 13.0509C41.584 12.9983 41.584 12.9589 41.5971 12.9063C41.6103 12.8669 41.6103 12.8274 41.6103 12.788C41.6103 12.7749 41.6234 12.7486 41.6234 12.7354C41.6234 12.7223 41.6366 12.696 41.6366 12.6829C41.6497 12.6434 41.6497 12.5909 41.6497 12.5514C41.6497 12.512 41.6629 12.4594 41.6629 12.42C41.6629 12.3937 41.6629 12.3806 41.6629 12.3543C41.676 12.2491 41.676 12.1571 41.676 12.052C41.676 12.0389 41.676 12.0389 41.676 12.0257C41.676 11.8286 41.6629 11.6314 41.6366 11.4211C41.6366 11.4211 41.6366 11.4211 41.6366 11.408C41.6234 11.3291 41.6103 11.2371 41.5971 11.1583C41.5971 11.1451 41.5971 11.1451 41.5971 11.132C41.584 11.0531 41.5577 10.9743 41.5314 10.8954C41.5183 10.8297 41.492 10.7771 41.4789 10.7114C41.4657 10.672 41.4526 10.6326 41.4394 10.5931C41.4394 10.58 41.4263 10.5537 41.4263 10.5406C41.4263 10.5274 41.4131 10.5274 41.4131 10.5143C41.4 10.488 41.4 10.4749 41.3737 10.4486C41.3737 10.4354 41.3606 10.4223 41.3606 10.4091C41.3606 10.396 41.3606 10.396 41.3474 10.3829C41.3343 10.3697 41.3474 10.3697 41.3343 10.3697C41.3343 10.3566 41.3211 10.3434 41.3211 10.3303C41.3211 10.3171 41.308 10.2909 41.2949 10.2777C41.2817 10.2646 41.2817 10.2383 41.2686 10.2251C41.1897 10.0674 41.0977 9.90971 40.9926 9.752C40.5194 9.08171 39.7966 8.51657 38.7714 8.12229C37.7463 7.728 36.432 7.50457 34.7629 7.51771L15.6006 7.66229L2.65486 33.7377C0.959429 30.5309 0 26.8771 0 23C0 10.304 10.304 0 23 0C33.948 0 43.1217 7.66229 45.4349 17.9137C45.4349 17.9269 45.448 17.94 45.448 17.9531C45.4743 18.0583 45.5006 18.1766 45.5137 18.2817C45.5531 18.492 45.5926 18.6891 45.632 18.8994C45.6846 19.1754 45.724 19.4646 45.7634 19.7406C45.816 20.0823 45.8554 20.4371 45.8817 20.792C45.9211 21.2126 45.9474 21.6331 45.9606 22.0537C45.9869 22.3691 46 22.6846 46 23Z" fill="#05A4BF"/>
<path d="M21.8179 14.5229L23.6316 17.7297H20.2539L21.8179 14.5229Z" fill="#05A4BF"/>
<path d="M26.1285 25.4446C26.1942 25.5761 26.2205 25.7338 26.2205 25.8915C26.2205 26.1149 26.1547 26.3515 26.0365 26.6143C25.997 26.7063 25.9445 26.7983 25.8787 26.8903C25.8787 26.9035 25.8656 26.9166 25.8525 26.9298C25.7867 27.0218 25.721 27.1138 25.6422 27.2058L24.249 24.7612H24.617H24.6565C24.6696 24.7612 24.6827 24.7612 24.6959 24.7612C24.7222 24.7612 24.7485 24.7612 24.7747 24.7612H24.8142C24.8273 24.7612 24.8273 24.7612 24.8405 24.7612C24.8536 24.7612 24.8667 24.7612 24.8799 24.7612C24.9062 24.7612 24.9325 24.7612 24.9456 24.7743C24.9719 24.7743 24.9982 24.7875 25.0245 24.7875C25.0639 24.7875 25.0902 24.8006 25.1165 24.8006C25.1296 24.8006 25.1559 24.8138 25.169 24.8138C25.1953 24.8138 25.2216 24.8269 25.2347 24.8269C25.261 24.8269 25.2742 24.8401 25.3005 24.8401H25.3136H25.3267C25.3399 24.8401 25.3399 24.8401 25.3399 24.8532C25.3793 24.8663 25.4056 24.8795 25.4319 24.8926C25.445 24.8926 25.4582 24.9058 25.4713 24.9058C25.4713 24.9058 25.4845 24.9058 25.4845 24.9189C25.4976 24.9189 25.5239 24.9321 25.537 24.9321C25.5502 24.9321 25.5633 24.9452 25.5765 24.9452C25.5765 24.9452 25.5765 24.9452 25.5896 24.9452C25.6027 24.9452 25.6027 24.9452 25.6027 24.9583C25.629 24.9715 25.6422 24.9846 25.6685 24.9978C25.6816 25.0109 25.6816 25.0109 25.6947 25.0109C25.6947 25.0109 25.7079 25.0109 25.7079 25.0241C25.721 25.0241 25.721 25.0372 25.7342 25.0372C25.7473 25.0503 25.7605 25.0635 25.7736 25.0766C25.7867 25.0898 25.7999 25.0898 25.813 25.1029C25.8262 25.1029 25.8262 25.1161 25.8262 25.1161C25.8393 25.1161 25.8393 25.1161 25.8393 25.1292C25.8525 25.1423 25.8525 25.1423 25.8525 25.1555C25.8656 25.1555 25.8656 25.1686 25.8787 25.1818C25.8919 25.1818 25.8919 25.1949 25.8919 25.1949C25.8919 25.1949 25.905 25.1949 25.905 25.2081L25.9182 25.2212L25.9313 25.2343C25.9445 25.2475 25.9576 25.2606 25.9707 25.2869C25.9839 25.3001 25.9839 25.3001 25.9839 25.3132C25.997 25.3263 26.0102 25.3526 26.0233 25.3789C26.1022 25.4052 26.1153 25.4315 26.1285 25.4446Z" fill="#05A4BF"/>
<path d="M36.9058 41.1635L36.7875 41.4263C36.7087 41.4789 36.6298 41.5446 36.551 41.5972C36.2618 41.8075 35.9727 42.0177 35.6704 42.2017C35.6047 42.2543 35.5258 42.2937 35.447 42.3463C35.263 42.4646 35.079 42.5829 34.895 42.688C34.8818 42.688 34.8687 42.7012 34.8555 42.7012C34.7635 42.7537 34.6847 42.8063 34.5927 42.8589L29.5195 33.9612C29.5721 33.9349 29.6247 33.9086 29.6641 33.8823C29.7035 33.856 29.743 33.8429 29.7824 33.8166C29.7955 33.8166 29.8087 33.8035 29.8087 33.8035C29.8218 33.8035 29.8218 33.7903 29.835 33.7903C29.8612 33.7772 29.8744 33.764 29.9007 33.7509C29.9795 33.7114 30.0584 33.6589 30.1504 33.6195C30.1635 33.6195 30.1635 33.6063 30.1767 33.6063C30.1898 33.5932 30.1898 33.5932 30.203 33.5932C30.2292 33.58 30.2555 33.5537 30.295 33.5406C30.3738 33.488 30.4658 33.4486 30.5447 33.396C30.571 33.3829 30.5972 33.3697 30.6104 33.3566C30.6367 33.3435 30.6498 33.3303 30.6761 33.3172C30.7681 33.2515 30.8732 33.1989 30.9652 33.1332C31.031 33.0937 31.0967 33.0412 31.1755 33.0017C31.2018 32.9886 31.2281 32.9623 31.2544 32.9492C31.3464 32.8835 31.4384 32.8177 31.5304 32.752C31.675 32.6469 31.8195 32.5417 31.951 32.4366L36.9058 41.1635Z" fill="#05A4BF"/>
<path d="M29.2947 14.5097L30.3198 16.3497C30.2278 16.4943 30.1095 16.6389 29.9913 16.7572C29.7941 16.9674 29.5575 17.1383 29.3078 17.2829C29.0581 17.4274 28.7953 17.5457 28.5324 17.6246C28.2695 17.7034 27.9935 17.7429 27.7438 17.7429L23.6433 17.7297L21.8164 14.5229L29.2947 14.5097Z" fill="#05A4BF"/>
<path d="M32.8824 21.0286C32.7772 21.0154 32.6852 20.9891 32.5801 20.976C32.6589 20.9628 32.7509 20.9497 32.8298 20.9366C32.8429 20.9366 32.8429 20.9366 32.8561 20.9234L32.9218 21.0286C32.9087 21.0286 32.8824 21.0286 32.8824 21.0286Z" fill="#05A4BF"/>
<path d="M41.5571 36.5898C41.544 36.6029 41.544 36.6029 41.5308 36.6161C41.5177 36.6555 41.4914 36.6818 41.4651 36.708C41.4388 36.7475 41.4125 36.7869 41.3731 36.8263C41.1891 37.0761 41.0051 37.3258 40.7948 37.5623C40.7948 37.5755 40.7817 37.5755 40.7817 37.5755C40.6502 37.7332 40.532 37.8778 40.4005 38.0355C40.1114 38.3772 39.796 38.7058 39.4805 39.0343C39.2965 39.2183 39.1125 39.4155 38.9154 39.5995L38.9022 39.6126C38.7445 39.7572 38.5868 39.9149 38.4291 40.0595C38.3634 40.1121 38.3108 40.1646 38.2451 40.2172C38.0874 40.3618 37.9297 40.4932 37.772 40.6246C37.7457 40.6509 37.7194 40.6641 37.6931 40.6903C37.496 40.8612 37.2988 41.0189 37.0885 41.1766H36.8782L31.9365 32.4366C32.0154 32.3709 32.1074 32.3052 32.1862 32.2395C32.2782 32.1738 32.3571 32.0949 32.436 32.0292C32.4491 32.0161 32.4754 32.0029 32.4885 31.9898C32.5542 31.9372 32.6068 31.8846 32.6725 31.8189C32.712 31.7795 32.7514 31.7532 32.7908 31.7138C32.8171 31.6875 32.8434 31.6612 32.8697 31.6349C32.9354 31.5692 33.0011 31.5166 33.0537 31.4509C33.1325 31.3721 33.2114 31.3063 33.2902 31.2143C33.3428 31.1618 33.3954 31.1092 33.448 31.0566C33.6057 30.8989 33.7502 30.7281 33.8948 30.5572C33.9737 30.4652 34.0657 30.3601 34.1445 30.2549C34.2234 30.1629 34.3022 30.0578 34.368 29.9658L34.3811 29.9526C34.3942 29.9395 34.4074 29.9132 34.4205 29.9001C34.4337 29.8869 34.4337 29.8869 34.4468 29.8738C34.4994 29.8081 34.552 29.7292 34.5914 29.6635C34.6702 29.5583 34.736 29.4532 34.8017 29.3481C34.828 29.3086 34.8542 29.2692 34.8674 29.2298C34.9068 29.1641 34.9594 29.0983 34.9857 29.0326C35.0777 28.8749 35.1697 28.7172 35.2617 28.5595C35.3011 28.4938 35.3405 28.4149 35.38 28.3492C35.4457 28.2309 35.4982 28.0995 35.564 27.9812C35.6034 27.8892 35.656 27.7972 35.6822 27.7052C35.7085 27.6395 35.748 27.5606 35.7742 27.4949C35.8005 27.4423 35.8137 27.3898 35.84 27.3372C35.8662 27.2715 35.8794 27.2189 35.9057 27.1663C35.9188 27.1269 35.932 27.1006 35.932 27.0743C35.9451 27.0612 35.9451 27.0481 35.9451 27.0349C35.9582 26.9955 35.9714 26.9692 35.9845 26.9298C35.9845 26.9166 35.9977 26.9166 35.9977 26.9035C35.9977 26.9035 35.9977 26.9035 35.9977 26.8903C36.0108 26.8509 36.024 26.7983 36.0371 26.7589C36.0371 26.7458 36.0502 26.7326 36.0502 26.7195L41.5571 36.5898Z" fill="#05A4BF"/>
<path d="M30.531 15.0748C30.5835 15.18 30.623 15.2983 30.623 15.4297C30.6361 15.6268 30.5835 15.8371 30.4784 16.0737C30.439 16.1526 30.3995 16.2314 30.3338 16.3103L29.335 14.4966C29.3875 14.4966 29.4401 14.4966 29.4927 14.5097C29.5058 14.5097 29.5321 14.5097 29.5452 14.5097C29.5584 14.5097 29.5715 14.5097 29.5847 14.5097C29.6241 14.5228 29.6767 14.5228 29.7161 14.536C29.7292 14.536 29.7292 14.536 29.7292 14.536C29.7818 14.5491 29.8475 14.5623 29.9001 14.5754H29.9132C29.9395 14.5886 29.9658 14.5886 29.979 14.6017C30.0052 14.6148 30.0184 14.6148 30.0447 14.628C30.0578 14.628 30.071 14.6411 30.0841 14.6411C30.1104 14.6543 30.1498 14.6674 30.1761 14.6937H30.1892C30.2024 14.6937 30.2155 14.7068 30.2287 14.7068C30.2681 14.7331 30.3207 14.7726 30.347 14.7988C30.3864 14.8383 30.4127 14.8646 30.4521 14.904C30.4915 14.9434 30.5178 14.9828 30.531 15.0223C30.5178 15.0617 30.531 15.0748 30.531 15.0748Z" fill="#05A4BF"/>
<path d="M33.6592 20.7394L34.0141 21.3834L33.9746 21.3571C33.6592 21.2125 33.3175 21.1074 32.9495 21.0417L32.8838 20.9234C32.9758 20.9103 33.0809 20.884 33.1729 20.8577C33.1861 20.8577 33.2124 20.8445 33.2255 20.8445C33.2912 20.8314 33.3569 20.8183 33.4358 20.792C33.5015 20.7788 33.5672 20.7525 33.6329 20.7394C33.6461 20.7394 33.6461 20.7394 33.6592 20.7394Z" fill="#05A4BF"/>
<path d="M42.0445 35.8931C42.0445 35.9062 42.0313 35.9062 42.0313 35.9194C41.9787 35.9982 41.9262 36.0771 41.8605 36.156C41.7685 36.3005 41.6633 36.4451 41.5713 36.5765L36.0645 26.6668V26.6537C36.0645 26.6537 36.0645 26.6537 36.0645 26.6405C36.0776 26.6011 36.0907 26.5485 36.1039 26.496C36.117 26.4697 36.117 26.4434 36.1302 26.4171C36.1302 26.404 36.1302 26.404 36.1302 26.3908C36.1433 26.3251 36.1565 26.2594 36.1696 26.1937C36.1827 26.128 36.1959 26.0754 36.209 26.0097C36.209 25.9965 36.209 25.9834 36.2222 25.9702C36.2222 25.9571 36.2222 25.9571 36.2222 25.944C36.2222 25.9308 36.2353 25.9045 36.2353 25.8914C36.2485 25.852 36.2485 25.8125 36.2485 25.7731C36.2485 25.76 36.2616 25.7337 36.2616 25.7205C36.2616 25.6942 36.2747 25.668 36.2747 25.6417C36.2747 25.6285 36.2747 25.6022 36.2879 25.5891C36.2879 25.576 36.2879 25.5497 36.2879 25.5365C36.2879 25.5234 36.2879 25.4971 36.2879 25.484L42.0445 35.8931Z" fill="#05A4BF"/>
<path d="M29.3217 14.5095L30.3205 16.3232C30.3205 16.3364 30.3074 16.3364 30.3074 16.3495L29.2822 14.5095H29.3217Z" fill="#05A4BF"/>
<path d="M32.8832 20.9234L32.9489 21.0417C32.9358 21.0417 32.9226 21.0417 32.9095 21.0285L32.8438 20.9234C32.8569 20.9234 32.87 20.9234 32.8832 20.9234Z" fill="#05A4BF"/>
<path d="M41.5713 36.5765C41.5582 36.5897 41.5582 36.5897 41.5582 36.5897L36.0645 26.6931C36.0645 26.68 36.0776 26.68 36.0776 26.6668C36.0776 26.6668 36.0776 26.6668 36.0776 26.6537L41.5713 36.5765Z" fill="#05A4BF"/>
<path d="M16.8227 24.7086L18.9255 28.336L15.0615 28.2835L16.8227 24.7086Z" fill="#05A4BF"/>
<path d="M28.7823 45.2772C28.48 45.356 28.1777 45.4218 27.8623 45.4875C27.0606 45.6715 26.2326 45.7898 25.3914 45.8818L19.3457 35.5909L22.1188 35.6435C22.2766 35.6435 22.4211 35.6435 22.5788 35.6435C22.7234 35.6435 22.8811 35.6435 23.0257 35.6303C23.0651 35.6303 23.1177 35.6303 23.1703 35.6172L28.7823 45.2772Z" fill="#05A4BF"/>
<path d="M25.8655 26.9297C25.7998 27.0217 25.7341 27.1137 25.6552 27.2057C25.6158 27.2452 25.5764 27.2977 25.537 27.3372C25.3267 27.5475 25.0901 27.7446 24.8141 27.9023C24.5381 28.06 24.2358 28.1783 23.9204 28.2572C23.605 28.336 23.2501 28.3755 22.9084 28.3755L18.9261 28.336L16.8232 24.7086L24.2752 24.7743H24.6432L25.8655 26.9297Z" fill="#05A4BF"/>
<path d="M34.868 42.7143C34.776 42.7669 34.6972 42.8195 34.6052 42.872C34.5789 42.8852 34.5395 42.9115 34.5132 42.9246C34.224 43.0955 33.9218 43.2663 33.6195 43.4109C33.3303 43.5686 33.028 43.7132 32.7258 43.8578C32.4103 44.0023 32.0949 44.1469 31.7795 44.2783C31.4246 44.4229 31.0698 44.5543 30.7149 44.6858C30.2943 44.8435 29.8738 44.9749 29.44 45.0932C29.2166 45.1589 29.0063 45.2246 28.7829 45.2772L23.1709 35.6172C23.276 35.6172 23.3812 35.604 23.4732 35.604C23.6178 35.5909 23.7623 35.5778 23.92 35.5646C24.0383 35.5515 24.1566 35.5383 24.2749 35.5252C24.3012 35.5252 24.3143 35.5252 24.3406 35.512C24.4326 35.4989 24.5378 35.4858 24.6298 35.4726C24.656 35.4726 24.6823 35.4595 24.7086 35.4595C24.8795 35.4332 25.0372 35.4069 25.1949 35.3806C25.2343 35.3675 25.2869 35.3675 25.3263 35.3543C25.4183 35.3412 25.5235 35.3149 25.6155 35.3018C25.6549 35.2886 25.6812 35.2886 25.7075 35.2755C25.7732 35.2623 25.8389 35.2492 25.9046 35.236C25.9572 35.2229 26.0098 35.2098 26.0623 35.1966C26.1149 35.1835 26.1675 35.1703 26.22 35.1572C26.3909 35.1178 26.5618 35.0652 26.7195 35.0258C26.8903 34.9732 27.0743 34.9206 27.2452 34.868C27.2846 34.8549 27.3109 34.8418 27.3372 34.8418C27.3766 34.8286 27.4029 34.8155 27.4423 34.8023C27.4555 34.8023 27.4818 34.7892 27.4949 34.7892C27.5738 34.7629 27.6526 34.7366 27.7446 34.6972C27.8235 34.6709 27.9023 34.6446 27.9812 34.6052C28.06 34.5789 28.1389 34.5395 28.2178 34.5132C28.2966 34.4869 28.3755 34.4475 28.4543 34.4212C28.5332 34.3818 28.612 34.3555 28.6909 34.316C28.7698 34.2766 28.8486 34.2503 28.9275 34.2109C29.0063 34.1715 29.0852 34.1452 29.164 34.1058C29.2429 34.0663 29.3218 34.0269 29.4006 33.9875C29.44 33.9743 29.4663 33.948 29.4926 33.9349C29.5452 33.9086 29.5978 33.8823 29.6372 33.856C29.6766 33.8298 29.716 33.8166 29.7555 33.7903L34.868 42.7143Z" fill="#05A4BF"/>
<path d="M26.2335 25.9046C26.2335 26.128 26.1678 26.3646 26.0495 26.6274C26.01 26.7194 25.9575 26.8114 25.8918 26.9034L24.6826 24.7874C24.6958 24.7874 24.7089 24.7874 24.722 24.7874C24.7483 24.7874 24.7746 24.7874 24.8009 24.7874H24.8403C24.8535 24.7874 24.8535 24.7874 24.8666 24.7874C24.8798 24.7874 24.8929 24.7874 24.906 24.7874C24.9323 24.7874 24.9586 24.7874 24.9718 24.8006C24.998 24.8006 25.0243 24.8137 25.0506 24.8137C25.09 24.8137 25.1163 24.8269 25.1426 24.8269C25.1558 24.8269 25.182 24.84 25.1952 24.84C25.2215 24.84 25.2478 24.8531 25.2609 24.8531C25.2872 24.8531 25.3003 24.8663 25.3266 24.8663H25.3398H25.3529C25.366 24.8663 25.366 24.8663 25.366 24.8794C25.4055 24.8926 25.4318 24.9057 25.458 24.9189C25.4712 24.9189 25.4843 24.932 25.4975 24.932C25.4975 24.932 25.5106 24.932 25.5106 24.9451C25.5238 24.9451 25.55 24.9583 25.5632 24.9583C25.5763 24.9583 25.5895 24.9714 25.6026 24.9714C25.6026 24.9714 25.6026 24.9714 25.6158 24.9714C25.6289 24.9714 25.6289 24.9714 25.6289 24.9846C25.6552 24.9977 25.6683 25.0109 25.6946 25.024C25.7078 25.0371 25.7078 25.0371 25.7209 25.0371C25.7209 25.0371 25.734 25.0371 25.734 25.0503C25.7472 25.0503 25.7472 25.0634 25.7603 25.0634C25.7735 25.0766 25.7866 25.0897 25.7998 25.1029C25.8129 25.116 25.826 25.116 25.8392 25.1291C25.8523 25.1291 25.8523 25.1423 25.8523 25.1423C25.8655 25.1423 25.8655 25.1423 25.8655 25.1554C25.8786 25.1686 25.8786 25.1686 25.8786 25.1817C25.8918 25.1817 25.8918 25.1949 25.9049 25.208C25.918 25.208 25.918 25.2211 25.918 25.2211C25.918 25.2211 25.9312 25.2211 25.9312 25.2343L25.9443 25.2474L25.9575 25.2606C25.9706 25.2737 25.9838 25.2869 25.9969 25.3131C26.0232 25.3394 26.0363 25.3657 26.0495 25.392C26.0626 25.4183 26.0758 25.4446 26.0889 25.4577C26.2072 25.5891 26.2335 25.7337 26.2335 25.9046Z" fill="#05A4BF"/>
<path d="M35.6694 42.2017C35.6037 42.2543 35.5248 42.2937 35.446 42.3463C35.262 42.4646 35.078 42.5829 34.894 42.688L29.834 33.8034C29.8471 33.8034 29.8471 33.7903 29.8603 33.7903C29.8866 33.7772 29.8997 33.764 29.926 33.7509C30.0048 33.7114 30.0837 33.6589 30.1757 33.6194C30.1888 33.6194 30.1888 33.6063 30.202 33.6063C30.2151 33.5932 30.2151 33.5932 30.2283 33.5932C30.2546 33.58 30.2808 33.5537 30.3203 33.5406C30.3991 33.488 30.4911 33.4486 30.57 33.396C30.5963 33.3829 30.6226 33.3697 30.6357 33.3566L35.6694 42.2017Z" fill="#05A4BF"/>
<path d="M25.8916 26.8903C25.8916 26.9035 25.8785 26.9166 25.8653 26.9297L24.6299 24.7743H24.6693L25.8916 26.8903Z" fill="#05A4BF"/>
<path d="M34.8944 42.688C34.8812 42.688 34.8681 42.7012 34.8549 42.7012L29.7949 33.8166C29.8081 33.8166 29.8212 33.8035 29.8212 33.8035L34.8944 42.688Z" fill="#05A4BF"/>
<path d="M41.3867 10.3566L41.413 10.4092C41.3999 10.396 41.3999 10.396 41.3999 10.3829C41.3999 10.3697 41.3999 10.3566 41.3867 10.3566Z" fill="white"/>
<path d="M45.4348 17.9532L41.4525 10.488C41.4525 10.4749 41.4525 10.4749 41.4394 10.4749C41.4394 10.4617 41.4394 10.4617 41.4262 10.4617C41.4262 10.4486 41.4131 10.4355 41.4131 10.4223L45.4217 17.9269C45.4348 17.9269 45.4348 17.94 45.4348 17.9532Z" fill="white"/>
<path d="M45.5133 18.2686L41.6493 11.0532C41.6493 11.0269 41.6361 11.0137 41.6361 10.9875C41.623 10.9217 41.5967 10.8692 41.5836 10.8035C41.5704 10.764 41.5573 10.7246 41.5442 10.6852C41.5442 10.672 41.531 10.6457 41.531 10.6326C41.531 10.6195 41.5179 10.6195 41.5179 10.6063C41.5047 10.58 41.5047 10.5669 41.4784 10.5406C41.4784 10.5275 41.4653 10.5143 41.4653 10.5012C41.4653 10.488 41.4653 10.488 41.4521 10.4749L45.4344 17.94C45.4607 18.0583 45.487 18.1635 45.5133 18.2686Z" fill="#05A4BF"/>
<path d="M41.7682 11.6577C41.7682 11.6052 41.7551 11.5526 41.7551 11.5132C41.7551 11.5132 41.7551 11.5132 41.7551 11.5C41.7551 11.4737 41.7419 11.4474 41.7419 11.4212C41.7419 11.3949 41.7288 11.3817 41.7288 11.3554C41.7157 11.316 41.7157 11.2897 41.7025 11.2634C41.7025 11.2503 41.7025 11.2503 41.7025 11.2372C41.7025 11.224 41.7025 11.224 41.7025 11.2109C41.6894 11.1583 41.6762 11.1189 41.6631 11.0663L45.5271 18.2817C45.5665 18.492 45.6059 18.6892 45.6454 18.8994L41.7682 11.6577Z" fill="#05A4BF"/>
<path d="M41.7812 12.0126V11.9732C41.7812 11.9206 41.7812 11.868 41.768 11.8154C41.768 11.7629 41.7549 11.7103 41.7549 11.6709L45.632 18.8994C45.6846 19.1754 45.724 19.4646 45.7635 19.7406L41.7812 12.3017V12.2229C41.7812 12.1966 41.7812 12.1572 41.7812 12.1309C41.7812 12.1177 41.7812 12.1177 41.7812 12.1046C41.7812 12.0783 41.7812 12.052 41.7812 12.0126Z" fill="#05A4BF"/>
<path d="M45.8953 20.7789L41.7158 12.972C41.729 12.9326 41.729 12.8932 41.729 12.8537C41.729 12.8406 41.7421 12.8143 41.7421 12.788C41.7421 12.7749 41.7421 12.7617 41.7421 12.7486C41.7553 12.7092 41.7553 12.6566 41.7553 12.6172C41.7553 12.5777 41.7684 12.5252 41.7684 12.4857C41.7684 12.4595 41.7684 12.4463 41.7684 12.42C41.7684 12.3806 41.7815 12.3543 41.7815 12.328C41.7815 12.3149 41.7815 12.3017 41.7815 12.2886L45.7638 19.7275C45.8164 20.0823 45.8558 20.424 45.8953 20.7789Z" fill="#05A4BF"/>
<path d="M45.974 22.0406L41.5186 13.7475C41.5186 13.7343 41.5317 13.7343 41.5317 13.7212C41.5448 13.6949 41.5448 13.6817 41.5448 13.6555C41.558 13.616 41.558 13.5897 41.5711 13.5635C41.5843 13.5372 41.5843 13.4977 41.5974 13.4715C41.6106 13.4057 41.6368 13.3532 41.6368 13.2875C41.65 13.2612 41.65 13.2217 41.6631 13.1955C41.6631 13.1823 41.6763 13.156 41.6763 13.1429C41.6894 13.0903 41.6894 13.0509 41.7026 12.9983L45.882 20.8052C45.9346 21.1995 45.9608 21.62 45.974 22.0406Z" fill="#05A4BF"/>
<path d="M46.0006 23C46.0006 23.2366 46.0006 23.4732 45.9874 23.6966L41.1377 14.6938C41.1377 14.6806 41.1508 14.6806 41.1508 14.6675C41.164 14.6543 41.164 14.628 41.1771 14.6018C41.1771 14.5886 41.1903 14.5886 41.1903 14.5755C41.2297 14.5098 41.256 14.444 41.2823 14.3652C41.2954 14.3389 41.2954 14.3126 41.3086 14.2995C41.3086 14.2863 41.3217 14.2863 41.3217 14.2732C41.3348 14.2338 41.348 14.2075 41.3611 14.168C41.3743 14.1286 41.3874 14.1023 41.4006 14.0629C41.4137 14.0366 41.4137 14.0103 41.4268 13.984C41.4531 13.9052 41.4794 13.8263 41.5057 13.7475L45.9611 22.0406C45.9874 22.3692 46.0006 22.6846 46.0006 23Z" fill="#05A4BF"/>
<path d="M45.9868 23.7097C45.9079 26.3909 45.3691 28.9537 44.4491 31.3326L37.6279 18.8469C37.9959 18.584 38.3508 18.2949 38.6794 17.9926C38.6925 17.9794 38.6925 17.9794 38.7056 17.9663C38.8634 17.8217 39.0211 17.664 39.1788 17.5063C39.2708 17.4143 39.3496 17.3223 39.4285 17.2434C39.4942 17.1777 39.5468 17.112 39.5994 17.0463C39.6125 17.0332 39.6388 17.0069 39.6519 16.9937L39.6651 16.9806C39.9674 16.6257 40.2565 16.2446 40.5194 15.8503C40.6376 15.6794 40.7428 15.5086 40.8348 15.3377C40.8611 15.2852 40.9005 15.2326 40.9268 15.18C40.9662 15.1012 41.0188 15.0223 41.0582 14.9303C41.0714 14.8909 41.0976 14.8646 41.1108 14.8252C41.1239 14.7989 41.1371 14.7594 41.1634 14.7332L45.9868 23.7097Z" fill="#05A4BF"/>
<path d="M44.4491 31.3195C44.2782 31.7532 44.0942 32.1869 43.8971 32.6075L36.6816 19.4515C36.7605 19.412 36.8394 19.3595 36.9182 19.3069C37.0365 19.228 37.1679 19.1492 37.2862 19.0703C37.3125 19.044 37.3519 19.0309 37.3782 19.0046C37.4571 18.952 37.5359 18.8995 37.6148 18.8469L44.4491 31.3195Z" fill="#05A4BF"/>
<path d="M43.897 32.6075C43.7525 32.936 43.5816 33.2646 43.4239 33.5932L35.8799 19.8852C36.0902 19.78 36.3136 19.6617 36.5239 19.5435C36.5765 19.5172 36.629 19.4777 36.6816 19.4515L43.897 32.6075Z" fill="#05A4BF"/>
<path d="M43.424 33.5931C43.2794 33.8823 43.1217 34.1583 42.964 34.4343L35.1309 20.24C35.144 20.24 35.144 20.2269 35.1571 20.2269C35.2097 20.2006 35.2623 20.1874 35.3149 20.1611C35.4463 20.1086 35.5646 20.0429 35.696 19.9903C35.7617 19.964 35.8143 19.9246 35.88 19.8983L43.424 33.5931Z" fill="#05A4BF"/>
<path d="M42.9641 34.4343C42.8327 34.6709 42.6881 34.9074 42.5436 35.1309C42.5436 35.144 42.5304 35.144 42.5304 35.144C42.5173 35.1571 42.5173 35.1703 42.5041 35.1834L36.1036 23.6177L36.0904 23.6046C36.0904 23.5783 36.0773 23.5651 36.0641 23.5389C36.0641 23.5257 36.051 23.4994 36.051 23.4863C36.0378 23.46 36.0378 23.4469 36.0247 23.4206C36.0116 23.368 35.9853 23.3286 35.959 23.276C35.959 23.2629 35.959 23.2629 35.9458 23.2629C35.9327 23.2366 35.9196 23.2103 35.9064 23.1709C35.8933 23.1446 35.8801 23.1183 35.867 23.092C35.8538 23.0789 35.8538 23.0526 35.8407 23.0394C35.7356 22.8291 35.6041 22.6451 35.4595 22.4743L34.3818 20.5291C34.4476 20.516 34.5001 20.4897 34.5658 20.4634C34.6841 20.424 34.7893 20.3846 34.9076 20.3451C34.9733 20.3189 35.0521 20.2794 35.131 20.2531L42.9641 34.4343Z" fill="#05A4BF"/>
<path d="M34.382 20.516L35.4597 22.4612C35.2362 22.1852 34.9734 21.9486 34.6711 21.7514C34.4608 21.6069 34.2505 21.4886 34.014 21.3834L33.9745 21.3572L33.6328 20.7394C33.646 20.7394 33.646 20.7394 33.6591 20.7263C33.6722 20.7263 33.6854 20.7132 33.6985 20.7132C33.8168 20.6737 33.9351 20.6474 34.0534 20.608C34.106 20.5949 34.1454 20.5686 34.198 20.5554C34.2637 20.5554 34.3294 20.5423 34.382 20.516Z" fill="#05A4BF"/>
<path d="M42.5035 35.1966C42.4903 35.2229 42.4772 35.236 42.464 35.2623C42.4246 35.328 42.372 35.3938 42.3326 35.4595C42.2669 35.5515 42.2143 35.6566 42.1355 35.7486C42.1092 35.8012 42.0829 35.8406 42.0435 35.88C42.0435 35.8932 42.0303 35.8932 42.0303 35.9063L36.2869 25.5366C36.2869 25.5235 36.2869 25.4972 36.2869 25.484C36.2869 25.4709 36.2869 25.4446 36.2869 25.4315C36.2869 25.4183 36.2869 25.4052 36.2869 25.392C36.2869 25.3789 36.2869 25.3658 36.2869 25.3526C36.2869 25.3263 36.2869 25.3 36.2869 25.2738C36.2869 25.2475 36.2869 25.2212 36.2869 25.1949C36.2869 25.1818 36.2869 25.1555 36.2869 25.1292V25.1029C36.2869 25.0898 36.2869 25.0635 36.2869 25.0503V25.0109C36.2869 24.9452 36.2869 24.8926 36.2869 24.84C36.2869 24.7875 36.2869 24.7349 36.2738 24.6692C36.2738 24.6429 36.2738 24.6035 36.2606 24.5772C36.2606 24.564 36.2606 24.5378 36.2606 24.5115V24.4983C36.2606 24.4852 36.2606 24.4852 36.2606 24.472V24.4589C36.2606 24.4195 36.2475 24.38 36.2475 24.3406C36.2475 24.3012 36.2343 24.2618 36.2343 24.2223C36.2343 24.2092 36.2343 24.196 36.2212 24.1829C36.2212 24.1698 36.208 24.1435 36.208 24.1172C36.208 24.0778 36.1949 24.0515 36.1949 24.0252C36.1818 23.9858 36.1818 23.9595 36.1686 23.9332C36.1555 23.8675 36.1292 23.7886 36.116 23.7229C36.116 23.7229 36.116 23.7229 36.116 23.7098C36.1029 23.6703 36.1029 23.644 36.0898 23.6178C36.0898 23.5915 36.0766 23.5783 36.0635 23.552L36.0766 23.5652L42.5035 35.1966Z" fill="#05A4BF"/>
<path d="M33.6322 20.7526L33.974 21.3703C33.6585 21.2257 33.3168 21.1206 32.9488 21.0549C32.9357 21.0549 32.9225 21.0549 32.9094 21.0417C32.8962 21.0417 32.8831 21.0417 32.87 21.0286L32.8174 20.9366C32.8305 20.9366 32.8305 20.9366 32.8437 20.9234C32.8568 20.9234 32.8568 20.9234 32.87 20.9234C32.962 20.9103 33.0671 20.884 33.1591 20.8577C33.1722 20.8577 33.1985 20.8446 33.2117 20.8446C33.2774 20.8314 33.3431 20.8183 33.422 20.792C33.5008 20.7789 33.5665 20.7657 33.6322 20.7526Z" fill="#05A4BF"/>
<path d="M42.0308 35.9195C41.9782 35.9983 41.9256 36.0772 41.8599 36.156C41.7679 36.3006 41.6628 36.4452 41.5708 36.5766C41.5576 36.5897 41.5576 36.5897 41.5576 36.5897C41.5445 36.6029 41.5445 36.6029 41.5314 36.616L36.0508 26.7326C36.0508 26.7195 36.0639 26.7063 36.0639 26.6932C36.0639 26.68 36.0771 26.68 36.0771 26.6669C36.0771 26.6669 36.0771 26.6669 36.0771 26.6537V26.6406C36.0771 26.6406 36.0771 26.6406 36.0771 26.6275C36.0902 26.588 36.1034 26.5355 36.1165 26.4829C36.1296 26.4566 36.1296 26.4303 36.1428 26.404C36.1428 26.3909 36.1428 26.3909 36.1428 26.3777C36.1559 26.312 36.1691 26.2463 36.1822 26.1806C36.1954 26.1149 36.2085 26.0623 36.2216 25.9966C36.2216 25.9835 36.2216 25.9703 36.2348 25.9572C36.2348 25.944 36.2348 25.944 36.2348 25.9309C36.2348 25.9177 36.2479 25.8915 36.2479 25.8783C36.2611 25.8389 36.2611 25.7995 36.2611 25.76C36.2611 25.7469 36.2742 25.7206 36.2742 25.7075C36.2742 25.6812 36.2874 25.6549 36.2874 25.6286C36.2874 25.6155 36.2874 25.5892 36.3005 25.576C36.3005 25.5629 36.3005 25.5366 36.3005 25.5235L42.0308 35.9195Z" fill="#05A4BF"/>
<path d="M32.8181 20.9366L32.8706 21.0286C32.7655 21.0154 32.6735 20.9892 32.5684 20.976C32.6604 20.9629 32.7392 20.9497 32.8181 20.9366Z" fill="#05A4BF"/>
<path d="M41.531 36.616C41.5179 36.6555 41.4916 36.6817 41.4653 36.708C41.439 36.7475 41.4127 36.7869 41.3733 36.8263L35.9453 27.048C35.9585 27.0349 35.9585 27.0217 35.9585 27.0086C35.9716 26.9692 35.9847 26.9429 35.9979 26.9035C35.9979 26.8903 36.011 26.8903 36.011 26.8772C36.011 26.8772 36.011 26.8772 36.011 26.864C36.0242 26.8246 36.0373 26.772 36.0505 26.7326L41.531 36.616Z" fill="#05A4BF"/>
<path d="M27.8627 45.4874C27.061 45.6714 26.233 45.7897 25.3918 45.8817C24.6032 45.9606 23.8015 46 22.9998 46C14.8118 46 7.63581 41.7286 3.56152 35.2886L19.3461 35.5777L22.1192 35.6303L27.8627 45.4874Z" fill="#05A4BF"/>
<path d="M37.6147 18.8337C37.5358 18.8863 37.457 18.9388 37.3781 18.9914C37.3387 19.0177 37.3124 19.044 37.2861 19.0571C37.3781 18.9914 37.4833 18.9257 37.5753 18.86C37.5884 18.8468 37.6016 18.8468 37.6147 18.8337Z" fill="white"/>
<path d="M35.9463 27.048C35.9594 27.0348 35.9594 27.0217 35.9594 27.0085C35.9594 27.0217 35.9463 27.0348 35.9463 27.048Z" fill="white"/>
<path d="M26.7461 35.052C26.8644 35.0125 26.9958 34.9863 27.1141 34.9468C27.1667 34.9337 27.2192 34.9074 27.2718 34.8943C27.101 34.9468 26.9301 34.9994 26.7461 35.052Z" fill="white"/>
<path d="M26.2471 35.1834C26.2734 35.1702 26.2996 35.1702 26.3259 35.1702C26.3785 35.1571 26.4442 35.144 26.4968 35.1308C26.5756 35.1045 26.6676 35.0914 26.7465 35.0651C26.5888 35.0914 26.4179 35.144 26.2471 35.1834Z" fill="white"/>
<path d="M35.9463 27.048C35.9594 27.0348 35.9594 27.0217 35.9594 27.0085C35.9594 27.0217 35.9463 27.0348 35.9463 27.048Z" fill="white"/>
<path d="M26.7461 35.052C26.8644 35.0125 26.9958 34.9863 27.1141 34.9468C27.1667 34.9337 27.2192 34.9074 27.2718 34.8943C27.101 34.9468 26.9301 34.9994 26.7461 35.052Z" fill="white"/>
<path d="M26.2471 35.1834C26.2734 35.1702 26.2996 35.1702 26.3259 35.1702C26.3785 35.1571 26.4442 35.144 26.4968 35.1308C26.5756 35.1045 26.6676 35.0914 26.7465 35.0651C26.5888 35.0914 26.4179 35.144 26.2471 35.1834Z" fill="white"/>
<path d="M25.5897 24.9451C25.5765 24.932 25.5503 24.932 25.5371 24.932C25.5634 24.9451 25.6028 24.9583 25.6291 24.9714C25.616 24.9583 25.6028 24.9583 25.5897 24.9451Z" fill="white"/>
<path d="M25.9043 25.1423C25.9043 25.1423 25.9174 25.1554 25.9174 25.1685C25.9174 25.1554 25.9043 25.1554 25.9043 25.1423Z" fill="white"/>
<path d="M35.9463 27.048C35.9594 27.0348 35.9594 27.0217 35.9594 27.0085C35.9594 27.0217 35.9463 27.0348 35.9463 27.048Z" fill="white"/>
<path d="M35.9989 23.3286C35.9858 23.3023 35.9858 23.2892 35.9727 23.2629C35.9989 23.3154 36.0121 23.3549 36.0384 23.4074C36.0252 23.3812 36.0121 23.3549 35.9989 23.3286Z" fill="white"/>
<path d="M36.1957 23.92C36.1825 23.8674 36.1694 23.8148 36.1562 23.7754C36.1694 23.8411 36.1957 23.92 36.2088 23.9857C36.1957 23.9594 36.1957 23.9463 36.1957 23.92Z" fill="white"/>
<path d="M36.2871 24.4983V24.5114C36.2871 24.5246 36.2871 24.5246 36.2871 24.5377V24.5246C36.3003 24.5246 36.2871 24.5114 36.2871 24.4983Z" fill="white"/>
<path d="M29.7959 33.8297C29.809 33.8297 29.809 33.8165 29.8222 33.8165C29.8222 33.8165 29.809 33.8166 29.7959 33.8297Z" fill="white"/>
<path d="M26.7461 35.052C26.8644 35.0125 26.9958 34.9863 27.1141 34.9468C27.1667 34.9337 27.2192 34.9074 27.2718 34.8943C27.101 34.9468 26.9301 34.9994 26.7461 35.052Z" fill="white"/>
<path d="M26.2471 35.1834C26.2734 35.1702 26.2996 35.1702 26.3259 35.1702C26.3785 35.1571 26.4442 35.144 26.4968 35.1308C26.5756 35.1045 26.6676 35.0914 26.7465 35.0651C26.5888 35.0914 26.4179 35.144 26.2471 35.1834Z" fill="white"/>
<path d="M36.6821 19.4514C36.6296 19.4908 36.577 19.5171 36.5244 19.5434C36.577 19.5171 36.6296 19.4777 36.6821 19.4514C36.761 19.412 36.8398 19.3594 36.9187 19.3068C36.8398 19.3594 36.761 19.3988 36.6821 19.4514Z" fill="white"/>
<path d="M41.3872 10.3565C41.3872 10.3434 41.374 10.3434 41.374 10.3303C41.3872 10.3434 41.3872 10.3565 41.4003 10.3828C41.4003 10.3697 41.4003 10.3565 41.3872 10.3565Z" fill="white"/>
<path d="M41.4399 10.4486L41.4268 10.4354C41.4399 10.4486 41.4399 10.4617 41.4399 10.4749C41.4399 10.4617 41.4399 10.4486 41.4399 10.4486Z" fill="white"/>
<path d="M41.7422 12.8143C41.7422 12.8011 41.7422 12.8011 41.7422 12.8143C41.7422 12.788 41.7553 12.7748 41.7553 12.7617C41.7422 12.7748 41.7422 12.788 41.7422 12.8143Z" fill="white"/>
<path d="M26.7461 35.052C26.8644 35.0125 26.9958 34.9863 27.1141 34.9468C27.1667 34.9337 27.2192 34.9074 27.2718 34.8943C27.101 34.9468 26.9301 34.9994 26.7461 35.052Z" fill="white"/>
<path d="M26.2471 35.1834C26.2734 35.1702 26.2996 35.1702 26.3259 35.1702C26.3785 35.1571 26.4442 35.144 26.4968 35.1308C26.5756 35.1045 26.6676 35.0914 26.7465 35.0651C26.5888 35.0914 26.4179 35.144 26.2471 35.1834Z" fill="white"/>
<path d="M35.9463 27.048C35.9594 27.0348 35.9594 27.0217 35.9594 27.0085C35.9594 27.0217 35.9463 27.0348 35.9463 27.048Z" fill="white"/>
<path d="M26.7461 35.052C26.8644 35.0125 26.9958 34.9863 27.1141 34.9468C27.1667 34.9337 27.2192 34.9074 27.2718 34.8943C27.101 34.9468 26.9301 34.9994 26.7461 35.052Z" fill="white"/>
<path d="M26.2471 35.1834C26.2734 35.1702 26.2996 35.1702 26.3259 35.1702C26.3785 35.1571 26.4442 35.144 26.4968 35.1308C26.5756 35.1045 26.6676 35.0914 26.7465 35.0651C26.5888 35.0914 26.4179 35.144 26.2471 35.1834Z" fill="white"/>
<path d="M35.9463 27.048C35.9594 27.0348 35.9594 27.0217 35.9594 27.0085C35.9594 27.0217 35.9463 27.0348 35.9463 27.048Z" fill="white"/>
<path d="M26.7461 35.052C26.8644 35.0125 26.9958 34.9863 27.1141 34.9468C27.1667 34.9337 27.2192 34.9074 27.2718 34.8943C27.101 34.9468 26.9301 34.9994 26.7461 35.052Z" fill="white"/>
<path d="M26.2471 35.1834C26.2734 35.1702 26.2996 35.1702 26.3259 35.1702C26.3785 35.1571 26.4442 35.144 26.4968 35.1308C26.5756 35.1045 26.6676 35.0914 26.7465 35.0651C26.5888 35.0914 26.4179 35.144 26.2471 35.1834Z" fill="white"/>
<path d="M35.9463 27.048C35.9594 27.0348 35.9594 27.0217 35.9594 27.0085C35.9594 27.0217 35.9463 27.0348 35.9463 27.048Z" fill="white"/>
<path d="M42.5427 35.144C42.5427 35.1572 42.5296 35.1572 42.5296 35.1572L35.9976 23.3417C35.9844 23.3154 35.9844 23.3023 35.9713 23.276C35.9713 23.2629 35.9713 23.2629 35.9581 23.2629C35.945 23.2366 35.9318 23.2103 35.9187 23.1709C35.9056 23.1446 35.8924 23.1183 35.8793 23.092C35.8661 23.0789 35.8661 23.0526 35.853 23.0394C35.853 23.0263 35.8398 23.0132 35.8398 23L42.5427 35.144Z" fill="#05A4BF"/>
<path d="M42.5296 35.1571C42.5165 35.1703 42.5165 35.1834 42.5033 35.1966C42.4902 35.2228 42.477 35.236 42.4639 35.2623L36.1947 23.92C36.1816 23.8674 36.1685 23.8148 36.1553 23.7754C36.1553 23.7754 36.1553 23.7754 36.1553 23.7623C36.1422 23.7228 36.1422 23.6966 36.129 23.6703C36.129 23.6571 36.1159 23.644 36.1159 23.6308C36.1027 23.6046 36.0896 23.5651 36.0765 23.5388C36.0765 23.5257 36.0633 23.4994 36.0633 23.4863C36.0502 23.46 36.0502 23.4468 36.037 23.4206C36.0239 23.3943 36.0239 23.368 36.0107 23.3417L42.5296 35.1571Z" fill="#05A4BF"/>
<path d="M42.4645 35.2623C42.425 35.328 42.3725 35.3937 42.333 35.4594L36.3005 24.5377V24.5245C36.3005 24.5245 36.3005 24.5245 36.3005 24.5114V24.4983C36.3005 24.4588 36.2873 24.4194 36.2873 24.38C36.2873 24.3405 36.2742 24.3011 36.2742 24.2617C36.2742 24.2485 36.2742 24.2354 36.261 24.2223C36.261 24.2091 36.2479 24.1828 36.2479 24.1565C36.2479 24.1171 36.2347 24.0908 36.2347 24.0645C36.2216 24.0251 36.2216 23.9988 36.2085 23.9725C36.2085 23.9594 36.1953 23.9331 36.1953 23.92L42.4645 35.2623Z" fill="#05A4BF"/>
<path d="M42.3328 35.4594C42.2671 35.5514 42.2145 35.6566 42.1357 35.7486L36.3134 25.2212C36.3134 25.208 36.3134 25.1817 36.3134 25.1555V25.1292C36.3134 25.116 36.3134 25.0897 36.3134 25.0766V25.0372C36.3134 24.9715 36.3134 24.9189 36.3134 24.8663C36.3134 24.8137 36.3134 24.7612 36.3003 24.6955C36.3003 24.6692 36.3003 24.6297 36.2871 24.6035C36.2871 24.5903 36.2871 24.564 36.2871 24.5377V24.5246L42.3328 35.4594Z" fill="#05A4BF"/>
<path d="M42.135 35.7486C42.1087 35.8012 42.0824 35.8406 42.043 35.88C42.043 35.8932 42.0298 35.8932 42.0298 35.9063C41.9773 35.9852 41.9247 36.064 41.859 36.1429L36.2207 25.9703C36.2207 25.9572 36.2207 25.9572 36.2207 25.944C36.2207 25.9309 36.2338 25.9046 36.2338 25.8915C36.247 25.852 36.247 25.8126 36.247 25.7732C36.247 25.76 36.2601 25.7337 36.2601 25.7206C36.2601 25.6943 36.2733 25.668 36.2733 25.6417C36.2733 25.6286 36.2733 25.6023 36.2864 25.5892C36.2864 25.576 36.2864 25.5497 36.2864 25.5366C36.2864 25.5235 36.2864 25.5235 36.2864 25.5235V25.484C36.2864 25.4709 36.2864 25.4446 36.2864 25.4315C36.2864 25.4183 36.2864 25.4052 36.2864 25.392C36.2864 25.3789 36.2864 25.3657 36.2864 25.3526C36.2864 25.3263 36.2864 25.3 36.2864 25.2737C36.2864 25.2475 36.2864 25.2212 36.2864 25.1949L42.135 35.7486Z" fill="#05A4BF"/>
<path d="M41.8598 36.156C41.7678 36.3006 41.6626 36.4452 41.5706 36.5766C41.5575 36.5897 41.5575 36.5897 41.5575 36.5897C41.5443 36.6029 41.5443 36.6029 41.5312 36.616C41.518 36.6554 41.4918 36.6817 41.4655 36.708L35.998 26.8772C35.998 26.8772 35.998 26.8772 35.998 26.864C36.0112 26.8246 36.0243 26.772 36.0375 26.7326C36.0375 26.7194 36.0506 26.7063 36.0506 26.6932C36.0506 26.68 36.0638 26.68 36.0638 26.6669C36.0638 26.6669 36.0638 26.6669 36.0638 26.6537V26.6406C36.0638 26.6406 36.0638 26.6406 36.0638 26.6274C36.0769 26.588 36.09 26.5354 36.1032 26.4829C36.1163 26.4566 36.1163 26.4303 36.1295 26.404C36.1295 26.3909 36.1295 26.3909 36.1295 26.3777C36.1426 26.312 36.1558 26.2463 36.1689 26.1806C36.182 26.1149 36.1952 26.0623 36.2083 25.9966C36.2083 25.9834 36.2083 25.9703 36.2215 25.9572L41.8598 36.156Z" fill="#05A4BF"/>
<path d="M41.4645 36.708C41.4382 36.7474 41.4119 36.7869 41.3725 36.8263C41.1885 37.076 41.0045 37.3257 40.7942 37.5623L35.5107 28.0863C35.5107 28.0731 35.5239 28.0731 35.5239 28.06C35.5239 28.0469 35.537 28.0337 35.537 28.0337C35.537 28.0206 35.5502 28.0074 35.5502 28.0074C35.5502 27.9943 35.5633 27.9811 35.5633 27.9811C35.6027 27.8891 35.6553 27.7971 35.6816 27.7051C35.7079 27.6394 35.7473 27.5606 35.7736 27.4949C35.7867 27.4817 35.7867 27.4554 35.7999 27.4291C35.813 27.4029 35.8262 27.3634 35.8393 27.3371C35.8656 27.2714 35.8787 27.2189 35.905 27.1663C35.9182 27.1269 35.9313 27.1006 35.9313 27.0743C35.9313 27.0611 35.9445 27.048 35.9445 27.0349C35.9576 26.9954 35.9707 26.9691 35.9839 26.9297C35.9839 26.9166 35.997 26.9166 35.997 26.9034L41.4645 36.708Z" fill="#05A4BF"/>
<path d="M40.8081 37.5623C40.8081 37.5754 40.7949 37.5754 40.7949 37.5754C40.6635 37.7331 40.5452 37.8777 40.4138 38.0354C40.1246 38.3771 39.8092 38.7057 39.4938 39.0343C39.3098 39.2183 39.1258 39.4154 38.9286 39.5994L38.9155 39.6126C38.7578 39.7571 38.6001 39.9148 38.4424 40.0594C38.3766 40.112 38.3241 40.1646 38.2584 40.2171C38.1006 40.3617 37.9429 40.4931 37.7852 40.6246C37.7589 40.6508 37.7326 40.664 37.7064 40.6903C37.5092 40.8611 37.3121 41.0188 37.1018 41.1766C36.9835 41.2686 36.8784 41.3474 36.7601 41.4394C36.6812 41.492 36.6024 41.5577 36.5235 41.6103L31.5029 32.752C31.6475 32.6468 31.7921 32.5417 31.9235 32.4366C32.0024 32.3708 32.0944 32.3051 32.1732 32.2394C32.2652 32.1737 32.3441 32.0948 32.4229 32.0291C32.4361 32.016 32.4624 32.0028 32.4755 31.9897C32.5412 31.9371 32.5938 31.8846 32.6595 31.8188C32.6989 31.7794 32.7384 31.7531 32.7778 31.7137C32.8041 31.6874 32.8304 31.6611 32.8566 31.6348C32.9224 31.5691 32.9881 31.5166 33.0406 31.4508C33.1195 31.372 33.1984 31.3063 33.2772 31.2143C33.3298 31.1617 33.3824 31.1091 33.4349 31.0566C33.5926 30.8988 33.7372 30.728 33.8818 30.5571C33.9606 30.4651 34.0526 30.36 34.1315 30.2548C34.2104 30.1628 34.2892 30.0577 34.3549 29.9657L34.3681 29.9526C34.3812 29.9394 34.3944 29.9131 34.4075 29.9C34.4206 29.8868 34.4206 29.8868 34.4338 29.8737C34.4864 29.808 34.5389 29.7291 34.5784 29.6634C34.6572 29.5583 34.7229 29.4531 34.7886 29.348C34.8149 29.3086 34.8412 29.2691 34.8544 29.2297C34.8938 29.164 34.9464 29.0983 34.9726 29.0326C35.0646 28.8748 35.1566 28.7171 35.2486 28.5594C35.2881 28.4937 35.3275 28.4148 35.3669 28.3491C35.4064 28.2703 35.4589 28.1783 35.4984 28.0994L40.8081 37.5623Z" fill="#05A4BF"/>
<path d="M36.5503 41.5972C36.2611 41.8074 35.972 42.0177 35.6697 42.2017C35.604 42.2543 35.5251 42.2937 35.4463 42.3463L30.3994 33.488C30.452 33.4617 30.5046 33.4223 30.544 33.396C30.5703 33.3829 30.5966 33.3697 30.6097 33.3566C30.636 33.3434 30.6491 33.3303 30.6754 33.3172C30.7674 33.2514 30.8726 33.1989 30.9646 33.1332C31.0303 33.0937 31.096 33.0412 31.1748 33.0017C31.2011 32.9886 31.2274 32.9623 31.2537 32.9492C31.3457 32.8834 31.4377 32.8177 31.5297 32.752L36.5503 41.5972Z" fill="#05A4BF"/>
<path d="M35.4457 42.3463C35.2617 42.4646 35.0777 42.5829 34.8937 42.688C34.8805 42.688 34.8674 42.7012 34.8542 42.7012C34.7622 42.7537 34.6834 42.8063 34.5914 42.8589C34.5651 42.872 34.5257 42.8983 34.4994 42.9114L29.4131 34.0137C29.4525 34.0006 29.4788 33.9743 29.5051 33.9612C29.5577 33.9349 29.6102 33.9086 29.6497 33.8823C29.6891 33.856 29.7285 33.8429 29.7679 33.8166C29.7811 33.8166 29.7942 33.8034 29.7942 33.8034C29.8074 33.8034 29.8074 33.7903 29.8205 33.7903C29.8468 33.7772 29.8599 33.764 29.8862 33.7509C29.9651 33.7114 30.0439 33.6589 30.1359 33.6194C30.1491 33.6194 30.1491 33.6063 30.1622 33.6063C30.1754 33.5932 30.1754 33.5932 30.1885 33.5932C30.2148 33.58 30.2411 33.5537 30.2805 33.5406C30.3068 33.5274 30.3462 33.5012 30.3725 33.488L35.4457 42.3463Z" fill="#05A4BF"/>
<path d="M34.5116 42.9246C34.2225 43.0954 33.9202 43.2663 33.6179 43.4109L28.4922 34.4474C28.571 34.408 28.6499 34.3817 28.7288 34.3423C28.8076 34.3029 28.8865 34.2766 28.9653 34.2371C29.0442 34.1977 29.123 34.1714 29.2019 34.132C29.2808 34.0926 29.3596 34.0531 29.4385 34.0137L34.5116 42.9246Z" fill="#05A4BF"/>
<path d="M33.6193 43.4109C33.3302 43.5686 33.0279 43.7132 32.7256 43.8577L27.5342 34.8154C27.613 34.7892 27.6919 34.7629 27.7839 34.7234C27.8628 34.6972 27.9416 34.6709 28.0205 34.6314C28.0993 34.6052 28.1782 34.5657 28.257 34.5394C28.3359 34.5132 28.4148 34.4737 28.4936 34.4474L33.6193 43.4109Z" fill="#05A4BF"/>
<path d="M32.7117 43.8577C32.3963 44.0023 32.0808 44.1469 31.7654 44.2783L26.4951 35.1309L26.758 35.0652C26.85 35.0389 26.9288 35.0126 27.0208 34.9863C27.0471 34.9732 27.0865 34.9732 27.1128 34.96C27.1654 34.9469 27.218 34.9206 27.2705 34.9074C27.31 34.8943 27.3363 34.8812 27.3757 34.868C27.4151 34.8549 27.4414 34.8417 27.4808 34.8286C27.494 34.8286 27.5203 34.8154 27.5334 34.8154L32.7117 43.8577Z" fill="#05A4BF"/>
<path d="M31.7789 44.2651C31.424 44.4097 31.0692 44.5411 30.7143 44.6726L25.3389 35.3806C25.4309 35.3674 25.536 35.3411 25.628 35.328C25.6674 35.3148 25.6937 35.3148 25.72 35.3017C25.7857 35.2886 25.8514 35.2754 25.9172 35.2623C25.9697 35.2491 26.0223 35.236 26.0749 35.2228C26.1143 35.2097 26.1669 35.2097 26.2063 35.1966C26.2457 35.1834 26.2852 35.1834 26.3246 35.1703C26.3772 35.1571 26.4429 35.144 26.4954 35.1308L31.7789 44.2651Z" fill="#05A4BF"/>
<path d="M30.7148 44.6726C30.2942 44.8303 29.8736 44.9617 29.4399 45.08L23.9199 35.5646C24.0382 35.5514 24.1565 35.5383 24.2748 35.5252C24.3011 35.5252 24.3142 35.5252 24.3405 35.512C24.4325 35.4989 24.5376 35.4857 24.6296 35.4726C24.6559 35.4726 24.6822 35.4594 24.7085 35.4594C24.8005 35.4463 24.8925 35.4332 24.9845 35.42C25.0502 35.4069 25.1291 35.3937 25.1948 35.3806C25.2342 35.3674 25.2868 35.3674 25.3262 35.3543L30.7148 44.6726Z" fill="#05A4BF"/>
<path d="M29.4397 45.08C29.2163 45.1457 29.006 45.2114 28.7826 45.264C28.4803 45.3428 28.178 45.4085 27.8626 45.4743L22.1191 35.6303C22.2769 35.6303 22.4214 35.6303 22.5791 35.6303C22.7237 35.6303 22.8814 35.6303 23.026 35.6171C23.0654 35.6171 23.118 35.6171 23.1706 35.604C23.2757 35.604 23.3809 35.5908 23.4729 35.5908C23.6174 35.5777 23.762 35.5645 23.9197 35.5514L29.4397 45.08Z" fill="#05A4BF"/>
</g>
<defs>
<clipPath id="clip0_459_933">
<rect width="46" height="46" fill="white"/>
</clipPath>
</defs>
</svg>
