<svg width="179" height="46" viewBox="0 0 179 46" fill="none" xmlns="http://www.w3.org/2000/svg">
<path d="M102.914 16.4688C104.308 16.4688 105.624 16.6948 106.861 17.1465C108.108 17.5883 109.207 18.2754 110.16 19.208C111.122 20.1408 111.878 21.3291 112.428 22.7725C112.978 24.2061 113.253 25.9149 113.253 27.8984V29.5332H97.4966C97.5123 30.7924 97.7504 31.8772 98.2153 32.7881C98.6965 33.7209 99.3688 34.4377 100.233 34.9385C101.097 35.4294 102.108 35.6748 103.267 35.6748C104.043 35.6748 104.745 35.5676 105.374 35.3516C106.002 35.1257 106.547 34.7963 107.008 34.3643C107.47 33.9322 107.819 33.397 108.054 32.7588L113.032 33.3184C112.718 34.6341 112.119 35.7837 111.235 36.7656C110.361 37.7374 109.242 38.4932 107.877 39.0332C106.513 39.5634 104.951 39.8291 103.193 39.8291C100.925 39.829 98.9663 39.3575 97.3169 38.415C95.6771 37.4626 94.4145 36.1169 93.5308 34.3789C92.6472 32.6312 92.2056 30.5742 92.2056 28.208C92.2056 25.8808 92.647 23.8377 93.5308 22.0801C94.4243 20.3127 95.6715 18.938 97.272 17.9561C98.8725 16.9643 100.753 16.4688 102.914 16.4688ZM145.773 16.4688C147.982 16.4688 149.897 16.9548 151.517 17.9268C153.137 18.8988 154.389 20.2639 155.273 22.0215C156.166 23.779 156.614 25.8263 156.614 28.1631C156.614 30.5001 156.167 32.5432 155.273 34.291C154.389 36.0387 153.137 37.3981 151.517 38.3701C149.897 39.3422 147.982 39.8291 145.773 39.8291C143.564 39.8291 141.649 39.3422 140.029 38.3701C138.409 37.3981 137.152 36.0386 136.258 34.291C135.375 32.5432 134.933 30.5001 134.933 28.1631C134.933 25.8263 135.375 23.779 136.258 22.0215C137.152 20.2639 138.409 18.8988 140.029 17.9268C141.649 16.9547 143.564 16.4688 145.773 16.4688ZM66.5288 9.22168C68.7085 9.22172 70.52 9.56562 71.9634 10.2529C73.4164 10.9304 74.5015 11.858 75.2183 13.0361C75.9449 14.2144 76.3081 15.5504 76.3081 17.043C76.3081 18.2702 76.0723 19.3205 75.6011 20.1943C75.1298 21.0583 74.4969 21.7607 73.7017 22.3008C72.9063 22.8408 72.0175 23.2292 71.0356 23.4648V23.7588C72.1059 23.8177 73.1319 24.1472 74.1138 24.7461C75.1055 25.3352 75.916 26.1699 76.5444 27.25C77.1728 28.3301 77.4868 29.6363 77.4868 31.168C77.4868 32.729 77.1089 34.133 76.353 35.3799C75.5969 36.6171 74.457 37.5947 72.9351 38.3115C71.4131 39.0282 69.4982 39.3867 67.1909 39.3867H54.981V9.22168H66.5288ZM124.034 33.5684H124.27L129.484 16.7627H135.155L127.098 39.3867H121.207L113.15 16.7627H118.834L124.034 33.5684ZM171.077 16.4688C172.638 16.4688 173.998 16.803 175.157 17.4707C176.325 18.1384 177.229 19.1056 177.867 20.3721C178.515 21.6387 178.834 23.1758 178.824 24.9824V39.3867H173.492V25.8066C173.492 24.2946 173.099 23.1111 172.314 22.2568C171.538 21.4027 170.463 20.9757 169.088 20.9756C168.156 20.9756 167.326 21.1824 166.599 21.5947C165.882 21.9973 165.317 22.5809 164.905 23.3467C164.502 24.1126 164.301 25.0409 164.301 26.1309V39.3867H158.969V16.7637H164.066V20.6074H164.331C164.851 19.3408 165.681 18.3341 166.82 17.5879C167.969 16.8417 169.388 16.4688 171.077 16.4688ZM90.8228 16.4385C91.1172 16.4385 91.446 16.453 91.8091 16.4824C92.1822 16.5021 92.4923 16.5368 92.7378 16.5859V21.4902C92.512 21.4117 92.1534 21.3431 91.6626 21.2842C91.1815 21.2155 90.7148 21.1816 90.2632 21.1816C89.2911 21.1816 88.4168 21.3922 87.6411 21.8145C86.8753 22.2269 86.2714 22.8017 85.8296 23.5381C85.3878 24.2745 85.1665 25.1237 85.1665 26.0859V39.3857H79.8354V16.7627H85.0044V20.5332H85.2407C85.6531 19.2272 86.3603 18.2207 87.3618 17.5137C88.3731 16.797 89.5267 16.4385 90.8228 16.4385ZM145.802 20.6963C144.575 20.6963 143.554 21.0296 142.739 21.6973C141.934 22.3649 141.33 23.2635 140.927 24.3926C140.535 25.5119 140.338 26.764 140.338 28.1484C140.338 29.523 140.535 30.7703 140.927 31.8896C141.33 33.0089 141.934 33.9026 142.739 34.5703C143.554 35.2282 144.575 35.5576 145.802 35.5576C147 35.5576 148.002 35.2282 148.807 34.5703C149.612 33.9026 150.211 33.009 150.604 31.8896C151.007 30.7703 151.208 29.5231 151.208 28.1484C151.208 26.764 151.007 25.5119 150.604 24.3926C150.211 23.2635 149.612 22.3649 148.807 21.6973C148.002 21.0297 147 20.6963 145.802 20.6963ZM60.4458 34.8203H66.3218C68.305 34.8203 69.734 34.4424 70.6079 33.6865C71.4916 32.9206 71.9341 31.9382 71.9341 30.7402C71.934 29.8468 71.7128 29.0419 71.271 28.3252C70.8292 27.5986 70.2011 27.0286 69.3862 26.6162C68.5712 26.194 67.5985 25.9834 66.4692 25.9834H60.4458V34.8203ZM102.987 20.6221C101.897 20.6221 100.939 20.8878 100.115 21.418C99.2901 21.9384 98.6465 22.6253 98.1851 23.4795C97.7821 24.2329 97.5566 25.0531 97.5054 25.9395H108.142C108.132 24.9183 107.911 24.0102 107.479 23.2148C107.047 22.4097 106.443 21.776 105.667 21.3145C104.902 20.8531 104.008 20.6221 102.987 20.6221ZM60.4458 22.0508H65.8511C66.7936 22.0508 67.6429 21.8788 68.3989 21.5352C69.1549 21.1817 69.7491 20.686 70.1812 20.0479C70.623 19.3999 70.8442 18.6336 70.8442 17.75C70.8442 16.5817 70.4315 15.6193 69.6069 14.8633C68.7919 14.1072 67.5786 13.7285 65.9683 13.7285H60.4458V22.0508Z" fill="#290F1C"/>
<g clip-path="url(#clip0_434_634)">
<path d="M22.8946 28.3758L18.9123 28.3364L15.0483 28.297L16.8226 24.709L24.2746 24.7747H24.6426H24.6821C24.6952 24.7747 24.7083 24.7747 24.7215 24.7747C24.7478 24.7747 24.7741 24.7747 24.8003 24.7747H24.8398C24.8529 24.7747 24.8529 24.7747 24.8661 24.7747C24.8792 24.7747 24.8923 24.7747 24.9055 24.7747C24.9318 24.7747 24.9581 24.7747 24.9712 24.7878C24.9975 24.7878 25.0238 24.801 25.0501 24.801C25.0895 24.801 25.1158 24.8141 25.1421 24.8141C25.1552 24.8141 25.1815 24.8273 25.1946 24.8273C25.2209 24.8273 25.2472 24.8404 25.2603 24.8404C25.2866 24.8404 25.2998 24.8536 25.3261 24.8536H25.3392H25.3523C25.3655 24.8536 25.3655 24.8536 25.3655 24.8667C25.4049 24.8798 25.4312 24.893 25.4575 24.9061C25.4706 24.9061 25.4838 24.9193 25.4969 24.9193C25.4969 24.9193 25.5101 24.9193 25.5101 24.9324C25.5232 24.9324 25.5495 24.9456 25.5626 24.9456C25.5758 24.9456 25.5889 24.9587 25.6021 24.9587C25.6021 24.9587 25.6021 24.9587 25.6152 24.9587C25.6283 24.9587 25.6283 24.9587 25.6283 24.9718C25.6546 24.985 25.6678 24.9981 25.6941 25.0113C25.7072 25.0244 25.7072 25.0244 25.7203 25.0244C25.7203 25.0244 25.7335 25.0244 25.7335 25.0376C25.7466 25.0376 25.7466 25.0507 25.7598 25.0507C25.7729 25.0638 25.7861 25.077 25.7992 25.0901C25.8123 25.1033 25.8255 25.1033 25.8386 25.1164C25.8518 25.1164 25.8518 25.1296 25.8518 25.1296C25.8649 25.1296 25.8649 25.1296 25.8649 25.1427C25.8781 25.1558 25.8781 25.1558 25.8781 25.169C25.8912 25.169 25.8912 25.1821 25.9043 25.1953C25.9175 25.1953 25.9175 25.2084 25.9175 25.2084C25.9175 25.2084 25.9306 25.2084 25.9306 25.2216L25.9438 25.2347L25.9569 25.2478C25.9701 25.261 25.9832 25.2741 25.9963 25.3004C26.0095 25.3136 26.0095 25.3136 26.0095 25.3267C26.0226 25.3398 26.0358 25.3661 26.0489 25.3924C26.0621 25.4187 26.0752 25.445 26.0883 25.4581C26.1541 25.5896 26.1803 25.7473 26.1803 25.905C26.1803 26.1284 26.1146 26.365 25.9963 26.6278C25.9569 26.7198 25.9043 26.8118 25.8386 26.9038C25.8386 26.917 25.8255 26.9301 25.8123 26.9433C25.7466 27.0353 25.6809 27.1273 25.6021 27.2193C25.5626 27.2587 25.5232 27.3113 25.4838 27.3507C25.2735 27.561 25.0369 27.7581 24.7609 27.9158C24.4849 28.0736 24.1826 28.1918 23.8672 28.2707C23.5912 28.3364 23.2495 28.3758 22.8946 28.3758Z" fill="#EC4899"/>
<path d="M30.4391 14.943C30.4786 14.9824 30.5048 15.0218 30.518 15.0612L30.5311 15.0744C30.5837 15.1795 30.6231 15.2978 30.6231 15.4292C30.6363 15.6264 30.5837 15.8367 30.4786 16.0732C30.4391 16.1521 30.3997 16.231 30.334 16.3098C30.334 16.323 30.3208 16.323 30.3208 16.3361C30.2288 16.4807 30.1106 16.6252 29.9923 16.7435C29.7951 16.9538 29.5586 17.1247 29.3088 17.2692C29.0591 17.4138 28.7963 17.5321 28.5334 17.6109C28.2706 17.6898 27.9946 17.7292 27.7448 17.7292L23.6443 17.7161H20.2534L21.8306 14.5092L29.3088 14.4961H29.3351C29.3877 14.4961 29.4403 14.4961 29.4928 14.5092C29.506 14.5092 29.5323 14.5092 29.5454 14.5092C29.5586 14.5092 29.5717 14.5092 29.5848 14.5092C29.6243 14.5224 29.6768 14.5224 29.7163 14.5355C29.7294 14.5355 29.7294 14.5355 29.7294 14.5355C29.782 14.5487 29.8477 14.5618 29.9003 14.575H29.9134C29.9397 14.5881 29.966 14.5881 29.9791 14.6012C30.0054 14.6144 30.0186 14.6144 30.0448 14.6275C30.058 14.6275 30.0711 14.6407 30.0843 14.6407C30.1106 14.6538 30.15 14.667 30.1763 14.6932H30.1894C30.2026 14.6932 30.2157 14.7064 30.2288 14.7064C30.2683 14.7327 30.3208 14.7721 30.3471 14.7984C30.3603 14.8641 30.3997 14.9035 30.4391 14.943Z" fill="#EC4899"/>
<circle cx="23" cy="23" r="22.5" fill="white"/>
<path d="M46 23C46 23.2366 46 23.4731 45.9869 23.6966C45.908 26.3777 45.3691 28.9406 44.4491 31.3194C44.2783 31.7531 44.0943 32.1869 43.8971 32.6074C43.7526 32.936 43.5817 33.2646 43.424 33.5931C43.2794 33.8823 43.1217 34.1583 42.964 34.4343C42.8326 34.6709 42.688 34.9074 42.5434 35.1309C42.5434 35.144 42.5303 35.144 42.5303 35.144C42.5171 35.1571 42.5171 35.1703 42.504 35.1834C42.4909 35.2097 42.4777 35.2229 42.4646 35.2491C42.4251 35.3149 42.3726 35.3806 42.3331 35.4463C42.2674 35.5383 42.2149 35.6434 42.136 35.7354C42.1097 35.788 42.0834 35.8274 42.044 35.8669C42.044 35.88 42.0309 35.88 42.0309 35.8931C41.9783 35.972 41.9257 36.0509 41.86 36.1297C41.768 36.2743 41.6629 36.4189 41.5709 36.5503C41.5577 36.5634 41.5577 36.5634 41.5577 36.5634C41.5446 36.5766 41.5446 36.5766 41.5314 36.5897C41.5183 36.6291 41.492 36.6554 41.4657 36.6817C41.4394 36.7211 41.4131 36.7606 41.3737 36.8C41.1897 37.0497 41.0057 37.2994 40.7954 37.536C40.7954 37.5491 40.7823 37.5491 40.7823 37.5491C40.6509 37.7069 40.5326 37.8514 40.4011 38.0091C40.112 38.3509 39.7966 38.6794 39.4811 39.008C39.2971 39.192 39.1131 39.3891 38.916 39.5731L38.9029 39.5863C38.7451 39.7309 38.5874 39.8886 38.4297 40.0331C38.364 40.0857 38.3114 40.1383 38.2457 40.1909C38.088 40.3354 37.9303 40.4669 37.7726 40.5983C37.7463 40.6246 37.72 40.6377 37.6937 40.664C37.4966 40.8349 37.2994 40.9926 37.0891 41.1503C36.9709 41.2423 36.8657 41.3211 36.7474 41.4131C36.6686 41.4657 36.5897 41.5314 36.5109 41.584C36.2217 41.7943 35.9326 42.0046 35.6303 42.1886C35.5646 42.2411 35.4857 42.2806 35.4069 42.3331C35.2229 42.4514 35.0389 42.5697 34.8549 42.6749C34.8417 42.6749 34.8286 42.688 34.8154 42.688C34.7234 42.7406 34.6446 42.7931 34.5526 42.8457C34.5263 42.8589 34.4869 42.8851 34.4606 42.8983C34.1714 43.0691 33.8691 43.24 33.5669 43.3846C33.2777 43.5423 32.9754 43.6869 32.6731 43.8314C32.3577 43.976 32.0423 44.1206 31.7269 44.252C31.372 44.3966 31.0171 44.528 30.6623 44.6594C30.2417 44.8171 29.8211 44.9486 29.3874 45.0669C29.164 45.1326 28.9537 45.1983 28.7303 45.2509C28.428 45.3297 28.1257 45.3954 27.8103 45.4611C27.0086 45.6451 26.1806 45.7634 25.3394 45.8554C24.5509 45.9343 23.7491 45.9737 22.9474 45.9737C14.7594 45.9737 7.58343 41.7023 3.50914 35.2623L19.2937 35.5514L22.0669 35.604C22.2246 35.604 22.3691 35.604 22.5269 35.604C22.6714 35.604 22.8291 35.604 22.9737 35.5909C23.0131 35.5909 23.0657 35.5909 23.1183 35.5777C23.2234 35.5777 23.3286 35.5646 23.4206 35.5646C23.5651 35.5514 23.7097 35.5383 23.8674 35.5251C23.9857 35.512 24.104 35.4989 24.2223 35.4857C24.2486 35.4857 24.2617 35.4857 24.288 35.4726C24.38 35.4594 24.4851 35.4463 24.5771 35.4331C24.6034 35.4331 24.6297 35.42 24.656 35.42C24.8269 35.3937 24.9846 35.3674 25.1423 35.3411C25.1817 35.328 25.2343 35.328 25.2737 35.3149C25.3657 35.3017 25.4709 35.2754 25.5629 35.2623C25.6023 35.2491 25.6286 35.2491 25.6549 35.236C25.7206 35.2229 25.7863 35.2097 25.852 35.1966C25.9046 35.1834 25.9571 35.1703 26.0097 35.1571C26.0623 35.144 26.1149 35.1309 26.1674 35.1177C26.3383 35.0783 26.5091 35.0257 26.6669 34.9863C26.8377 34.9337 27.0217 34.8811 27.1926 34.8286C27.232 34.8154 27.2583 34.8154 27.2846 34.8023C27.324 34.7891 27.3503 34.776 27.3897 34.7629C27.4029 34.7629 27.4291 34.7497 27.4423 34.7497C27.5211 34.7234 27.6 34.6971 27.692 34.6577C27.7709 34.6314 27.8497 34.6051 27.9286 34.5657C28.0074 34.5394 28.0863 34.5 28.1651 34.4737C28.244 34.4474 28.3229 34.408 28.4017 34.3817C28.4806 34.3423 28.5594 34.316 28.6383 34.2766C28.7171 34.2371 28.796 34.2109 28.8749 34.1714C28.9537 34.132 29.0326 34.1057 29.1114 34.0663C29.1903 34.0269 29.2691 33.9874 29.348 33.948C29.3874 33.9349 29.4137 33.9086 29.44 33.8954C29.4926 33.8691 29.5451 33.8429 29.5846 33.8166C29.624 33.7903 29.6634 33.7771 29.7029 33.7509C29.716 33.7509 29.7291 33.7377 29.7291 33.7377C29.7423 33.7377 29.7423 33.7246 29.7554 33.7246C29.7817 33.7114 29.7949 33.6983 29.8211 33.6851C29.9 33.6457 29.9789 33.5931 30.0709 33.5537C30.084 33.5537 30.084 33.5406 30.0971 33.5406C30.1103 33.5274 30.1103 33.5274 30.1234 33.5274C30.1497 33.5143 30.176 33.488 30.2154 33.4749C30.2943 33.4223 30.3863 33.3829 30.4651 33.3303C30.4914 33.3171 30.5177 33.304 30.5309 33.2909C30.5571 33.2777 30.5703 33.2646 30.5966 33.2514C30.6886 33.1857 30.7937 33.1331 30.8857 33.0674C30.9514 33.028 31.0171 32.9754 31.096 32.936C31.1223 32.9229 31.1486 32.8966 31.1749 32.8834C31.2669 32.8177 31.3589 32.752 31.4509 32.6863C31.5954 32.5811 31.74 32.476 31.8714 32.3709C31.9503 32.3051 32.0423 32.2394 32.1211 32.1737C32.2131 32.108 32.292 32.0291 32.3709 31.9634C32.384 31.9503 32.4103 31.9371 32.4234 31.924C32.4891 31.8714 32.5417 31.8189 32.6074 31.7531C32.6469 31.7137 32.6863 31.6874 32.7257 31.648C32.752 31.6217 32.7783 31.5954 32.8046 31.5691C32.8703 31.5034 32.936 31.4509 32.9886 31.3851C33.0674 31.3063 33.1463 31.2406 33.2251 31.1486C33.2777 31.096 33.3303 31.0434 33.3829 30.9909C33.5406 30.8331 33.6851 30.6623 33.8297 30.4914C33.9086 30.3994 34.0006 30.2943 34.0794 30.1891C34.1583 30.0971 34.2371 29.992 34.3029 29.9L34.316 29.8869C34.3291 29.8737 34.3423 29.8474 34.3554 29.8343C34.3686 29.8211 34.3686 29.8211 34.3817 29.808C34.4343 29.7423 34.4869 29.6634 34.5263 29.5977C34.6051 29.4926 34.6709 29.3874 34.7366 29.2823C34.7629 29.2429 34.7891 29.2034 34.8023 29.164C34.8417 29.0983 34.8943 29.0326 34.9206 28.9669C35.0126 28.8091 35.1046 28.6514 35.1966 28.4937C35.236 28.428 35.2754 28.3491 35.3149 28.2834C35.3806 28.1651 35.4331 28.0337 35.4989 27.9154C35.5383 27.8234 35.5909 27.7314 35.6171 27.6394C35.6434 27.5737 35.6829 27.4949 35.7091 27.4291C35.7354 27.3766 35.7486 27.324 35.7749 27.2714C35.8011 27.2057 35.8143 27.1531 35.8406 27.1006C35.8537 27.0611 35.8669 27.0349 35.8669 27.0086C35.88 26.9954 35.88 26.9823 35.88 26.9691C35.8931 26.9297 35.9063 26.9034 35.9194 26.864C35.9194 26.8509 35.9326 26.8509 35.9326 26.8377C35.9326 26.8377 35.9326 26.8377 35.9326 26.8246C35.9457 26.7851 35.9589 26.7326 35.972 26.6931C35.972 26.68 35.9851 26.6669 35.9851 26.6537C35.9851 26.6406 35.9983 26.6406 35.9983 26.6274C35.9983 26.6274 35.9983 26.6274 35.9983 26.6143V26.6011C35.9983 26.6011 35.9983 26.6011 35.9983 26.588C36.0114 26.5486 36.0246 26.496 36.0377 26.4434C36.0509 26.4171 36.0509 26.3909 36.064 26.3646C36.064 26.3514 36.064 26.3514 36.064 26.3383C36.0771 26.2726 36.0903 26.2069 36.1034 26.1411C36.1166 26.0754 36.1297 26.0229 36.1429 25.9571C36.1429 25.944 36.1429 25.9309 36.156 25.9177C36.156 25.9046 36.156 25.9046 36.156 25.8914C36.156 25.8783 36.1691 25.852 36.1691 25.8389C36.1823 25.7994 36.1823 25.76 36.1823 25.7206C36.1823 25.7074 36.1954 25.6811 36.1954 25.668C36.1954 25.6417 36.2086 25.6154 36.2086 25.5891C36.2086 25.576 36.2086 25.5497 36.2217 25.5366C36.2217 25.5234 36.2217 25.4971 36.2217 25.484C36.2217 25.4709 36.2217 25.4446 36.2217 25.4314C36.2217 25.4183 36.2217 25.392 36.2217 25.3789C36.2217 25.3657 36.2217 25.3526 36.2217 25.3394C36.2217 25.3263 36.2217 25.3131 36.2217 25.3C36.2217 25.2737 36.2217 25.2474 36.2217 25.2211C36.2217 25.1949 36.2217 25.1686 36.2217 25.1423C36.2217 25.1291 36.2217 25.1029 36.2217 25.0766V25.0503C36.2217 25.0371 36.2217 25.0109 36.2217 24.9977V24.9583C36.2217 24.8926 36.2217 24.84 36.2217 24.7874C36.2217 24.7349 36.2217 24.6823 36.2086 24.6166C36.2086 24.5903 36.2086 24.5509 36.1954 24.5246C36.1954 24.5114 36.1954 24.4851 36.1954 24.4589V24.4457C36.1954 24.4326 36.1954 24.4326 36.1954 24.4194V24.4063C36.1954 24.3669 36.1823 24.3274 36.1823 24.288C36.1823 24.2486 36.1691 24.2091 36.1691 24.1697C36.1691 24.1566 36.1691 24.1434 36.156 24.1303C36.156 24.1171 36.1429 24.0909 36.1429 24.0646C36.1429 24.0251 36.1297 23.9989 36.1297 23.9726C36.1166 23.9331 36.1166 23.9069 36.1034 23.8806C36.0903 23.8149 36.064 23.736 36.0509 23.6703C36.0509 23.6703 36.0509 23.6703 36.0509 23.6571C36.0377 23.6177 36.0377 23.5914 36.0246 23.5651C36.0246 23.5389 36.0114 23.5257 35.9983 23.4994C35.9983 23.4731 35.9851 23.46 35.972 23.4337C35.972 23.4206 35.9589 23.3943 35.9589 23.3811C35.9457 23.3549 35.9457 23.3417 35.9326 23.3154C35.9194 23.2629 35.8931 23.2234 35.8669 23.1709C35.8669 23.1577 35.8669 23.1577 35.8537 23.1577C35.8406 23.1314 35.8274 23.1051 35.8143 23.0657C35.8011 23.0394 35.788 23.0131 35.7749 22.9869C35.7617 22.9737 35.7617 22.9474 35.7486 22.9343C35.6434 22.724 35.512 22.54 35.3674 22.3691C35.144 22.0931 34.8811 21.8566 34.5789 21.6594C34.3686 21.5149 34.1583 21.3966 33.9217 21.2914L33.8823 21.2651C33.5669 21.1206 33.2251 21.0154 32.8571 20.9497C32.844 20.9497 32.8309 20.9497 32.8177 20.9366C32.8046 20.9366 32.7914 20.9366 32.7783 20.9234C32.6731 20.9103 32.5811 20.884 32.476 20.8709C32.5549 20.8577 32.6469 20.8446 32.7257 20.8314C32.7389 20.8314 32.7389 20.8314 32.752 20.8183C32.7651 20.8183 32.7651 20.8183 32.7783 20.8183C32.8703 20.8051 32.9754 20.7789 33.0674 20.7526C33.0806 20.7526 33.1069 20.7394 33.12 20.7394C33.1857 20.7263 33.2514 20.7131 33.3303 20.6869C33.396 20.6737 33.4617 20.6474 33.5274 20.6343C33.5406 20.6343 33.5406 20.6343 33.5537 20.6211C33.5669 20.6211 33.58 20.608 33.5931 20.608C33.7114 20.5686 33.8297 20.5423 33.948 20.5029C34.0006 20.4897 34.04 20.4634 34.0926 20.4503C34.1583 20.4371 34.224 20.4109 34.2766 20.3846C34.3423 20.3714 34.3949 20.3451 34.4606 20.3189C34.5789 20.2794 34.684 20.24 34.8023 20.2006C34.868 20.1743 34.9469 20.1349 35.0257 20.1086C35.0389 20.1086 35.0389 20.0954 35.052 20.0954C35.1046 20.0691 35.1571 20.056 35.2097 20.0297C35.3411 19.9771 35.4594 19.9114 35.5909 19.8589C35.6566 19.8326 35.7091 19.7931 35.7749 19.7669C35.9851 19.6617 36.2086 19.5434 36.4189 19.4251C36.4714 19.3989 36.524 19.3594 36.5766 19.3331C36.6554 19.2937 36.7343 19.2411 36.8131 19.1886C36.9314 19.1097 37.0629 19.0309 37.1811 18.952C37.2074 18.9257 37.2469 18.9126 37.2731 18.8863C37.352 18.8337 37.4309 18.7811 37.5097 18.7286C37.8777 18.4657 38.2326 18.1766 38.5611 17.8743C38.5743 17.8611 38.5743 17.8611 38.5874 17.848C38.7451 17.7034 38.9029 17.5457 39.0606 17.388C39.1526 17.296 39.2314 17.204 39.3103 17.1251C39.376 17.0594 39.4286 16.9937 39.4811 16.928C39.4943 16.9149 39.5206 16.8886 39.5337 16.8754L39.5469 16.8623C39.8491 16.5074 40.1383 16.1263 40.4011 15.732C40.5194 15.5611 40.6246 15.3903 40.7166 15.2194C40.7429 15.1669 40.7823 15.1143 40.8086 15.0617C40.848 14.9829 40.9006 14.904 40.94 14.812C40.9531 14.7726 40.9794 14.7463 40.9926 14.7069C41.0057 14.6806 41.0189 14.6411 41.0451 14.6149C41.0451 14.6017 41.0583 14.6017 41.0583 14.5886C41.0714 14.5754 41.0714 14.5491 41.0846 14.5229C41.0846 14.5097 41.0977 14.5097 41.0977 14.4966C41.1371 14.3914 41.1897 14.2994 41.2291 14.1943C41.2423 14.1549 41.2554 14.1286 41.2686 14.0891C41.2817 14.0497 41.2949 14.0234 41.308 13.984C41.3211 13.9577 41.3211 13.9314 41.3343 13.9051C41.3606 13.8263 41.3869 13.7474 41.4131 13.6686C41.4131 13.6554 41.4263 13.6554 41.4263 13.6423C41.4394 13.616 41.4394 13.6029 41.4394 13.5766C41.4526 13.5109 41.4789 13.4451 41.492 13.3794C41.5051 13.3137 41.5314 13.2611 41.5314 13.1954C41.5446 13.1691 41.5446 13.1297 41.5577 13.1034C41.5577 13.0903 41.5709 13.064 41.5709 13.0509C41.584 12.9983 41.584 12.9589 41.5971 12.9063C41.6103 12.8669 41.6103 12.8274 41.6103 12.788C41.6103 12.7749 41.6234 12.7486 41.6234 12.7354C41.6234 12.7223 41.6366 12.696 41.6366 12.6829C41.6497 12.6434 41.6497 12.5909 41.6497 12.5514C41.6497 12.512 41.6629 12.4594 41.6629 12.42C41.6629 12.3937 41.6629 12.3806 41.6629 12.3543C41.676 12.2491 41.676 12.1571 41.676 12.052C41.676 12.0389 41.676 12.0389 41.676 12.0257C41.676 11.8286 41.6629 11.6314 41.6366 11.4211C41.6366 11.4211 41.6366 11.4211 41.6366 11.408C41.6234 11.3291 41.6103 11.2371 41.5971 11.1583C41.5971 11.1451 41.5971 11.1451 41.5971 11.132C41.584 11.0531 41.5577 10.9743 41.5314 10.8954C41.5183 10.8297 41.492 10.7771 41.4789 10.7114C41.4657 10.672 41.4526 10.6326 41.4394 10.5931C41.4394 10.58 41.4263 10.5537 41.4263 10.5406C41.4263 10.5274 41.4131 10.5274 41.4131 10.5143C41.4 10.488 41.4 10.4749 41.3737 10.4486C41.3737 10.4354 41.3606 10.4223 41.3606 10.4091C41.3606 10.396 41.3606 10.396 41.3474 10.3829C41.3343 10.3697 41.3474 10.3697 41.3343 10.3697C41.3343 10.3566 41.3211 10.3434 41.3211 10.3303C41.3211 10.3171 41.308 10.2909 41.2949 10.2777C41.2817 10.2646 41.2817 10.2383 41.2686 10.2251C41.1897 10.0674 41.0977 9.90971 40.9926 9.752C40.5194 9.08171 39.7966 8.51657 38.7714 8.12229C37.7463 7.728 36.432 7.50457 34.7629 7.51771L15.6006 7.66229L2.65486 33.7377C0.959429 30.5309 0 26.8771 0 23C0 10.304 10.304 0 23 0C33.948 0 43.1217 7.66229 45.4349 17.9137C45.4349 17.9269 45.448 17.94 45.448 17.9531C45.4743 18.0583 45.5006 18.1766 45.5137 18.2817C45.5531 18.492 45.5926 18.6891 45.632 18.8994C45.6846 19.1754 45.724 19.4646 45.7634 19.7406C45.816 20.0823 45.8554 20.4371 45.8817 20.792C45.9211 21.2126 45.9474 21.6331 45.9606 22.0537C45.9869 22.3691 46 22.6846 46 23Z" fill="#EC4899"/>
<path d="M21.8174 14.5225L23.6311 17.7293H20.2534L21.8174 14.5225Z" fill="#EC4899"/>
<path d="M26.128 25.4442C26.1937 25.5756 26.22 25.7333 26.22 25.891C26.22 26.1145 26.1543 26.351 26.036 26.6139C25.9965 26.7059 25.944 26.7979 25.8782 26.8899C25.8782 26.903 25.8651 26.9162 25.852 26.9293C25.7862 27.0213 25.7205 27.1133 25.6417 27.2053L24.2485 24.7607H24.6165H24.656C24.6691 24.7607 24.6822 24.7607 24.6954 24.7607C24.7217 24.7607 24.748 24.7607 24.7742 24.7607H24.8137C24.8268 24.7607 24.8268 24.7607 24.84 24.7607C24.8531 24.7607 24.8662 24.7607 24.8794 24.7607C24.9057 24.7607 24.932 24.7607 24.9451 24.7739C24.9714 24.7739 24.9977 24.787 25.024 24.787C25.0634 24.787 25.0897 24.8002 25.116 24.8002C25.1291 24.8002 25.1554 24.8133 25.1685 24.8133C25.1948 24.8133 25.2211 24.8265 25.2342 24.8265C25.2605 24.8265 25.2737 24.8396 25.3 24.8396H25.3131H25.3262C25.3394 24.8396 25.3394 24.8396 25.3394 24.8527C25.3788 24.8659 25.4051 24.879 25.4314 24.8922C25.4445 24.8922 25.4577 24.9053 25.4708 24.9053C25.4708 24.9053 25.484 24.9053 25.484 24.9185C25.4971 24.9185 25.5234 24.9316 25.5365 24.9316C25.5497 24.9316 25.5628 24.9447 25.576 24.9447C25.576 24.9447 25.576 24.9447 25.5891 24.9447C25.6022 24.9447 25.6022 24.9447 25.6022 24.9579C25.6285 24.971 25.6417 24.9842 25.668 24.9973C25.6811 25.0105 25.6811 25.0105 25.6942 25.0105C25.6942 25.0105 25.7074 25.0105 25.7074 25.0236C25.7205 25.0236 25.7205 25.0367 25.7337 25.0367C25.7468 25.0499 25.76 25.063 25.7731 25.0762C25.7863 25.0893 25.7994 25.0893 25.8125 25.1025C25.8257 25.1025 25.8257 25.1156 25.8257 25.1156C25.8388 25.1156 25.8388 25.1156 25.8388 25.1287C25.852 25.1419 25.852 25.1419 25.852 25.155C25.8651 25.155 25.8651 25.1682 25.8782 25.1813C25.8914 25.1813 25.8914 25.1945 25.8914 25.1945C25.8914 25.1945 25.9045 25.1945 25.9045 25.2076L25.9177 25.2207L25.9308 25.2339C25.944 25.247 25.9571 25.2602 25.9703 25.2865C25.9834 25.2996 25.9834 25.2996 25.9834 25.3127C25.9965 25.3259 26.0097 25.3522 26.0228 25.3785C26.1017 25.4047 26.1148 25.431 26.128 25.4442Z" fill="#EC4899"/>
<path d="M36.9053 41.1634L36.787 41.4262C36.7082 41.4788 36.6293 41.5445 36.5505 41.5971C36.2613 41.8074 35.9722 42.0177 35.6699 42.2017C35.6042 42.2542 35.5253 42.2937 35.4465 42.3462C35.2625 42.4645 35.0785 42.5828 34.8945 42.688C34.8813 42.688 34.8682 42.7011 34.855 42.7011C34.763 42.7537 34.6842 42.8062 34.5922 42.8588L29.519 33.9611C29.5716 33.9348 29.6242 33.9085 29.6636 33.8822C29.703 33.8559 29.7425 33.8428 29.7819 33.8165C29.795 33.8165 29.8082 33.8034 29.8082 33.8034C29.8213 33.8034 29.8213 33.7902 29.8345 33.7902C29.8608 33.7771 29.8739 33.7639 29.9002 33.7508C29.979 33.7114 30.0579 33.6588 30.1499 33.6194C30.163 33.6194 30.163 33.6062 30.1762 33.6062C30.1893 33.5931 30.1893 33.5931 30.2025 33.5931C30.2288 33.58 30.255 33.5537 30.2945 33.5405C30.3733 33.488 30.4653 33.4485 30.5442 33.396C30.5705 33.3828 30.5968 33.3697 30.6099 33.3565C30.6362 33.3434 30.6493 33.3302 30.6756 33.3171C30.7676 33.2514 30.8728 33.1988 30.9648 33.1331C31.0305 33.0937 31.0962 33.0411 31.175 33.0017C31.2013 32.9885 31.2276 32.9622 31.2539 32.9491C31.3459 32.8834 31.4379 32.8177 31.5299 32.752C31.6745 32.6468 31.819 32.5417 31.9505 32.4365L36.9053 41.1634Z" fill="#EC4899"/>
<path d="M29.2952 14.5098L30.3203 16.3498C30.2283 16.4943 30.11 16.6389 29.9918 16.7572C29.7946 16.9675 29.558 17.1383 29.3083 17.2829C29.0586 17.4275 28.7958 17.5458 28.5329 17.6246C28.27 17.7035 27.994 17.7429 27.7443 17.7429L23.6438 17.7298L21.8169 14.5229L29.2952 14.5098Z" fill="#EC4899"/>
<path d="M32.8833 21.029C32.7782 21.0158 32.6862 20.9895 32.5811 20.9764C32.6599 20.9633 32.7519 20.9501 32.8308 20.937C32.8439 20.937 32.8439 20.937 32.8571 20.9238L32.9228 21.029C32.9096 21.029 32.8833 21.029 32.8833 21.029Z" fill="#EC4899"/>
<path d="M41.5581 36.59C41.5449 36.6032 41.5449 36.6032 41.5318 36.6163C41.5186 36.6557 41.4924 36.682 41.4661 36.7083C41.4398 36.7477 41.4135 36.7872 41.3741 36.8266C41.1901 37.0763 41.0061 37.326 40.7958 37.5626C40.7958 37.5757 40.7826 37.5757 40.7826 37.5757C40.6512 37.7334 40.5329 37.878 40.4015 38.0357C40.1124 38.3774 39.7969 38.706 39.4815 39.0346C39.2975 39.2186 39.1135 39.4157 38.9164 39.5997L38.9032 39.6129C38.7455 39.7574 38.5878 39.9152 38.4301 40.0597C38.3644 40.1123 38.3118 40.1649 38.2461 40.2174C38.0884 40.362 37.9306 40.4934 37.7729 40.6249C37.7466 40.6512 37.7204 40.6643 37.6941 40.6906C37.4969 40.8614 37.2998 41.0192 37.0895 41.1769H36.8792L31.9375 32.4369C32.0164 32.3712 32.1084 32.3054 32.1872 32.2397C32.2792 32.174 32.3581 32.0952 32.4369 32.0294C32.4501 32.0163 32.4764 32.0032 32.4895 31.99C32.5552 31.9374 32.6078 31.8849 32.6735 31.8192C32.7129 31.7797 32.7524 31.7534 32.7918 31.714C32.8181 31.6877 32.8444 31.6614 32.8706 31.6352C32.9364 31.5694 33.0021 31.5169 33.0546 31.4512C33.1335 31.3723 33.2124 31.3066 33.2912 31.2146C33.3438 31.162 33.3964 31.1094 33.4489 31.0569C33.6066 30.8992 33.7512 30.7283 33.8958 30.5574C33.9746 30.4654 34.0666 30.3603 34.1455 30.2552C34.2244 30.1632 34.3032 30.058 34.3689 29.966L34.3821 29.9529C34.3952 29.9397 34.4084 29.9134 34.4215 29.9003C34.4346 29.8872 34.4346 29.8872 34.4478 29.874C34.5004 29.8083 34.5529 29.7294 34.5924 29.6637C34.6712 29.5586 34.7369 29.4534 34.8026 29.3483C34.8289 29.3089 34.8552 29.2694 34.8684 29.23C34.9078 29.1643 34.9604 29.0986 34.9866 29.0329C35.0786 28.8752 35.1706 28.7174 35.2626 28.5597C35.3021 28.494 35.3415 28.4152 35.3809 28.3494C35.4466 28.2312 35.4992 28.0997 35.5649 27.9814C35.6044 27.8894 35.6569 27.7974 35.6832 27.7054C35.7095 27.6397 35.7489 27.5609 35.7752 27.4952C35.8015 27.4426 35.8146 27.39 35.8409 27.3374C35.8672 27.2717 35.8804 27.2192 35.9066 27.1666C35.9198 27.1272 35.9329 27.1009 35.9329 27.0746C35.9461 27.0614 35.9461 27.0483 35.9461 27.0352C35.9592 26.9957 35.9724 26.9694 35.9855 26.93C35.9855 26.9169 35.9986 26.9169 35.9986 26.9037C35.9986 26.9037 35.9986 26.9037 35.9986 26.8906C36.0118 26.8512 36.0249 26.7986 36.0381 26.7592C36.0381 26.746 36.0512 26.7329 36.0512 26.7197L41.5581 36.59Z" fill="#EC4899"/>
<path d="M30.531 15.0744C30.5835 15.1795 30.623 15.2978 30.623 15.4292C30.6361 15.6264 30.5835 15.8367 30.4784 16.0732C30.439 16.1521 30.3995 16.231 30.3338 16.3098L29.335 14.4961C29.3875 14.4961 29.4401 14.4961 29.4927 14.5092C29.5058 14.5092 29.5321 14.5092 29.5452 14.5092C29.5584 14.5092 29.5715 14.5092 29.5847 14.5092C29.6241 14.5224 29.6767 14.5224 29.7161 14.5355C29.7292 14.5355 29.7292 14.5355 29.7292 14.5355C29.7818 14.5487 29.8475 14.5618 29.9001 14.575H29.9132C29.9395 14.5881 29.9658 14.5881 29.979 14.6012C30.0052 14.6144 30.0184 14.6144 30.0447 14.6275C30.0578 14.6275 30.071 14.6407 30.0841 14.6407C30.1104 14.6538 30.1498 14.667 30.1761 14.6932H30.1892C30.2024 14.6932 30.2155 14.7064 30.2287 14.7064C30.2681 14.7327 30.3207 14.7721 30.347 14.7984C30.3864 14.8378 30.4127 14.8641 30.4521 14.9035C30.4915 14.943 30.5178 14.9824 30.531 15.0218C30.5178 15.0612 30.531 15.0744 30.531 15.0744Z" fill="#EC4899"/>
<path d="M33.6592 20.7393L34.0141 21.3833L33.9746 21.357C33.6592 21.2124 33.3175 21.1073 32.9495 21.0415L32.8838 20.9233C32.9758 20.9101 33.0809 20.8838 33.1729 20.8575C33.1861 20.8575 33.2124 20.8444 33.2255 20.8444C33.2912 20.8313 33.3569 20.8181 33.4358 20.7918C33.5015 20.7787 33.5672 20.7524 33.6329 20.7393C33.6461 20.7393 33.6461 20.7393 33.6592 20.7393Z" fill="#EC4899"/>
<path d="M42.0445 35.8925C42.0445 35.9057 42.0313 35.9057 42.0313 35.9188C41.9787 35.9977 41.9262 36.0765 41.8605 36.1554C41.7685 36.3 41.6633 36.4445 41.5713 36.576L36.0645 26.6663V26.6531C36.0645 26.6531 36.0645 26.6531 36.0645 26.64C36.0776 26.6005 36.0907 26.548 36.1039 26.4954C36.117 26.4691 36.117 26.4428 36.1302 26.4165C36.1302 26.4034 36.1302 26.4034 36.1302 26.3903C36.1433 26.3245 36.1565 26.2588 36.1696 26.1931C36.1827 26.1274 36.1959 26.0748 36.209 26.0091C36.209 25.996 36.209 25.9828 36.2222 25.9697C36.2222 25.9565 36.2222 25.9565 36.2222 25.9434C36.2222 25.9303 36.2353 25.904 36.2353 25.8908C36.2485 25.8514 36.2485 25.812 36.2485 25.7725C36.2485 25.7594 36.2616 25.7331 36.2616 25.72C36.2616 25.6937 36.2747 25.6674 36.2747 25.6411C36.2747 25.628 36.2747 25.6017 36.2879 25.5885C36.2879 25.5754 36.2879 25.5491 36.2879 25.536C36.2879 25.5228 36.2879 25.4965 36.2879 25.4834L42.0445 35.8925Z" fill="#EC4899"/>
<path d="M29.3217 14.5088L30.3205 16.3225C30.3205 16.3356 30.3074 16.3356 30.3074 16.3488L29.2822 14.5088H29.3217Z" fill="#EC4899"/>
<path d="M32.8837 20.9229L32.9494 21.0411C32.9362 21.0411 32.9231 21.0411 32.91 21.028L32.8442 20.9229C32.8574 20.9229 32.8705 20.9229 32.8837 20.9229Z" fill="#EC4899"/>
<path d="M41.5713 36.5762C41.5582 36.5893 41.5582 36.5893 41.5582 36.5893L36.0645 26.6927C36.0645 26.6796 36.0776 26.6796 36.0776 26.6665C36.0776 26.6665 36.0776 26.6665 36.0776 26.6533L41.5713 36.5762Z" fill="#EC4899"/>
<path d="M16.8232 24.709L18.926 28.3364L15.062 28.2838L16.8232 24.709Z" fill="#EC4899"/>
<path d="M28.7832 45.2771C28.481 45.356 28.1787 45.4217 27.8633 45.4874C27.0615 45.6714 26.2335 45.7897 25.3924 45.8817L19.3467 35.5908L22.1198 35.6434C22.2775 35.6434 22.4221 35.6434 22.5798 35.6434C22.7244 35.6434 22.8821 35.6434 23.0267 35.6303C23.0661 35.6303 23.1187 35.6303 23.1713 35.6171L28.7832 45.2771Z" fill="#EC4899"/>
<path d="M25.865 26.9301C25.7993 27.0221 25.7336 27.1141 25.6548 27.2061C25.6153 27.2456 25.5759 27.2981 25.5365 27.3376C25.3262 27.5478 25.0896 27.745 24.8136 27.9027C24.5376 28.0604 24.2353 28.1787 23.9199 28.2576C23.6045 28.3364 23.2496 28.3758 22.9079 28.3758L18.9256 28.3364L16.8228 24.709L24.2748 24.7747H24.6428L25.865 26.9301Z" fill="#EC4899"/>
<path d="M34.868 42.715C34.776 42.7676 34.6972 42.8202 34.6052 42.8727C34.5789 42.8859 34.5395 42.9122 34.5132 42.9253C34.224 43.0962 33.9218 43.267 33.6195 43.4116C33.3303 43.5693 33.028 43.7139 32.7258 43.8584C32.4103 44.003 32.0949 44.1476 31.7795 44.279C31.4246 44.4236 31.0698 44.555 30.7149 44.6864C30.2943 44.8442 29.8738 44.9756 29.44 45.0939C29.2166 45.1596 29.0063 45.2253 28.7829 45.2779L23.1709 35.6179C23.276 35.6179 23.3812 35.6047 23.4732 35.6047C23.6178 35.5916 23.7623 35.5784 23.92 35.5653C24.0383 35.5522 24.1566 35.539 24.2749 35.5259C24.3012 35.5259 24.3143 35.5259 24.3406 35.5127C24.4326 35.4996 24.5378 35.4864 24.6298 35.4733C24.656 35.4733 24.6823 35.4602 24.7086 35.4602C24.8795 35.4339 25.0372 35.4076 25.1949 35.3813C25.2343 35.3682 25.2869 35.3682 25.3263 35.355C25.4183 35.3419 25.5235 35.3156 25.6155 35.3024C25.6549 35.2893 25.6812 35.2893 25.7075 35.2762C25.7732 35.263 25.8389 35.2499 25.9046 35.2367C25.9572 35.2236 26.0098 35.2104 26.0623 35.1973C26.1149 35.1842 26.1675 35.171 26.22 35.1579C26.3909 35.1184 26.5618 35.0659 26.7195 35.0264C26.8903 34.9739 27.0743 34.9213 27.2452 34.8687C27.2846 34.8556 27.3109 34.8424 27.3372 34.8424C27.3766 34.8293 27.4029 34.8162 27.4423 34.803C27.4555 34.803 27.4818 34.7899 27.4949 34.7899C27.5738 34.7636 27.6526 34.7373 27.7446 34.6979C27.8235 34.6716 27.9023 34.6453 27.9812 34.6059C28.06 34.5796 28.1389 34.5402 28.2178 34.5139C28.2966 34.4876 28.3755 34.4482 28.4543 34.4219C28.5332 34.3824 28.612 34.3562 28.6909 34.3167C28.7698 34.2773 28.8486 34.251 28.9275 34.2116C29.0063 34.1722 29.0852 34.1459 29.164 34.1064C29.2429 34.067 29.3218 34.0276 29.4006 33.9882C29.44 33.975 29.4663 33.9487 29.4926 33.9356C29.5452 33.9093 29.5978 33.883 29.6372 33.8567C29.6766 33.8304 29.716 33.8173 29.7555 33.791L34.868 42.715Z" fill="#EC4899"/>
<path d="M26.2335 25.9043C26.2335 26.1277 26.1678 26.3643 26.0495 26.6271C26.01 26.7191 25.9575 26.8111 25.8918 26.9031L24.6826 24.7871C24.6958 24.7871 24.7089 24.7871 24.722 24.7871C24.7483 24.7871 24.7746 24.7871 24.8009 24.7871H24.8403C24.8535 24.7871 24.8535 24.7871 24.8666 24.7871C24.8798 24.7871 24.8929 24.7871 24.906 24.7871C24.9323 24.7871 24.9586 24.7871 24.9718 24.8003C24.998 24.8003 25.0243 24.8134 25.0506 24.8134C25.09 24.8134 25.1163 24.8265 25.1426 24.8265C25.1558 24.8265 25.182 24.8397 25.1952 24.8397C25.2215 24.8397 25.2478 24.8528 25.2609 24.8528C25.2872 24.8528 25.3003 24.866 25.3266 24.866H25.3398H25.3529C25.366 24.866 25.366 24.866 25.366 24.8791C25.4055 24.8923 25.4318 24.9054 25.458 24.9185C25.4712 24.9185 25.4843 24.9317 25.4975 24.9317C25.4975 24.9317 25.5106 24.9317 25.5106 24.9448C25.5238 24.9448 25.55 24.958 25.5632 24.958C25.5763 24.958 25.5895 24.9711 25.6026 24.9711C25.6026 24.9711 25.6026 24.9711 25.6158 24.9711C25.6289 24.9711 25.6289 24.9711 25.6289 24.9843C25.6552 24.9974 25.6683 25.0105 25.6946 25.0237C25.7078 25.0368 25.7078 25.0368 25.7209 25.0368C25.7209 25.0368 25.734 25.0368 25.734 25.05C25.7472 25.05 25.7472 25.0631 25.7603 25.0631C25.7735 25.0763 25.7866 25.0894 25.7998 25.1025C25.8129 25.1157 25.826 25.1157 25.8392 25.1288C25.8523 25.1288 25.8523 25.142 25.8523 25.142C25.8655 25.142 25.8655 25.142 25.8655 25.1551C25.8786 25.1683 25.8786 25.1683 25.8786 25.1814C25.8918 25.1814 25.8918 25.1945 25.9049 25.2077C25.918 25.2077 25.918 25.2208 25.918 25.2208C25.918 25.2208 25.9312 25.2208 25.9312 25.234L25.9443 25.2471L25.9575 25.2603C25.9706 25.2734 25.9838 25.2865 25.9969 25.3128C26.0232 25.3391 26.0363 25.3654 26.0495 25.3917C26.0626 25.418 26.0758 25.4443 26.0889 25.4574C26.2072 25.5888 26.2335 25.7334 26.2335 25.9043Z" fill="#EC4899"/>
<path d="M35.6699 42.2016C35.6042 42.2542 35.5253 42.2936 35.4465 42.3462C35.2625 42.4644 35.0785 42.5827 34.8945 42.6879L29.8345 33.8033C29.8476 33.8033 29.8476 33.7902 29.8608 33.7902C29.887 33.777 29.9002 33.7639 29.9265 33.7507C30.0053 33.7113 30.0842 33.6587 30.1762 33.6193C30.1893 33.6193 30.1893 33.6062 30.2025 33.6062C30.2156 33.593 30.2156 33.593 30.2288 33.593C30.255 33.5799 30.2813 33.5536 30.3208 33.5404C30.3996 33.4879 30.4916 33.4484 30.5705 33.3959C30.5968 33.3827 30.623 33.3696 30.6362 33.3564L35.6699 42.2016Z" fill="#EC4899"/>
<path d="M25.8916 26.8904C25.8916 26.9036 25.8785 26.9167 25.8653 26.9298L24.6299 24.7744H24.6693L25.8916 26.8904Z" fill="#EC4899"/>
<path d="M34.8948 42.6883C34.8817 42.6883 34.8686 42.7014 34.8554 42.7014L29.7954 33.8169C29.8086 33.8169 29.8217 33.8037 29.8217 33.8037L34.8948 42.6883Z" fill="#EC4899"/>
<path d="M41.3867 10.3564L41.413 10.409C41.3999 10.3959 41.3999 10.3959 41.3999 10.3827C41.3999 10.3696 41.3999 10.3564 41.3867 10.3564Z" fill="white"/>
<path d="M45.4348 17.9527L41.4525 10.4876C41.4525 10.4744 41.4525 10.4744 41.4394 10.4744C41.4394 10.4613 41.4394 10.4613 41.4262 10.4613C41.4262 10.4482 41.4131 10.435 41.4131 10.4219L45.4217 17.9264C45.4348 17.9264 45.4348 17.9396 45.4348 17.9527Z" fill="white"/>
<path d="M45.5133 18.2683L41.6493 11.0529C41.6493 11.0266 41.6361 11.0135 41.6361 10.9872C41.623 10.9215 41.5967 10.8689 41.5836 10.8032C41.5704 10.7638 41.5573 10.7243 41.5442 10.6849C41.5442 10.6718 41.531 10.6455 41.531 10.6323C41.531 10.6192 41.5179 10.6192 41.5179 10.606C41.5047 10.5798 41.5047 10.5666 41.4784 10.5403C41.4784 10.5272 41.4653 10.514 41.4653 10.5009C41.4653 10.4878 41.4653 10.4878 41.4521 10.4746L45.4344 17.9398C45.4607 18.058 45.487 18.1632 45.5133 18.2683Z" fill="#EC4899"/>
<path d="M41.7682 11.6578C41.7682 11.6053 41.7551 11.5527 41.7551 11.5133C41.7551 11.5133 41.7551 11.5133 41.7551 11.5001C41.7551 11.4738 41.7419 11.4475 41.7419 11.4213C41.7419 11.395 41.7288 11.3818 41.7288 11.3555C41.7157 11.3161 41.7157 11.2898 41.7025 11.2635C41.7025 11.2504 41.7025 11.2504 41.7025 11.2373C41.7025 11.2241 41.7025 11.2241 41.7025 11.211C41.6894 11.1584 41.6762 11.119 41.6631 11.0664L45.5271 18.2818C45.5665 18.4921 45.6059 18.6893 45.6454 18.8995L41.7682 11.6578Z" fill="#EC4899"/>
<path d="M41.7812 12.0126V11.9732C41.7812 11.9206 41.7812 11.868 41.768 11.8155C41.768 11.7629 41.7549 11.7103 41.7549 11.6709L45.632 18.8995C45.6846 19.1755 45.724 19.4646 45.7635 19.7406L41.7812 12.3018V12.2229C41.7812 12.1966 41.7812 12.1572 41.7812 12.1309C41.7812 12.1178 41.7812 12.1178 41.7812 12.1046C41.7812 12.0783 41.7812 12.052 41.7812 12.0126Z" fill="#EC4899"/>
<path d="M45.8948 20.7784L41.7153 12.9715C41.7285 12.9321 41.7285 12.8927 41.7285 12.8532C41.7285 12.8401 41.7416 12.8138 41.7416 12.7875C41.7416 12.7744 41.7416 12.7612 41.7416 12.7481C41.7548 12.7087 41.7548 12.6561 41.7548 12.6167C41.7548 12.5772 41.7679 12.5247 41.7679 12.4852C41.7679 12.4589 41.7679 12.4458 41.7679 12.4195C41.7679 12.3801 41.781 12.3538 41.781 12.3275C41.781 12.3144 41.781 12.3012 41.781 12.2881L45.7633 19.7269C45.8159 20.0818 45.8553 20.4235 45.8948 20.7784Z" fill="#EC4899"/>
<path d="M45.9735 22.0403L41.5181 13.7472C41.5181 13.734 41.5312 13.734 41.5312 13.7209C41.5444 13.6946 41.5444 13.6815 41.5444 13.6552C41.5575 13.6158 41.5575 13.5895 41.5706 13.5632C41.5838 13.5369 41.5838 13.4975 41.5969 13.4712C41.6101 13.4055 41.6364 13.3529 41.6364 13.2872C41.6495 13.2609 41.6495 13.2215 41.6626 13.1952C41.6626 13.182 41.6758 13.1558 41.6758 13.1426C41.6889 13.09 41.6889 13.0506 41.7021 12.998L45.8815 20.8049C45.9341 21.1992 45.9604 21.6198 45.9735 22.0403Z" fill="#EC4899"/>
<path d="M46.0001 22.9996C46.0001 23.2362 46.0001 23.4728 45.9869 23.6962L41.1372 14.6934C41.1372 14.6802 41.1504 14.6802 41.1504 14.6671C41.1635 14.6539 41.1635 14.6276 41.1766 14.6014C41.1766 14.5882 41.1898 14.5882 41.1898 14.5751C41.2292 14.5094 41.2555 14.4436 41.2818 14.3648C41.2949 14.3385 41.2949 14.3122 41.3081 14.2991C41.3081 14.2859 41.3212 14.2859 41.3212 14.2728C41.3343 14.2334 41.3475 14.2071 41.3606 14.1676C41.3738 14.1282 41.3869 14.1019 41.4001 14.0625C41.4132 14.0362 41.4132 14.0099 41.4264 13.9836C41.4526 13.9048 41.4789 13.8259 41.5052 13.7471L45.9606 22.0402C45.9869 22.3688 46.0001 22.6842 46.0001 22.9996Z" fill="#EC4899"/>
<path d="M45.9863 23.71C45.9074 26.3911 45.3686 28.954 44.4486 31.3328L37.6274 18.8471C37.9954 18.5843 38.3503 18.2951 38.6789 17.9928C38.692 17.9797 38.692 17.9797 38.7052 17.9665C38.8629 17.822 39.0206 17.6643 39.1783 17.5065C39.2703 17.4145 39.3492 17.3225 39.428 17.2437C39.4937 17.178 39.5463 17.1123 39.5989 17.0465C39.612 17.0334 39.6383 17.0071 39.6514 16.994L39.6646 16.9808C39.9669 16.626 40.256 16.2448 40.5189 15.8505C40.6372 15.6797 40.7423 15.5088 40.8343 15.338C40.8606 15.2854 40.9 15.2328 40.9263 15.1803C40.9657 15.1014 41.0183 15.0225 41.0577 14.9305C41.0709 14.8911 41.0972 14.8648 41.1103 14.8254C41.1234 14.7991 41.1366 14.7597 41.1629 14.7334L45.9863 23.71Z" fill="#EC4899"/>
<path d="M44.4491 31.3193C44.2782 31.753 44.0942 32.1867 43.8971 32.6073L36.6816 19.4513C36.7605 19.4118 36.8394 19.3593 36.9182 19.3067C37.0365 19.2278 37.1679 19.149 37.2862 19.0701C37.3125 19.0438 37.3519 19.0307 37.3782 19.0044C37.4571 18.9518 37.5359 18.8993 37.6148 18.8467L44.4491 31.3193Z" fill="#EC4899"/>
<path d="M43.897 32.6072C43.7525 32.9357 43.5816 33.2643 43.4239 33.5929L35.8799 19.8849C36.0902 19.7797 36.3136 19.6615 36.5239 19.5432C36.5765 19.5169 36.629 19.4775 36.6816 19.4512L43.897 32.6072Z" fill="#EC4899"/>
<path d="M43.424 33.5933C43.2794 33.8824 43.1217 34.1584 42.964 34.4344L35.1309 20.2402C35.144 20.2402 35.144 20.227 35.1571 20.227C35.2097 20.2007 35.2623 20.1876 35.3149 20.1613C35.4463 20.1087 35.5646 20.043 35.696 19.9904C35.7617 19.9642 35.8143 19.9247 35.88 19.8984L43.424 33.5933Z" fill="#EC4899"/>
<path d="M42.9641 34.4341C42.8327 34.6706 42.6881 34.9072 42.5436 35.1306C42.5436 35.1438 42.5304 35.1438 42.5304 35.1438C42.5173 35.1569 42.5173 35.1701 42.5041 35.1832L36.1036 23.6175L36.0904 23.6044C36.0904 23.5781 36.0773 23.5649 36.0641 23.5386C36.0641 23.5255 36.051 23.4992 36.051 23.4861C36.0378 23.4598 36.0378 23.4466 36.0247 23.4204C36.0116 23.3678 35.9853 23.3284 35.959 23.2758C35.959 23.2626 35.959 23.2626 35.9458 23.2626C35.9327 23.2364 35.9196 23.2101 35.9064 23.1706C35.8933 23.1444 35.8801 23.1181 35.867 23.0918C35.8538 23.0786 35.8538 23.0524 35.8407 23.0392C35.7356 22.8289 35.6041 22.6449 35.4595 22.4741L34.3818 20.5289C34.4476 20.5158 34.5001 20.4895 34.5658 20.4632C34.6841 20.4238 34.7893 20.3844 34.9076 20.3449C34.9733 20.3186 35.0521 20.2792 35.131 20.2529L42.9641 34.4341Z" fill="#EC4899"/>
<path d="M34.382 20.5156L35.4597 22.4608C35.2362 22.1848 34.9734 21.9482 34.6711 21.7511C34.4608 21.6065 34.2505 21.4882 34.014 21.3831L33.9745 21.3568L33.6328 20.7391C33.646 20.7391 33.646 20.7391 33.6591 20.7259C33.6722 20.7259 33.6854 20.7128 33.6985 20.7128C33.8168 20.6733 33.9351 20.6471 34.0534 20.6076C34.106 20.5945 34.1454 20.5682 34.198 20.5551C34.2637 20.5551 34.3294 20.5419 34.382 20.5156Z" fill="#EC4899"/>
<path d="M42.504 35.1963C42.4908 35.2226 42.4777 35.2358 42.4645 35.262C42.4251 35.3278 42.3725 35.3935 42.3331 35.4592C42.2674 35.5512 42.2148 35.6563 42.136 35.7483C42.1097 35.8009 42.0834 35.8403 42.044 35.8798C42.044 35.8929 42.0308 35.8929 42.0308 35.906L36.2874 25.5363C36.2874 25.5232 36.2874 25.4969 36.2874 25.4838C36.2874 25.4706 36.2874 25.4443 36.2874 25.4312C36.2874 25.418 36.2874 25.4049 36.2874 25.3918C36.2874 25.3786 36.2874 25.3655 36.2874 25.3523C36.2874 25.326 36.2874 25.2998 36.2874 25.2735C36.2874 25.2472 36.2874 25.2209 36.2874 25.1946C36.2874 25.1815 36.2874 25.1552 36.2874 25.1289V25.1026C36.2874 25.0895 36.2874 25.0632 36.2874 25.05V25.0106C36.2874 24.9449 36.2874 24.8923 36.2874 24.8398C36.2874 24.7872 36.2874 24.7346 36.2743 24.6689C36.2743 24.6426 36.2743 24.6032 36.2611 24.5769C36.2611 24.5638 36.2611 24.5375 36.2611 24.5112V24.498C36.2611 24.4849 36.2611 24.4849 36.2611 24.4718V24.4586C36.2611 24.4192 36.248 24.3798 36.248 24.3403C36.248 24.3009 36.2348 24.2615 36.2348 24.222C36.2348 24.2089 36.2348 24.1958 36.2217 24.1826C36.2217 24.1695 36.2085 24.1432 36.2085 24.1169C36.2085 24.0775 36.1954 24.0512 36.1954 24.0249C36.1823 23.9855 36.1823 23.9592 36.1691 23.9329C36.156 23.8672 36.1297 23.7883 36.1165 23.7226C36.1165 23.7226 36.1165 23.7226 36.1165 23.7095C36.1034 23.67 36.1034 23.6438 36.0903 23.6175C36.0903 23.5912 36.0771 23.578 36.064 23.5518L36.0771 23.5649L42.504 35.1963Z" fill="#EC4899"/>
<path d="M33.6327 20.7529L33.9744 21.3706C33.659 21.2261 33.3173 21.1209 32.9493 21.0552C32.9362 21.0552 32.923 21.0552 32.9099 21.0421C32.8967 21.0421 32.8836 21.0421 32.8704 21.0289L32.8179 20.9369C32.831 20.9369 32.831 20.9369 32.8442 20.9238C32.8573 20.9238 32.8573 20.9238 32.8704 20.9238C32.9624 20.9106 33.0676 20.8844 33.1596 20.8581C33.1727 20.8581 33.199 20.8449 33.2122 20.8449C33.2779 20.8318 33.3436 20.8186 33.4224 20.7924C33.5013 20.7792 33.567 20.7661 33.6327 20.7529Z" fill="#EC4899"/>
<path d="M42.0308 35.9194C41.9782 35.9983 41.9256 36.0772 41.8599 36.156C41.7679 36.3006 41.6628 36.4452 41.5708 36.5766C41.5576 36.5897 41.5576 36.5897 41.5576 36.5897C41.5445 36.6029 41.5445 36.6029 41.5314 36.616L36.0508 26.7326C36.0508 26.7194 36.0639 26.7063 36.0639 26.6932C36.0639 26.68 36.0771 26.68 36.0771 26.6669C36.0771 26.6669 36.0771 26.6669 36.0771 26.6537V26.6406C36.0771 26.6406 36.0771 26.6406 36.0771 26.6274C36.0902 26.588 36.1034 26.5354 36.1165 26.4829C36.1296 26.4566 36.1296 26.4303 36.1428 26.404C36.1428 26.3909 36.1428 26.3909 36.1428 26.3777C36.1559 26.312 36.1691 26.2463 36.1822 26.1806C36.1954 26.1149 36.2085 26.0623 36.2216 25.9966C36.2216 25.9834 36.2216 25.9703 36.2348 25.9572C36.2348 25.944 36.2348 25.944 36.2348 25.9309C36.2348 25.9177 36.2479 25.8914 36.2479 25.8783C36.2611 25.8389 36.2611 25.7994 36.2611 25.76C36.2611 25.7469 36.2742 25.7206 36.2742 25.7074C36.2742 25.6812 36.2874 25.6549 36.2874 25.6286C36.2874 25.6154 36.2874 25.5892 36.3005 25.576C36.3005 25.5629 36.3005 25.5366 36.3005 25.5234L42.0308 35.9194Z" fill="#EC4899"/>
<path d="M32.8181 20.9365L32.8706 21.0285C32.7655 21.0154 32.6735 20.9891 32.5684 20.976C32.6604 20.9628 32.7392 20.9497 32.8181 20.9365Z" fill="#EC4899"/>
<path d="M41.5315 36.6159C41.5184 36.6553 41.4921 36.6816 41.4658 36.7079C41.4395 36.7473 41.4132 36.7867 41.3738 36.8261L35.9458 27.0479C35.9589 27.0347 35.9589 27.0216 35.9589 27.0084C35.9721 26.969 35.9852 26.9427 35.9984 26.9033C35.9984 26.8901 36.0115 26.8901 36.0115 26.877C36.0115 26.877 36.0115 26.877 36.0115 26.8639C36.0247 26.8244 36.0378 26.7719 36.0509 26.7324L41.5315 36.6159Z" fill="#EC4899"/>
<path d="M27.8627 45.4879C27.061 45.6719 26.233 45.7902 25.3918 45.8822C24.6032 45.9611 23.8015 46.0005 22.9998 46.0005C14.8118 46.0005 7.63581 41.7291 3.56152 35.2891L19.3461 35.5782L22.1192 35.6308L27.8627 45.4879Z" fill="#EC4899"/>
<path d="M37.6147 18.8338C37.5358 18.8863 37.457 18.9389 37.3781 18.9915C37.3387 19.0178 37.3124 19.0441 37.2861 19.0572C37.3781 18.9915 37.4833 18.9258 37.5753 18.8601C37.5884 18.8469 37.6016 18.8469 37.6147 18.8338Z" fill="white"/>
<path d="M35.9458 27.0482C35.9589 27.0351 35.9589 27.0219 35.9589 27.0088C35.9589 27.0219 35.9458 27.0351 35.9458 27.0482Z" fill="white"/>
<path d="M26.7456 35.0522C26.8639 35.0128 26.9953 34.9865 27.1136 34.9471C27.1662 34.934 27.2187 34.9077 27.2713 34.8945C27.1005 34.9471 26.9296 34.9997 26.7456 35.0522Z" fill="white"/>
<path d="M26.2461 35.1827C26.2724 35.1696 26.2987 35.1696 26.325 35.1696C26.3775 35.1565 26.4432 35.1433 26.4958 35.1302C26.5747 35.1039 26.6667 35.0907 26.7455 35.0645C26.5878 35.0907 26.417 35.1433 26.2461 35.1827Z" fill="white"/>
<path d="M35.9458 27.0482C35.9589 27.0351 35.9589 27.0219 35.9589 27.0088C35.9589 27.0219 35.9458 27.0351 35.9458 27.0482Z" fill="white"/>
<path d="M26.7456 35.0522C26.8639 35.0128 26.9953 34.9865 27.1136 34.9471C27.1662 34.934 27.2187 34.9077 27.2713 34.8945C27.1005 34.9471 26.9296 34.9997 26.7456 35.0522Z" fill="white"/>
<path d="M26.2461 35.1827C26.2724 35.1696 26.2987 35.1696 26.325 35.1696C26.3775 35.1565 26.4432 35.1433 26.4958 35.1302C26.5747 35.1039 26.6667 35.0907 26.7455 35.0645C26.5878 35.0907 26.417 35.1433 26.2461 35.1827Z" fill="white"/>
<path d="M25.5892 24.9448C25.576 24.9316 25.5498 24.9316 25.5366 24.9316C25.5629 24.9448 25.6023 24.9579 25.6286 24.9711C25.6155 24.9579 25.6023 24.9579 25.5892 24.9448Z" fill="white"/>
<path d="M25.9043 25.1416C25.9043 25.1416 25.9174 25.1547 25.9174 25.1679C25.9174 25.1547 25.9043 25.1547 25.9043 25.1416Z" fill="white"/>
<path d="M35.9458 27.0482C35.9589 27.0351 35.9589 27.0219 35.9589 27.0088C35.9589 27.0219 35.9458 27.0351 35.9458 27.0482Z" fill="white"/>
<path d="M35.998 23.3284C35.9848 23.3021 35.9848 23.289 35.9717 23.2627C35.998 23.3153 36.0111 23.3547 36.0374 23.4073C36.0243 23.381 36.0111 23.3547 35.998 23.3284Z" fill="white"/>
<path d="M36.1952 23.92C36.182 23.8674 36.1689 23.8148 36.1558 23.7754C36.1689 23.8411 36.1952 23.92 36.2083 23.9857C36.1952 23.9594 36.1952 23.9462 36.1952 23.92Z" fill="white"/>
<path d="M36.2871 24.498V24.5112C36.2871 24.5243 36.2871 24.5243 36.2871 24.5375V24.5243C36.3003 24.5243 36.2871 24.5112 36.2871 24.498Z" fill="white"/>
<path d="M29.7949 33.8295C29.8081 33.8295 29.8081 33.8164 29.8212 33.8164C29.8212 33.8164 29.8081 33.8164 29.7949 33.8295Z" fill="white"/>
<path d="M26.7456 35.0522C26.8639 35.0128 26.9953 34.9865 27.1136 34.9471C27.1662 34.934 27.2187 34.9077 27.2713 34.8945C27.1005 34.9471 26.9296 34.9997 26.7456 35.0522Z" fill="white"/>
<path d="M26.2461 35.1827C26.2724 35.1696 26.2987 35.1696 26.325 35.1696C26.3775 35.1565 26.4432 35.1433 26.4958 35.1302C26.5747 35.1039 26.6667 35.0907 26.7455 35.0645C26.5878 35.0907 26.417 35.1433 26.2461 35.1827Z" fill="white"/>
<path d="M36.6816 19.4512C36.6291 19.4906 36.5765 19.5169 36.5239 19.5432C36.5765 19.5169 36.6291 19.4775 36.6816 19.4512C36.7605 19.4118 36.8394 19.3592 36.9182 19.3066C36.8394 19.3592 36.7605 19.3986 36.6816 19.4512Z" fill="white"/>
<path d="M41.3867 10.3564C41.3867 10.3432 41.3735 10.3432 41.3735 10.3301C41.3867 10.3432 41.3867 10.3564 41.3998 10.3826C41.3998 10.3695 41.3998 10.3564 41.3867 10.3564Z" fill="white"/>
<path d="M41.4394 10.4487L41.4263 10.4355C41.4394 10.4487 41.4394 10.4618 41.4394 10.475C41.4394 10.4618 41.4394 10.4487 41.4394 10.4487Z" fill="white"/>
<path d="M41.7417 12.8143C41.7417 12.8011 41.7417 12.8011 41.7417 12.8143C41.7417 12.788 41.7548 12.7749 41.7548 12.7617C41.7417 12.7749 41.7417 12.788 41.7417 12.8143Z" fill="white"/>
<path d="M26.7456 35.0522C26.8639 35.0128 26.9953 34.9865 27.1136 34.9471C27.1662 34.934 27.2187 34.9077 27.2713 34.8945C27.1005 34.9471 26.9296 34.9997 26.7456 35.0522Z" fill="white"/>
<path d="M26.2461 35.1827C26.2724 35.1696 26.2987 35.1696 26.325 35.1696C26.3775 35.1565 26.4432 35.1433 26.4958 35.1302C26.5747 35.1039 26.6667 35.0907 26.7455 35.0645C26.5878 35.0907 26.417 35.1433 26.2461 35.1827Z" fill="white"/>
<path d="M35.9458 27.0482C35.9589 27.0351 35.9589 27.0219 35.9589 27.0088C35.9589 27.0219 35.9458 27.0351 35.9458 27.0482Z" fill="white"/>
<path d="M26.7456 35.0522C26.8639 35.0128 26.9953 34.9865 27.1136 34.9471C27.1662 34.934 27.2187 34.9077 27.2713 34.8945C27.1005 34.9471 26.9296 34.9997 26.7456 35.0522Z" fill="white"/>
<path d="M26.2461 35.1827C26.2724 35.1696 26.2987 35.1696 26.325 35.1696C26.3775 35.1565 26.4432 35.1433 26.4958 35.1302C26.5747 35.1039 26.6667 35.0907 26.7455 35.0645C26.5878 35.0907 26.417 35.1433 26.2461 35.1827Z" fill="white"/>
<path d="M35.9458 27.0482C35.9589 27.0351 35.9589 27.0219 35.9589 27.0088C35.9589 27.0219 35.9458 27.0351 35.9458 27.0482Z" fill="white"/>
<path d="M26.7456 35.0522C26.8639 35.0128 26.9953 34.9865 27.1136 34.9471C27.1662 34.934 27.2187 34.9077 27.2713 34.8945C27.1005 34.9471 26.9296 34.9997 26.7456 35.0522Z" fill="white"/>
<path d="M26.2461 35.1827C26.2724 35.1696 26.2987 35.1696 26.325 35.1696C26.3775 35.1565 26.4432 35.1433 26.4958 35.1302C26.5747 35.1039 26.6667 35.0907 26.7455 35.0645C26.5878 35.0907 26.417 35.1433 26.2461 35.1827Z" fill="white"/>
<path d="M35.9458 27.0482C35.9589 27.0351 35.9589 27.0219 35.9589 27.0088C35.9589 27.0219 35.9458 27.0351 35.9458 27.0482Z" fill="white"/>
<path d="M42.5432 35.144C42.5432 35.1571 42.53 35.1571 42.53 35.1571L35.998 23.3417C35.9849 23.3154 35.9849 23.3023 35.9718 23.276C35.9718 23.2629 35.9718 23.2629 35.9586 23.2629C35.9455 23.2366 35.9323 23.2103 35.9192 23.1709C35.906 23.1446 35.8929 23.1183 35.8798 23.092C35.8666 23.0789 35.8666 23.0526 35.8535 23.0394C35.8535 23.0263 35.8403 23.0131 35.8403 23L42.5432 35.144Z" fill="#EC4899"/>
<path d="M42.5301 35.1572C42.5169 35.1704 42.5169 35.1835 42.5038 35.1967C42.4907 35.2229 42.4775 35.2361 42.4644 35.2624L36.1952 23.9201C36.1821 23.8675 36.1689 23.8149 36.1558 23.7755C36.1558 23.7755 36.1558 23.7755 36.1558 23.7624C36.1427 23.7229 36.1427 23.6967 36.1295 23.6704C36.1295 23.6572 36.1164 23.6441 36.1164 23.6309C36.1032 23.6047 36.0901 23.5652 36.0769 23.5389C36.0769 23.5258 36.0638 23.4995 36.0638 23.4864C36.0507 23.4601 36.0507 23.4469 36.0375 23.4207C36.0244 23.3944 36.0244 23.3681 36.0112 23.3418L42.5301 35.1572Z" fill="#EC4899"/>
<path d="M42.4649 35.2622C42.4255 35.3279 42.3729 35.3936 42.3335 35.4593L36.3009 24.5376V24.5245C36.3009 24.5245 36.3009 24.5245 36.3009 24.5114V24.4982C36.3009 24.4588 36.2878 24.4194 36.2878 24.3799C36.2878 24.3405 36.2747 24.3011 36.2747 24.2616C36.2747 24.2485 36.2747 24.2354 36.2615 24.2222C36.2615 24.2091 36.2484 24.1828 36.2484 24.1565C36.2484 24.1171 36.2352 24.0908 36.2352 24.0645C36.2221 24.0251 36.2221 23.9988 36.2089 23.9725C36.2089 23.9593 36.1958 23.9331 36.1958 23.9199L42.4649 35.2622Z" fill="#EC4899"/>
<path d="M42.3333 35.4593C42.2676 35.5513 42.215 35.6564 42.1362 35.7484L36.3139 25.221C36.3139 25.2078 36.3139 25.1816 36.3139 25.1553V25.129C36.3139 25.1158 36.3139 25.0896 36.3139 25.0764V25.037C36.3139 24.9713 36.3139 24.9187 36.3139 24.8661C36.3139 24.8136 36.3139 24.761 36.3007 24.6953C36.3007 24.669 36.3007 24.6296 36.2876 24.6033C36.2876 24.5901 36.2876 24.5638 36.2876 24.5376V24.5244L42.3333 35.4593Z" fill="#EC4899"/>
<path d="M42.136 35.749C42.1097 35.8016 42.0834 35.841 42.044 35.8805C42.044 35.8936 42.0308 35.8936 42.0308 35.9067C41.9782 35.9856 41.9257 36.0645 41.86 36.1433L36.2217 25.9707C36.2217 25.9576 36.2217 25.9576 36.2217 25.9445C36.2217 25.9313 36.2348 25.905 36.2348 25.8919C36.248 25.8525 36.248 25.813 36.248 25.7736C36.248 25.7605 36.2611 25.7342 36.2611 25.721C36.2611 25.6947 36.2743 25.6685 36.2743 25.6422C36.2743 25.629 36.2743 25.6027 36.2874 25.5896C36.2874 25.5765 36.2874 25.5502 36.2874 25.537C36.2874 25.5239 36.2874 25.5239 36.2874 25.5239V25.4845C36.2874 25.4713 36.2874 25.445 36.2874 25.4319C36.2874 25.4187 36.2874 25.4056 36.2874 25.3925C36.2874 25.3793 36.2874 25.3662 36.2874 25.353C36.2874 25.3267 36.2874 25.3005 36.2874 25.2742C36.2874 25.2479 36.2874 25.2216 36.2874 25.1953L42.136 35.749Z" fill="#EC4899"/>
<path d="M41.8598 36.1559C41.7678 36.3005 41.6626 36.445 41.5706 36.5765C41.5575 36.5896 41.5575 36.5896 41.5575 36.5896C41.5443 36.6027 41.5443 36.6027 41.5312 36.6159C41.518 36.6553 41.4918 36.6816 41.4655 36.7079L35.998 26.877C35.998 26.877 35.998 26.877 35.998 26.8639C36.0112 26.8245 36.0243 26.7719 36.0375 26.7325C36.0375 26.7193 36.0506 26.7062 36.0506 26.693C36.0506 26.6799 36.0638 26.6799 36.0638 26.6667C36.0638 26.6667 36.0638 26.6667 36.0638 26.6536V26.6405C36.0638 26.6405 36.0638 26.6405 36.0638 26.6273C36.0769 26.5879 36.09 26.5353 36.1032 26.4827C36.1163 26.4565 36.1163 26.4302 36.1295 26.4039C36.1295 26.3907 36.1295 26.3907 36.1295 26.3776C36.1426 26.3119 36.1558 26.2462 36.1689 26.1805C36.182 26.1147 36.1952 26.0622 36.2083 25.9965C36.2083 25.9833 36.2083 25.9702 36.2215 25.957L41.8598 36.1559Z" fill="#EC4899"/>
<path d="M41.4654 36.7079C41.4391 36.7473 41.4129 36.7868 41.3734 36.8262C41.1894 37.0759 41.0054 37.3256 40.7951 37.5622L35.5117 28.0862C35.5117 28.073 35.5249 28.073 35.5249 28.0599C35.5249 28.0467 35.538 28.0336 35.538 28.0336C35.538 28.0205 35.5511 28.0073 35.5511 28.0073C35.5511 27.9942 35.5643 27.981 35.5643 27.981C35.6037 27.889 35.6563 27.797 35.6826 27.705C35.7089 27.6393 35.7483 27.5605 35.7746 27.4947C35.7877 27.4816 35.7877 27.4553 35.8009 27.429C35.814 27.4027 35.8271 27.3633 35.8403 27.337C35.8666 27.2713 35.8797 27.2187 35.906 27.1662C35.9191 27.1267 35.9323 27.1005 35.9323 27.0742C35.9323 27.061 35.9454 27.0479 35.9454 27.0347C35.9586 26.9953 35.9717 26.969 35.9849 26.9296C35.9849 26.9165 35.998 26.9165 35.998 26.9033L41.4654 36.7079Z" fill="#EC4899"/>
<path d="M40.8086 37.5625C40.8086 37.5756 40.7954 37.5756 40.7954 37.5756C40.664 37.7333 40.5457 37.8779 40.4143 38.0356C40.1251 38.3773 39.8097 38.7059 39.4943 39.0345C39.3103 39.2185 39.1263 39.4156 38.9291 39.5996L38.916 39.6128C38.7583 39.7573 38.6006 39.915 38.4428 40.0596C38.3771 40.1122 38.3246 40.1648 38.2588 40.2173C38.1011 40.3619 37.9434 40.4933 37.7857 40.6248C37.7594 40.651 37.7331 40.6642 37.7068 40.6905C37.5097 40.8613 37.3126 41.019 37.1023 41.1768C36.984 41.2688 36.8788 41.3476 36.7606 41.4396C36.6817 41.4922 36.6028 41.5579 36.524 41.6105L31.5034 32.7522C31.648 32.647 31.7926 32.5419 31.924 32.4368C32.0028 32.371 32.0948 32.3053 32.1737 32.2396C32.2657 32.1739 32.3446 32.095 32.4234 32.0293C32.4366 32.0162 32.4628 32.003 32.476 31.9899C32.5417 31.9373 32.5943 31.8848 32.66 31.819C32.6994 31.7796 32.7388 31.7533 32.7783 31.7139C32.8046 31.6876 32.8308 31.6613 32.8571 31.635C32.9228 31.5693 32.9886 31.5168 33.0411 31.451C33.12 31.3722 33.1988 31.3065 33.2777 31.2145C33.3303 31.1619 33.3828 31.1093 33.4354 31.0568C33.5931 30.899 33.7377 30.7282 33.8823 30.5573C33.9611 30.4653 34.0531 30.3602 34.132 30.255C34.2108 30.163 34.2897 30.0579 34.3554 29.9659L34.3686 29.9528C34.3817 29.9396 34.3948 29.9133 34.408 29.9002C34.4211 29.887 34.4211 29.887 34.4343 29.8739C34.4868 29.8082 34.5394 29.7293 34.5788 29.6636C34.6577 29.5585 34.7234 29.4533 34.7891 29.3482C34.8154 29.3088 34.8417 29.2693 34.8548 29.2299C34.8943 29.1642 34.9468 29.0985 34.9731 29.0328C35.0651 28.875 35.1571 28.7173 35.2491 28.5596C35.2886 28.4939 35.328 28.415 35.3674 28.3493C35.4068 28.2705 35.4594 28.1785 35.4988 28.0996L40.8086 37.5625Z" fill="#EC4899"/>
<path d="M36.5503 41.5971C36.2611 41.8074 35.972 42.0177 35.6697 42.2017C35.604 42.2542 35.5251 42.2937 35.4463 42.3462L30.3994 33.488C30.452 33.4617 30.5046 33.4222 30.544 33.396C30.5703 33.3828 30.5966 33.3697 30.6097 33.3565C30.636 33.3434 30.6491 33.3302 30.6754 33.3171C30.7674 33.2514 30.8726 33.1988 30.9646 33.1331C31.0303 33.0937 31.096 33.0411 31.1748 33.0017C31.2011 32.9885 31.2274 32.9622 31.2537 32.9491C31.3457 32.8834 31.4377 32.8177 31.5297 32.752L36.5503 41.5971Z" fill="#EC4899"/>
<path d="M35.4461 42.3466C35.2621 42.4649 35.0781 42.5831 34.8941 42.6883C34.881 42.6883 34.8679 42.7014 34.8547 42.7014C34.7627 42.754 34.6839 42.8066 34.5919 42.8591C34.5656 42.8723 34.5261 42.8986 34.4999 42.9117L29.4136 34.014C29.453 34.0009 29.4793 33.9746 29.5056 33.9614C29.5581 33.9351 29.6107 33.9089 29.6501 33.8826C29.6896 33.8563 29.729 33.8431 29.7684 33.8169C29.7816 33.8169 29.7947 33.8037 29.7947 33.8037C29.8079 33.8037 29.8079 33.7906 29.821 33.7906C29.8473 33.7774 29.8604 33.7643 29.8867 33.7511C29.9656 33.7117 30.0444 33.6591 30.1364 33.6197C30.1496 33.6197 30.1496 33.6066 30.1627 33.6066C30.1759 33.5934 30.1759 33.5934 30.189 33.5934C30.2153 33.5803 30.2416 33.554 30.281 33.5409C30.3073 33.5277 30.3467 33.5014 30.373 33.4883L35.4461 42.3466Z" fill="#EC4899"/>
<path d="M34.5126 42.9245C34.2235 43.0954 33.9212 43.2662 33.6189 43.4108L28.4932 34.4474C28.572 34.408 28.6509 34.3817 28.7297 34.3422C28.8086 34.3028 28.8874 34.2765 28.9663 34.2371C29.0452 34.1977 29.124 34.1714 29.2029 34.132C29.2817 34.0925 29.3606 34.0531 29.4394 34.0137L34.5126 42.9245Z" fill="#EC4899"/>
<path d="M33.6198 43.4107C33.3307 43.5684 33.0284 43.713 32.7261 43.8576L27.5347 34.8153C27.6135 34.789 27.6924 34.7627 27.7844 34.7233C27.8632 34.697 27.9421 34.6707 28.021 34.6313C28.0998 34.605 28.1787 34.5655 28.2575 34.5393C28.3364 34.513 28.4152 34.4736 28.4941 34.4473L33.6198 43.4107Z" fill="#EC4899"/>
<path d="M32.7127 43.8577C32.3972 44.0023 32.0818 44.1469 31.7664 44.2783L26.4961 35.1309L26.759 35.0651C26.851 35.0389 26.9298 35.0126 27.0218 34.9863C27.0481 34.9731 27.0875 34.9731 27.1138 34.96C27.1664 34.9469 27.219 34.9206 27.2715 34.9074C27.311 34.8943 27.3372 34.8811 27.3767 34.868C27.4161 34.8549 27.4424 34.8417 27.4818 34.8286C27.495 34.8286 27.5212 34.8154 27.5344 34.8154L32.7127 43.8577Z" fill="#EC4899"/>
<path d="M31.7794 44.2651C31.4245 44.4097 31.0696 44.5411 30.7148 44.6726L25.3394 35.3806C25.4314 35.3674 25.5365 35.3411 25.6285 35.328C25.6679 35.3149 25.6942 35.3149 25.7205 35.3017C25.7862 35.2886 25.8519 35.2754 25.9176 35.2623C25.9702 35.2491 26.0228 35.236 26.0754 35.2229C26.1148 35.2097 26.1674 35.2097 26.2068 35.1966C26.2462 35.1834 26.2856 35.1834 26.3251 35.1703C26.3776 35.1571 26.4434 35.144 26.4959 35.1309L31.7794 44.2651Z" fill="#EC4899"/>
<path d="M30.7148 44.6728C30.2942 44.8305 29.8736 44.9619 29.4399 45.0802L23.9199 35.5648C24.0382 35.5516 24.1565 35.5385 24.2748 35.5253C24.3011 35.5253 24.3142 35.5254 24.3405 35.5122C24.4325 35.4991 24.5376 35.4859 24.6296 35.4728C24.6559 35.4728 24.6822 35.4596 24.7085 35.4596C24.8005 35.4465 24.8925 35.4333 24.9845 35.4202C25.0502 35.4071 25.1291 35.3939 25.1948 35.3808C25.2342 35.3676 25.2868 35.3676 25.3262 35.3545L30.7148 44.6728Z" fill="#EC4899"/>
<path d="M29.4402 45.0803C29.2168 45.146 29.0065 45.2118 28.7831 45.2643C28.4808 45.3432 28.1785 45.4089 27.8631 45.4746L22.1196 35.6306C22.2773 35.6306 22.4219 35.6306 22.5796 35.6306C22.7242 35.6306 22.8819 35.6306 23.0265 35.6175C23.0659 35.6175 23.1185 35.6175 23.1711 35.6043C23.2762 35.6043 23.3813 35.5912 23.4733 35.5912C23.6179 35.578 23.7625 35.5649 23.9202 35.5518L29.4402 45.0803Z" fill="#EC4899"/>
</g>
<defs>
<clipPath id="clip0_434_634">
<rect width="46" height="46" fill="white"/>
</clipPath>
</defs>
</svg>
