<svg width="20" height="20" viewBox="0 0 20 20" fill="none" xmlns="http://www.w3.org/2000/svg">
<g clip-path="url(#clip0_295_37)">
<path d="M10 2.88083C9.655 2.88083 9.375 2.60083 9.375 2.25583V0.625C9.375 0.28 9.655 0 10 0C10.345 0 10.625 0.28 10.625 0.625V2.25583C10.625 2.60083 10.345 2.88083 10 2.88083Z" fill="#FFC107"/>
<path d="M15.4759 5.14917C15.3159 5.14917 15.1559 5.08833 15.0342 4.96583C14.79 4.72167 14.79 4.32583 15.0342 4.08167L16.1875 2.92833C16.4317 2.68417 16.8275 2.68417 17.0717 2.92833C17.3159 3.1725 17.3159 3.56833 17.0717 3.8125L15.9184 4.96583C15.7959 5.0875 15.6359 5.14917 15.4759 5.14917Z" fill="#FFC107"/>
<path d="M19.375 10.625H17.7441C17.3991 10.625 17.1191 10.345 17.1191 10C17.1191 9.655 17.3991 9.375 17.7441 9.375H19.375C19.72 9.375 20 9.655 20 10C20 10.345 19.72 10.625 19.375 10.625Z" fill="#FFC107"/>
<path d="M16.6292 17.2542C16.4692 17.2542 16.3092 17.1933 16.1875 17.0708L15.0342 15.9175C14.79 15.6733 14.79 15.2775 15.0342 15.0333C15.2784 14.7892 15.6742 14.7892 15.9184 15.0333L17.0717 16.1867C17.3159 16.4308 17.3159 16.8267 17.0717 17.0708C16.9492 17.1933 16.7892 17.2542 16.6292 17.2542Z" fill="#FFC107"/>
<path d="M3.37089 17.2542C3.21089 17.2542 3.05089 17.1933 2.92922 17.0708C2.68505 16.8267 2.68505 16.4308 2.92922 16.1867L4.08255 15.0333C4.32672 14.7892 4.72255 14.7892 4.96672 15.0333C5.21089 15.2775 5.21089 15.6733 4.96672 15.9175L3.81339 17.0708C3.69089 17.1933 3.53089 17.2542 3.37089 17.2542Z" fill="#FFC107"/>
<path d="M2.25583 10.625H0.625C0.28 10.625 0 10.345 0 10C0 9.655 0.28 9.375 0.625 9.375H2.25583C2.60083 9.375 2.88083 9.655 2.88083 10C2.88083 10.345 2.60083 10.625 2.25583 10.625Z" fill="#FFC107"/>
<path d="M4.52422 5.14917C4.36422 5.14917 4.20422 5.08833 4.08255 4.96583L2.92922 3.8125C2.68505 3.56833 2.68505 3.1725 2.92922 2.92833C3.17339 2.68417 3.56922 2.68417 3.81339 2.92833L4.96672 4.08167C5.21089 4.32583 5.21089 4.72167 4.96672 4.96583C4.84339 5.0875 4.68422 5.14917 4.52422 5.14917Z" fill="#FFC107"/>
<path d="M15.8333 10C15.8333 11.8 15.0166 13.4667 13.6083 14.5833C13.0333 15.0333 12.6583 15.625 12.5416 16.2583C12.5249 16.25 12.5166 16.25 12.4999 16.25H7.49993C7.48327 16.25 7.45827 16.25 7.4416 16.2583C7.32493 15.6 6.98326 15.025 6.4916 14.6583C4.67493 13.2833 3.82493 11.0333 4.2916 8.76667C4.74993 6.55833 6.5416 4.75833 8.74993 4.3C10.5083 3.925 12.3083 4.35833 13.6749 5.46667C15.0499 6.58333 15.8333 8.23333 15.8333 10Z" fill="#FFC107"/>
<path d="M12.5419 16.2583C12.5169 16.4 12.5002 16.5417 12.5002 16.6917V18.5417C12.5002 19.3417 11.8419 20 11.0419 20H8.95856C8.25856 20 7.50023 19.4667 7.50023 18.3V16.825C7.50023 16.6333 7.48356 16.4417 7.44189 16.2583C7.45856 16.25 7.48356 16.25 7.50023 16.25H12.5002C12.5169 16.25 12.5252 16.25 12.5419 16.2583Z" fill="#867338"/>
<path d="M13.1252 10.4167C12.7802 10.4167 12.5002 10.1367 12.5002 9.79167C12.5002 8.5275 11.4727 7.5 10.2085 7.5C9.8635 7.5 9.5835 7.22 9.5835 6.875C9.5835 6.53 9.8635 6.25 10.2085 6.25C12.161 6.25 13.7502 7.83917 13.7502 9.79167C13.7502 10.1367 13.4702 10.4167 13.1252 10.4167Z" fill="#FFD54F"/>
</g>
<defs>
<clipPath id="clip0_295_37">
<rect width="20" height="20" fill="white"/>
</clipPath>
</defs>
</svg>
