<svg width="42" height="42" viewBox="0 0 42 42" fill="none" xmlns="http://www.w3.org/2000/svg">
<path d="M22.8093 11.6514C22.5115 11.9483 22.5115 12.4313 22.8093 12.7282C23.1063 13.0261 23.5883 13.0261 23.8862 12.7282C24.1831 12.4313 24.1831 11.9483 23.8862 11.6514C23.5883 11.3535 23.1063 11.3535 22.8093 11.6514Z" fill="white"/>
<path d="M21.772 13.8454C21.4527 13.5714 20.9719 13.608 20.6978 13.9272C19.8534 14.9113 18.3022 16.768 17.3997 18.1486C17.1694 18.5007 17.2682 18.9729 17.6205 19.2029C17.974 19.4338 18.4453 19.3329 18.6747 18.9821C19.5618 17.625 21.1932 15.6888 21.8538 14.9196C22.1279 14.6003 22.091 14.1195 21.772 13.8454Z" fill="white"/>
<path d="M27.1178 9.49687C25.6292 10.9846 25.6283 13.3936 27.1175 14.882C28.6059 16.3713 31.0146 16.3716 32.503 14.882C33.9911 13.3939 33.9914 10.9855 32.503 9.49717C31.0149 8.0091 28.6062 8.00851 27.1178 9.49687ZM31.4258 13.8052C31.4255 13.8052 31.4255 13.8052 31.4255 13.8052C30.5329 14.6984 29.0885 14.6993 28.1947 13.8049C27.3014 12.9122 27.3008 11.4676 28.195 10.5743C29.088 9.68136 30.5326 9.68136 31.4258 10.5743C32.3185 11.467 32.3188 12.9119 31.4258 13.8052Z" fill="white"/>
<path d="M2.80324 40.274L7.56441 35.5125C7.86196 35.2152 7.86196 34.7329 7.56441 34.4353C7.26686 34.1381 6.78482 34.1381 6.48726 34.4353L1.7261 39.1965C1.42854 39.4941 1.42854 39.9764 1.7261 40.274C2.02365 40.5712 2.50569 40.5712 2.80324 40.274Z" fill="white"/>
<path d="M10.4195 40.274L15.1807 35.5125C15.478 35.2152 15.478 34.7329 15.1807 34.4353C14.8831 34.1381 14.4011 34.1381 14.1033 34.4353L9.34208 39.1965C9.04483 39.4941 9.04483 39.9764 9.34208 40.274C9.63994 40.5712 10.122 40.5712 10.4195 40.274Z" fill="white"/>
<path d="M1.7261 32.6572C2.02365 32.9544 2.50569 32.9544 2.80324 32.6572L7.56441 27.896C7.86196 27.5985 7.86196 27.1161 7.56441 26.8189C7.26686 26.5213 6.78482 26.5213 6.48726 26.8189L1.7261 31.58C1.42854 31.8773 1.42854 32.3596 1.7261 32.6572Z" fill="white"/>
<path d="M40.499 2.30338C40.5112 2.08706 40.4303 1.87579 40.277 1.72255C40.1238 1.56931 39.9122 1.48778 39.6962 1.50058C35.825 1.7166 26.5794 3.57156 20.6539 9.49705C19.3816 10.7694 18.1777 12.1236 17.0678 13.5265C12.317 12.5925 7.47462 14.0589 4.03995 17.4938C3.07498 18.4588 2.25343 19.5493 1.59762 20.7357C1.22836 21.404 1.96778 22.1384 2.63252 21.7709C5.67769 20.0897 9.25876 19.7133 12.5792 20.7003C12.2858 21.368 12.0468 22.0059 11.868 22.6037C11.6657 23.2756 11.807 24.004 12.2334 24.575C12.0204 24.7461 11.8147 24.93 11.6184 25.1264C9.65778 27.087 9.25905 31.8651 9.24299 32.0677C9.20787 32.5117 9.55929 32.8896 10.002 32.8896C10.022 32.8896 10.0422 32.8887 10.0622 32.8872C10.2645 32.8711 15.0435 32.473 17.0044 30.5124C17.2088 30.308 17.3998 30.0935 17.5769 29.8712C18.1309 30.2205 18.7912 30.314 19.3949 30.1325C19.9933 29.9533 20.6316 29.7141 21.2996 29.4207C22.2866 32.7408 21.9102 36.3222 20.229 39.3674C19.8568 40.0413 20.606 40.7656 21.2642 40.402C22.4505 39.7464 23.5411 38.9249 24.506 37.9599C27.9407 34.5253 29.4071 29.6826 28.473 24.9321C29.8763 23.8219 31.2305 22.618 32.5028 21.3457C35.4197 18.4287 37.6297 14.5153 39.0719 9.71397C39.8218 7.33324 40.4017 4.04824 40.499 2.30338ZM4.3985 19.3497C4.62673 19.0813 4.86656 18.8212 5.1171 18.571C8.00962 15.6782 12.0189 14.3469 16.0245 14.8971C14.9278 16.3997 13.9833 17.9006 13.2478 19.3116C10.346 18.3954 7.25264 18.4189 4.3985 19.3497ZM15.9272 29.4353C14.8799 30.4827 12.4221 31.0349 10.8691 31.2605C11.0941 29.7087 11.6457 27.2533 12.6955 26.2035C12.8868 26.0122 13.0886 25.8361 13.2984 25.6754L16.4551 28.8321C16.2947 29.0419 16.1186 29.2437 15.9272 29.4353ZM18.9572 28.6732C18.7204 28.7444 18.4404 28.6631 18.2437 28.4664C17.1558 27.3786 14.0538 24.2766 13.5334 23.7562C13.3364 23.5595 13.2555 23.2792 13.3269 23.0414C13.4965 22.4743 13.7271 21.8634 14.0146 21.2189C15.5163 21.8643 16.8687 22.7829 18.0429 23.9564C19.2167 25.1309 20.1353 26.4832 20.7807 27.985C20.1362 28.2724 19.525 28.5033 18.9572 28.6732ZM23.4289 36.8828C23.1783 37.1333 22.9186 37.3728 22.6499 37.6011C23.5809 34.7469 23.6044 31.6536 22.6883 28.7518C24.099 28.0162 25.5998 27.0718 27.1025 25.975C27.653 29.981 26.3214 33.99 23.4289 36.8828ZM31.4257 20.2685C28.7977 22.8962 25.4445 25.5659 22.1497 27.3143C21.4299 25.6629 20.4138 24.1736 19.12 22.8793C17.8256 21.5858 16.3367 20.5697 14.6853 19.8502C16.4337 16.5553 19.1033 13.2019 21.731 10.5742C24.3826 7.92269 27.9365 5.88623 32.3002 4.51689L37.4827 9.69939C36.1136 14.063 34.0769 17.617 31.4257 20.2685ZM37.9638 8.02595L33.9736 4.03574C36.1017 3.47961 37.8868 3.21955 38.8949 3.10469C38.78 4.11281 38.5203 5.89784 37.9638 8.02595Z" fill="white"/>
</svg>
