<svg width="43" height="43" viewBox="0 0 43 43" fill="none" xmlns="http://www.w3.org/2000/svg">
<g clip-path="url(#clip0_549_73)">
<path d="M11.2639 26.4995C11.6571 26.2727 11.7917 25.7694 11.5649 25.3762C11.3378 24.9833 10.8348 24.8484 10.4416 25.0752C10.0484 25.3023 9.91345 25.8057 10.1406 26.1985C10.3674 26.5917 10.8707 26.7267 11.2639 26.4995Z" fill="white"/>
<path d="M7.89344 32.1757L12.0348 39.3493C12.9285 40.8989 14.9388 41.4727 16.5286 40.5536C18.1017 39.6445 18.6424 37.6345 17.7323 36.0601L15.2652 31.7864L17.4018 30.5528C17.7949 30.3254 17.9299 29.8227 17.7028 29.4295L16.6334 27.5772C16.7609 27.5525 17.5993 27.388 32.3849 24.4875C34.2128 24.3883 35.3079 22.3892 34.3846 20.7911L31.6515 16.0573L33.3981 13.4119C33.5696 13.1517 33.5799 12.8173 33.4241 12.5475L31.7794 9.69872C31.6236 9.42888 31.3277 9.27083 31.0177 9.28914L27.8539 9.47899L24.8198 4.22354C24.3803 3.46221 23.593 3.00123 22.7141 2.99031C22.7035 2.98999 22.6932 2.98999 22.6826 2.98999C21.8332 2.98999 21.0623 3.41274 20.6055 4.12749L9.86262 17.8129L2.8786 21.845C0.131694 23.4303 -0.819812 26.9543 0.7716 29.7086C2.22552 32.2271 5.29077 33.2178 7.89344 32.1757ZM16.3083 36.8828C16.7625 37.6686 16.4936 38.674 15.7056 39.1292C14.9151 39.5863 13.9083 39.3056 13.4592 38.5272L9.34736 31.4044L12.1961 29.7597C16.9549 38.0033 16.2318 36.7508 16.3083 36.8828ZM14.4428 30.3617L13.6205 28.9373L15.0448 28.115L15.8672 29.5393L14.4428 30.3617ZM30.6091 10.9612L31.7457 12.9297L30.7321 14.4646L28.7732 11.0714L30.6091 10.9612ZM21.981 5.02921C22.2017 4.66814 22.5518 4.63087 22.6938 4.63473C22.8342 4.63633 23.184 4.68002 23.3951 5.04559L32.9603 21.6134C33.2719 22.1528 32.8931 22.8309 32.2683 22.8463C32.1562 22.8489 32.1045 22.8691 31.8173 22.9228L21.6993 5.39767C21.9116 5.12461 21.9389 5.09827 21.981 5.02921ZM20.6048 6.79184L30.1112 23.2575L15.7641 26.0716L11.4017 18.5157L20.6048 6.79184ZM2.19597 28.8862C1.8349 28.2614 1.64408 27.5521 1.64408 26.8345C1.64408 25.3677 2.4324 24.0018 3.70097 23.2694L10.1106 19.5687L14.2225 26.6906L7.81281 30.3916C5.84908 31.5249 3.32962 30.8496 2.19597 28.8862Z" fill="white"/>
<path d="M8.71651 27.0209C8.4894 26.6277 7.98634 26.4928 7.59314 26.7199L6.16877 27.5423C5.77622 27.7691 5.2722 27.6338 5.04541 27.2413C4.81829 26.8481 4.31523 26.7132 3.92204 26.9403C3.52884 27.1674 3.39392 27.6705 3.62104 28.0637C4.29789 29.2362 5.8077 29.6496 6.99114 28.9667L8.41551 28.1443C8.80871 27.9172 8.94363 27.4144 8.71651 27.0209Z" fill="white"/>
<path d="M40.883 4.74906L36.3006 7.29904C35.9038 7.52006 35.7609 8.02087 35.9819 8.41759C36.2023 8.814 36.7028 8.95759 37.1005 8.73626L41.6826 6.18628C42.0796 5.96527 42.2223 5.46446 42.0013 5.06773C41.7806 4.67068 41.2798 4.52805 40.883 4.74906Z" fill="white"/>
<path d="M40.4024 13.2662L37.2251 12.415C36.7863 12.2974 36.3352 12.5576 36.2177 12.9964C36.1001 13.4352 36.3606 13.8859 36.7994 14.0035L39.9771 14.8548C40.4185 14.9733 40.8673 14.7089 40.9842 14.2733C41.1018 13.8345 40.8412 13.3835 40.4024 13.2662Z" fill="white"/>
<path d="M32.4186 1.76105L31.5663 4.93873C31.4488 5.37755 31.709 5.82824 32.1478 5.94614C32.5863 6.06339 33.0373 5.80383 33.1552 5.3647L34.0071 2.18701C34.1247 1.7482 33.8645 1.29718 33.4257 1.17961C32.9872 1.06204 32.5361 1.32224 32.4186 1.76105Z" fill="white"/>
</g>
<defs>
<clipPath id="clip0_549_73">
<rect width="42.1053" height="42.1053" fill="white"/>
</clipPath>
</defs>
</svg>
