<svg width="36" height="47" viewBox="0 0 36 47" fill="none" xmlns="http://www.w3.org/2000/svg">
<path d="M25.724 22.8948C30.8739 19.9899 34.4861 14.3524 34.4861 8.01503V0.622559H0.62207V8.01503C0.62207 14.3855 3.95165 19.843 9.14728 22.7368" stroke="white" stroke-width="1.245" stroke-miterlimit="10"/>
<path d="M14.8773 31.1875V39.6382H7.0957V45.6406H28.2508V39.6382H20.1993V31.1875" stroke="white" stroke-width="1.245" stroke-miterlimit="10"/>
<path d="M10.9766 18.2346V0.76123" stroke="white" stroke-width="1.245" stroke-miterlimit="10"/>
<path d="M24.0811 0.76123V18.2346" stroke="white" stroke-width="1.245" stroke-miterlimit="10"/>
<path d="M14.4805 15.5864L14.6004 0.701904" stroke="white" stroke-width="1.245" stroke-miterlimit="10"/>
<path d="M20.46 0.76123V15.5493" stroke="white" stroke-width="1.245" stroke-miterlimit="10"/>
<path d="M9.21837 22.7637C9.52625 18.4609 13.1116 15.0664 17.4894 15.0664C22.0693 15.0664 25.7826 18.7816 25.7826 23.364C25.7826 27.9465 22.0693 31.6615 17.4894 31.6615C12.9095 31.6615 9.19629 27.9465 9.19629 23.364C9.19786 23.1618 9.20417 22.9612 9.21837 22.7637Z" stroke="white" stroke-width="1.245" stroke-miterlimit="10"/>
<path d="M17.5021 18.2114L19.0966 21.4448L22.663 21.9629L20.0833 24.4792L20.6927 28.0318L17.5021 26.3542L14.313 28.0318L14.9224 24.4792L12.3428 21.9629L15.9076 21.4448L17.5021 18.2114Z" stroke="white" stroke-width="1.245" stroke-miterlimit="10"/>
</svg>
