<svg width="40" height="33" viewBox="0 0 40 33" fill="none" xmlns="http://www.w3.org/2000/svg">
<path d="M16.875 29.6875C17.3062 29.6875 17.6562 29.3375 17.6562 28.9062C17.6562 28.475 17.3062 28.125 16.875 28.125C16.4438 28.125 16.0938 28.475 16.0938 28.9062C16.0938 29.3375 16.4438 29.6875 16.875 29.6875Z" fill="white"/>
<path d="M39.2188 25H38.4375V2.34375C38.4375 1.05133 37.3862 0 36.0938 0H3.90625C2.61383 0 1.5625 1.05133 1.5625 2.34375V25H0.78125C0.349731 25 0 25.3497 0 25.7812V27.3438C0 30.3592 2.45331 32.8125 5.46875 32.8125H34.5312C37.5467 32.8125 40 30.3592 40 27.3438V25.7812C40 25.3497 39.6503 25 39.2188 25ZM3.125 2.34375C3.125 1.91284 3.47534 1.5625 3.90625 1.5625H36.0938C36.5247 1.5625 36.875 1.91284 36.875 2.34375V25H3.125V2.34375ZM38.4375 27.3438C38.4375 29.4977 36.6852 31.25 34.5312 31.25H5.46875C3.31482 31.25 1.5625 29.4977 1.5625 27.3438V26.5625H38.4375V27.3438Z" fill="white"/>
<path d="M20 29.6875H23.125C23.5565 29.6875 23.9062 29.3378 23.9062 28.9062C23.9062 28.4747 23.5565 28.125 23.125 28.125H20C19.5685 28.125 19.2188 28.4747 19.2188 28.9062C19.2188 29.3378 19.5685 29.6875 20 29.6875Z" fill="white"/>
<path d="M30.1562 8.59375C30.1562 8.29773 29.989 8.02734 29.7244 7.8949L20.3494 3.2074C20.1294 3.09753 19.8706 3.09753 19.6506 3.2074L10.2756 7.8949C10.011 8.02734 9.84375 8.29773 9.84375 8.59375C9.84375 8.88977 10.011 9.16016 10.2756 9.2926L13.5657 10.9375L10.2756 12.5824C10.011 12.7148 9.84375 12.9852 9.84375 13.2812C9.84375 13.5773 10.011 13.8477 10.2756 13.9801L13.5657 15.625L10.2756 17.2699C10.011 17.4023 9.84375 17.6727 9.84375 17.9688C9.84375 18.2648 10.011 18.5352 10.2756 18.6676L19.6506 23.3551C19.7604 23.41 19.8804 23.4375 20 23.4375C20.1196 23.4375 20.2393 23.41 20.3494 23.3551L29.7244 18.6676C29.989 18.5352 30.1562 18.2648 30.1562 17.9688C30.1562 17.6727 29.989 17.4023 29.7244 17.2699L26.4343 15.625L29.7244 13.9801C29.989 13.8477 30.1562 13.5773 30.1562 13.2812C30.1562 12.9852 29.989 12.7148 29.7244 12.5824L26.4343 10.9375L29.7244 9.2926C29.989 9.16016 30.1562 8.88977 30.1562 8.59375ZM27.6282 17.9688L20 21.7828L12.3718 17.9688L15.3125 16.4984L19.6506 18.6676C19.7604 18.7225 19.8804 18.75 20 18.75C20.1196 18.75 20.2393 18.7225 20.3494 18.6676L24.6875 16.4984L27.6282 17.9688ZM27.6282 13.2812L20 17.0953L12.3718 13.2812L15.3125 11.8109L19.6506 13.9801C19.7604 14.035 19.8804 14.0625 20 14.0625C20.1196 14.0625 20.2393 14.035 20.3494 13.9801L24.6875 11.8109L27.6282 13.2812ZM20 12.4078L12.3718 8.59375L20 4.77966L27.6282 8.59375L20 12.4078Z" fill="white"/>
</svg>
