<svg width="42" height="42" viewBox="0 0 42 42" fill="none" xmlns="http://www.w3.org/2000/svg">
<path d="M14.4375 32.3203C13.9847 32.3203 13.6172 32.6879 13.6172 33.1406C13.6172 33.5934 13.9847 33.9609 14.4375 33.9609C14.8903 33.9609 15.2578 33.5934 15.2578 33.1406C15.2578 32.6879 14.8903 32.3203 14.4375 32.3203Z" fill="white"/>
<path d="M25.4733 34.2718C24.1412 35.1418 22.5945 35.6016 21 35.6016C19.6788 35.6016 18.3657 35.2786 17.2019 34.6679C16.8007 34.4574 16.3047 34.6118 16.0941 35.013C15.8836 35.4142 16.0381 35.9099 16.4392 36.1204C17.8373 36.8542 19.4145 37.2423 21 37.2423C22.9139 37.2423 24.7709 36.6902 26.3705 35.6452C26.7499 35.3975 26.8562 34.8893 26.6086 34.5099C26.3609 34.1305 25.8523 34.0241 25.4733 34.2718Z" fill="white"/>
<path d="M32.2903 7.1438C34.7204 8.26179 36.4594 10.492 36.9427 13.1096C37.0247 13.556 37.4531 13.8499 37.8979 13.7678C38.3436 13.6855 38.6381 13.2577 38.556 12.8123C37.9761 9.6701 35.89 6.99383 32.9757 5.65314C32.5642 5.46376 32.0769 5.64416 31.8878 6.0556C31.6984 6.46736 31.8785 6.95442 32.2903 7.1438Z" fill="white"/>
<path d="M7.89743 26.6425C7.88301 26.8957 7.875 27.1482 7.875 27.3984C7.875 34.6355 13.763 40.5234 21 40.5234C28.237 40.5234 34.125 34.6355 34.125 27.3984C34.125 27.1482 34.117 26.8957 34.1026 26.6425C38.7328 24.6331 42 20.0127 42 14.6016C42 7.36455 36.112 1.47656 28.875 1.47656C26.0324 1.47656 23.2616 2.40518 21 4.10252C18.7384 2.40518 15.9676 1.47656 13.125 1.47656C5.88799 1.47656 0 7.36455 0 14.6016C0 20.0131 3.26779 24.6334 7.89743 26.6425ZM21 38.8828C14.6676 38.8828 9.51562 33.7309 9.51562 27.3984C9.51562 27.3408 9.51691 27.2824 9.51787 27.2241C10.6852 27.5574 11.8942 27.7266 13.125 27.7266C15.9676 27.7266 18.7384 26.7979 21 25.1006C23.2616 26.7979 26.0324 27.7266 28.875 27.7266C30.1058 27.7266 31.3148 27.5574 32.4821 27.2241C32.4831 27.2824 32.4844 27.3408 32.4844 27.3984C32.4844 33.7309 27.3324 38.8828 21 38.8828ZM21 22.9595C19.1482 21.2185 17.9395 18.9451 17.538 16.4453C18.6531 16.0929 19.8144 15.9141 21 15.9141C22.1856 15.9141 23.3469 16.0929 24.462 16.4453C24.0602 18.9454 22.8518 21.2185 21 22.9595ZM26.0183 17.0679C29.348 18.6951 31.739 21.8947 32.3354 25.5553C31.2209 25.9071 30.06 26.0859 28.875 26.0859C26.5108 26.0859 24.2037 25.3521 22.2817 24.0044C24.2216 22.1206 25.5175 19.7138 26.0183 17.0679ZM19.7183 24.0044C17.7963 25.3521 15.4892 26.0859 13.125 26.0859C11.94 26.0859 10.7791 25.9071 9.66463 25.5553C10.2613 21.894 12.6524 18.6948 15.9817 17.0679C16.4825 19.7138 17.7784 22.1206 19.7183 24.0044ZM28.875 3.11719C35.2074 3.11719 40.3594 8.26913 40.3594 14.6016C40.3594 18.9989 37.7978 23.0284 33.8917 24.933C33.0727 20.6309 30.1654 17.0699 26.2276 15.3578C26.242 15.1046 26.25 14.8518 26.25 14.6016C26.25 11.0367 24.8148 7.66415 22.2811 5.19937C24.2031 3.8513 26.5105 3.11719 28.875 3.11719ZM21 6.24399C23.302 8.41141 24.6094 11.419 24.6094 14.6016C24.6094 14.6592 24.6081 14.7176 24.6071 14.7759C23.4398 14.4426 22.2308 14.2734 21 14.2734C19.7692 14.2734 18.5602 14.4426 17.3929 14.7759C17.3919 14.7176 17.3906 14.6592 17.3906 14.6016C17.3906 11.4193 18.698 8.41173 21 6.24399ZM13.125 3.11719C15.4895 3.11719 17.7969 3.85098 19.7189 5.19937C17.1852 7.66415 15.75 11.0367 15.75 14.6016C15.75 14.8518 15.758 15.1046 15.7724 15.3578C11.8349 17.0695 8.92731 20.6302 8.10828 24.933C4.20218 23.0284 1.64062 18.9989 1.64062 14.6016C1.64062 8.26913 6.79257 3.11719 13.125 3.11719Z" fill="white"/>
<path d="M9.71015 7.14366C10.1219 6.95428 10.302 6.46722 10.1126 6.05546C9.92356 5.64403 9.43618 5.46394 9.02474 5.653C6.11039 6.9937 4.02436 9.66997 3.44437 12.8121C3.36234 13.2576 3.65682 13.6853 4.10255 13.7677C4.54763 13.8497 4.97573 13.5552 5.05776 13.1095C5.54098 10.4919 7.27998 8.26166 9.71015 7.14366Z" fill="white"/>
</svg>
