<svg xmlns="http://www.w3.org/2000/svg" viewBox="0 0 400 220" role="img" aria-label="GST registration article cover">
  <defs>
    <linearGradient id="ngBg" x1="0" y1="0" x2="1" y2="1">
      <stop offset="0" stop-color="#3461d6"/>
      <stop offset="1" stop-color="#1a3c8c"/>
    </linearGradient>
  </defs>
  <rect width="400" height="220" fill="url(#ngBg)" rx="12"/>
  <g stroke="#ffffff" stroke-opacity="0.06" stroke-width="1">
    <path d="M0 55 H400 M0 110 H400 M0 165 H400"/>
  </g>
  <text x="32" y="48" font-family="Inter, Arial, sans-serif" font-size="11" font-weight="700" fill="#86b7ff" letter-spacing="2">FILING GUIDE</text>
  <text x="32" y="92" font-family="Inter, Arial, sans-serif" font-size="32" font-weight="800" fill="#ffffff">GST</text>
  <text x="32" y="130" font-family="Inter, Arial, sans-serif" font-size="16" font-weight="600" fill="#cdd9f1">Registration documents</text>
  <text x="32" y="152" font-family="Inter, Arial, sans-serif" font-size="16" font-weight="600" fill="#cdd9f1">&amp; process</text>
  <!-- Floating receipt icon -->
  <g transform="translate(280 50)">
    <path d="M0 0 H80 V130 L72 138 L64 130 L56 138 L48 130 L40 138 L32 130 L24 138 L16 130 L8 138 L0 130 Z" fill="#ffffff" fill-opacity="0.95"/>
    <rect x="10" y="14" width="40" height="6" rx="3" fill="#0a1929"/>
    <rect x="10" y="28" width="60" height="4" rx="2" fill="#7a8aa8"/>
    <rect x="10" y="40" width="50" height="4" rx="2" fill="#7a8aa8"/>
    <line x1="10" y1="56" x2="70" y2="56" stroke="#7a8aa8" stroke-opacity="0.4" stroke-dasharray="2 2"/>
    <rect x="10" y="68" width="22" height="4" rx="2" fill="#0a1929"/>
    <rect x="48" y="68" width="22" height="4" rx="2" fill="#3461d6"/>
    <rect x="10" y="82" width="22" height="4" rx="2" fill="#0a1929"/>
    <rect x="48" y="82" width="22" height="4" rx="2" fill="#3461d6"/>
    <rect x="10" y="100" width="34" height="6" rx="3" fill="#0a1929"/>
    <rect x="50" y="100" width="20" height="6" rx="3" fill="#3461d6"/>
  </g>
</svg>
