<svg xmlns="http://www.w3.org/2000/svg" viewBox="0 0 400 300" role="img" aria-label="Pvt Ltd registration project">
  <defs>
    <linearGradient id="pvtBg" x1="0" y1="0" x2="1" y2="1">
      <stop offset="0" stop-color="#1a3c8c"/>
      <stop offset="1" stop-color="#0a1929"/>
    </linearGradient>
    <linearGradient id="pvtAccent" x1="0" y1="0" x2="0" y2="1">
      <stop offset="0" stop-color="#5d9fff"/>
      <stop offset="1" stop-color="#3461d6"/>
    </linearGradient>
  </defs>
  <rect width="400" height="300" fill="url(#pvtBg)" rx="12"/>
  <g stroke="#4f8cff" stroke-opacity="0.08" stroke-width="1">
    <path d="M0 75 H400 M0 150 H400 M0 225 H400"/>
  </g>
  <!-- Building / company icon -->
  <g transform="translate(140 70)">
    <rect x="0" y="40" width="120" height="120" rx="6" fill="url(#pvtAccent)"/>
    <rect x="10" y="55" width="20" height="20" rx="2" fill="#0a1929" fill-opacity="0.4"/>
    <rect x="40" y="55" width="20" height="20" rx="2" fill="#0a1929" fill-opacity="0.4"/>
    <rect x="70" y="55" width="20" height="20" rx="2" fill="#0a1929" fill-opacity="0.4"/>
    <rect x="100" y="55" width="10" height="20" rx="2" fill="#0a1929" fill-opacity="0.4"/>
    <rect x="10" y="85" width="20" height="20" rx="2" fill="#0a1929" fill-opacity="0.4"/>
    <rect x="40" y="85" width="20" height="20" rx="2" fill="#0a1929" fill-opacity="0.4"/>
    <rect x="70" y="85" width="20" height="20" rx="2" fill="#0a1929" fill-opacity="0.4"/>
    <rect x="100" y="85" width="10" height="20" rx="2" fill="#0a1929" fill-opacity="0.4"/>
    <rect x="50" y="125" width="20" height="35" fill="#0a1929" fill-opacity="0.5"/>
    <polygon points="60,0 0,40 120,40" fill="url(#pvtAccent)"/>
  </g>
  <!-- Status badge -->
  <g transform="translate(20 240)">
    <rect width="110" height="36" rx="18" fill="#22c55e" fill-opacity="0.18" stroke="#22c55e" stroke-opacity="0.4"/>
    <circle cx="22" cy="18" r="8" fill="#22c55e"/>
    <path d="M17 18 l4 4 l8 -8" stroke="#ffffff" stroke-width="2" stroke-linecap="round" stroke-linejoin="round" fill="none"/>
    <text x="38" y="23" font-family="Inter, Arial, sans-serif" font-size="13" font-weight="700" fill="#86efac">Registered</text>
  </g>
  <text x="380" y="265" text-anchor="end" font-family="Inter, Arial, sans-serif" font-size="13" font-weight="600" fill="#5d9fff">PVT LTD · SPICe+</text>
</svg>
