<svg width="46" height="46" viewBox="0 0 46 46" fill="none" xmlns="http://www.w3.org/2000/svg">
<g clip-path="url(#clip0_13_11)">
<path d="M22.8946 28.3754L18.9123 28.336L15.0483 28.2966L16.8226 24.7086L24.2746 24.7743H24.6426H24.6821C24.6952 24.7743 24.7083 24.7743 24.7215 24.7743C24.7478 24.7743 24.7741 24.7743 24.8003 24.7743H24.8398C24.8529 24.7743 24.8529 24.7743 24.8661 24.7743C24.8792 24.7743 24.8923 24.7743 24.9055 24.7743C24.9318 24.7743 24.9581 24.7743 24.9712 24.7874C24.9975 24.7874 25.0238 24.8006 25.0501 24.8006C25.0895 24.8006 25.1158 24.8137 25.1421 24.8137C25.1552 24.8137 25.1815 24.8269 25.1946 24.8269C25.2209 24.8269 25.2472 24.84 25.2603 24.84C25.2866 24.84 25.2998 24.8532 25.3261 24.8532H25.3392H25.3523C25.3655 24.8532 25.3655 24.8532 25.3655 24.8663C25.4049 24.8794 25.4312 24.8926 25.4575 24.9057C25.4706 24.9057 25.4838 24.9189 25.4969 24.9189C25.4969 24.9189 25.5101 24.9189 25.5101 24.932C25.5232 24.932 25.5495 24.9452 25.5626 24.9452C25.5758 24.9452 25.5889 24.9583 25.6021 24.9583C25.6021 24.9583 25.6021 24.9583 25.6152 24.9583C25.6283 24.9583 25.6283 24.9583 25.6283 24.9714C25.6546 24.9846 25.6678 24.9977 25.6941 25.0109C25.7072 25.024 25.7072 25.024 25.7203 25.024C25.7203 25.024 25.7335 25.024 25.7335 25.0372C25.7466 25.0372 25.7466 25.0503 25.7598 25.0503C25.7729 25.0634 25.7861 25.0766 25.7992 25.0897C25.8123 25.1029 25.8255 25.1029 25.8386 25.116C25.8518 25.116 25.8518 25.1292 25.8518 25.1292C25.8649 25.1292 25.8649 25.1292 25.8649 25.1423C25.8781 25.1554 25.8781 25.1554 25.8781 25.1686C25.8912 25.1686 25.8912 25.1817 25.9043 25.1949C25.9175 25.1949 25.9175 25.208 25.9175 25.208C25.9175 25.208 25.9306 25.208 25.9306 25.2212L25.9438 25.2343L25.9569 25.2474C25.9701 25.2606 25.9832 25.2737 25.9963 25.3C26.0095 25.3132 26.0095 25.3132 26.0095 25.3263C26.0226 25.3394 26.0358 25.3657 26.0489 25.392C26.0621 25.4183 26.0752 25.4446 26.0883 25.4577C26.1541 25.5892 26.1803 25.7469 26.1803 25.9046C26.1803 26.128 26.1146 26.3646 25.9963 26.6274C25.9569 26.7194 25.9043 26.8114 25.8386 26.9034C25.8386 26.9166 25.8255 26.9297 25.8123 26.9429C25.7466 27.0349 25.6809 27.1269 25.6021 27.2189C25.5626 27.2583 25.5232 27.3109 25.4838 27.3503C25.2735 27.5606 25.0369 27.7577 24.7609 27.9154C24.4849 28.0732 24.1826 28.1914 23.8672 28.2703C23.5912 28.336 23.2495 28.3754 22.8946 28.3754Z" fill="#3B82F6"/>
<path d="M30.4391 14.9434C30.4786 14.9828 30.5048 15.0223 30.518 15.0617L30.5311 15.0748C30.5837 15.18 30.6231 15.2983 30.6231 15.4297C30.6363 15.6268 30.5837 15.8371 30.4786 16.0737C30.4391 16.1526 30.3997 16.2314 30.334 16.3103C30.334 16.3234 30.3208 16.3234 30.3208 16.3366C30.2288 16.4811 30.1106 16.6257 29.9923 16.744C29.7951 16.9543 29.5586 17.1251 29.3088 17.2697C29.0591 17.4143 28.7963 17.5326 28.5334 17.6114C28.2706 17.6903 27.9946 17.7297 27.7448 17.7297L23.6443 17.7166H20.2534L21.8306 14.5097L29.3088 14.4966H29.3351C29.3877 14.4966 29.4403 14.4966 29.4928 14.5097C29.506 14.5097 29.5323 14.5097 29.5454 14.5097C29.5586 14.5097 29.5717 14.5097 29.5848 14.5097C29.6243 14.5228 29.6768 14.5228 29.7163 14.536C29.7294 14.536 29.7294 14.536 29.7294 14.536C29.782 14.5491 29.8477 14.5623 29.9003 14.5754H29.9134C29.9397 14.5886 29.966 14.5886 29.9791 14.6017C30.0054 14.6148 30.0186 14.6148 30.0448 14.628C30.058 14.628 30.0711 14.6411 30.0843 14.6411C30.1106 14.6543 30.15 14.6674 30.1763 14.6937H30.1894C30.2026 14.6937 30.2157 14.7068 30.2288 14.7068C30.2683 14.7331 30.3208 14.7726 30.3471 14.7988C30.3603 14.8646 30.3997 14.904 30.4391 14.9434Z" fill="#3B82F6"/>
<circle cx="23" cy="23" r="22.5" fill="white"/>
<path d="M46 23C46 23.2366 46 23.4731 45.9869 23.6966C45.908 26.3777 45.3691 28.9406 44.4491 31.3194C44.2783 31.7531 44.0943 32.1868 43.8971 32.6074C43.7526 32.936 43.5817 33.2646 43.424 33.5931C43.2794 33.8823 43.1217 34.1583 42.964 34.4343C42.8326 34.6708 42.688 34.9074 42.5434 35.1308C42.5434 35.144 42.5303 35.144 42.5303 35.144C42.5171 35.1571 42.5171 35.1703 42.504 35.1834C42.4909 35.2097 42.4777 35.2228 42.4646 35.2491C42.4251 35.3148 42.3726 35.3806 42.3331 35.4463C42.2674 35.5383 42.2149 35.6434 42.136 35.7354C42.1097 35.788 42.0834 35.8274 42.044 35.8668C42.044 35.88 42.0309 35.88 42.0309 35.8931C41.9783 35.972 41.9257 36.0508 41.86 36.1297C41.768 36.2743 41.6629 36.4188 41.5709 36.5503C41.5577 36.5634 41.5577 36.5634 41.5577 36.5634C41.5446 36.5766 41.5446 36.5765 41.5314 36.5897C41.5183 36.6291 41.492 36.6554 41.4657 36.6817C41.4394 36.7211 41.4131 36.7606 41.3737 36.8C41.1897 37.0497 41.0057 37.2994 40.7954 37.536C40.7954 37.5491 40.7823 37.5491 40.7823 37.5491C40.6509 37.7068 40.5326 37.8514 40.4011 38.0091C40.112 38.3508 39.7966 38.6794 39.4811 39.008C39.2971 39.192 39.1131 39.3891 38.916 39.5731L38.9029 39.5863C38.7451 39.7308 38.5874 39.8886 38.4297 40.0331C38.364 40.0857 38.3114 40.1383 38.2457 40.1908C38.088 40.3354 37.9303 40.4668 37.7726 40.5983C37.7463 40.6245 37.72 40.6377 37.6937 40.664C37.4966 40.8348 37.2994 40.9926 37.0891 41.1503C36.9709 41.2423 36.8657 41.3211 36.7474 41.4131C36.6686 41.4657 36.5897 41.5314 36.5109 41.584C36.2217 41.7943 35.9326 42.0046 35.6303 42.1886C35.5646 42.2411 35.4857 42.2806 35.4069 42.3331C35.2229 42.4514 35.0389 42.5697 34.8549 42.6748C34.8417 42.6748 34.8286 42.688 34.8154 42.688C34.7234 42.7406 34.6446 42.7931 34.5526 42.8457C34.5263 42.8588 34.4869 42.8851 34.4606 42.8983C34.1714 43.0691 33.8691 43.24 33.5669 43.3846C33.2777 43.5423 32.9754 43.6868 32.6731 43.8314C32.3577 43.976 32.0423 44.1206 31.7269 44.252C31.372 44.3966 31.0171 44.528 30.6623 44.6594C30.2417 44.8171 29.8211 44.9486 29.3874 45.0668C29.164 45.1325 28.9537 45.1983 28.7303 45.2508C28.428 45.3297 28.1257 45.3954 27.8103 45.4611C27.0086 45.6451 26.1806 45.7634 25.3394 45.8554C24.5509 45.9343 23.7491 45.9737 22.9474 45.9737C14.7594 45.9737 7.58343 41.7023 3.50914 35.2623L19.2937 35.5514L22.0669 35.604C22.2246 35.604 22.3691 35.604 22.5269 35.604C22.6714 35.604 22.8291 35.604 22.9737 35.5908C23.0131 35.5908 23.0657 35.5908 23.1183 35.5777C23.2234 35.5777 23.3286 35.5646 23.4206 35.5646C23.5651 35.5514 23.7097 35.5383 23.8674 35.5251C23.9857 35.512 24.104 35.4988 24.2223 35.4857C24.2486 35.4857 24.2617 35.4857 24.288 35.4725C24.38 35.4594 24.4851 35.4463 24.5771 35.4331C24.6034 35.4331 24.6297 35.42 24.656 35.42C24.8269 35.3937 24.9846 35.3674 25.1423 35.3411C25.1817 35.328 25.2343 35.328 25.2737 35.3148C25.3657 35.3017 25.4709 35.2754 25.5629 35.2623C25.6023 35.2491 25.6286 35.2491 25.6549 35.236C25.7206 35.2228 25.7863 35.2097 25.852 35.1965C25.9046 35.1834 25.9571 35.1703 26.0097 35.1571C26.0623 35.144 26.1149 35.1308 26.1674 35.1177C26.3383 35.0783 26.5091 35.0257 26.6669 34.9863C26.8377 34.9337 27.0217 34.8811 27.1926 34.8286C27.232 34.8154 27.2583 34.8154 27.2846 34.8023C27.324 34.7891 27.3503 34.776 27.3897 34.7628C27.4029 34.7628 27.4291 34.7497 27.4423 34.7497C27.5211 34.7234 27.6 34.6971 27.692 34.6577C27.7709 34.6314 27.8497 34.6051 27.9286 34.5657C28.0074 34.5394 28.0863 34.5 28.1651 34.4737C28.244 34.4474 28.3229 34.408 28.4017 34.3817C28.4806 34.3423 28.5594 34.316 28.6383 34.2766C28.7171 34.2371 28.796 34.2108 28.8749 34.1714C28.9537 34.132 29.0326 34.1057 29.1114 34.0663C29.1903 34.0268 29.2691 33.9874 29.348 33.948C29.3874 33.9348 29.4137 33.9086 29.44 33.8954C29.4926 33.8691 29.5451 33.8428 29.5846 33.8166C29.624 33.7903 29.6634 33.7771 29.7029 33.7508C29.716 33.7508 29.7291 33.7377 29.7291 33.7377C29.7423 33.7377 29.7423 33.7246 29.7554 33.7246C29.7817 33.7114 29.7949 33.6983 29.8211 33.6851C29.9 33.6457 29.9789 33.5931 30.0709 33.5537C30.084 33.5537 30.084 33.5406 30.0971 33.5406C30.1103 33.5274 30.1103 33.5274 30.1234 33.5274C30.1497 33.5143 30.176 33.488 30.2154 33.4748C30.2943 33.4223 30.3863 33.3828 30.4651 33.3303C30.4914 33.3171 30.5177 33.304 30.5309 33.2908C30.5571 33.2777 30.5703 33.2646 30.5966 33.2514C30.6886 33.1857 30.7937 33.1331 30.8857 33.0674C30.9514 33.028 31.0171 32.9754 31.096 32.936C31.1223 32.9228 31.1486 32.8966 31.1749 32.8834C31.2669 32.8177 31.3589 32.752 31.4509 32.6863C31.5954 32.5811 31.74 32.476 31.8714 32.3708C31.9503 32.3051 32.0423 32.2394 32.1211 32.1737C32.2131 32.108 32.292 32.0291 32.3709 31.9634C32.384 31.9503 32.4103 31.9371 32.4234 31.924C32.4891 31.8714 32.5417 31.8188 32.6074 31.7531C32.6469 31.7137 32.6863 31.6874 32.7257 31.648C32.752 31.6217 32.7783 31.5954 32.8046 31.5691C32.8703 31.5034 32.936 31.4508 32.9886 31.3851C33.0674 31.3063 33.1463 31.2406 33.2251 31.1486C33.2777 31.096 33.3303 31.0434 33.3829 30.9908C33.5406 30.8331 33.6851 30.6623 33.8297 30.4914C33.9086 30.3994 34.0006 30.2943 34.0794 30.1891C34.1583 30.0971 34.2371 29.992 34.3029 29.9L34.316 29.8868C34.3291 29.8737 34.3423 29.8474 34.3554 29.8343C34.3686 29.8211 34.3686 29.8211 34.3817 29.808C34.4343 29.7423 34.4869 29.6634 34.5263 29.5977C34.6051 29.4926 34.6709 29.3874 34.7366 29.2823C34.7629 29.2428 34.7891 29.2034 34.8023 29.164C34.8417 29.0983 34.8943 29.0326 34.9206 28.9668C35.0126 28.8091 35.1046 28.6514 35.1966 28.4937C35.236 28.428 35.2754 28.3491 35.3149 28.2834C35.3806 28.1651 35.4331 28.0337 35.4989 27.9154C35.5383 27.8234 35.5909 27.7314 35.6171 27.6394C35.6434 27.5737 35.6829 27.4948 35.7091 27.4291C35.7354 27.3766 35.7486 27.324 35.7749 27.2714C35.8011 27.2057 35.8143 27.1531 35.8406 27.1006C35.8537 27.0611 35.8669 27.0348 35.8669 27.0086C35.88 26.9954 35.88 26.9823 35.88 26.9691C35.8931 26.9297 35.9063 26.9034 35.9194 26.864C35.9194 26.8508 35.9326 26.8508 35.9326 26.8377C35.9326 26.8377 35.9326 26.8377 35.9326 26.8246C35.9457 26.7851 35.9589 26.7326 35.972 26.6931C35.972 26.68 35.9851 26.6668 35.9851 26.6537C35.9851 26.6406 35.9983 26.6406 35.9983 26.6274C35.9983 26.6274 35.9983 26.6274 35.9983 26.6143V26.6011C35.9983 26.6011 35.9983 26.6011 35.9983 26.588C36.0114 26.5486 36.0246 26.496 36.0377 26.4434C36.0509 26.4171 36.0509 26.3908 36.064 26.3646C36.064 26.3514 36.064 26.3514 36.064 26.3383C36.0771 26.2726 36.0903 26.2068 36.1034 26.1411C36.1166 26.0754 36.1297 26.0228 36.1429 25.9571C36.1429 25.944 36.1429 25.9308 36.156 25.9177C36.156 25.9046 36.156 25.9046 36.156 25.8914C36.156 25.8783 36.1691 25.852 36.1691 25.8388C36.1823 25.7994 36.1823 25.76 36.1823 25.7206C36.1823 25.7074 36.1954 25.6811 36.1954 25.668C36.1954 25.6417 36.2086 25.6154 36.2086 25.5891C36.2086 25.576 36.2086 25.5497 36.2217 25.5366C36.2217 25.5234 36.2217 25.4971 36.2217 25.484C36.2217 25.4708 36.2217 25.4446 36.2217 25.4314C36.2217 25.4183 36.2217 25.392 36.2217 25.3788C36.2217 25.3657 36.2217 25.3526 36.2217 25.3394C36.2217 25.3263 36.2217 25.3131 36.2217 25.3C36.2217 25.2737 36.2217 25.2474 36.2217 25.2211C36.2217 25.1948 36.2217 25.1686 36.2217 25.1423C36.2217 25.1291 36.2217 25.1028 36.2217 25.0766V25.0503C36.2217 25.0371 36.2217 25.0108 36.2217 24.9977V24.9583C36.2217 24.8926 36.2217 24.84 36.2217 24.7874C36.2217 24.7348 36.2217 24.6823 36.2086 24.6166C36.2086 24.5903 36.2086 24.5508 36.1954 24.5246C36.1954 24.5114 36.1954 24.4851 36.1954 24.4588V24.4457C36.1954 24.4326 36.1954 24.4326 36.1954 24.4194V24.4063C36.1954 24.3668 36.1823 24.3274 36.1823 24.288C36.1823 24.2486 36.1691 24.2091 36.1691 24.1697C36.1691 24.1566 36.1691 24.1434 36.156 24.1303C36.156 24.1171 36.1429 24.0908 36.1429 24.0646C36.1429 24.0251 36.1297 23.9988 36.1297 23.9726C36.1166 23.9331 36.1166 23.9068 36.1034 23.8806C36.0903 23.8148 36.064 23.736 36.0509 23.6703C36.0509 23.6703 36.0509 23.6703 36.0509 23.6571C36.0377 23.6177 36.0377 23.5914 36.0246 23.5651C36.0246 23.5388 36.0114 23.5257 35.9983 23.4994C35.9983 23.4731 35.9851 23.46 35.972 23.4337C35.972 23.4206 35.9589 23.3943 35.9589 23.3811C35.9457 23.3548 35.9457 23.3417 35.9326 23.3154C35.9194 23.2628 35.8931 23.2234 35.8669 23.1708C35.8669 23.1577 35.8669 23.1577 35.8537 23.1577C35.8406 23.1314 35.8274 23.1051 35.8143 23.0657C35.8011 23.0394 35.788 23.0131 35.7749 22.9868C35.7617 22.9737 35.7617 22.9474 35.7486 22.9343C35.6434 22.724 35.512 22.54 35.3674 22.3691C35.144 22.0931 34.8811 21.8566 34.5789 21.6594C34.3686 21.5148 34.1583 21.3966 33.9217 21.2914L33.8823 21.2651C33.5669 21.1206 33.2251 21.0154 32.8571 20.9497C32.844 20.9497 32.8309 20.9497 32.8177 20.9366C32.8046 20.9366 32.7914 20.9366 32.7783 20.9234C32.6731 20.9103 32.5811 20.884 32.476 20.8708C32.5549 20.8577 32.6469 20.8446 32.7257 20.8314C32.7389 20.8314 32.7389 20.8314 32.752 20.8183C32.7651 20.8183 32.7651 20.8183 32.7783 20.8183C32.8703 20.8051 32.9754 20.7788 33.0674 20.7526C33.0806 20.7526 33.1069 20.7394 33.12 20.7394C33.1857 20.7263 33.2514 20.7131 33.3303 20.6868C33.396 20.6737 33.4617 20.6474 33.5274 20.6343C33.5406 20.6343 33.5406 20.6343 33.5537 20.6211C33.5669 20.6211 33.58 20.608 33.5931 20.608C33.7114 20.5686 33.8297 20.5423 33.948 20.5028C34.0006 20.4897 34.04 20.4634 34.0926 20.4503C34.1583 20.4371 34.224 20.4108 34.2766 20.3846C34.3423 20.3714 34.3949 20.3451 34.4606 20.3188C34.5789 20.2794 34.684 20.24 34.8023 20.2006C34.868 20.1743 34.9469 20.1348 35.0257 20.1086C35.0389 20.1086 35.0389 20.0954 35.052 20.0954C35.1046 20.0691 35.1571 20.056 35.2097 20.0297C35.3411 19.9771 35.4594 19.9114 35.5909 19.8588C35.6566 19.8326 35.7091 19.7931 35.7749 19.7668C35.9851 19.6617 36.2086 19.5434 36.4189 19.4251C36.4714 19.3988 36.524 19.3594 36.5766 19.3331C36.6554 19.2937 36.7343 19.2411 36.8131 19.1886C36.9314 19.1097 37.0629 19.0308 37.1811 18.952C37.2074 18.9257 37.2469 18.9126 37.2731 18.8863C37.352 18.8337 37.4309 18.7811 37.5097 18.7286C37.8777 18.4657 38.2326 18.1766 38.5611 17.8743C38.5743 17.8611 38.5743 17.8611 38.5874 17.848C38.7451 17.7034 38.9029 17.5457 39.0606 17.388C39.1526 17.296 39.2314 17.204 39.3103 17.1251C39.376 17.0594 39.4286 16.9937 39.4811 16.928C39.4943 16.9148 39.5206 16.8886 39.5337 16.8754L39.5469 16.8623C39.8491 16.5074 40.1383 16.1263 40.4011 15.732C40.5194 15.5611 40.6246 15.3903 40.7166 15.2194C40.7429 15.1668 40.7823 15.1143 40.8086 15.0617C40.848 14.9828 40.9006 14.904 40.94 14.812C40.9531 14.7726 40.9794 14.7463 40.9926 14.7068C41.0057 14.6806 41.0189 14.6411 41.0451 14.6148C41.0451 14.6017 41.0583 14.6017 41.0583 14.5886C41.0714 14.5754 41.0714 14.5491 41.0846 14.5228C41.0846 14.5097 41.0977 14.5097 41.0977 14.4966C41.1371 14.3914 41.1897 14.2994 41.2291 14.1943C41.2423 14.1548 41.2554 14.1286 41.2686 14.0891C41.2817 14.0497 41.2949 14.0234 41.308 13.984C41.3211 13.9577 41.3211 13.9314 41.3343 13.9051C41.3606 13.8263 41.3869 13.7474 41.4131 13.6686C41.4131 13.6554 41.4263 13.6554 41.4263 13.6423C41.4394 13.616 41.4394 13.6028 41.4394 13.5766C41.4526 13.5108 41.4789 13.4451 41.492 13.3794C41.5051 13.3137 41.5314 13.2611 41.5314 13.1954C41.5446 13.1691 41.5446 13.1297 41.5577 13.1034C41.5577 13.0903 41.5709 13.064 41.5709 13.0508C41.584 12.9983 41.584 12.9588 41.5971 12.9063C41.6103 12.8668 41.6103 12.8274 41.6103 12.788C41.6103 12.7748 41.6234 12.7486 41.6234 12.7354C41.6234 12.7223 41.6366 12.696 41.6366 12.6828C41.6497 12.6434 41.6497 12.5908 41.6497 12.5514C41.6497 12.512 41.6629 12.4594 41.6629 12.42C41.6629 12.3937 41.6629 12.3806 41.6629 12.3543C41.676 12.2491 41.676 12.1571 41.676 12.052C41.676 12.0388 41.676 12.0388 41.676 12.0257C41.676 11.8286 41.6629 11.6314 41.6366 11.4211C41.6366 11.4211 41.6366 11.4211 41.6366 11.408C41.6234 11.3291 41.6103 11.2371 41.5971 11.1583C41.5971 11.1451 41.5971 11.1451 41.5971 11.132C41.584 11.0531 41.5577 10.9743 41.5314 10.8954C41.5183 10.8297 41.492 10.7771 41.4789 10.7114C41.4657 10.672 41.4526 10.6326 41.4394 10.5931C41.4394 10.58 41.4263 10.5537 41.4263 10.5406C41.4263 10.5274 41.4131 10.5274 41.4131 10.5143C41.4 10.488 41.4 10.4748 41.3737 10.4486C41.3737 10.4354 41.3606 10.4223 41.3606 10.4091C41.3606 10.396 41.3606 10.396 41.3474 10.3828C41.3343 10.3697 41.3474 10.3697 41.3343 10.3697C41.3343 10.3566 41.3211 10.3434 41.3211 10.3303C41.3211 10.3171 41.308 10.2908 41.2949 10.2777C41.2817 10.2646 41.2817 10.2383 41.2686 10.2251C41.1897 10.0674 41.0977 9.90969 40.9926 9.75198C40.5194 9.08169 39.7966 8.51655 38.7714 8.12227C37.7463 7.72798 36.432 7.50455 34.7629 7.5177L15.6006 7.66227L2.65486 33.7377C0.959429 30.5308 0 26.8771 0 23C0 10.304 10.304 -1.90735e-05 23 -1.90735e-05C33.948 -1.90735e-05 43.1217 7.66227 45.4349 17.9137C45.4349 17.9268 45.448 17.94 45.448 17.9531C45.4743 18.0583 45.5006 18.1766 45.5137 18.2817C45.5531 18.492 45.5926 18.6891 45.632 18.8994C45.6846 19.1754 45.724 19.4646 45.7634 19.7406C45.816 20.0823 45.8554 20.4371 45.8817 20.792C45.9211 21.2126 45.9474 21.6331 45.9606 22.0537C45.9869 22.3691 46 22.6846 46 23Z" fill="#3B82F6"/>
<path d="M21.8174 14.5229L23.6311 17.7297H20.2534L21.8174 14.5229Z" fill="#3B82F6"/>
<path d="M26.128 25.4446C26.1937 25.576 26.22 25.7337 26.22 25.8915C26.22 26.1149 26.1543 26.3515 26.036 26.6143C25.9965 26.7063 25.944 26.7983 25.8782 26.8903C25.8782 26.9035 25.8651 26.9166 25.852 26.9297C25.7862 27.0217 25.7205 27.1137 25.6417 27.2057L24.2485 24.7612H24.6165H24.656C24.6691 24.7612 24.6822 24.7612 24.6954 24.7612C24.7217 24.7612 24.748 24.7612 24.7742 24.7612H24.8137C24.8268 24.7612 24.8268 24.7612 24.84 24.7612C24.8531 24.7612 24.8662 24.7612 24.8794 24.7612C24.9057 24.7612 24.932 24.7612 24.9451 24.7743C24.9714 24.7743 24.9977 24.7875 25.024 24.7875C25.0634 24.7875 25.0897 24.8006 25.116 24.8006C25.1291 24.8006 25.1554 24.8137 25.1685 24.8137C25.1948 24.8137 25.2211 24.8269 25.2342 24.8269C25.2605 24.8269 25.2737 24.84 25.3 24.84H25.3131H25.3262C25.3394 24.84 25.3394 24.84 25.3394 24.8532C25.3788 24.8663 25.4051 24.8795 25.4314 24.8926C25.4445 24.8926 25.4577 24.9057 25.4708 24.9057C25.4708 24.9057 25.484 24.9058 25.484 24.9189C25.4971 24.9189 25.5234 24.932 25.5365 24.932C25.5497 24.932 25.5628 24.9452 25.576 24.9452C25.576 24.9452 25.576 24.9452 25.5891 24.9452C25.6022 24.9452 25.6022 24.9452 25.6022 24.9583C25.6285 24.9715 25.6417 24.9846 25.668 24.9977C25.6811 25.0109 25.6811 25.0109 25.6942 25.0109C25.6942 25.0109 25.7074 25.0109 25.7074 25.024C25.7205 25.024 25.7205 25.0372 25.7337 25.0372C25.7468 25.0503 25.76 25.0635 25.7731 25.0766C25.7863 25.0897 25.7994 25.0897 25.8125 25.1029C25.8257 25.1029 25.8257 25.116 25.8257 25.116C25.8388 25.116 25.8388 25.116 25.8388 25.1292C25.852 25.1423 25.852 25.1423 25.852 25.1555C25.8651 25.1555 25.8651 25.1686 25.8782 25.1818C25.8914 25.1818 25.8914 25.1949 25.8914 25.1949C25.8914 25.1949 25.9045 25.1949 25.9045 25.208L25.9177 25.2212L25.9308 25.2343C25.944 25.2475 25.9571 25.2606 25.9703 25.2869C25.9834 25.3 25.9834 25.3 25.9834 25.3132C25.9965 25.3263 26.0097 25.3526 26.0228 25.3789C26.1017 25.4052 26.1148 25.4315 26.128 25.4446Z" fill="#3B82F6"/>
<path d="M36.9053 41.1634L36.787 41.4263C36.7082 41.4789 36.6293 41.5446 36.5505 41.5971C36.2613 41.8074 35.9722 42.0177 35.6699 42.2017C35.6042 42.2543 35.5253 42.2937 35.4465 42.3463C35.2625 42.4646 35.0785 42.5829 34.8945 42.688C34.8813 42.688 34.8682 42.7011 34.855 42.7011C34.763 42.7537 34.6842 42.8063 34.5922 42.8589L29.519 33.9611C29.5716 33.9349 29.6242 33.9086 29.6636 33.8823C29.703 33.856 29.7425 33.8429 29.7819 33.8166C29.795 33.8166 29.8082 33.8034 29.8082 33.8034C29.8213 33.8034 29.8213 33.7903 29.8345 33.7903C29.8608 33.7771 29.8739 33.764 29.9002 33.7509C29.979 33.7114 30.0579 33.6589 30.1499 33.6194C30.163 33.6194 30.163 33.6063 30.1762 33.6063C30.1893 33.5931 30.1893 33.5931 30.2025 33.5931C30.2288 33.58 30.255 33.5537 30.2945 33.5406C30.3733 33.488 30.4653 33.4486 30.5442 33.396C30.5705 33.3829 30.5968 33.3697 30.6099 33.3566C30.6362 33.3434 30.6493 33.3303 30.6756 33.3171C30.7676 33.2514 30.8728 33.1989 30.9648 33.1331C31.0305 33.0937 31.0962 33.0411 31.175 33.0017C31.2013 32.9886 31.2276 32.9623 31.2539 32.9491C31.3459 32.8834 31.4379 32.8177 31.5299 32.752C31.6745 32.6469 31.819 32.5417 31.9505 32.4366L36.9053 41.1634Z" fill="#3B82F6"/>
<path d="M29.2952 14.5097L30.3203 16.3497C30.2283 16.4943 30.11 16.6389 29.9918 16.7571C29.7946 16.9674 29.558 17.1383 29.3083 17.2829C29.0586 17.4274 28.7958 17.5457 28.5329 17.6246C28.27 17.7034 27.994 17.7429 27.7443 17.7429L23.6438 17.7297L21.8169 14.5229L29.2952 14.5097Z" fill="#3B82F6"/>
<path d="M32.8833 21.0285C32.7782 21.0154 32.6862 20.9891 32.5811 20.976C32.6599 20.9628 32.7519 20.9497 32.8308 20.9365C32.8439 20.9365 32.8439 20.9365 32.8571 20.9234L32.9228 21.0285C32.9096 21.0285 32.8833 21.0285 32.8833 21.0285Z" fill="#3B82F6"/>
<path d="M41.5581 36.5897C41.5449 36.6029 41.5449 36.6029 41.5318 36.616C41.5186 36.6555 41.4924 36.6817 41.4661 36.708C41.4398 36.7475 41.4135 36.7869 41.3741 36.8263C41.1901 37.076 41.0061 37.3257 40.7958 37.5623C40.7958 37.5755 40.7826 37.5755 40.7826 37.5755C40.6512 37.7332 40.5329 37.8777 40.4015 38.0355C40.1124 38.3772 39.7969 38.7057 39.4815 39.0343C39.2975 39.2183 39.1135 39.4155 38.9164 39.5995L38.9032 39.6126C38.7455 39.7572 38.5878 39.9149 38.4301 40.0595C38.3644 40.112 38.3118 40.1646 38.2461 40.2172C38.0884 40.3617 37.9306 40.4932 37.7729 40.6246C37.7466 40.6509 37.7204 40.664 37.6941 40.6903C37.4969 40.8612 37.2998 41.0189 37.0895 41.1766H36.8792L31.9375 32.4366C32.0164 32.3709 32.1084 32.3052 32.1872 32.2395C32.2792 32.1737 32.3581 32.0949 32.4369 32.0292C32.4501 32.016 32.4764 32.0029 32.4895 31.9897C32.5552 31.9372 32.6078 31.8846 32.6735 31.8189C32.7129 31.7795 32.7524 31.7532 32.7918 31.7137C32.8181 31.6875 32.8444 31.6612 32.8706 31.6349C32.9364 31.5692 33.0021 31.5166 33.0546 31.4509C33.1335 31.372 33.2124 31.3063 33.2912 31.2143C33.3438 31.1617 33.3964 31.1092 33.4489 31.0566C33.6066 30.8989 33.7512 30.728 33.8958 30.5572C33.9746 30.4652 34.0666 30.36 34.1455 30.2549C34.2244 30.1629 34.3032 30.0577 34.3689 29.9657L34.3821 29.9526C34.3952 29.9395 34.4084 29.9132 34.4215 29.9C34.4346 29.8869 34.4346 29.8869 34.4478 29.8737C34.5004 29.808 34.5529 29.7292 34.5924 29.6635C34.6712 29.5583 34.7369 29.4532 34.8026 29.348C34.8289 29.3086 34.8552 29.2692 34.8684 29.2297C34.9078 29.164 34.9604 29.0983 34.9866 29.0326C35.0786 28.8749 35.1706 28.7172 35.2626 28.5595C35.3021 28.4937 35.3415 28.4149 35.3809 28.3492C35.4466 28.2309 35.4992 28.0995 35.5649 27.9812C35.6044 27.8892 35.6569 27.7972 35.6832 27.7052C35.7095 27.6395 35.7489 27.5606 35.7752 27.4949C35.8015 27.4423 35.8146 27.3897 35.8409 27.3372C35.8672 27.2715 35.8804 27.2189 35.9066 27.1663C35.9198 27.1269 35.9329 27.1006 35.9329 27.0743C35.9461 27.0612 35.9461 27.048 35.9461 27.0349C35.9592 26.9955 35.9724 26.9692 35.9855 26.9297C35.9855 26.9166 35.9986 26.9166 35.9986 26.9035C35.9986 26.9035 35.9986 26.9035 35.9986 26.8903C36.0118 26.8509 36.0249 26.7983 36.0381 26.7589C36.0381 26.7457 36.0512 26.7326 36.0512 26.7195L41.5581 36.5897Z" fill="#3B82F6"/>
<path d="M30.531 15.0748C30.5835 15.18 30.623 15.2983 30.623 15.4297C30.6361 15.6268 30.5835 15.8371 30.4784 16.0737C30.439 16.1525 30.3995 16.2314 30.3338 16.3103L29.335 14.4965C29.3875 14.4965 29.4401 14.4965 29.4927 14.5097C29.5058 14.5097 29.5321 14.5097 29.5452 14.5097C29.5584 14.5097 29.5715 14.5097 29.5847 14.5097C29.6241 14.5228 29.6767 14.5228 29.7161 14.536C29.7292 14.536 29.7292 14.536 29.7292 14.536C29.7818 14.5491 29.8475 14.5623 29.9001 14.5754H29.9132C29.9395 14.5885 29.9658 14.5885 29.979 14.6017C30.0052 14.6148 30.0184 14.6148 30.0447 14.628C30.0578 14.628 30.071 14.6411 30.0841 14.6411C30.1104 14.6543 30.1498 14.6674 30.1761 14.6937H30.1892C30.2024 14.6937 30.2155 14.7068 30.2287 14.7068C30.2681 14.7331 30.3207 14.7725 30.347 14.7988C30.3864 14.8383 30.4127 14.8645 30.4521 14.904C30.4915 14.9434 30.5178 14.9828 30.531 15.0223C30.5178 15.0617 30.531 15.0748 30.531 15.0748Z" fill="#3B82F6"/>
<path d="M33.6592 20.7394L34.0141 21.3834L33.9746 21.3571C33.6592 21.2125 33.3175 21.1074 32.9495 21.0417L32.8838 20.9234C32.9758 20.9102 33.0809 20.884 33.1729 20.8577C33.1861 20.8577 33.2124 20.8445 33.2255 20.8445C33.2912 20.8314 33.3569 20.8182 33.4358 20.792C33.5015 20.7788 33.5672 20.7525 33.6329 20.7394C33.6461 20.7394 33.6461 20.7394 33.6592 20.7394Z" fill="#3B82F6"/>
<path d="M42.0445 35.8931C42.0445 35.9062 42.0313 35.9062 42.0313 35.9194C41.9787 35.9982 41.9262 36.0771 41.8605 36.1559C41.7685 36.3005 41.6633 36.4451 41.5713 36.5765L36.0645 26.6668V26.6537C36.0645 26.6537 36.0645 26.6537 36.0645 26.6405C36.0776 26.6011 36.0907 26.5485 36.1039 26.4959C36.117 26.4697 36.117 26.4434 36.1302 26.4171C36.1302 26.4039 36.1302 26.4039 36.1302 26.3908C36.1433 26.3251 36.1565 26.2594 36.1696 26.1937C36.1827 26.1279 36.1959 26.0754 36.209 26.0097C36.209 25.9965 36.209 25.9834 36.2222 25.9702C36.2222 25.9571 36.2222 25.9571 36.2222 25.9439C36.2222 25.9308 36.2353 25.9045 36.2353 25.8914C36.2485 25.8519 36.2485 25.8125 36.2485 25.7731C36.2485 25.7599 36.2616 25.7337 36.2616 25.7205C36.2616 25.6942 36.2747 25.6679 36.2747 25.6417C36.2747 25.6285 36.2747 25.6022 36.2879 25.5891C36.2879 25.5759 36.2879 25.5497 36.2879 25.5365C36.2879 25.5234 36.2879 25.4971 36.2879 25.4839L42.0445 35.8931Z" fill="#3B82F6"/>
<path d="M29.3217 14.5095L30.3205 16.3232C30.3205 16.3363 30.3074 16.3363 30.3074 16.3495L29.2822 14.5095H29.3217Z" fill="#3B82F6"/>
<path d="M32.8837 20.9234L32.9494 21.0417C32.9362 21.0417 32.9231 21.0417 32.91 21.0285L32.8442 20.9234C32.8574 20.9234 32.8705 20.9234 32.8837 20.9234Z" fill="#3B82F6"/>
<path d="M41.5713 36.5765C41.5582 36.5897 41.5582 36.5897 41.5582 36.5897L36.0645 26.6931C36.0645 26.68 36.0776 26.68 36.0776 26.6668C36.0776 26.6668 36.0776 26.6668 36.0776 26.6537L41.5713 36.5765Z" fill="#3B82F6"/>
<path d="M16.8232 24.7086L18.926 28.336L15.062 28.2834L16.8232 24.7086Z" fill="#3B82F6"/>
<path d="M28.7832 45.2772C28.481 45.356 28.1787 45.4217 27.8633 45.4875C27.0615 45.6715 26.2335 45.7897 25.3924 45.8817L19.3467 35.5909L22.1198 35.6435C22.2775 35.6435 22.4221 35.6435 22.5798 35.6435C22.7244 35.6435 22.8821 35.6435 23.0267 35.6303C23.0661 35.6303 23.1187 35.6303 23.1713 35.6172L28.7832 45.2772Z" fill="#3B82F6"/>
<path d="M25.865 26.9297C25.7993 27.0217 25.7336 27.1137 25.6548 27.2057C25.6153 27.2452 25.5759 27.2977 25.5365 27.3372C25.3262 27.5474 25.0896 27.7446 24.8136 27.9023C24.5376 28.06 24.2353 28.1783 23.9199 28.2572C23.6045 28.336 23.2496 28.3754 22.9079 28.3754L18.9256 28.336L16.8228 24.7086L24.2748 24.7743H24.6428L25.865 26.9297Z" fill="#3B82F6"/>
<path d="M34.868 42.7143C34.776 42.7669 34.6972 42.8195 34.6052 42.872C34.5789 42.8852 34.5395 42.9115 34.5132 42.9246C34.224 43.0955 33.9218 43.2663 33.6195 43.4109C33.3303 43.5686 33.028 43.7132 32.7258 43.8577C32.4103 44.0023 32.0949 44.1469 31.7795 44.2783C31.4246 44.4229 31.0698 44.5543 30.7149 44.6857C30.2943 44.8435 29.8738 44.9749 29.44 45.0932C29.2166 45.1589 29.0063 45.2246 28.7829 45.2772L23.1709 35.6172C23.276 35.6172 23.3812 35.604 23.4732 35.604C23.6178 35.5909 23.7623 35.5777 23.92 35.5646C24.0383 35.5515 24.1566 35.5383 24.2749 35.5252C24.3012 35.5252 24.3143 35.5252 24.3406 35.512C24.4326 35.4989 24.5378 35.4857 24.6298 35.4726C24.656 35.4726 24.6823 35.4595 24.7086 35.4595C24.8795 35.4332 25.0372 35.4069 25.1949 35.3806C25.2343 35.3675 25.2869 35.3675 25.3263 35.3543C25.4183 35.3412 25.5235 35.3149 25.6155 35.3017C25.6549 35.2886 25.6812 35.2886 25.7075 35.2755C25.7732 35.2623 25.8389 35.2492 25.9046 35.236C25.9572 35.2229 26.0098 35.2097 26.0623 35.1966C26.1149 35.1835 26.1675 35.1703 26.22 35.1572C26.3909 35.1177 26.5618 35.0652 26.7195 35.0257C26.8903 34.9732 27.0743 34.9206 27.2452 34.868C27.2846 34.8549 27.3109 34.8417 27.3372 34.8417C27.3766 34.8286 27.4029 34.8155 27.4423 34.8023C27.4555 34.8023 27.4818 34.7892 27.4949 34.7892C27.5738 34.7629 27.6526 34.7366 27.7446 34.6972C27.8235 34.6709 27.9023 34.6446 27.9812 34.6052C28.06 34.5789 28.1389 34.5395 28.2178 34.5132C28.2966 34.4869 28.3755 34.4475 28.4543 34.4212C28.5332 34.3817 28.612 34.3555 28.6909 34.316C28.7698 34.2766 28.8486 34.2503 28.9275 34.2109C29.0063 34.1715 29.0852 34.1452 29.164 34.1057C29.2429 34.0663 29.3218 34.0269 29.4006 33.9875C29.44 33.9743 29.4663 33.948 29.4926 33.9349C29.5452 33.9086 29.5978 33.8823 29.6372 33.856C29.6766 33.8297 29.716 33.8166 29.7555 33.7903L34.868 42.7143Z" fill="#3B82F6"/>
<path d="M26.2335 25.9045C26.2335 26.128 26.1678 26.3645 26.0495 26.6274C26.01 26.7194 25.9575 26.8114 25.8918 26.9034L24.6826 24.7874C24.6958 24.7874 24.7089 24.7874 24.722 24.7874C24.7483 24.7874 24.7746 24.7874 24.8009 24.7874H24.8403C24.8535 24.7874 24.8535 24.7874 24.8666 24.7874C24.8798 24.7874 24.8929 24.7874 24.906 24.7874C24.9323 24.7874 24.9586 24.7874 24.9718 24.8005C24.998 24.8005 25.0243 24.8137 25.0506 24.8137C25.09 24.8137 25.1163 24.8268 25.1426 24.8268C25.1558 24.8268 25.182 24.84 25.1952 24.84C25.2215 24.84 25.2478 24.8531 25.2609 24.8531C25.2872 24.8531 25.3003 24.8663 25.3266 24.8663H25.3398H25.3529C25.366 24.8663 25.366 24.8663 25.366 24.8794C25.4055 24.8925 25.4318 24.9057 25.458 24.9188C25.4712 24.9188 25.4843 24.932 25.4975 24.932C25.4975 24.932 25.5106 24.932 25.5106 24.9451C25.5238 24.9451 25.55 24.9583 25.5632 24.9583C25.5763 24.9583 25.5895 24.9714 25.6026 24.9714C25.6026 24.9714 25.6026 24.9714 25.6158 24.9714C25.6289 24.9714 25.6289 24.9714 25.6289 24.9845C25.6552 24.9977 25.6683 25.0108 25.6946 25.024C25.7078 25.0371 25.7078 25.0371 25.7209 25.0371C25.7209 25.0371 25.734 25.0371 25.734 25.0503C25.7472 25.0503 25.7472 25.0634 25.7603 25.0634C25.7735 25.0765 25.7866 25.0897 25.7998 25.1028C25.8129 25.116 25.826 25.116 25.8392 25.1291C25.8523 25.1291 25.8523 25.1423 25.8523 25.1423C25.8655 25.1423 25.8655 25.1423 25.8655 25.1554C25.8786 25.1685 25.8786 25.1685 25.8786 25.1817C25.8918 25.1817 25.8918 25.1948 25.9049 25.208C25.918 25.208 25.918 25.2211 25.918 25.2211C25.918 25.2211 25.9312 25.2211 25.9312 25.2343L25.9443 25.2474L25.9575 25.2605C25.9706 25.2737 25.9838 25.2868 25.9969 25.3131C26.0232 25.3394 26.0363 25.3657 26.0495 25.392C26.0626 25.4183 26.0758 25.4445 26.0889 25.4577C26.2072 25.5891 26.2335 25.7337 26.2335 25.9045Z" fill="#3B82F6"/>
<path d="M35.6699 42.2017C35.6042 42.2543 35.5253 42.2937 35.4465 42.3463C35.2625 42.4646 35.0785 42.5828 34.8945 42.688L29.8345 33.8034C29.8476 33.8034 29.8476 33.7903 29.8608 33.7903C29.887 33.7771 29.9002 33.764 29.9265 33.7509C30.0053 33.7114 30.0842 33.6589 30.1762 33.6194C30.1893 33.6194 30.1893 33.6063 30.2025 33.6063C30.2156 33.5931 30.2156 33.5931 30.2288 33.5931C30.255 33.58 30.2813 33.5537 30.3208 33.5406C30.3996 33.488 30.4916 33.4486 30.5705 33.396C30.5968 33.3829 30.623 33.3697 30.6362 33.3566L35.6699 42.2017Z" fill="#3B82F6"/>
<path d="M25.8916 26.8903C25.8916 26.9034 25.8785 26.9166 25.8653 26.9297L24.6299 24.7743H24.6693L25.8916 26.8903Z" fill="#3B82F6"/>
<path d="M34.8948 42.688C34.8817 42.688 34.8686 42.7012 34.8554 42.7012L29.7954 33.8166C29.8086 33.8166 29.8217 33.8035 29.8217 33.8035L34.8948 42.688Z" fill="#3B82F6"/>
<path d="M41.3867 10.3566L41.413 10.4091C41.3999 10.396 41.3999 10.396 41.3999 10.3829C41.3999 10.3697 41.3999 10.3566 41.3867 10.3566Z" fill="white"/>
<path d="M45.4348 17.9532L41.4525 10.488C41.4525 10.4749 41.4525 10.4749 41.4394 10.4749C41.4394 10.4617 41.4394 10.4617 41.4262 10.4617C41.4262 10.4486 41.4131 10.4354 41.4131 10.4223L45.4217 17.9269C45.4348 17.9269 45.4348 17.94 45.4348 17.9532Z" fill="white"/>
<path d="M45.5133 18.2686L41.6493 11.0532C41.6493 11.0269 41.6361 11.0137 41.6361 10.9874C41.623 10.9217 41.5967 10.8692 41.5836 10.8034C41.5704 10.764 41.5573 10.7246 41.5442 10.6852C41.5442 10.672 41.531 10.6457 41.531 10.6326C41.531 10.6194 41.5179 10.6194 41.5179 10.6063C41.5047 10.58 41.5047 10.5669 41.4784 10.5406C41.4784 10.5274 41.4653 10.5143 41.4653 10.5012C41.4653 10.488 41.4653 10.488 41.4521 10.4749L45.4344 17.94C45.4607 18.0583 45.487 18.1634 45.5133 18.2686Z" fill="#3B82F6"/>
<path d="M41.7682 11.6577C41.7682 11.6051 41.7551 11.5526 41.7551 11.5131C41.7551 11.5131 41.7551 11.5131 41.7551 11.5C41.7551 11.4737 41.7419 11.4474 41.7419 11.4211C41.7419 11.3949 41.7288 11.3817 41.7288 11.3554C41.7157 11.316 41.7157 11.2897 41.7025 11.2634C41.7025 11.2503 41.7025 11.2503 41.7025 11.2371C41.7025 11.224 41.7025 11.224 41.7025 11.2109C41.6894 11.1583 41.6762 11.1189 41.6631 11.0663L45.5271 18.2817C45.5665 18.492 45.6059 18.6891 45.6454 18.8994L41.7682 11.6577Z" fill="#3B82F6"/>
<path d="M41.7812 12.0126V11.9731C41.7812 11.9206 41.7812 11.868 41.768 11.8154C41.768 11.7629 41.7549 11.7103 41.7549 11.6709L45.632 18.8994C45.6846 19.1754 45.724 19.4646 45.7635 19.7406L41.7812 12.3017V12.2229C41.7812 12.1966 41.7812 12.1571 41.7812 12.1309C41.7812 12.1177 41.7812 12.1177 41.7812 12.1046C41.7812 12.0783 41.7812 12.052 41.7812 12.0126Z" fill="#3B82F6"/>
<path d="M45.8948 20.7789L41.7153 12.972C41.7285 12.9326 41.7285 12.8932 41.7285 12.8537C41.7285 12.8406 41.7416 12.8143 41.7416 12.788C41.7416 12.7749 41.7416 12.7617 41.7416 12.7486C41.7548 12.7092 41.7548 12.6566 41.7548 12.6172C41.7548 12.5777 41.7679 12.5252 41.7679 12.4857C41.7679 12.4594 41.7679 12.4463 41.7679 12.42C41.7679 12.3806 41.781 12.3543 41.781 12.328C41.781 12.3149 41.781 12.3017 41.781 12.2886L45.7633 19.7274C45.8159 20.0823 45.8553 20.424 45.8948 20.7789Z" fill="#3B82F6"/>
<path d="M45.9735 22.0406L41.5181 13.7474C41.5181 13.7343 41.5312 13.7343 41.5312 13.7211C41.5444 13.6949 41.5444 13.6817 41.5444 13.6554C41.5575 13.616 41.5575 13.5897 41.5706 13.5634C41.5838 13.5371 41.5838 13.4977 41.5969 13.4714C41.6101 13.4057 41.6364 13.3531 41.6364 13.2874C41.6495 13.2611 41.6495 13.2217 41.6626 13.1954C41.6626 13.1823 41.6758 13.156 41.6758 13.1429C41.6889 13.0903 41.6889 13.0509 41.7021 12.9983L45.8815 20.8051C45.9341 21.1994 45.9604 21.62 45.9735 22.0406Z" fill="#3B82F6"/>
<path d="M46.0001 23C46.0001 23.2366 46.0001 23.4732 45.9869 23.6966L41.1372 14.6937C41.1372 14.6806 41.1504 14.6806 41.1504 14.6675C41.1635 14.6543 41.1635 14.628 41.1766 14.6017C41.1766 14.5886 41.1898 14.5886 41.1898 14.5755C41.2292 14.5097 41.2555 14.444 41.2818 14.3652C41.2949 14.3389 41.2949 14.3126 41.3081 14.2995C41.3081 14.2863 41.3212 14.2863 41.3212 14.2732C41.3343 14.2337 41.3475 14.2075 41.3606 14.168C41.3738 14.1286 41.3869 14.1023 41.4001 14.0629C41.4132 14.0366 41.4132 14.0103 41.4264 13.984C41.4526 13.9052 41.4789 13.8263 41.5052 13.7475L45.9606 22.0406C45.9869 22.3692 46.0001 22.6846 46.0001 23Z" fill="#3B82F6"/>
<path d="M45.9863 23.7097C45.9074 26.3909 45.3686 28.9537 44.4486 31.3326L37.6274 18.8468C37.9954 18.584 38.3503 18.2948 38.6789 17.9926C38.692 17.9794 38.692 17.9794 38.7052 17.9663C38.8629 17.8217 39.0206 17.664 39.1783 17.5063C39.2703 17.4143 39.3492 17.3223 39.428 17.2434C39.4937 17.1777 39.5463 17.112 39.5989 17.0463C39.612 17.0331 39.6383 17.0069 39.6514 16.9937L39.6646 16.9806C39.9669 16.6257 40.256 16.2446 40.5189 15.8503C40.6372 15.6794 40.7423 15.5086 40.8343 15.3377C40.8606 15.2851 40.9 15.2326 40.9263 15.18C40.9657 15.1011 41.0183 15.0223 41.0577 14.9303C41.0709 14.8908 41.0972 14.8646 41.1103 14.8251C41.1234 14.7989 41.1366 14.7594 41.1629 14.7331L45.9863 23.7097Z" fill="#3B82F6"/>
<path d="M44.4491 31.3194C44.2782 31.7531 44.0942 32.1869 43.8971 32.6074L36.6816 19.4514C36.7605 19.412 36.8394 19.3594 36.9182 19.3069C37.0365 19.228 37.1679 19.1492 37.2862 19.0703C37.3125 19.044 37.3519 19.0309 37.3782 19.0046C37.4571 18.952 37.5359 18.8994 37.6148 18.8469L44.4491 31.3194Z" fill="#3B82F6"/>
<path d="M43.897 32.6074C43.7525 32.936 43.5816 33.2646 43.4239 33.5932L35.8799 19.8852C36.0902 19.78 36.3136 19.6617 36.5239 19.5434C36.5765 19.5172 36.629 19.4777 36.6816 19.4514L43.897 32.6074Z" fill="#3B82F6"/>
<path d="M43.424 33.5931C43.2794 33.8823 43.1217 34.1583 42.964 34.4343L35.1309 20.24C35.144 20.24 35.144 20.2268 35.1571 20.2268C35.2097 20.2006 35.2623 20.1874 35.3149 20.1611C35.4463 20.1086 35.5646 20.0428 35.696 19.9903C35.7617 19.964 35.8143 19.9246 35.88 19.8983L43.424 33.5931Z" fill="#3B82F6"/>
<path d="M42.9641 34.4343C42.8327 34.6708 42.6881 34.9074 42.5436 35.1308C42.5436 35.144 42.5304 35.144 42.5304 35.144C42.5173 35.1571 42.5173 35.1703 42.5041 35.1834L36.1036 23.6177L36.0904 23.6045C36.0904 23.5783 36.0773 23.5651 36.0641 23.5388C36.0641 23.5257 36.051 23.4994 36.051 23.4863C36.0378 23.46 36.0378 23.4468 36.0247 23.4205C36.0116 23.368 35.9853 23.3285 35.959 23.276C35.959 23.2628 35.959 23.2628 35.9458 23.2628C35.9327 23.2365 35.9196 23.2103 35.9064 23.1708C35.8933 23.1445 35.8801 23.1183 35.867 23.092C35.8538 23.0788 35.8538 23.0525 35.8407 23.0394C35.7356 22.8291 35.6041 22.6451 35.4595 22.4743L34.3818 20.5291C34.4476 20.516 34.5001 20.4897 34.5658 20.4634C34.6841 20.424 34.7893 20.3845 34.9076 20.3451C34.9733 20.3188 35.0521 20.2794 35.131 20.2531L42.9641 34.4343Z" fill="#3B82F6"/>
<path d="M34.382 20.516L35.4597 22.4611C35.2362 22.1851 34.9734 21.9486 34.6711 21.7514C34.4608 21.6068 34.2505 21.4886 34.014 21.3834L33.9745 21.3571L33.6328 20.7394C33.646 20.7394 33.646 20.7394 33.6591 20.7263C33.6722 20.7263 33.6854 20.7131 33.6985 20.7131C33.8168 20.6737 33.9351 20.6474 34.0534 20.608C34.106 20.5948 34.1454 20.5686 34.198 20.5554C34.2637 20.5554 34.3294 20.5423 34.382 20.516Z" fill="#3B82F6"/>
<path d="M42.504 35.1966C42.4908 35.2229 42.4777 35.236 42.4645 35.2623C42.4251 35.328 42.3725 35.3937 42.3331 35.4594C42.2674 35.5514 42.2148 35.6566 42.136 35.7486C42.1097 35.8012 42.0834 35.8406 42.044 35.88C42.044 35.8932 42.0308 35.8932 42.0308 35.9063L36.2874 25.5366C36.2874 25.5234 36.2874 25.4972 36.2874 25.484C36.2874 25.4709 36.2874 25.4446 36.2874 25.4314C36.2874 25.4183 36.2874 25.4052 36.2874 25.392C36.2874 25.3789 36.2874 25.3657 36.2874 25.3526C36.2874 25.3263 36.2874 25.3 36.2874 25.2737C36.2874 25.2474 36.2874 25.2212 36.2874 25.1949C36.2874 25.1817 36.2874 25.1554 36.2874 25.1292V25.1029C36.2874 25.0897 36.2874 25.0634 36.2874 25.0503V25.0109C36.2874 24.9452 36.2874 24.8926 36.2874 24.84C36.2874 24.7874 36.2874 24.7349 36.2743 24.6692C36.2743 24.6429 36.2743 24.6034 36.2611 24.5772C36.2611 24.564 36.2611 24.5377 36.2611 24.5114V24.4983C36.2611 24.4852 36.2611 24.4852 36.2611 24.472V24.4589C36.2611 24.4194 36.248 24.38 36.248 24.3406C36.248 24.3012 36.2348 24.2617 36.2348 24.2223C36.2348 24.2092 36.2348 24.196 36.2217 24.1829C36.2217 24.1697 36.2085 24.1434 36.2085 24.1172C36.2085 24.0777 36.1954 24.0514 36.1954 24.0252C36.1823 23.9857 36.1823 23.9594 36.1691 23.9332C36.156 23.8674 36.1297 23.7886 36.1165 23.7229C36.1165 23.7229 36.1165 23.7229 36.1165 23.7097C36.1034 23.6703 36.1034 23.644 36.0903 23.6177C36.0903 23.5914 36.0771 23.5783 36.064 23.552L36.0771 23.5652L42.504 35.1966Z" fill="#3B82F6"/>
<path d="M33.6327 20.7526L33.9744 21.3703C33.659 21.2257 33.3173 21.1206 32.9493 21.0548C32.9362 21.0548 32.923 21.0549 32.9099 21.0417C32.8967 21.0417 32.8836 21.0417 32.8704 21.0286L32.8179 20.9366C32.831 20.9366 32.831 20.9366 32.8442 20.9234C32.8573 20.9234 32.8573 20.9234 32.8704 20.9234C32.9624 20.9103 33.0676 20.884 33.1596 20.8577C33.1727 20.8577 33.199 20.8446 33.2122 20.8446C33.2779 20.8314 33.3436 20.8183 33.4224 20.792C33.5013 20.7788 33.567 20.7657 33.6327 20.7526Z" fill="#3B82F6"/>
<path d="M42.0308 35.9194C41.9782 35.9983 41.9256 36.0772 41.8599 36.156C41.7679 36.3006 41.6628 36.4451 41.5708 36.5766C41.5576 36.5897 41.5576 36.5897 41.5576 36.5897C41.5445 36.6029 41.5445 36.6029 41.5314 36.616L36.0508 26.7326C36.0508 26.7194 36.0639 26.7063 36.0639 26.6931C36.0639 26.68 36.0771 26.68 36.0771 26.6669C36.0771 26.6669 36.0771 26.6669 36.0771 26.6537V26.6406C36.0771 26.6406 36.0771 26.6406 36.0771 26.6274C36.0902 26.588 36.1034 26.5354 36.1165 26.4829C36.1296 26.4566 36.1296 26.4303 36.1428 26.404C36.1428 26.3909 36.1428 26.3909 36.1428 26.3777C36.1559 26.312 36.1691 26.2463 36.1822 26.1806C36.1954 26.1149 36.2085 26.0623 36.2216 25.9966C36.2216 25.9834 36.2216 25.9703 36.2348 25.9571C36.2348 25.944 36.2348 25.944 36.2348 25.9309C36.2348 25.9177 36.2479 25.8914 36.2479 25.8783C36.2611 25.8389 36.2611 25.7994 36.2611 25.76C36.2611 25.7469 36.2742 25.7206 36.2742 25.7074C36.2742 25.6811 36.2874 25.6549 36.2874 25.6286C36.2874 25.6154 36.2874 25.5891 36.3005 25.576C36.3005 25.5629 36.3005 25.5366 36.3005 25.5234L42.0308 35.9194Z" fill="#3B82F6"/>
<path d="M32.8181 20.9366L32.8706 21.0286C32.7655 21.0154 32.6735 20.9891 32.5684 20.976C32.6604 20.9628 32.7392 20.9497 32.8181 20.9366Z" fill="#3B82F6"/>
<path d="M41.5315 36.616C41.5184 36.6554 41.4921 36.6817 41.4658 36.708C41.4395 36.7474 41.4132 36.7869 41.3738 36.8263L35.9458 27.048C35.9589 27.0349 35.9589 27.0217 35.9589 27.0086C35.9721 26.9691 35.9852 26.9429 35.9984 26.9034C35.9984 26.8903 36.0115 26.8903 36.0115 26.8771C36.0115 26.8771 36.0115 26.8771 36.0115 26.864C36.0247 26.8246 36.0378 26.772 36.0509 26.7326L41.5315 36.616Z" fill="#3B82F6"/>
<path d="M27.8627 45.4874C27.061 45.6714 26.233 45.7897 25.3918 45.8817C24.6032 45.9606 23.8015 46 22.9998 46C14.8118 46 7.63581 41.7286 3.56152 35.2886L19.3461 35.5777L22.1192 35.6303L27.8627 45.4874Z" fill="#3B82F6"/>
<path d="M37.6147 18.8337C37.5358 18.8862 37.457 18.9388 37.3781 18.9914C37.3387 19.0177 37.3124 19.0439 37.2861 19.0571C37.3781 18.9914 37.4833 18.9257 37.5753 18.8599C37.5884 18.8468 37.6016 18.8468 37.6147 18.8337Z" fill="white"/>
<path d="M35.9458 27.048C35.9589 27.0348 35.9589 27.0217 35.9589 27.0085C35.9589 27.0217 35.9458 27.0348 35.9458 27.048Z" fill="white"/>
<path d="M26.7456 35.052C26.8639 35.0125 26.9953 34.9862 27.1136 34.9468C27.1662 34.9337 27.2187 34.9074 27.2713 34.8942C27.1005 34.9468 26.9296 34.9994 26.7456 35.052Z" fill="white"/>
<path d="M26.2461 35.1834C26.2724 35.1702 26.2987 35.1702 26.325 35.1702C26.3775 35.1571 26.4432 35.1439 26.4958 35.1308C26.5747 35.1045 26.6667 35.0914 26.7455 35.0651C26.5878 35.0914 26.417 35.1439 26.2461 35.1834Z" fill="white"/>
<path d="M35.9458 27.048C35.9589 27.0348 35.9589 27.0217 35.9589 27.0085C35.9589 27.0217 35.9458 27.0348 35.9458 27.048Z" fill="white"/>
<path d="M26.7456 35.052C26.8639 35.0125 26.9953 34.9862 27.1136 34.9468C27.1662 34.9337 27.2187 34.9074 27.2713 34.8942C27.1005 34.9468 26.9296 34.9994 26.7456 35.052Z" fill="white"/>
<path d="M26.2461 35.1834C26.2724 35.1702 26.2987 35.1702 26.325 35.1702C26.3775 35.1571 26.4432 35.1439 26.4958 35.1308C26.5747 35.1045 26.6667 35.0914 26.7455 35.0651C26.5878 35.0914 26.417 35.1439 26.2461 35.1834Z" fill="white"/>
<path d="M25.5892 24.9451C25.576 24.932 25.5498 24.932 25.5366 24.932C25.5629 24.9451 25.6023 24.9583 25.6286 24.9714C25.6155 24.9583 25.6023 24.9583 25.5892 24.9451Z" fill="white"/>
<path d="M25.9043 25.1422C25.9043 25.1422 25.9174 25.1554 25.9174 25.1685C25.9174 25.1554 25.9043 25.1554 25.9043 25.1422Z" fill="white"/>
<path d="M35.9458 27.048C35.9589 27.0348 35.9589 27.0217 35.9589 27.0085C35.9589 27.0217 35.9458 27.0348 35.9458 27.048Z" fill="white"/>
<path d="M35.998 23.3286C35.9848 23.3023 35.9848 23.2891 35.9717 23.2628C35.998 23.3154 36.0111 23.3548 36.0374 23.4074C36.0243 23.3811 36.0111 23.3548 35.998 23.3286Z" fill="white"/>
<path d="M36.1952 23.92C36.182 23.8674 36.1689 23.8148 36.1558 23.7754C36.1689 23.8411 36.1952 23.92 36.2083 23.9857C36.1952 23.9594 36.1952 23.9463 36.1952 23.92Z" fill="white"/>
<path d="M36.2871 24.4982V24.5114C36.2871 24.5245 36.2871 24.5245 36.2871 24.5377V24.5245C36.3003 24.5245 36.2871 24.5114 36.2871 24.4982Z" fill="white"/>
<path d="M29.7949 33.8297C29.8081 33.8297 29.8081 33.8165 29.8212 33.8165C29.8212 33.8165 29.8081 33.8165 29.7949 33.8297Z" fill="white"/>
<path d="M26.7456 35.052C26.8639 35.0125 26.9953 34.9862 27.1136 34.9468C27.1662 34.9337 27.2187 34.9074 27.2713 34.8942C27.1005 34.9468 26.9296 34.9994 26.7456 35.052Z" fill="white"/>
<path d="M26.2461 35.1834C26.2724 35.1702 26.2987 35.1702 26.325 35.1702C26.3775 35.1571 26.4432 35.1439 26.4958 35.1308C26.5747 35.1045 26.6667 35.0914 26.7455 35.0651C26.5878 35.0914 26.417 35.1439 26.2461 35.1834Z" fill="white"/>
<path d="M36.6816 19.4514C36.6291 19.4908 36.5765 19.5171 36.5239 19.5434C36.5765 19.5171 36.6291 19.4777 36.6816 19.4514C36.7605 19.412 36.8394 19.3594 36.9182 19.3068C36.8394 19.3594 36.7605 19.3988 36.6816 19.4514Z" fill="white"/>
<path d="M41.3867 10.3565C41.3867 10.3434 41.3735 10.3434 41.3735 10.3302C41.3867 10.3434 41.3867 10.3565 41.3998 10.3828C41.3998 10.3697 41.3998 10.3565 41.3867 10.3565Z" fill="white"/>
<path d="M41.4394 10.4486L41.4263 10.4354C41.4394 10.4486 41.4394 10.4617 41.4394 10.4748C41.4394 10.4617 41.4394 10.4486 41.4394 10.4486Z" fill="white"/>
<path d="M41.7417 12.8143C41.7417 12.8011 41.7417 12.8011 41.7417 12.8143C41.7417 12.788 41.7548 12.7748 41.7548 12.7617C41.7417 12.7748 41.7417 12.788 41.7417 12.8143Z" fill="white"/>
<path d="M26.7456 35.052C26.8639 35.0125 26.9953 34.9862 27.1136 34.9468C27.1662 34.9337 27.2187 34.9074 27.2713 34.8942C27.1005 34.9468 26.9296 34.9994 26.7456 35.052Z" fill="white"/>
<path d="M26.2461 35.1834C26.2724 35.1702 26.2987 35.1702 26.325 35.1702C26.3775 35.1571 26.4432 35.1439 26.4958 35.1308C26.5747 35.1045 26.6667 35.0914 26.7455 35.0651C26.5878 35.0914 26.417 35.1439 26.2461 35.1834Z" fill="white"/>
<path d="M35.9458 27.048C35.9589 27.0348 35.9589 27.0217 35.9589 27.0085C35.9589 27.0217 35.9458 27.0348 35.9458 27.048Z" fill="white"/>
<path d="M26.7456 35.052C26.8639 35.0125 26.9953 34.9862 27.1136 34.9468C27.1662 34.9337 27.2187 34.9074 27.2713 34.8942C27.1005 34.9468 26.9296 34.9994 26.7456 35.052Z" fill="white"/>
<path d="M26.2461 35.1834C26.2724 35.1702 26.2987 35.1702 26.325 35.1702C26.3775 35.1571 26.4432 35.1439 26.4958 35.1308C26.5747 35.1045 26.6667 35.0914 26.7455 35.0651C26.5878 35.0914 26.417 35.1439 26.2461 35.1834Z" fill="white"/>
<path d="M35.9458 27.048C35.9589 27.0348 35.9589 27.0217 35.9589 27.0085C35.9589 27.0217 35.9458 27.0348 35.9458 27.048Z" fill="white"/>
<path d="M26.7456 35.052C26.8639 35.0125 26.9953 34.9862 27.1136 34.9468C27.1662 34.9337 27.2187 34.9074 27.2713 34.8942C27.1005 34.9468 26.9296 34.9994 26.7456 35.052Z" fill="white"/>
<path d="M26.2461 35.1834C26.2724 35.1702 26.2987 35.1702 26.325 35.1702C26.3775 35.1571 26.4432 35.1439 26.4958 35.1308C26.5747 35.1045 26.6667 35.0914 26.7455 35.0651C26.5878 35.0914 26.417 35.1439 26.2461 35.1834Z" fill="white"/>
<path d="M35.9458 27.048C35.9589 27.0348 35.9589 27.0217 35.9589 27.0085C35.9589 27.0217 35.9458 27.0348 35.9458 27.048Z" fill="white"/>
<path d="M42.5432 35.144C42.5432 35.1571 42.53 35.1571 42.53 35.1571L35.998 23.3417C35.9849 23.3154 35.9849 23.3023 35.9718 23.276C35.9718 23.2629 35.9718 23.2628 35.9586 23.2628C35.9455 23.2366 35.9323 23.2103 35.9192 23.1708C35.906 23.1446 35.8929 23.1183 35.8798 23.092C35.8666 23.0788 35.8666 23.0526 35.8535 23.0394C35.8535 23.0263 35.8403 23.0131 35.8403 23L42.5432 35.144Z" fill="#3B82F6"/>
<path d="M42.5301 35.1571C42.5169 35.1703 42.5169 35.1834 42.5038 35.1965C42.4907 35.2228 42.4775 35.236 42.4644 35.2623L36.1952 23.92C36.1821 23.8674 36.1689 23.8148 36.1558 23.7754C36.1558 23.7754 36.1558 23.7754 36.1558 23.7623C36.1427 23.7228 36.1427 23.6965 36.1295 23.6703C36.1295 23.6571 36.1164 23.644 36.1164 23.6308C36.1032 23.6045 36.0901 23.5651 36.0769 23.5388C36.0769 23.5257 36.0638 23.4994 36.0638 23.4863C36.0507 23.46 36.0507 23.4468 36.0375 23.4205C36.0244 23.3943 36.0244 23.368 36.0112 23.3417L42.5301 35.1571Z" fill="#3B82F6"/>
<path d="M42.4649 35.2622C42.4255 35.328 42.3729 35.3937 42.3335 35.4594L36.3009 24.5377V24.5245C36.3009 24.5245 36.3009 24.5245 36.3009 24.5114V24.4982C36.3009 24.4588 36.2878 24.4194 36.2878 24.38C36.2878 24.3405 36.2747 24.3011 36.2747 24.2617C36.2747 24.2485 36.2747 24.2354 36.2615 24.2222C36.2615 24.2091 36.2484 24.1828 36.2484 24.1565C36.2484 24.1171 36.2352 24.0908 36.2352 24.0645C36.2221 24.0251 36.2221 23.9988 36.2089 23.9725C36.2089 23.9594 36.1958 23.9331 36.1958 23.92L42.4649 35.2622Z" fill="#3B82F6"/>
<path d="M42.3333 35.4594C42.2676 35.5514 42.215 35.6566 42.1362 35.7486L36.3139 25.2211C36.3139 25.208 36.3139 25.1817 36.3139 25.1554V25.1291C36.3139 25.116 36.3139 25.0897 36.3139 25.0766V25.0371C36.3139 24.9714 36.3139 24.9189 36.3139 24.8663C36.3139 24.8137 36.3139 24.7611 36.3007 24.6954C36.3007 24.6691 36.3007 24.6297 36.2876 24.6034C36.2876 24.5903 36.2876 24.564 36.2876 24.5377V24.5246L42.3333 35.4594Z" fill="#3B82F6"/>
<path d="M42.136 35.7486C42.1097 35.8012 42.0834 35.8406 42.044 35.88C42.044 35.8932 42.0308 35.8932 42.0308 35.9063C41.9782 35.9852 41.9257 36.064 41.86 36.1429L36.2217 25.9703C36.2217 25.9572 36.2217 25.9572 36.2217 25.944C36.2217 25.9309 36.2348 25.9046 36.2348 25.8914C36.248 25.852 36.248 25.8126 36.248 25.7732C36.248 25.76 36.2611 25.7337 36.2611 25.7206C36.2611 25.6943 36.2743 25.668 36.2743 25.6417C36.2743 25.6286 36.2743 25.6023 36.2874 25.5892C36.2874 25.576 36.2874 25.5497 36.2874 25.5366C36.2874 25.5234 36.2874 25.5234 36.2874 25.5234V25.484C36.2874 25.4709 36.2874 25.4446 36.2874 25.4314C36.2874 25.4183 36.2874 25.4052 36.2874 25.392C36.2874 25.3789 36.2874 25.3657 36.2874 25.3526C36.2874 25.3263 36.2874 25.3 36.2874 25.2737C36.2874 25.2474 36.2874 25.2212 36.2874 25.1949L42.136 35.7486Z" fill="#3B82F6"/>
<path d="M41.8598 36.156C41.7678 36.3006 41.6626 36.4451 41.5706 36.5766C41.5575 36.5897 41.5575 36.5897 41.5575 36.5897C41.5443 36.6029 41.5443 36.6029 41.5312 36.616C41.518 36.6554 41.4918 36.6817 41.4655 36.708L35.998 26.8771C35.998 26.8771 35.998 26.8771 35.998 26.864C36.0112 26.8246 36.0243 26.772 36.0375 26.7326C36.0375 26.7194 36.0506 26.7063 36.0506 26.6931C36.0506 26.68 36.0638 26.68 36.0638 26.6669C36.0638 26.6669 36.0638 26.6669 36.0638 26.6537V26.6406C36.0638 26.6406 36.0638 26.6406 36.0638 26.6274C36.0769 26.588 36.09 26.5354 36.1032 26.4829C36.1163 26.4566 36.1163 26.4303 36.1295 26.404C36.1295 26.3909 36.1295 26.3909 36.1295 26.3777C36.1426 26.312 36.1558 26.2463 36.1689 26.1806C36.182 26.1149 36.1952 26.0623 36.2083 25.9966C36.2083 25.9834 36.2083 25.9703 36.2215 25.9571L41.8598 36.156Z" fill="#3B82F6"/>
<path d="M41.4654 36.708C41.4391 36.7474 41.4129 36.7868 41.3734 36.8263C41.1894 37.076 41.0054 37.3257 40.7951 37.5623L35.5117 28.0863C35.5117 28.0731 35.5249 28.0731 35.5249 28.06C35.5249 28.0468 35.538 28.0337 35.538 28.0337C35.538 28.0206 35.5511 28.0074 35.5511 28.0074C35.5511 27.9943 35.5643 27.9811 35.5643 27.9811C35.6037 27.8891 35.6563 27.7971 35.6826 27.7051C35.7089 27.6394 35.7483 27.5606 35.7746 27.4948C35.7877 27.4817 35.7877 27.4554 35.8009 27.4291C35.814 27.4028 35.8271 27.3634 35.8403 27.3371C35.8666 27.2714 35.8797 27.2188 35.906 27.1663C35.9191 27.1268 35.9323 27.1006 35.9323 27.0743C35.9323 27.0611 35.9454 27.048 35.9454 27.0348C35.9586 26.9954 35.9717 26.9691 35.9849 26.9297C35.9849 26.9166 35.998 26.9166 35.998 26.9034L41.4654 36.708Z" fill="#3B82F6"/>
<path d="M40.8086 37.5623C40.8086 37.5754 40.7954 37.5754 40.7954 37.5754C40.664 37.7331 40.5457 37.8777 40.4143 38.0354C40.1251 38.3771 39.8097 38.7057 39.4943 39.0343C39.3103 39.2183 39.1263 39.4154 38.9291 39.5994L38.916 39.6125C38.7583 39.7571 38.6006 39.9148 38.4428 40.0594C38.3771 40.112 38.3246 40.1645 38.2588 40.2171C38.1011 40.3617 37.9434 40.4931 37.7857 40.6245C37.7594 40.6508 37.7331 40.664 37.7068 40.6903C37.5097 40.8611 37.3126 41.0188 37.1023 41.1765C36.984 41.2685 36.8788 41.3474 36.7606 41.4394C36.6817 41.492 36.6028 41.5577 36.524 41.6103L31.5034 32.752C31.648 32.6468 31.7926 32.5417 31.924 32.4365C32.0028 32.3708 32.0948 32.3051 32.1737 32.2394C32.2657 32.1737 32.3446 32.0948 32.4234 32.0291C32.4366 32.016 32.4628 32.0028 32.476 31.9897C32.5417 31.9371 32.5943 31.8845 32.66 31.8188C32.6994 31.7794 32.7388 31.7531 32.7783 31.7137C32.8046 31.6874 32.8308 31.6611 32.8571 31.6348C32.9228 31.5691 32.9886 31.5165 33.0411 31.4508C33.12 31.372 33.1988 31.3063 33.2777 31.2143C33.3303 31.1617 33.3828 31.1091 33.4354 31.0565C33.5931 30.8988 33.7377 30.728 33.8823 30.5571C33.9611 30.4651 34.0531 30.36 34.132 30.2548C34.2108 30.1628 34.2897 30.0577 34.3554 29.9657L34.3686 29.9525C34.3817 29.9394 34.3948 29.9131 34.408 29.9C34.4211 29.8868 34.4211 29.8868 34.4343 29.8737C34.4868 29.808 34.5394 29.7291 34.5788 29.6634C34.6577 29.5583 34.7234 29.4531 34.7891 29.348C34.8154 29.3085 34.8417 29.2691 34.8548 29.2297C34.8943 29.164 34.9468 29.0983 34.9731 29.0325C35.0651 28.8748 35.1571 28.7171 35.2491 28.5594C35.2886 28.4937 35.328 28.4148 35.3674 28.3491C35.4068 28.2703 35.4594 28.1783 35.4988 28.0994L40.8086 37.5623Z" fill="#3B82F6"/>
<path d="M36.5503 41.5971C36.2611 41.8074 35.972 42.0177 35.6697 42.2017C35.604 42.2543 35.5251 42.2937 35.4463 42.3463L30.3994 33.488C30.452 33.4617 30.5046 33.4223 30.544 33.396C30.5703 33.3828 30.5966 33.3697 30.6097 33.3566C30.636 33.3434 30.6491 33.3303 30.6754 33.3171C30.7674 33.2514 30.8726 33.1988 30.9646 33.1331C31.0303 33.0937 31.096 33.0411 31.1748 33.0017C31.2011 32.9886 31.2274 32.9623 31.2537 32.9491C31.3457 32.8834 31.4377 32.8177 31.5297 32.752L36.5503 41.5971Z" fill="#3B82F6"/>
<path d="M35.4461 42.3463C35.2621 42.4646 35.0781 42.5829 34.8941 42.688C34.881 42.688 34.8679 42.7011 34.8547 42.7011C34.7627 42.7537 34.6839 42.8063 34.5919 42.8589C34.5656 42.872 34.5261 42.8983 34.4999 42.9114L29.4136 34.0137C29.453 34.0006 29.4793 33.9743 29.5056 33.9611C29.5581 33.9349 29.6107 33.9086 29.6501 33.8823C29.6896 33.856 29.729 33.8429 29.7684 33.8166C29.7816 33.8166 29.7947 33.8034 29.7947 33.8034C29.8079 33.8034 29.8079 33.7903 29.821 33.7903C29.8473 33.7771 29.8604 33.764 29.8867 33.7509C29.9656 33.7114 30.0444 33.6589 30.1364 33.6194C30.1496 33.6194 30.1496 33.6063 30.1627 33.6063C30.1759 33.5931 30.1759 33.5931 30.189 33.5931C30.2153 33.58 30.2416 33.5537 30.281 33.5406C30.3073 33.5274 30.3467 33.5011 30.373 33.488L35.4461 42.3463Z" fill="#3B82F6"/>
<path d="M34.5126 42.9246C34.2235 43.0954 33.9212 43.2663 33.6189 43.4108L28.4932 34.4474C28.572 34.408 28.6509 34.3817 28.7297 34.3423C28.8086 34.3028 28.8874 34.2766 28.9663 34.2371C29.0452 34.1977 29.124 34.1714 29.2029 34.132C29.2817 34.0926 29.3606 34.0531 29.4394 34.0137L34.5126 42.9246Z" fill="#3B82F6"/>
<path d="M33.6198 43.4109C33.3307 43.5686 33.0284 43.7131 32.7261 43.8577L27.5347 34.8154C27.6135 34.7891 27.6924 34.7629 27.7844 34.7234C27.8632 34.6971 27.9421 34.6709 28.021 34.6314C28.0998 34.6051 28.1787 34.5657 28.2575 34.5394C28.3364 34.5131 28.4152 34.4737 28.4941 34.4474L33.6198 43.4109Z" fill="#3B82F6"/>
<path d="M32.7127 43.8577C32.3972 44.0023 32.0818 44.1469 31.7664 44.2783L26.4961 35.1309L26.759 35.0651C26.851 35.0389 26.9298 35.0126 27.0218 34.9863C27.0481 34.9731 27.0875 34.9731 27.1138 34.96C27.1664 34.9469 27.219 34.9206 27.2715 34.9074C27.311 34.8943 27.3372 34.8811 27.3767 34.868C27.4161 34.8549 27.4424 34.8417 27.4818 34.8286C27.495 34.8286 27.5212 34.8154 27.5344 34.8154L32.7127 43.8577Z" fill="#3B82F6"/>
<path d="M31.7794 44.2651C31.4245 44.4097 31.0696 44.5411 30.7148 44.6725L25.3394 35.3805C25.4314 35.3674 25.5365 35.3411 25.6285 35.328C25.6679 35.3148 25.6942 35.3148 25.7205 35.3017C25.7862 35.2885 25.8519 35.2754 25.9176 35.2622C25.9702 35.2491 26.0228 35.236 26.0754 35.2228C26.1148 35.2097 26.1674 35.2097 26.2068 35.1965C26.2462 35.1834 26.2856 35.1834 26.3251 35.1703C26.3776 35.1571 26.4434 35.144 26.4959 35.1308L31.7794 44.2651Z" fill="#3B82F6"/>
<path d="M30.7148 44.6726C30.2942 44.8303 29.8736 44.9617 29.4399 45.08L23.9199 35.5646C24.0382 35.5514 24.1565 35.5383 24.2748 35.5251C24.3011 35.5251 24.3142 35.5251 24.3405 35.512C24.4325 35.4989 24.5376 35.4857 24.6296 35.4726C24.6559 35.4726 24.6822 35.4594 24.7085 35.4594C24.8005 35.4463 24.8925 35.4331 24.9845 35.42C25.0502 35.4069 25.1291 35.3937 25.1948 35.3806C25.2342 35.3674 25.2868 35.3674 25.3262 35.3543L30.7148 44.6726Z" fill="#3B82F6"/>
<path d="M29.4402 45.08C29.2168 45.1457 29.0065 45.2114 28.7831 45.264C28.4808 45.3428 28.1785 45.4085 27.8631 45.4742L22.1196 35.6302C22.2773 35.6302 22.4219 35.6302 22.5796 35.6302C22.7242 35.6302 22.8819 35.6302 23.0265 35.6171C23.0659 35.6171 23.1185 35.6171 23.1711 35.604C23.2762 35.604 23.3813 35.5908 23.4733 35.5908C23.6179 35.5777 23.7625 35.5645 23.9202 35.5514L29.4402 45.08Z" fill="#3B82F6"/>
</g>
<defs>
<clipPath id="clip0_13_11">
<rect width="46" height="46" fill="white"/>
</clipPath>
</defs>
</svg>
